<?xml version="1.0" encoding="UTF-8" standalone="no"?>
<!-- Generator: Adobe Illustrator 19.2.0, SVG Export Plug-In . SVG Version: 6.00 Build 0)  -->

<svg
   xmlns:dc="http://purl.org/dc/elements/1.1/"
   xmlns:cc="http://creativecommons.org/ns#"
   xmlns:rdf="http://www.w3.org/1999/02/22-rdf-syntax-ns#"
   xmlns:svg="http://www.w3.org/2000/svg"
   xmlns="http://www.w3.org/2000/svg"
   xmlns:sodipodi="http://sodipodi.sourceforge.net/DTD/sodipodi-0.dtd"
   xmlns:inkscape="http://www.inkscape.org/namespaces/inkscape"
   version="1.1"
   id="Layer_1"
   x="0px"
   y="0px"
   viewBox="0 0 32 32"
   enable-background="new 0 0 32 32"
   xml:space="preserve"
   inkscape:version="0.91 r13725"
   sodipodi:docname="icon - Copy.svg"><metadata
     id="metadata8"><rdf:RDF><cc:Work
         rdf:about=""><dc:format>image/svg+xml</dc:format><dc:type
           rdf:resource="http://purl.org/dc/dcmitype/StillImage" /><dc:title /></cc:Work></rdf:RDF></metadata><defs
     id="defs6" /><sodipodi:namedview
     pagecolor="#ffffff"
     bordercolor="#666666"
     borderopacity="1"
     objecttolerance="10"
     gridtolerance="10"
     guidetolerance="10"
     inkscape:pageopacity="0"
     inkscape:pageshadow="2"
     inkscape:window-width="1280"
     inkscape:window-height="962"
     id="namedview4"
     showgrid="false"
     inkscape:zoom="24.8125"
     inkscape:cx="16"
     inkscape:cy="16"
     inkscape:window-x="1272"
     inkscape:window-y="-8"
     inkscape:window-maximized="1"
     inkscape:current-layer="Layer_1" /><polygon
     style="fill:#6f6f6e;fill-rule:evenodd"
     id="polygon1020"
     points="9626.3,6056.8 9595.7,6082 9593.9,6083.8 9593.9,6118 9595.7,6118 9646.1,6105.4 9649.7,6103.7 9651.5,6103.7 9655.1,6105.4 9714.5,6123.4 9714.5,6089.2 9678.5,6058.7 9676.7,6058.7 9676.7,6055 9674.9,6053.2 9674.9,5979.4 9673.1,5979.4 9674.9,5977.6 9674.9,5975.8 9676.7,5975.8 9842.4,6031.6 9844.1,6031.6 9844.1,5990.2 9842.4,5988.4 9840.5,5986.6 9674.9,5885.8 9673.1,5885.8 9673.1,5882.2 9671.3,5765.2 9671.3,5759.8 9669.5,5759.8 9669.5,5756.3 9667.7,5756.3 9666,5754.4 9666,5750.8 9664.1,5750.8 9662.4,5749 9660.5,5749 9658.7,5747.2 9642.5,5747.2 9640.7,5749 9638.9,5749 9638.9,5750.8 9637.1,5752.6 9635.3,5754.4 9633.5,5754.4 9633.5,5758 9631.7,5758 9631.7,5759.8 9631.7,5761.6 9628.1,5885.8 9467.9,5970.4 9466.1,5972.2 9466.1,6015.4 9467.9,6017.2 9467.9,6015.4 9626.3,5974 9628.1,5974 9628.1,5975.8 9629.9,6053.2 9629.9,6055 9628.1,6056.8 "
     transform="matrix(0.08201058,0,0,0.08201058,-775.73974,-470.9186)" /></svg>