<?xml version="1.0" encoding="UTF-8" standalone="no"?>
<!-- Generator: Adobe Illustrator 19.2.0, SVG Export Plug-In . SVG Version: 6.00 Build 0)  -->

<svg
   xmlns:dc="http://purl.org/dc/elements/1.1/"
   xmlns:cc="http://creativecommons.org/ns#"
   xmlns:rdf="http://www.w3.org/1999/02/22-rdf-syntax-ns#"
   xmlns:svg="http://www.w3.org/2000/svg"
   xmlns="http://www.w3.org/2000/svg"
   xmlns:sodipodi="http://sodipodi.sourceforge.net/DTD/sodipodi-0.dtd"
   xmlns:inkscape="http://www.inkscape.org/namespaces/inkscape"
   version="1.1"
   id="Layer_1"
   x="0px"
   y="0px"
   viewBox="0 0 32 32"
   enable-background="new 0 0 32 32"
   xml:space="preserve"
   inkscape:version="0.91 r13725"
   sodipodi:docname="icon - Copy (50) - Copy.svg"><metadata
     id="metadata8"><rdf:RDF><cc:Work
         rdf:about=""><dc:format>image/svg+xml</dc:format><dc:type
           rdf:resource="http://purl.org/dc/dcmitype/StillImage" /><dc:title /></cc:Work></rdf:RDF></metadata><defs
     id="defs6" /><sodipodi:namedview
     pagecolor="#ffffff"
     bordercolor="#666666"
     borderopacity="1"
     objecttolerance="10"
     gridtolerance="10"
     guidetolerance="10"
     inkscape:pageopacity="0"
     inkscape:pageshadow="2"
     inkscape:window-width="1280"
     inkscape:window-height="962"
     id="namedview4"
     showgrid="false"
     inkscape:zoom="24.8125"
     inkscape:cx="16"
     inkscape:cy="16"
     inkscape:window-x="1272"
     inkscape:window-y="-8"
     inkscape:window-maximized="1"
     inkscape:current-layer="Layer_1" /><polygon
     style="fill:#6f6f6e;fill-rule:evenodd"
     id="polygon1012"
     points="9748.2,4893.5 9714.1,4870.1 9710.5,4879.1 9730.2,4891.7 9753.6,4907.9 9780.6,4924.1 9782.4,4924.1 9782.4,4922.3 9782.4,4920.5 9766.2,4907.9 "
     transform="matrix(0.0812369,0,0,0.0812369,-768.01732,-389.24247)" /><polygon
     style="fill:#6f6f6e;fill-rule:evenodd"
     id="polygon1014"
     points="9699.6,4852.1 9697.8,4852.1 9696,4853.9 9692.4,4855.7 9690.6,4857.5 9688.8,4861.1 9687,4862.9 9703.2,4873.7 9706.8,4870.1 9706.8,4868.3 9708.6,4862.9 9708.6,4853.9 9706.8,4853.9 9706.8,4852.1 "
     transform="matrix(0.0812369,0,0,0.0812369,-768.01732,-389.24247)" /><polygon
     style="fill:#6f6f6e;fill-rule:evenodd"
     id="polygon1016"
     points="9640.2,4832.3 9678,4857.5 9687,4852.1 9667.2,4837.7 9640.2,4823.3 9613.2,4807.1 9611.4,4807.1 9611.4,4808.9 9613.2,4808.9 9629.4,4823.3 "
     transform="matrix(0.0812369,0,0,0.0812369,-768.01732,-389.24247)" /><polygon
     style="fill:#6f6f6e;fill-rule:evenodd"
     id="polygon1018"
     points="9471,4823.3 9465.6,4832.3 9462,4835.9 9460.2,4839.5 9460.2,4846.7 9462,4852.1 9463.8,4853.9 9469.2,4855.7 9611.4,4967.3 9555.6,5095.1 9539.4,5086.1 9530.5,5082.5 9519.6,5082.5 9517.8,5084.3 9514.2,5084.3 9514.2,5086.1 9512.4,5087.9 9508.8,5089.7 9507,5096.9 9503.4,5100.5 9501.7,5105.9 9541.2,5136.5 9539.4,5138.3 9537.6,5143.7 9535.8,5149.1 9534.1,5152.7 9532.2,5156.3 9532.2,5161.7 9534.1,5163.5 9535.8,5165.3 9539.4,5165.3 9543,5163.5 9546.7,5161.7 9548.4,5159.9 9550.2,5158.1 9553.8,5154.5 9557.4,5150.9 9557.4,5149.1 9600.6,5177.9 9606,5170.7 9609.6,5161.7 9611.4,5154.5 9613.2,5150.9 9611.4,5143.7 9600.6,5131.1 9586.2,5114.9 9656.4,4997.9 9804.1,5104.1 9809.4,5104.1 9813,5102.3 9816.7,5100.5 9831,5080.7 9838.2,5071.7 9840,5068.1 9841.8,5062.7 9841.8,5057.3 9840,5053.7 9840,5051.9 9838.2,5048.3 9688.8,4940.3 9699.6,4920.5 9708.6,4906.1 9710.5,4900.7 9712.2,4897.1 9712.2,4891.7 9708.6,4888.1 9705,4884.5 9690.6,4873.7 9683.4,4868.3 9676.2,4866.5 9670.8,4866.5 9670.8,4868.3 9665.5,4870.1 9660,4879.1 9652.8,4886.3 9645.6,4898.9 9642,4904.3 9507,4803.5 9501.7,4801.7 9498,4799.9 9490.8,4799.9 9487.2,4801.7 9483.6,4805.3 9480,4808.9 9474.6,4816.1 "
     transform="matrix(0.0812369,0,0,0.0812369,-768.01732,-389.24247)" /></svg>