<?xml version="1.0" encoding="UTF-8" standalone="no"?>
<!-- Generator: Adobe Illustrator 19.2.0, SVG Export Plug-In . SVG Version: 6.00 Build 0)  -->

<svg
   xmlns:dc="http://purl.org/dc/elements/1.1/"
   xmlns:cc="http://creativecommons.org/ns#"
   xmlns:rdf="http://www.w3.org/1999/02/22-rdf-syntax-ns#"
   xmlns:svg="http://www.w3.org/2000/svg"
   xmlns="http://www.w3.org/2000/svg"
   xmlns:sodipodi="http://sodipodi.sourceforge.net/DTD/sodipodi-0.dtd"
   xmlns:inkscape="http://www.inkscape.org/namespaces/inkscape"
   version="1.1"
   id="Layer_1"
   x="0px"
   y="0px"
   viewBox="0 0 32 32"
   enable-background="new 0 0 32 32"
   xml:space="preserve"
   inkscape:version="0.91 r13725"
   sodipodi:docname="icon - Copy (35).svg"><metadata
     id="metadata8"><rdf:RDF><cc:Work
         rdf:about=""><dc:format>image/svg+xml</dc:format><dc:type
           rdf:resource="http://purl.org/dc/dcmitype/StillImage" /><dc:title /></cc:Work></rdf:RDF></metadata><defs
     id="defs6" /><sodipodi:namedview
     pagecolor="#ffffff"
     bordercolor="#666666"
     borderopacity="1"
     objecttolerance="10"
     gridtolerance="10"
     guidetolerance="10"
     inkscape:pageopacity="0"
     inkscape:pageshadow="2"
     inkscape:window-width="1280"
     inkscape:window-height="962"
     id="namedview4"
     showgrid="false"
     inkscape:zoom="24.8125"
     inkscape:cx="16"
     inkscape:cy="16"
     inkscape:window-x="1272"
     inkscape:window-y="-8"
     inkscape:window-maximized="1"
     inkscape:current-layer="Layer_1" /><polygon
     style="fill:#6f6f6e;fill-rule:evenodd"
     id="polygon594"
     points="3747.2,2475.7 3776.1,2542.3 3740,2535.2 3740,2574.7 3790.5,2574.7 3790.5,2495.6 3776.1,2495.6 3831.9,2423.5 3887.7,2495.6 3873.3,2495.6 3873.3,2574.7 3994.1,2574.7 3792.2,2198.5 3595.1,2574.7 3723.9,2574.7 3723.9,2535.2 3686.1,2542.3 3714.8,2475.7 3702.2,2481.1 3716.7,2414.6 3711.3,2416.4 3731.1,2346.1 3750.9,2416.4 3743.6,2414.6 3759.8,2481.1 "
     transform="matrix(0.07769424,0,0,0.07769424,-278.81856,-169.78779)" /><polygon
     style="fill:#6f6f6e"
     id="polygon596"
     points="3819.2,2574.7 3819.2,2522.6 3819.2,2522.6 3849.8,2522.6 3849.8,2574.7 "
     transform="matrix(0.07769424,0,0,0.07769424,-278.81856,-169.78779)" /><path
     style="fill:#6f6f6e"
     inkscape:connector-curvature="0"
     id="path598"
     d="M 19.107735,28.23141" /></svg>