<?xml version="1.0" encoding="UTF-8" standalone="no"?>
<!-- Generator: Adobe Illustrator 19.2.0, SVG Export Plug-In . SVG Version: 6.00 Build 0)  -->

<svg
   xmlns:dc="http://purl.org/dc/elements/1.1/"
   xmlns:cc="http://creativecommons.org/ns#"
   xmlns:rdf="http://www.w3.org/1999/02/22-rdf-syntax-ns#"
   xmlns:svg="http://www.w3.org/2000/svg"
   xmlns="http://www.w3.org/2000/svg"
   xmlns:sodipodi="http://sodipodi.sourceforge.net/DTD/sodipodi-0.dtd"
   xmlns:inkscape="http://www.inkscape.org/namespaces/inkscape"
   version="1.1"
   id="Layer_1"
   x="0px"
   y="0px"
   viewBox="0 0 32 32"
   enable-background="new 0 0 32 32"
   xml:space="preserve"
   inkscape:version="0.91 r13725"
   sodipodi:docname="icon - Copy (33).svg"><metadata
     id="metadata8"><rdf:RDF><cc:Work
         rdf:about=""><dc:format>image/svg+xml</dc:format><dc:type
           rdf:resource="http://purl.org/dc/dcmitype/StillImage" /><dc:title /></cc:Work></rdf:RDF></metadata><defs
     id="defs6" /><sodipodi:namedview
     pagecolor="#ffffff"
     bordercolor="#666666"
     borderopacity="1"
     objecttolerance="10"
     gridtolerance="10"
     guidetolerance="10"
     inkscape:pageopacity="0"
     inkscape:pageshadow="2"
     inkscape:window-width="1280"
     inkscape:window-height="962"
     id="namedview4"
     showgrid="false"
     inkscape:zoom="24.8125"
     inkscape:cx="16"
     inkscape:cy="16"
     inkscape:window-x="1272"
     inkscape:window-y="-8"
     inkscape:window-maximized="1"
     inkscape:current-layer="Layer_1" /><path
     style="fill:#6f6f6e;fill-rule:evenodd"
     inkscape:connector-curvature="0"
     id="path502"
     d="m 14.285998,30.031846 0,-7.277 0.1455,-0.43662 0.4367,-0.58215 0.7277,-0.58216 0.8732,-0.43662 1.0188,-0.14554 2.3286,0 1.1643,0.14554 0.8733,0.43662 0.5821,0.43662 0.4366,0.58216 0.1456,0.58215 0,7.277 8.2958,0 0,-1.4554 -2.1831,0 0,-15.43531 2.3286,0 0,-2.61972 -15.5728,-7.1314597 -4.3662,2.03756 0,-3.05634 -6.2582004,0 0,5.97522 -4.80279991,2.3286397 0,2.47418 2.18309991,0 0,15.42723 -2.03759991,0 0,1.4554 13.68080031,0 0,0 z m -0.7358,-13.38967 0,-3.6385 -0.1455,-0.29108 -0.4367,-0.58216 -0.4366,-0.43662 -0.5821,-0.29108 -1.3099,0 -0.4366,0.14554 -0.4366004,0.14554 -0.2911,0.29108 -0.1456,0.29108 -0.291,0.29108 -0.1456,0.29108 -0.1455,0.43662 0,3.34742 4.8028004,0 0,0 z" /></svg>