<?xml version="1.0" encoding="UTF-8" standalone="no"?>
<!-- Generator: Adobe Illustrator 19.2.0, SVG Export Plug-In . SVG Version: 6.00 Build 0)  -->

<svg
   xmlns:dc="http://purl.org/dc/elements/1.1/"
   xmlns:cc="http://creativecommons.org/ns#"
   xmlns:rdf="http://www.w3.org/1999/02/22-rdf-syntax-ns#"
   xmlns:svg="http://www.w3.org/2000/svg"
   xmlns="http://www.w3.org/2000/svg"
   xmlns:sodipodi="http://sodipodi.sourceforge.net/DTD/sodipodi-0.dtd"
   xmlns:inkscape="http://www.inkscape.org/namespaces/inkscape"
   version="1.1"
   id="Layer_1"
   x="0px"
   y="0px"
   viewBox="0 0 32 32"
   enable-background="new 0 0 32 32"
   xml:space="preserve"
   inkscape:version="0.91 r13725"
   sodipodi:docname="icon - Copy (55) - Copy - Copy.svg"><metadata
     id="metadata8"><rdf:RDF><cc:Work
         rdf:about=""><dc:format>image/svg+xml</dc:format><dc:type
           rdf:resource="http://purl.org/dc/dcmitype/StillImage" /><dc:title /></cc:Work></rdf:RDF></metadata><defs
     id="defs6" /><sodipodi:namedview
     pagecolor="#ffffff"
     bordercolor="#666666"
     borderopacity="1"
     objecttolerance="10"
     gridtolerance="10"
     guidetolerance="10"
     inkscape:pageopacity="0"
     inkscape:pageshadow="2"
     inkscape:window-width="1280"
     inkscape:window-height="962"
     id="namedview4"
     showgrid="false"
     inkscape:zoom="24.8125"
     inkscape:cx="16"
     inkscape:cy="16"
     inkscape:window-x="1272"
     inkscape:window-y="-8"
     inkscape:window-maximized="1"
     inkscape:current-layer="Layer_1" /><polyline
     style="fill:#ffffff;fill-rule:evenodd"
     id="polyline978"
     points="7941.9,7073.1 8232.7,7073.1 8232.7,7359.2 7941.9,7359.2 7941.9,7073.1         "
     transform="matrix(0.07285546,0,0,0.07285546,-572.9781,-512.8872)" /><polyline
     style="fill:#ffffff;fill-rule:evenodd"
     id="polyline980"
     points="7941.9,7073.1 8232.7,7073.1 8232.7,7359.2 7941.9,7359.2 7941.9,7073.1         "
     transform="matrix(0.07285546,0,0,0.07285546,-572.9781,-512.8872)" /><path
     style="fill:#1f5da6;fill-rule:evenodd"
     inkscape:connector-curvature="0"
     id="path982"
     d="m 17.683003,5.9675023 -2.1493,0.037 0,3.7374 2.1493,0 c 0,0 1.2239,-0.2914 1.2604,-1.8942 0.022,-1.5081 -1.2604,-1.8797 -1.2604,-1.8797 m 10.0686,-5.42770003 -23.4886007,0 0.066,30.99999973 23.4886007,0 -0.066,-30.99999973 m -16.4289,2.12740003 0,8.3127997 0,6.455 4.211,0 0,-4.4296 2.1493,-0.044 c 0,0 4.9979,0.2404 4.976,-5.2601997 -0.066,-4.8376 -4.976,-5.0343 -4.976,-5.0343 l -6.3603,0" /><path
     style="fill:#ffffff;fill-rule:evenodd"
     inkscape:connector-curvature="0"
     id="path984"
     d="m 11.082303,26.286902 c 0.9689,0 1.7558,0.765 1.7558,1.683 0,0.9325 -0.7869,1.6902 -1.7194,1.6902 -0.9544,0 -1.7558003,-0.7577 -1.7558003,-1.6902 0.01,-0.9253 0.8014003,-1.683 1.7194003,-1.683" /><path
     style="fill:#ffffff;fill-rule:evenodd"
     inkscape:connector-curvature="0"
     id="path986"
     d="m 11.082303,26.286902 c 0.9689,0 1.7558,0.765 1.7558,1.683 0,0.9325 -0.7869,1.6902 -1.7194,1.6902 -0.9544,0 -1.7558003,-0.7577 -1.7558003,-1.6902 0.01,-0.9253 0.8014003,-1.683 1.7194003,-1.683" /><path
     style="fill:#ffffff;fill-rule:evenodd"
     inkscape:connector-curvature="0"
     id="path988"
     d="m 20.028903,26.243202 c 0.9617,0 1.734,0.765 1.734,1.6903 0,0.9325 -0.7723,1.6902 -1.734,1.6902 -0.9544,0.029 -1.7194,-0.7358 -1.7194,-1.6902 0,-0.9253 0.765,-1.6903 1.7194,-1.6903" /><path
     style="fill:#ffffff;fill-rule:evenodd"
     inkscape:connector-curvature="0"
     id="path990"
     d="m 20.028903,26.243202 c 0.9617,0 1.734,0.765 1.734,1.6903 0,0.9325 -0.7723,1.6902 -1.734,1.6902 -0.9544,0.029 -1.7194,-0.7358 -1.7194,-1.6902 0,-0.9253 0.765,-1.6903 1.7194,-1.6903" /><path
     style="fill:#ffffff;fill-rule:evenodd"
     inkscape:connector-curvature="0"
     id="path992"
     d="m 16.619303,21.194302 7.0451,0 0.015,1.1439 0,1.7849 -0.015,1.7413 0,1.1802 -0.029,0.015 -0.2113,0.066 -0.1967,0.036 -0.1822,0.044 -0.08,0.029 -15.4089003,0.029 0,-1.1657 1.8505,-1.2094 2.8049003,0 0.1822,-0.029 0.1675,-0.066 0.1457,-0.1166 0.1166,-0.1457 0.066,-0.1676 0.029,-0.1821 0,-2.3751 -0.029,-0.1821 -0.066,-0.1676 -0.1166,-0.1457 -0.1457,-0.1166 -0.1675,-0.066 -0.1822,-0.029 -3.8905003,0.029 0.1166,-0.4736 0.3789,-0.6266 6.9504003,0 0.1675,0.6412 0.066,0.1675 0.1166,0.1457 0.1457,0.1166 0.1676,0.066 0.1894,0.029 m -9.7699007,7.475 16.1957007,-0.029 0.1603,-0.015 0.051,-0.015 0.1166,-0.029 0.1821,-0.051 0.2113,-0.051 0.2186,-0.051 0.2185,-0.066 0.2113,-0.051 0.1312,-0.058 0.1602,-0.08 0.051,-0.029 0.1312,-0.1165 0.102,-0.1603 0.065,-0.1676 0.015,-0.1457 0,-1.7048 0.015,-1.7267 0,-1.7995 -0.015,-1.8505 -0.029,-0.1822 -0.066,-0.1676 -0.1166,-0.1602 -0.1457,-0.1093 -0.1675,-0.066 -0.1822,-0.029 -7.1981,0 -0.1676,-0.6412 -0.066,-0.1675 -0.102,-0.1457 -0.1603,-0.1166 -0.1676,-0.066 -0.1821,-0.029 -7.9121003,0 -0.1822,0.029 -0.1675,0.066 -0.1457,0.1166 -0.1093,0.1311 -0.6266004,1.0637 -0.08,0.1676 0,0.015 -0.3934,1.4571 -0.029,0.1822 0.029,0.1821 0.066,0.1676 0.1166,0.1457 0.1457,0.1166 0.1676,0.065 0.1821,0.029 4.1163007,-0.029 0,0.9544 -2.3095003,0 -0.1821,0.029 -0.1676,0.066 -0.044,0.029 -2.3459004,1.53 -0.1312,0.1165 -0.102,0.1603 -0.065,0.1676 -0.015,0.1457 0,2.2439 0.029,0.1822 0.066,0.1675 0.1166,0.1458 0.1457,0.1165 0.1675,0.066 0.1895,0.051" /><path
     style="fill:#ffffff;fill-rule:evenodd"
     inkscape:connector-curvature="0"
     id="path994"
     d="m 16.619303,21.194302 7.0451,0 0.015,1.1439 0,1.7849 -0.015,1.7413 0,1.1802 -0.029,0.015 -0.2113,0.066 -0.1967,0.036 -0.1822,0.044 -0.08,0.029 -15.4089003,0.029 0,-1.1657 1.8505,-1.2094 2.8049003,0 0.1822,-0.029 0.1675,-0.066 0.1457,-0.1166 0.1166,-0.1457 0.066,-0.1676 0.029,-0.1821 0,-2.3751 -0.029,-0.1821 -0.066,-0.1676 -0.1166,-0.1457 -0.1457,-0.1166 -0.1675,-0.066 -0.1822,-0.029 -3.8905003,0.029 0.1166,-0.4736 0.3789,-0.6266 6.9504003,0 0.1675,0.6412 0.066,0.1675 0.1166,0.1457 0.1457,0.1166 0.1676,0.066 0.1894,0.029 m -9.7699007,7.475 16.1957007,-0.029 0.1603,-0.015 0.051,-0.015 0.1166,-0.029 0.1821,-0.051 0.2113,-0.051 0.2186,-0.051 0.2185,-0.066 0.2113,-0.051 0.1312,-0.058 0.1602,-0.08 0.051,-0.029 0.1312,-0.1165 0.102,-0.1603 0.065,-0.1676 0.015,-0.1457 0,-1.7048 0.015,-1.7267 0,-1.7995 -0.015,-1.8505 -0.029,-0.1822 -0.066,-0.1676 -0.1166,-0.1602 -0.1457,-0.1093 -0.1675,-0.066 -0.1822,-0.029 -7.1981,0 -0.1676,-0.6412 -0.066,-0.1675 -0.102,-0.1457 -0.1603,-0.1166 -0.1676,-0.066 -0.1821,-0.029 -7.9121003,0 -0.1822,0.029 -0.1675,0.066 -0.1457,0.1166 -0.1093,0.1311 -0.6266004,1.0637 -0.08,0.1676 0,0.015 -0.3934,1.4571 -0.029,0.1822 0.029,0.1821 0.066,0.1676 0.1166,0.1457 0.1457,0.1166 0.1676,0.065 0.1821,0.029 4.1163007,-0.029 0,0.9544 -2.3095003,0 -0.1821,0.029 -0.1676,0.066 -0.044,0.029 -2.3459004,1.53 -0.1312,0.1165 -0.102,0.1603 -0.065,0.1676 -0.015,0.1457 0,2.2439 0.029,0.1822 0.066,0.1675 0.1166,0.1458 0.1457,0.1165 0.1675,0.066 0.1895,0.051" /><polyline
     style="fill:#ffffff;fill-rule:evenodd"
     id="polyline996"
     points="7992.8,7375.1 8000.6,7340.6 7990.5,7338.5 7982.7,7373 7992.8,7375.1         "
     transform="matrix(0.07285546,0,0,0.07285546,-572.9781,-512.8872)" /><polyline
     style="fill:#ffffff;fill-rule:evenodd"
     id="polyline998"
     points="7992.8,7375.1 8000.6,7340.6 7990.5,7338.5 7982.7,7373 7992.8,7375.1         "
     transform="matrix(0.07285546,0,0,0.07285546,-572.9781,-512.8872)" /><polyline
     style="fill:#ffffff;fill-rule:evenodd"
     id="polyline1000"
     points="8051.1,7423.6 8061.6,7423.6 8062.1,7352.5 8088.4,7352.5 8088.9,7421.8      8099.4,7421.8 8098.8,7342 8051.7,7342 8051.1,7423.6    "
     transform="matrix(0.07285546,0,0,0.07285546,-572.9781,-512.8872)" /><polyline
     style="fill:#ffffff;fill-rule:evenodd"
     id="polyline1002"
     points="8051.1,7423.6 8061.6,7423.6 8062.1,7352.5 8088.4,7352.5 8088.9,7421.8      8099.4,7421.8 8098.8,7342 8051.7,7342 8051.1,7423.6    "
     transform="matrix(0.07285546,0,0,0.07285546,-572.9781,-512.8872)" /><path
     style="fill:#ffffff;fill-rule:evenodd"
     inkscape:connector-curvature="0"
     id="path1004"
     d="m 18.848703,22.717002 3.1837,0 0,1.1657 -3.1619,0 -0.022,-1.1657 m -0.7067,1.9307 4.6554,0 0,-2.6884 -4.6773,0 0,0.459 -0.029,0 0.051,2.2294" /><path
     style="fill:#ffffff;fill-rule:evenodd"
     inkscape:connector-curvature="0"
     id="path1006"
     d="m 18.848703,22.717002 3.1837,0 0,1.1657 -3.1619,0 -0.022,-1.1657 m -0.7067,1.9307 4.6554,0 0,-2.6884 -4.6773,0 0,0.459 -0.029,0 0.051,2.2294" /><path
     style="fill:#1f5da6;fill-rule:evenodd"
     inkscape:connector-curvature="0"
     id="path1008"
     d="m 11.126003,27.372502 c 0.3934,0 0.6921,0.2622 0.6921,0.6265 0,0.3279 -0.2987,0.6266 -0.6921,0.6266 -0.3934,0 -0.7359,-0.2987 -0.7359,-0.6266 0,-0.3643 0.3425,-0.6265 0.7359,-0.6265" /><path
     style="fill:#1f5da6;fill-rule:evenodd"
     inkscape:connector-curvature="0"
     id="path1010"
     d="m 20.028903,27.328802 c 0.408,0 0.7359,0.2768 0.7359,0.6338 0,0.3424 -0.3279,0.6266 -0.7359,0.6266 -0.3643,0 -0.6921,-0.2915 -0.6921,-0.6266 0,-0.357 0.3206,-0.6338 0.6921,-0.6338" /></svg>