<?xml version="1.0" encoding="UTF-8" standalone="no"?>
<!-- Generator: Adobe Illustrator 19.2.0, SVG Export Plug-In . SVG Version: 6.00 Build 0)  -->

<svg
   xmlns:dc="http://purl.org/dc/elements/1.1/"
   xmlns:cc="http://creativecommons.org/ns#"
   xmlns:rdf="http://www.w3.org/1999/02/22-rdf-syntax-ns#"
   xmlns:svg="http://www.w3.org/2000/svg"
   xmlns="http://www.w3.org/2000/svg"
   xmlns:sodipodi="http://sodipodi.sourceforge.net/DTD/sodipodi-0.dtd"
   xmlns:inkscape="http://www.inkscape.org/namespaces/inkscape"
   version="1.1"
   id="Layer_1"
   x="0px"
   y="0px"
   viewBox="0 0 32 32"
   enable-background="new 0 0 32 32"
   xml:space="preserve"
   inkscape:version="0.91 r13725"
   sodipodi:docname="icon - Copy (34).svg"><metadata
     id="metadata8"><rdf:RDF><cc:Work
         rdf:about=""><dc:format>image/svg+xml</dc:format><dc:type
           rdf:resource="http://purl.org/dc/dcmitype/StillImage" /><dc:title /></cc:Work></rdf:RDF></metadata><defs
     id="defs6" /><sodipodi:namedview
     pagecolor="#ffffff"
     bordercolor="#666666"
     borderopacity="1"
     objecttolerance="10"
     gridtolerance="10"
     guidetolerance="10"
     inkscape:pageopacity="0"
     inkscape:pageshadow="2"
     inkscape:window-width="1280"
     inkscape:window-height="962"
     id="namedview4"
     showgrid="false"
     inkscape:zoom="24.8125"
     inkscape:cx="16"
     inkscape:cy="16"
     inkscape:window-x="1272"
     inkscape:window-y="-8"
     inkscape:window-maximized="1"
     inkscape:current-layer="Layer_1" /><polygon
     style="fill:#6f6f6e"
     id="polygon620"
     points="3678.7,1594.9 3678.7,1593.1 3678.7,1593.1 3730.9,1593.1 3730.9,1594.9 "
     transform="matrix(0.0812369,0,0,0.0812369,-291.75787,-99.88254)" /><path
     style="fill:#6f6f6e"
     inkscape:connector-curvature="0"
     id="path622"
     d="M 9.2086264,29.617158" /><polygon
     style="fill:#6f6f6e"
     id="polygon624"
     points="3838.9,1594.9 3838.9,1593.1 3838.9,1593.1 3898.3,1593.1 3898.3,1594.9 "
     transform="matrix(0.0812369,0,0,0.0812369,-291.75787,-99.88254)" /><path
     style="fill:#6f6f6e"
     inkscape:connector-curvature="0"
     id="path626"
     d="M 22.515227,29.617158" /><polygon
     style="fill:#6f6f6e;fill-rule:evenodd"
     id="polygon628"
     points="3734.5,1252.1 3657.1,1252.1 3657.1,1325.9 3597.6,1354.7 3597.6,1385.3 3624.7,1385.3 3624.7,1576.1 3599.5,1576.1 3599.5,1594.1 3678.7,1594.1 3678.7,1376.2 3788.5,1325.9 3898.3,1376.2 3898.3,1594.1 3979.2,1594.1 3979.2,1576.1 3952.3,1576.1 3952.3,1385.3 3979.2,1385.3 3979.2,1352.9 3788.5,1264.7 3734.5,1291.6 "
     transform="matrix(0.0812369,0,0,0.0812369,-291.75787,-99.88254)" /><polygon
     style="fill:#6f6f6e;fill-rule:evenodd"
     id="polygon630"
     points="3700.2,1405 3700.2,1446.4 3759.7,1446.4 3759.7,1401.4 3756.1,1397.9 3752.5,1390.6 3745.2,1385.3 3739.9,1381.6 3723.7,1381.6 3718.3,1383.5 3712.8,1385.3 3709.2,1388.8 3705.6,1390.6 3703.9,1396.1 3702.1,1399.7 "
     transform="matrix(0.0812369,0,0,0.0812369,-291.75787,-99.88254)" /><polygon
     style="fill:#6f6f6e;fill-rule:evenodd"
     id="polygon632"
     points="3813.7,1401.4 3811.8,1405 3811.8,1446.4 3873,1446.4 3873,1405 3871.3,1399.7 3869.5,1396.1 3865.9,1390.6 3860.5,1385.3 3855.1,1383.5 3849.7,1381.6 3833.5,1381.6 3826.3,1385.3 3820.9,1390.6 3815.5,1397.9 "
     transform="matrix(0.0812369,0,0,0.0812369,-291.75787,-99.88254)" /><polygon
     style="fill:#6f6f6e;fill-rule:evenodd"
     id="polygon634"
     points="3768.7,1477.1 3757.8,1480.6 3747.1,1484.3 3745.2,1484.3 3738,1491.4 3732.6,1498.6 3730.9,1504.1 3730.9,1594.1 3838.9,1594.1 3838.9,1504.1 3837.1,1496.9 3831.6,1489.7 3822.6,1484.3 3813.7,1480.6 3799.2,1477.1 "
     transform="matrix(0.0812369,0,0,0.0812369,-291.75787,-99.88254)" /></svg>