<?xml version="1.0" encoding="UTF-8" standalone="no"?>
<!-- Generator: Adobe Illustrator 19.2.0, SVG Export Plug-In . SVG Version: 6.00 Build 0)  -->

<svg
   xmlns:dc="http://purl.org/dc/elements/1.1/"
   xmlns:cc="http://creativecommons.org/ns#"
   xmlns:rdf="http://www.w3.org/1999/02/22-rdf-syntax-ns#"
   xmlns:svg="http://www.w3.org/2000/svg"
   xmlns="http://www.w3.org/2000/svg"
   xmlns:sodipodi="http://sodipodi.sourceforge.net/DTD/sodipodi-0.dtd"
   xmlns:inkscape="http://www.inkscape.org/namespaces/inkscape"
   version="1.1"
   id="Layer_1"
   x="0px"
   y="0px"
   viewBox="0 0 32 32"
   enable-background="new 0 0 32 32"
   xml:space="preserve"
   inkscape:version="0.91 r13725"
   sodipodi:docname="icon.svg"><metadata
     id="metadata8"><rdf:RDF><cc:Work
         rdf:about=""><dc:format>image/svg+xml</dc:format><dc:type
           rdf:resource="http://purl.org/dc/dcmitype/StillImage" /><dc:title /></cc:Work></rdf:RDF></metadata><defs
     id="defs6" /><sodipodi:namedview
     pagecolor="#ffffff"
     bordercolor="#666666"
     borderopacity="1"
     objecttolerance="10"
     gridtolerance="10"
     guidetolerance="10"
     inkscape:pageopacity="0"
     inkscape:pageshadow="2"
     inkscape:window-width="1280"
     inkscape:window-height="962"
     id="namedview4"
     showgrid="false"
     inkscape:zoom="24.8125"
     inkscape:cx="16"
     inkscape:cy="16"
     inkscape:window-x="1272"
     inkscape:window-y="-8"
     inkscape:window-maximized="1"
     inkscape:current-layer="Layer_1" /><polygon
     style="fill:#6f6f6e;fill-rule:evenodd"
     id="polygon668"
     points="5629,2602.8 5632.5,2592 5632.5,2584.8 5625.4,2577.6 5620,2572.2 5614.5,2565 5614.5,2550.6 5620,2539.8 5627.2,2534.4 5634.4,2521.8 5636.1,2511 5632.5,2500.2 5629,2493 5625.4,2487.6 5618.1,2480.4 5611,2476.8 5609.2,2471.4 5611,2451.6 5611,2439 5607.4,2431.8 5600.1,2424.6 5587.5,2419.2 5576.7,2417.4 5571.4,2417.4 5560.6,2413.8 5555.1,2404.8 5553.4,2388.6 5548,2381.4 5540.7,2370.6 5521,2365.2 5510.1,2368.8 5501.1,2370.6 5486.7,2359.8 5468.7,2354.4 5452.5,2359.8 5443.6,2372.4 5434.5,2377.8 5416.6,2372.4 5402.2,2377.8 5395,2385 5395,2392.2 5393.1,2406.6 5377,2417.4 5355.4,2419.2 5342.8,2424.6 5335.6,2433.6 5333.7,2448 5335.6,2457 5341,2467.8 5341,2476.8 5337.4,2484 5324.8,2489.4 5319.4,2498.4 5317.5,2505.6 5315.7,2511 5315.7,2514.6 5314,2527.2 5315.7,2532.6 5324.8,2541.6 5328.4,2547 5328.4,2557.8 5324.8,2568.6 5321.1,2583 5323,2593.8 5328.4,2606.4 5337.4,2613.6 5353.6,2622.6 5368,2626.2 5380.6,2629.8 5398.6,2635.2 5413,2644.2 5427.4,2647.8 5434.5,2656.8 5434.5,2696.4 5431,2712.6 5425.6,2727 5425.6,2739.6 5515.6,2739.6 5512,2714.4 5508.4,2698.2 5508.4,2647.8 5522.8,2644.2 5535.4,2638.8 5546.1,2637 5557,2635.2 5576.7,2628 5591.1,2626.2 5609.2,2619 5618.1,2613.6 "
     transform="matrix(0.08047767,0,0,0.08047767,-424.41776,-188.93632)" /></svg>