<?xml version="1.0" encoding="UTF-8" standalone="no"?>
<!-- Generator: Adobe Illustrator 19.2.0, SVG Export Plug-In . SVG Version: 6.00 Build 0)  -->

<svg
   xmlns:dc="http://purl.org/dc/elements/1.1/"
   xmlns:cc="http://creativecommons.org/ns#"
   xmlns:rdf="http://www.w3.org/1999/02/22-rdf-syntax-ns#"
   xmlns:svg="http://www.w3.org/2000/svg"
   xmlns="http://www.w3.org/2000/svg"
   xmlns:sodipodi="http://sodipodi.sourceforge.net/DTD/sodipodi-0.dtd"
   xmlns:inkscape="http://www.inkscape.org/namespaces/inkscape"
   version="1.1"
   id="Layer_1"
   x="0px"
   y="0px"
   viewBox="0 0 32 32"
   enable-background="new 0 0 32 32"
   xml:space="preserve"
   inkscape:version="0.91 r13725"
   sodipodi:docname="icon - Copy (12).svg"><metadata
     id="metadata8"><rdf:RDF><cc:Work
         rdf:about=""><dc:format>image/svg+xml</dc:format><dc:type
           rdf:resource="http://purl.org/dc/dcmitype/StillImage" /><dc:title /></cc:Work></rdf:RDF></metadata><defs
     id="defs6" /><sodipodi:namedview
     pagecolor="#ffffff"
     bordercolor="#666666"
     borderopacity="1"
     objecttolerance="10"
     gridtolerance="10"
     guidetolerance="10"
     inkscape:pageopacity="0"
     inkscape:pageshadow="2"
     inkscape:window-width="1280"
     inkscape:window-height="962"
     id="namedview4"
     showgrid="false"
     inkscape:zoom="24.8125"
     inkscape:cx="16"
     inkscape:cy="16"
     inkscape:window-x="1272"
     inkscape:window-y="-8"
     inkscape:window-maximized="1"
     inkscape:current-layer="Layer_1" /><path
     style="fill:#717171;fill-rule:evenodd"
     inkscape:connector-curvature="0"
     id="path210"
     d="m 11.659737,25.690208 c 0,0 1.904465,0.71987 2.642559,0.71987 l 1.886241,0.10023 1.868016,-0.10023 c 0.719869,0 2.624335,-0.71987 2.624335,-0.71987 l -0.774544,1.39418 0.883891,0.42827 0.965901,0.77455 0.428277,0.65608 -0.03645,1.80423 -1.348617,0.34627 -2.08671,0.3007 -2.542325,0.1458 -2.706345,-0.1458 -2.032037,-0.3007 -1.330392,-0.34627 0.01822,-1.76778 0.428277,-0.69253 1.00235,-0.80188 0.856554,-0.36449 -0.747206,-1.43063 0,0 z" /><path
     style="fill:#717171;fill-rule:evenodd"
     inkscape:connector-curvature="0"
     id="path212"
     d="m 10.593601,24.460048 -1.6766584,-2.90681 c -0.455613,-0.83833 -1.822454,-3.18019 -1.80423,-6.02321 0,-2.01382 3.6084594,-5.2669 6.7613064,-8.10082 1.166371,-1.02057 -1.330392,-4.4285601 -1.330392,-4.4285601 l 7.280707,0 c 0,0 -2.560549,3.4262101 -1.412402,4.4467901 3.243969,2.85214 6.825092,6.05055 6.825092,8.07347 0,2.90682 -1.512637,5.20311 -1.88624,6.06878 -0.373603,0.8201 -1.685771,2.87036 -1.685771,2.87036 0,0 -0.637859,0.61964 -1.88624,0.83833 -0.83833,0.12757 -1.703996,0.36449 -3.590236,0.36449 -1.767781,0 -2.788356,-0.20047 -3.64491,-0.36449 -0.984125,-0.21869 -1.950026,-0.83833 -1.950026,-0.83833 l 0,0 z" /><path
     style="fill:#717171;fill-rule:evenodd"
     inkscape:connector-curvature="0"
     id="path214"
     d="m 23.806398,3.893648 -0.510288,0 -0.227807,0.0182 -0.08201,0.0182 -0.346266,0.082 -0.410053,0.1458 0,-0.0182 -0.391828,0.16402 -0.446501,0.18225 -0.510287,0.20958 -0.01823,0 -0.592298,0.22781 -0.01822,0.0182 -0.692533,0.24603 -1.357729,0.45562 c -0.100235,0.0182 -0.182245,0.0365 -0.246031,0.0365 -0.246032,-0.0182 -0.446502,-0.18225 -0.528512,-0.41006 -0.11846,-0.32804 0.04556,-0.65608 0.373603,-0.77454 l 1.357729,-0.45561 0.674308,-0.24603 0.574073,-0.20959 0.510288,-0.20958 0.446501,-0.18224 0.410053,-0.1640201 0.01822,-0.0182 0.410052,-0.1458 0.08201,-0.0182 0.428277,-0.10024 0.01822,0 0.164021,-0.0364 0.06379,-0.0182 0.227807,-0.0182 0.01823,0 0.28248,-0.0182 0.06379,0 0.309817,0.0182 0.08201,0.0182 0.328041,0.0638 0.100235,0.0182 0.309818,0.11846 0.08201,0.0456 0.291593,0.16402 0.145796,0.1184601 0.227807,0.24603 0.11846,0.16403 0.145796,0.34626 c 0.01823,0.0365 0.01823,0.0456 0.03645,0.082 l 0.04556,0.18225 0.01822,0.11846 0.01823,0.20047 0,0.10023 -0.01823,0.20958 -0.03645,0.16403 -0.08201,0.20958 -0.04556,0.082 -0.127572,0.22781 -0.04556,0.082 -0.20047,0.24603 -0.06379,0.0638 -0.300705,0.28248 -0.03645,0.0365 -0.373603,0.30071 -0.04556,0.0365 -0.492062,0.30981 -0.574074,0.3645 -0.373603,0.29159 -0.364491,0.34626 -0.182245,0.22781 -0.100235,0.20047 -0.03645,0.1458 0,0.0365 0,0.26425 0.06379,0.42828 0.08201,0.3736 0.01823,0.0456 0.164021,0.49207 0.209582,0.61052 0.246031,0.70164 0.264256,0.78366 c 0.11846,0.32804 -0.06379,0.67431 -0.373603,0.77454 -0.100235,0.0182 -0.182246,0.0365 -0.246031,0.0365 -0.246032,-0.0365 -0.455614,-0.18224 -0.528512,-0.41005 l -0.264256,-0.78366 -0.246032,-0.70164 -0.209582,-0.61052 -0.182245,-0.5376301 -0.01823,-0.0456 -0.11846,-0.4738399 -0.01822,-0.0456 -0.06379,-0.42828 0,-0.10023 0,-0.39183 0.01823,-0.11846 0.06379,-0.34626 0.04556,-0.1458 0.164021,-0.34627 0.06379,-0.11846 0.264256,-0.32804 0.04556,-0.0638 0.364491,-0.34627 0.06379,-0.0456 0.455614,-0.34627 0.03645,-0.0182 0.592297,-0.37361 0.455614,-0.29159 0.364491,-0.28248 0.209582,-0.20047 0.182246,-0.20958 0.03645,-0.082 0.04556,-0.1458 0.01823,-0.0638 -0.01823,-0.0638 -0.03645,-0.12757 -0.08201,-0.20047 -0.08201,-0.10024 -0.127572,-0.0638 -0.309817,-0.11846 -0.118459,-0.0638 0,0 z" /><polygon
     transform="matrix(0.09112274,0,0,0.09112274,-114.65461,-992.15081)"
     style="fill:#717171;fill-rule:evenodd"
     id="polygon216"
     points="1390.3,10912 1390.3,10912 1380.6,10894 1490.6,10894 1480.7,10912 " /><path
     style="fill:#717171;fill-rule:evenodd"
     inkscape:connector-curvature="0"
     id="path218"
     d="m 8.8531566,2.6270479 0.2824805,0.0182 0.01822,0 0.227807,0.0182 0.06379,0.0182 0.164021,0.0365 0.01823,0 0.4282759,0.10023 0.08201,0.0182 0.410052,0.14579 0.01823,0.0182 0.410052,0.16402 0.437389,0.1822401 0.510288,0.20959 0.574073,0.20958 0.692533,0.24603 1.330392,0.45561 c 0.309817,0.11846 0.492062,0.45562 0.373603,0.77455 -0.100235,0.2278 -0.309817,0.39183 -0.537624,0.41005 -0.08201,0 -0.164021,-0.0182 -0.227807,-0.0365 l -1.330392,-0.45561 -0.701645,-0.24603 -0.01822,-0.0182 -0.592298,-0.22781 -0.01822,0 -0.510287,-0.20958 -0.43739,-0.18224 -0.391827,-0.16402 0,0.0182 -0.4100529,-0.1458 -0.346266,-0.082 -0.08201,-0.0182 -0.227806,-0.0182 -0.2004695,-0.0182 -0.264256,0.0365 -0.291593,0.0456 -0.182246,0.0638 -0.145796,0.10023 -0.118459,0.11846 -0.100235,0.18225 0,0.0456 -0.01823,0.14579 0.01823,0.11846 0.01822,0.0456 0.06379,0.11845 0.145796,0.18225 0.03645,0.0365 0.182246,0.18224 0.391828,0.2916 0.4556125,0.29159 0.592298,0.3736 0.03645,0.0182 0.4556139,0.34626 0.06379,0.0456 0.364491,0.34626 0.04556,0.0638 0.264256,0.32804 0.06379,0.11846 0.164021,0.34627 0.04556,0.14579 0.06379,0.36449 0.01823,0.11846 0,0.37361 0,0.082 -0.06379,0.4465 -0.01823,0.0638 -0.118459,0.4738399 -0.01822,0.0456 -0.182245,0.5376301 -0.209583,0.61052 -0.246031,0.70165 -0.264256,0.78365 c -0.08201,0.22781 -0.3007049,0.3736 -0.5285119,0.41005 -0.08201,0 -0.164021,-0.0182 -0.246031,-0.0365 -0.309817,-0.10023 -0.4920625,-0.4465 -0.373603,-0.77454 l 0.264256,-0.78365 0.246031,-0.70165 0.209582,-0.61052 0.164021,-0.49207 0.100235,-0.41005 0.06379,-0.4465 0,-0.26425 -0.03645,-0.20959 -0.100235,-0.18224 -0.182245,-0.22781 -0.364491,-0.34627 -0.3918275,-0.3007 -0.555849,-0.36449 -0.492063,-0.30982 -0.03645,-0.0182 -0.391828,-0.2916 -0.06379,-0.0638 -0.282481,-0.28248 -0.03645,-0.0364 -0.209582,-0.24603 -0.06379,-0.10024 -0.127572,-0.22781 -0.04556,-0.11845 -0.06379,-0.20959 -0.03645,-0.12757 -0.01823,-0.20047 0,-0.10023 0.01823,-0.20047 0.01822,-0.0638 0.03645,-0.18225 c 0,-0.0456 0.01823,-0.10023 0.04556,-0.14579 l 0.16402,-0.34627 0.100235,-0.14579 0.227807,-0.24604 0.11846,-0.1002301 0.28248,-0.18225 0.127572,-0.0638 0.328042,-0.11846 0.100235,-0.0365 0.309817,-0.0456 0.03645,0 0.328042,-0.0365 0.100235,0 0,0.0273 z" /></svg>