<?xml version="1.0" encoding="UTF-8" standalone="no"?>
<!-- Generator: Adobe Illustrator 19.2.0, SVG Export Plug-In . SVG Version: 6.00 Build 0)  -->

<svg
   xmlns:dc="http://purl.org/dc/elements/1.1/"
   xmlns:cc="http://creativecommons.org/ns#"
   xmlns:rdf="http://www.w3.org/1999/02/22-rdf-syntax-ns#"
   xmlns:svg="http://www.w3.org/2000/svg"
   xmlns="http://www.w3.org/2000/svg"
   xmlns:sodipodi="http://sodipodi.sourceforge.net/DTD/sodipodi-0.dtd"
   xmlns:inkscape="http://www.inkscape.org/namespaces/inkscape"
   version="1.1"
   id="Layer_1"
   x="0px"
   y="0px"
   viewBox="0 0 32 32"
   enable-background="new 0 0 32 32"
   xml:space="preserve"
   inkscape:version="0.91 r13725"
   sodipodi:docname="icon - Copy (38).svg"><metadata
     id="metadata8"><rdf:RDF><cc:Work
         rdf:about=""><dc:format>image/svg+xml</dc:format><dc:type
           rdf:resource="http://purl.org/dc/dcmitype/StillImage" /><dc:title /></cc:Work></rdf:RDF></metadata><defs
     id="defs6" /><sodipodi:namedview
     pagecolor="#ffffff"
     bordercolor="#666666"
     borderopacity="1"
     objecttolerance="10"
     gridtolerance="10"
     guidetolerance="10"
     inkscape:pageopacity="0"
     inkscape:pageshadow="2"
     inkscape:window-width="1280"
     inkscape:window-height="962"
     id="namedview4"
     showgrid="false"
     inkscape:zoom="24.8125"
     inkscape:cx="16"
     inkscape:cy="16"
     inkscape:window-x="1272"
     inkscape:window-y="-8"
     inkscape:window-maximized="1"
     inkscape:current-layer="Layer_1" /><polygon
     style="fill:#0080c6;fill-rule:evenodd"
     id="polygon556"
     points="3822.8,5352.2 3835.4,5350.4 3846.2,5348.6 3866,5345 3880.4,5341.4 3889.4,5337.8 3900.2,5334.2 3916.4,5325.2 3945.2,5307.2 3956,5298.2 3968.6,5285.6 3977.6,5276.6 3984.9,5269.4 3777.8,5269.4 3621.2,5269.4 3632,5280.2 3646.4,5294.6 3655.4,5301.8 3669.9,5314.4 3687.8,5325.2 3707.6,5336 3722,5339.6 3741.8,5346.8 3754.4,5348.6 3768.8,5350.4 3779.7,5352.2 3797.6,5354 3812,5354 "
     transform="matrix(0.0793854,0,0,0.0793854,-285.5091,-401.64323)" /><polygon
     style="fill:#0080c6;fill-rule:evenodd"
     id="polygon558"
     points="3777.8,5408.1 3785,5411.6 3790.4,5415.2 3804.9,5415.2 3812,5411.6 3817.4,5408.1 3822.8,5402.6 3824.7,5395.4 3826.4,5388.2 3824.7,5381 3822.8,5373.8 3817.4,5368.4 3812,5363.1 3804.9,5361.2 3797.6,5359.4 3790.4,5361.2 3785,5363.1 3777.8,5368.4 3774.2,5373.8 3770.6,5381 3770.6,5395.4 3774.2,5402.6 "
     transform="matrix(0.0793854,0,0,0.0793854,-285.5091,-401.64323)" /><polygon
     style="fill:#0080c6;fill-rule:evenodd"
     id="polygon560"
     points="3637.4,5112.8 3624.9,5129 3615.8,5143.4 3606.8,5163.2 3605,5188.4 3603.3,5235.2 3605,5242.5 3606.8,5247.8 3614,5253.2 3619.4,5249.6 3624.9,5244.2 3624.9,5235.2 3628.4,5177.6 3632,5159.6 3641,5141.6 3651.8,5130.8 3664.4,5121.8 3682.4,5114.6 3700.4,5112.8 3723.8,5114.6 3745.4,5123.6 3759.9,5138.1 3768.8,5154.2 3772.4,5174 3772.4,5269.4 3794,5269.4 3794,5166.8 3790.4,5150.6 3785,5136.2 3777.8,5125.4 3770.6,5118.2 3761.6,5111 3749,5100.2 3732.8,5094.8 3713,5089.4 3689.7,5091.2 3668,5094.8 3651.8,5102 "
     transform="matrix(0.0793854,0,0,0.0793854,-285.5091,-401.64323)" /><polygon
     style="fill:#0080c6;fill-rule:evenodd"
     id="polygon562"
     points="3972.3,5244.2 3977.6,5249.6 3984.9,5253.2 3990.2,5247.8 3993.8,5242.5 3993.8,5188.4 3990.2,5163.2 3983,5143.4 3974,5129 3959.7,5112.8 3945.2,5102 3929,5094.8 3907.4,5091.2 3884,5089.4 3864.2,5094.8 3849.9,5100.2 3835.4,5111 3826.4,5118.2 3821,5125.4 3813.8,5136.2 3808.4,5150.6 3803,5166.8 3803,5269.4 3826.4,5269.4 3824.7,5174 3830,5154.2 3839,5138.1 3851.6,5123.6 3873.3,5114.6 3896.6,5112.8 3916.4,5114.6 3932.6,5121.8 3945.2,5130.8 3956,5141.6 3965,5159.6 3970.4,5177.6 3972.3,5235.2 "
     transform="matrix(0.0793854,0,0,0.0793854,-285.5091,-401.64323)" /><polygon
     style="fill:#0080c6;fill-rule:evenodd"
     id="polygon564"
     points="3635.6,5181.2 3651.8,5183.1 3653.6,5165 3659,5156 3668,5145.2 3678.8,5138.1 3689.7,5134.4 3704,5134.4 3720.2,5136.2 3732.8,5147 3741.8,5157.8 3747.3,5172.2 3747.3,5215.4 3763.4,5215.4 3763.4,5170.4 3759.9,5157.8 3754.4,5145.2 3741.8,5132.6 3725.6,5121.8 3705.8,5118.2 3691.4,5120 3671.6,5123.6 3655.4,5134.4 3644.7,5147 3639.2,5159.6 3635.6,5174 "
     transform="matrix(0.0793854,0,0,0.0793854,-285.5091,-401.64323)" /><polygon
     style="fill:#0080c6;fill-rule:evenodd"
     id="polygon566"
     points="3959.7,5159.6 3952.4,5147 3941.6,5134.4 3925.4,5123.6 3905.6,5120 3891.2,5118.2 3873.3,5121.8 3857,5132.6 3844.4,5145.2 3837.3,5157.8 3833.6,5170.4 3833.6,5215.4 3851.6,5215.4 3849.9,5172.2 3855.2,5157.8 3866,5147 3878.6,5136.2 3893,5134.4 3907.4,5134.4 3920,5138.1 3929,5145.2 3939.9,5156 3943.4,5165 3947,5183.1 3961.4,5181.2 3961.4,5174 "
     transform="matrix(0.0793854,0,0,0.0793854,-285.5091,-401.64323)" /><polygon
     style="fill:#0080c6;fill-rule:evenodd"
     id="polygon568"
     points="3887.6,5085.8 3920,5087.6 3921.8,5071.4 3882.3,5071.4 3860.6,5075 3842.6,5082.2 3830,5087.6 3813.8,5100.2 3804.9,5112.8 3797.6,5121.8 3786.8,5105.6 3774.2,5093.1 3759.9,5082.2 3741.8,5075 3720.2,5071.4 3695,5067.8 3675.2,5071.4 3677,5087.6 3696.8,5085.8 3716.6,5085.8 3731,5087.6 3749,5094.8 3763.4,5103.8 3777.8,5118.2 3786.8,5134.4 3797.6,5159.6 3810.2,5134.4 3821,5118.2 3837.3,5103.8 3853.4,5093.1 3869.7,5087.6 "
     transform="matrix(0.0793854,0,0,0.0793854,-285.5091,-401.64323)" /><polygon
     style="fill:#0080c6;fill-rule:evenodd"
     id="polygon570"
     points="3707.6,5424.2 3704,5426 3702.3,5427.8 3700.4,5429.6 3698.6,5433.2 3698.6,5440.4 3700.4,5444 3702.3,5445.8 3702.3,5447.6 3704,5449.4 3707.6,5451.2 3711.2,5453.1 3887.6,5453.1 3891.2,5449.4 3893,5447.6 3894.9,5447.6 3896.6,5444 3898.4,5440.4 3898.4,5436.8 3896.6,5431.4 3894.9,5427.8 3893,5426 3889.4,5424.2 3887.6,5422.5 3709.4,5422.5 "
     transform="matrix(0.0793854,0,0,0.0793854,-285.5091,-401.64323)" /></svg>