<?xml version="1.0" encoding="UTF-8" standalone="no"?>
<!-- Generator: Adobe Illustrator 19.2.0, SVG Export Plug-In . SVG Version: 6.00 Build 0)  -->

<svg
   xmlns:dc="http://purl.org/dc/elements/1.1/"
   xmlns:cc="http://creativecommons.org/ns#"
   xmlns:rdf="http://www.w3.org/1999/02/22-rdf-syntax-ns#"
   xmlns:svg="http://www.w3.org/2000/svg"
   xmlns="http://www.w3.org/2000/svg"
   xmlns:sodipodi="http://sodipodi.sourceforge.net/DTD/sodipodi-0.dtd"
   xmlns:inkscape="http://www.inkscape.org/namespaces/inkscape"
   version="1.1"
   id="Layer_1"
   x="0px"
   y="0px"
   viewBox="0 0 32 32"
   enable-background="new 0 0 32 32"
   xml:space="preserve"
   inkscape:version="0.91 r13725"
   sodipodi:docname="icon - Copy (3).svg"><metadata
     id="metadata8"><rdf:RDF><cc:Work
         rdf:about=""><dc:format>image/svg+xml</dc:format><dc:type
           rdf:resource="http://purl.org/dc/dcmitype/StillImage" /><dc:title /></cc:Work></rdf:RDF></metadata><defs
     id="defs6" /><sodipodi:namedview
     pagecolor="#ffffff"
     bordercolor="#666666"
     borderopacity="1"
     objecttolerance="10"
     gridtolerance="10"
     guidetolerance="10"
     inkscape:pageopacity="0"
     inkscape:pageshadow="2"
     inkscape:window-width="1280"
     inkscape:window-height="962"
     id="namedview4"
     showgrid="false"
     inkscape:zoom="24.8125"
     inkscape:cx="16"
     inkscape:cy="16"
     inkscape:window-x="1272"
     inkscape:window-y="-8"
     inkscape:window-maximized="1"
     inkscape:current-layer="Layer_1" /><polygon
     style="fill:#0080c6;fill-rule:evenodd"
     id="polygon788"
     points="6488.7,6285 6512.1,6294 6515.7,6295.8 6521.1,6295.8 6524.7,6294 6528.3,6290.4 6539.1,6297.6 6544.5,6283.2 6533.7,6277.8 6533.7,6267 6531.9,6261.6 6526.5,6258 6506.7,6250.8 6497.7,6249 6492.3,6249 6486.9,6250.8 6483.3,6256.2 6481.5,6261.6 6481.5,6272.4 6483.3,6279.6 "
     transform="matrix(0.07586882,0,0,0.07586882,-491.20346,-470.93126)" /><polygon
     style="fill:#0080c6;fill-rule:evenodd"
     id="polygon790"
     points="6670.5,6281.4 6677.7,6288.6 6684.9,6294 6693.9,6297.6 6702.9,6299.4 6711.9,6297.6 6720.9,6294 6728.1,6288.6 6735.3,6281.4 6737.1,6272.4 6738.9,6261.6 6737.1,6252.6 6735.3,6243.6 6728.1,6236.4 6720.9,6231 6711.9,6227.4 6702.9,6225.6 6693.9,6227.4 6684.9,6231 6677.7,6236.4 6670.5,6243.6 6666.9,6252.6 6666.9,6272.4 "
     transform="matrix(0.07586882,0,0,0.07586882,-491.20346,-470.93126)" /><polygon
     style="fill:#0080c6;fill-rule:evenodd"
     id="polygon792"
     points="6886.5,6409.2 6881.1,6405.6 6854.1,6394.8 6848.7,6393 6843.3,6394.8 6839.7,6396.6 6837.9,6398.4 6836.1,6402 6828.9,6398.4 6823.5,6412.8 6832.5,6416.4 6832.5,6420 6834.3,6425.4 6836.1,6430.8 6841.5,6434.4 6870.3,6447 6877.5,6447 6882.9,6443.4 6886.5,6439.8 6890.1,6434.4 6890.1,6414.6 "
     transform="matrix(0.07586882,0,0,0.07586882,-491.20346,-470.93126)" /><polygon
     style="fill:#0080c6;fill-rule:evenodd"
     id="polygon794"
     points="6600.3,6594.6 6616.5,6594.6 6629.1,6591 6643.5,6589.2 6656.1,6583.8 6677.7,6574.8 6702.9,6562.2 6719.1,6555 6733.5,6551.4 6744.3,6549.6 6755.1,6551.4 6773.1,6553.2 6789.3,6555 6801.9,6558.6 6812.7,6560.4 6823.5,6565.8 6830.7,6571.2 6837.9,6576.6 6843.3,6578.4 6852.3,6578.4 6855.9,6576.6 6859.5,6573 6861.3,6569.4 6861.3,6556.8 6857.7,6551.4 6850.5,6546 6841.5,6538.8 6819.9,6528 6803.7,6524.4 6782.1,6519 6753.3,6515.4 6742.5,6515.4 6720.9,6520.8 6710.1,6524.4 6688.5,6535.2 6659.7,6547.8 6639.9,6555 6621.9,6558.6 6605.7,6558.6 6582.3,6556.8 6562.5,6553.2 6548.1,6547.8 6537.3,6542.4 6521.1,6535.2 6515.7,6535.2 6510.3,6537 6508.5,6538.8 6506.7,6542.4 6506.7,6553.2 6510.3,6560.4 6515.7,6569.4 6526.5,6574.8 6540.9,6582 6557.1,6587.4 6571.5,6591 6587.7,6592.8 "
     transform="matrix(0.07586882,0,0,0.07586882,-491.20346,-470.93126)" /><polygon
     style="fill:#0080c6"
     id="polygon796"
     points="6483.3,6504.6 6483.3,6474 6483.3,6474 6888.3,6474 6888.3,6504.6 "
     transform="matrix(0.07586882,0,0,0.07586882,-491.20346,-470.93126)" /><path
     style="fill:#0080c6"
     inkscape:connector-curvature="0"
     id="path798"
     d="M 16.040349,21.404247" /><polygon
     style="fill:#0080c6;fill-rule:evenodd"
     id="polygon800"
     points="6690.3,6441.6 6688.5,6447 6686.7,6448.8 6681.3,6450.6 6679.5,6448.8 6648.9,6385.8 6645.3,6382.2 6639.9,6380.4 6627.3,6380.4 6616.5,6391.2 6549.9,6474 6607.5,6474 6634.5,6441.6 6647.1,6474 6773.1,6474 6776.7,6466.8 6780.3,6452.4 6782.1,6441.6 6782.1,6432.6 6778.5,6421.8 6753.3,6360.6 6767.7,6360.6 6782.1,6398.4 6787.5,6411 6796.5,6416.4 6801.9,6418.2 6807.3,6416.4 6812.7,6412.8 6816.3,6409.2 6819.9,6403.8 6819.9,6391.2 6798.3,6339 6791.1,6326.4 6787.5,6321 6780.3,6315.6 6774.9,6313.8 6769.5,6312 6668.7,6312 6650.7,6313.8 6639.9,6315.6 6634.5,6319.2 6602.1,6337.2 6589.5,6310.2 6582.3,6295.8 6578.7,6286.8 6575.1,6285 6569.7,6279.6 6560.7,6279.6 6557.1,6283.2 6553.5,6286.8 6551.7,6288.6 6548.1,6294 6548.1,6306.6 6575.1,6371.4 6580.5,6376.8 6587.7,6382.2 6593.1,6384 6600.3,6384 6605.7,6382.2 6650.7,6357 "
     transform="matrix(0.07586882,0,0,0.07586882,-491.20346,-470.93126)" /></svg>