<?xml version="1.0" encoding="UTF-8" standalone="no"?>
<!-- Generator: Adobe Illustrator 19.2.0, SVG Export Plug-In . SVG Version: 6.00 Build 0)  -->

<svg
   xmlns:dc="http://purl.org/dc/elements/1.1/"
   xmlns:cc="http://creativecommons.org/ns#"
   xmlns:rdf="http://www.w3.org/1999/02/22-rdf-syntax-ns#"
   xmlns:svg="http://www.w3.org/2000/svg"
   xmlns="http://www.w3.org/2000/svg"
   xmlns:sodipodi="http://sodipodi.sourceforge.net/DTD/sodipodi-0.dtd"
   xmlns:inkscape="http://www.inkscape.org/namespaces/inkscape"
   version="1.1"
   id="Layer_1"
   x="0px"
   y="0px"
   viewBox="0 0 32 32"
   enable-background="new 0 0 32 32"
   xml:space="preserve"
   inkscape:version="0.91 r13725"
   sodipodi:docname="icon - Copy (39).svg"><metadata
     id="metadata8"><rdf:RDF><cc:Work
         rdf:about=""><dc:format>image/svg+xml</dc:format><dc:type
           rdf:resource="http://purl.org/dc/dcmitype/StillImage" /><dc:title /></cc:Work></rdf:RDF></metadata><defs
     id="defs6" /><sodipodi:namedview
     pagecolor="#ffffff"
     bordercolor="#666666"
     borderopacity="1"
     objecttolerance="10"
     gridtolerance="10"
     guidetolerance="10"
     inkscape:pageopacity="0"
     inkscape:pageshadow="2"
     inkscape:window-width="1280"
     inkscape:window-height="962"
     id="namedview4"
     showgrid="false"
     inkscape:zoom="24.8125"
     inkscape:cx="16"
     inkscape:cy="16"
     inkscape:window-x="1272"
     inkscape:window-y="-8"
     inkscape:window-maximized="1"
     inkscape:current-layer="Layer_1" /><polygon
     style="fill:#6f6f6e;fill-rule:evenodd"
     id="polygon582"
     points="3662.6,6107.3 3675.2,6125.3 3686,6107.3 3675.2,6087.5 "
     transform="matrix(0.07973251,0,0,0.07973251,-287.42033,-479.70499)" /><polygon
     style="fill:#6f6f6e;fill-rule:evenodd"
     id="polygon584"
     points="3786.8,6091.1 3790.4,6112.7 3808.4,6098.4 3804.8,6076.7 "
     transform="matrix(0.07973251,0,0,0.07973251,-287.42033,-479.70499)" /><polygon
     style="fill:#6f6f6e;fill-rule:evenodd"
     id="polygon586"
     points="3781.4,6202.7 3797.6,6280.1 3860.6,6231.5 3844.4,6154.1 "
     transform="matrix(0.07973251,0,0,0.07973251,-287.42033,-479.70499)" /><polygon
     style="fill:#6f6f6e;fill-rule:evenodd"
     id="polygon588"
     points="3828.2,6343.1 3831.8,6364.7 3849.8,6350.3 3846.2,6328.7 "
     transform="matrix(0.07973251,0,0,0.07973251,-287.42033,-479.70499)" /><polygon
     style="fill:#6f6f6e;fill-rule:evenodd"
     id="polygon590"
     points="3866,6411.5 3873.2,6406.1 3925.4,6258.5 3902,6249.5 3855.2,6381 3684.2,6319.7 3731,6186.5 3714.8,6181.1 3741.8,6087.5 3731,6114.5 3722,6092.9 3709.4,6082.1 3678.8,6260.3 3657.2,6317.9 3655.4,6325.1 3655.4,6332.3 3659,6336 3664.4,6339.5 3660.8,6361.1 3660.8,6362.9 3720.2,6375.5 3759.8,6373.7 3815.6,6393.5 3858.8,6409.7 "
     transform="matrix(0.07973251,0,0,0.07973251,-287.42033,-479.70499)" /><polygon
     style="fill:#6f6f6e;fill-rule:evenodd"
     id="polygon592"
     points="3767,6022.7 3765.2,6024.5 3763.4,6028.1 3750.8,6062.3 3714.8,6055.1 3713,6066 3639.2,6066 3637.4,6067.7 3633.8,6069.5 3633.8,6388.1 3637.4,6389.9 3639.2,6391.7 3642.8,6393.5 3815.6,6393.5 3759.8,6373.7 3720.2,6375.5 3653.6,6375.5 3653.6,6082.1 3709.4,6082.1 3722,6092.9 3738.2,6076.7 3741.8,6087.5 3714.8,6181.1 3731,6186.5 3781.4,6051.5 3952.4,6114.5 3902,6249.5 3925.4,6258.5 3981.2,6107.3 3979.4,6101.9 3975.8,6096.5 3774.2,6022.7 "
     transform="matrix(0.07973251,0,0,0.07973251,-287.42033,-479.70499)" /></svg>