<?xml version="1.0" encoding="UTF-8" standalone="no"?>
<!-- Generator: Adobe Illustrator 19.2.0, SVG Export Plug-In . SVG Version: 6.00 Build 0)  -->

<svg
   xmlns:dc="http://purl.org/dc/elements/1.1/"
   xmlns:cc="http://creativecommons.org/ns#"
   xmlns:rdf="http://www.w3.org/1999/02/22-rdf-syntax-ns#"
   xmlns:svg="http://www.w3.org/2000/svg"
   xmlns="http://www.w3.org/2000/svg"
   xmlns:sodipodi="http://sodipodi.sourceforge.net/DTD/sodipodi-0.dtd"
   xmlns:inkscape="http://www.inkscape.org/namespaces/inkscape"
   version="1.1"
   id="Layer_1"
   x="0px"
   y="0px"
   viewBox="0 0 32 32"
   enable-background="new 0 0 32 32"
   xml:space="preserve"
   inkscape:version="0.91 r13725"
   sodipodi:docname="icon - Copy (27).svg"><metadata
     id="metadata8"><rdf:RDF><cc:Work
         rdf:about=""><dc:format>image/svg+xml</dc:format><dc:type
           rdf:resource="http://purl.org/dc/dcmitype/StillImage" /><dc:title /></cc:Work></rdf:RDF></metadata><defs
     id="defs6" /><sodipodi:namedview
     pagecolor="#ffffff"
     bordercolor="#666666"
     borderopacity="1"
     objecttolerance="10"
     gridtolerance="10"
     guidetolerance="10"
     inkscape:pageopacity="0"
     inkscape:pageshadow="2"
     inkscape:window-width="1280"
     inkscape:window-height="962"
     id="namedview4"
     showgrid="false"
     inkscape:zoom="24.8125"
     inkscape:cx="16"
     inkscape:cy="16"
     inkscape:window-x="1272"
     inkscape:window-y="-8"
     inkscape:window-maximized="1"
     inkscape:current-layer="Layer_1" /><polygon
     style="fill:#6f6f6e;fill-rule:evenodd"
     id="polygon100"
     points="262.2,6042.9 555.6,6042.9 555.6,5943.9 485.4,5943.9 485.4,5997.9 436.8,5997.9 436.8,5943.9 382.8,5943.9 382.8,5997.9 334.2,5997.9 334.2,5943.9 262.2,5943.9 "
     transform="matrix(0.0901687,0,0,0.0901687,-20.829679,-535.41347)" /><path
     style="fill:#6f6f6e;fill-rule:evenodd"
     inkscape:connector-curvature="0"
     id="path102"
     d="m 3.1371607,31.053436 0,0.3246 0.1623,0.1623 25.6439803,0 0,-0.4869 -2.43455,-16.555 -0.32461,-0.3246 -0.32461,-0.1623 -0.48691,-0.1623 -18.6649199,0 -0.32461,0.1623 -0.4869104,0.1623 -0.1623,0.3246 -2.59686,16.555 z m 15.4188503,-7.9529 0,-3.8953 -0.16231,-0.1623 -0.1623,-0.4869 -0.32461,-0.6492 -0.64921,-0.4869 -0.48691,-0.1623 -0.97383,-0.1623 -0.48691,0 -0.97382,0.3246 -0.32461,0.3246 -0.3246,0.3246 -0.16231,0.3246 -0.32461,0.4869 0,4.0576 5.35603,0.1623 z" /><polygon
     style="fill:#6f6f6e"
     id="polygon104"
     points="296.4,6075.3 296.4,6059.1 296.4,6059.1 523.2,6059.1 523.2,6075.3 "
     transform="matrix(0.0901687,0,0,0.0901687,-20.829679,-535.41347)" /><path
     style="fill:#6f6f6e"
     inkscape:connector-curvature="0"
     id="path106"
     d="M 16.121451,11.658136" /></svg>