<?xml version="1.0" encoding="UTF-8" standalone="no"?>
<!-- Generator: Adobe Illustrator 19.2.0, SVG Export Plug-In . SVG Version: 6.00 Build 0)  -->

<svg
   xmlns:dc="http://purl.org/dc/elements/1.1/"
   xmlns:cc="http://creativecommons.org/ns#"
   xmlns:rdf="http://www.w3.org/1999/02/22-rdf-syntax-ns#"
   xmlns:svg="http://www.w3.org/2000/svg"
   xmlns="http://www.w3.org/2000/svg"
   xmlns:sodipodi="http://sodipodi.sourceforge.net/DTD/sodipodi-0.dtd"
   xmlns:inkscape="http://www.inkscape.org/namespaces/inkscape"
   version="1.1"
   id="Layer_1"
   x="0px"
   y="0px"
   viewBox="0 0 32 32"
   enable-background="new 0 0 32 32"
   xml:space="preserve"
   inkscape:version="0.91 r13725"
   sodipodi:docname="icon - Copy (11).svg"><metadata
     id="metadata8"><rdf:RDF><cc:Work
         rdf:about=""><dc:format>image/svg+xml</dc:format><dc:type
           rdf:resource="http://purl.org/dc/dcmitype/StillImage" /><dc:title /></cc:Work></rdf:RDF></metadata><defs
     id="defs6" /><sodipodi:namedview
     pagecolor="#ffffff"
     bordercolor="#666666"
     borderopacity="1"
     objecttolerance="10"
     gridtolerance="10"
     guidetolerance="10"
     inkscape:pageopacity="0"
     inkscape:pageshadow="2"
     inkscape:window-width="1280"
     inkscape:window-height="962"
     id="namedview4"
     showgrid="false"
     inkscape:zoom="24.8125"
     inkscape:cx="16"
     inkscape:cy="16"
     inkscape:window-x="1272"
     inkscape:window-y="-8"
     inkscape:window-maximized="1"
     inkscape:current-layer="Layer_1" /><path
     style="fill:#717171;fill-rule:evenodd"
     inkscape:connector-curvature="0"
     id="path220"
     d="m 8.8175884,1.70676 c 1.5967596,0 2.8741706,2.83767 2.8741706,6.36878 0,3.4855 -1.277411,6.341421 -2.8741706,6.341421 -1.58763,0 -2.87417,-2.855921 -2.87417,-6.341421 0,-3.52199 1.27741,-6.36878 2.87417,-6.36878 l 0,0 z" /><path
     style="fill:#717171;fill-rule:evenodd"
     inkscape:connector-curvature="0"
     id="path222"
     d="m 3.1331285,14.042861 c 1.4963899,0 2.6916799,2.75555 2.6916799,6.17717 0,3.38513 -1.19529,6.15893 -2.6916799,6.15893 -1.47814,0 -2.67343005,-2.7738 -2.67343005,-6.15893 0,-3.42162 1.19529005,-6.17717 2.67343005,-6.17717 l 0,0 z" /><path
     style="fill:#717171;fill-rule:evenodd"
     inkscape:connector-curvature="0"
     id="path224"
     d="m 10.295728,15.174281 c 2.016481,0 3.667981,3.18439 3.667981,7.14435 0,3.94171 -1.64238,7.1626 -3.667981,7.1626 -2.0529696,0 -3.6953496,-3.22089 -3.6953496,-7.1626 0,-3.95996 1.64238,-7.14435 3.6953496,-7.14435 l 0,0 z" /><path
     style="fill:#717171;fill-rule:evenodd"
     inkscape:connector-curvature="0"
     id="path226"
     d="m 11.855989,14.207101 c 0,0 3.57674,3.75922 3.57674,8.00204 0,4.23369 -2.64605,7.75568 -2.64605,7.75568 l 4.3888,0.22811 3.0384,0.11861 c 0,0 2.1351,-1.93435 2.17159,-8.1754 0.0182,-6.65164 -2.21721,-8.78673 -2.21721,-8.78673 0,0 -1.90698,0.11861 -2.44532,0.11861 -0.53834,0 -3.26651,0.24636 -3.26651,0.24636 l -2.60044,0.49272 0,0 z" /><path
     style="fill:#717171;fill-rule:evenodd"
     inkscape:connector-curvature="0"
     id="path228"
     d="m 21.527789,13.677881 c 0,0 2.29933,1.7245 2.29933,8.12979 0,6.61514 -2.41795,8.64074 -2.41795,8.64074 0,0 3.0749,-0.34672 4.04208,-0.49271 1.44164,-0.20074 3.8231,-1.02193 3.8231,-1.02193 0,0 2.01647,-0.47446 2.18071,-6.60602 0.14599,-5.53847 -3.20264,-7.29034 -3.20264,-7.29034 l -4.18807,-1.03105 c -0.77557,-0.16424 -2.53656,-0.32848 -2.53656,-0.32848 l 0,0 z" /><path
     style="fill:#717171;fill-rule:evenodd"
     inkscape:connector-curvature="0"
     id="path230"
     d="m 14.255689,13.057431 0.0456,0 c -0.0182,0 -0.0365,0 -0.0821,0.0182 -0.34673,0.0639 2.56393,-0.364971 3.34863,-0.364971 0.77556,0 1.9526,-0.18249 1.9526,-0.18249 0,0 0.22811,-0.96718 0.26461,-5.8487 0.0365,-5.1735 -1.78837,-5.09138 -1.78837,-5.09138 l -3.49462,-0.0365 c -0.85769,0 -2.79205,0.20073 -2.79205,0.20073 0,0 1.54202,2.48182 1.54202,5.78483 0,3.28476 -1.02193,5.912571 -1.02193,5.912571 0,0 1.70625,-0.35585 2.0256,-0.39235 l 0,0 z" /><path
     style="fill:#717171;fill-rule:evenodd"
     inkscape:connector-curvature="0"
     id="path232"
     d="m 22.558839,1.90749 0.20986,0 -0.20986,0 0,0 z m 0,0 c 0.0182,0 0.0456,0 0.11861,0.0182 l 0.0821,0 0.0182,-0.0182 -0.21898,0 0,0 z m -2.63694,-0.0821 c 0.51097,0.0182 1.87049,0.0639 2.5092,0.0821 0.0821,0 0.14599,0 0.20986,0.0182 l 0.0365,0 c 0.55659,0.0639 2.7738,0.34673 2.7738,0.34673 0,0 2.29933,0.85768 2.21721,5.15525 -0.11861,5.0275 -1.16791,6.277541 -1.16791,6.277541 l -3.02016,-0.6752 -2.69167,-0.310231 c 0,0 0.31022,-0.96718 0.31022,-6.1133 0,-4.18807 -1.39602,-4.78115 -1.39602,-4.78115 l 0.21898,0 0,0 z" /></svg>