<?xml version="1.0" encoding="UTF-8" standalone="no"?>
<!-- Generator: Adobe Illustrator 19.2.0, SVG Export Plug-In . SVG Version: 6.00 Build 0)  -->

<svg
   xmlns:dc="http://purl.org/dc/elements/1.1/"
   xmlns:cc="http://creativecommons.org/ns#"
   xmlns:rdf="http://www.w3.org/1999/02/22-rdf-syntax-ns#"
   xmlns:svg="http://www.w3.org/2000/svg"
   xmlns="http://www.w3.org/2000/svg"
   xmlns:sodipodi="http://sodipodi.sourceforge.net/DTD/sodipodi-0.dtd"
   xmlns:inkscape="http://www.inkscape.org/namespaces/inkscape"
   version="1.1"
   id="Layer_1"
   x="0px"
   y="0px"
   viewBox="0 0 32 32"
   enable-background="new 0 0 32 32"
   xml:space="preserve"
   inkscape:version="0.91 r13725"
   sodipodi:docname="icon - Copy (15).svg"><metadata
     id="metadata8"><rdf:RDF><cc:Work
         rdf:about=""><dc:format>image/svg+xml</dc:format><dc:type
           rdf:resource="http://purl.org/dc/dcmitype/StillImage" /><dc:title /></cc:Work></rdf:RDF></metadata><defs
     id="defs6" /><sodipodi:namedview
     pagecolor="#ffffff"
     bordercolor="#666666"
     borderopacity="1"
     objecttolerance="10"
     gridtolerance="10"
     guidetolerance="10"
     inkscape:pageopacity="0"
     inkscape:pageshadow="2"
     inkscape:window-width="1280"
     inkscape:window-height="962"
     id="namedview4"
     showgrid="false"
     inkscape:zoom="24.8125"
     inkscape:cx="16"
     inkscape:cy="16"
     inkscape:window-x="1272"
     inkscape:window-y="-8"
     inkscape:window-maximized="1"
     inkscape:current-layer="Layer_1" /><path
     style="fill:none;stroke:#505050;stroke-width:1.4202776;stroke-miterlimit:3.86369991"
     inkscape:connector-curvature="0"
     id="path282"
     d="M 1.2101399,15.919396 C 1.2101399,7.7519854 7.8325899,1.1295354 16,1.1295354 c 8.16741,0 14.78986,6.62245 14.78986,14.7898606 0,8.16741 -6.62245,14.78986 -14.78986,14.78986 -8.1674101,0 -14.7898601,-6.62245 -14.7898601,-14.78986 z"
     stroke-miterlimit="3.8637" /><path
     style="fill:none;stroke:#505050;stroke-width:1.4202776;stroke-miterlimit:3.86369991"
     inkscape:connector-curvature="0"
     id="path284"
     d="m 4.3668699,18.708676 c 0,-2.29656 1.8623,-4.15887 4.15886,-4.15887 2.2965701,0 4.1588701,1.86231 4.1588701,4.15887 0,2.29656 -1.8623,4.15886 -4.1588701,4.15886 -2.29656,-0.008 -4.15886,-1.8623 -4.15886,-4.15886 z"
     stroke-miterlimit="3.8637" /><path
     style="fill:none;stroke:#505050;stroke-width:1.4202776;stroke-miterlimit:3.86369991"
     inkscape:connector-curvature="0"
     id="path286"
     d="m 20.23403,18.541656 c 0,-2.14625 1.73703,-3.88328 3.89162,-3.88328 2.14625,0 3.88328,1.73703 3.88328,3.88328 0,2.14624 -1.74538,3.88327 -3.88328,3.88327 -2.15459,0 -3.89162,-1.73703 -3.89162,-3.88327 z"
     stroke-miterlimit="3.8637" /><line
     style="fill:none;fill-rule:evenodd;stroke:#505050;stroke-width:1.06527078;stroke-miterlimit:3.86369991"
     id="line288"
     y2="11.251113"
     x2="9.8619061"
     y1="14.624969"
     x1="9.0184612"
     stroke-miterlimit="3.8637" /><line
     style="fill:none;fill-rule:evenodd;stroke:#505050;stroke-width:1.06527078;stroke-miterlimit:3.86369991"
     id="line290"
     y2="11.626907"
     x2="12.300459"
     y1="10.783447"
     x1="8.191679"
     stroke-miterlimit="3.8637" /><line
     style="fill:none;fill-rule:evenodd;stroke:#505050;stroke-width:1.06527078;stroke-miterlimit:3.86369991"
     id="line292"
     y2="10.641479"
     x2="21.019026"
     y1="14.533112"
     x1="23.833357"
     stroke-miterlimit="3.8637" /><polyline
     transform="matrix(0.08351136,0,0,0.08351136,-182.45639,-23.372694)"
     style="fill:none;fill-rule:evenodd;stroke:#505050;stroke-width:12.75599957;stroke-miterlimit:3.86369991"
     id="polyline294"
     points="     2445.4,374.7 2457.8,392.7 2416.3,417.9 2402.8,400    "
     stroke-miterlimit="3.8637" /><line
     style="fill:none;fill-rule:evenodd;stroke:#505050;stroke-width:1.06527078;stroke-miterlimit:3.86369991"
     id="line296"
     y2="14.299271"
     x2="23.733152"
     y1="14.299271"
     x1="9.0602093"
     stroke-miterlimit="3.8637" /><line
     style="fill:none;fill-rule:evenodd;stroke:#505050;stroke-width:1.06527078;stroke-miterlimit:3.86369991"
     id="line298"
     y2="19.151291"
     x2="12.859982"
     y1="14.391144"
     x1="20.643232"
     stroke-miterlimit="3.8637" /></svg>