<?xml version="1.0" encoding="UTF-8" standalone="no"?>
<!-- Generator: Adobe Illustrator 19.2.0, SVG Export Plug-In . SVG Version: 6.00 Build 0)  -->

<svg
   xmlns:dc="http://purl.org/dc/elements/1.1/"
   xmlns:cc="http://creativecommons.org/ns#"
   xmlns:rdf="http://www.w3.org/1999/02/22-rdf-syntax-ns#"
   xmlns:svg="http://www.w3.org/2000/svg"
   xmlns="http://www.w3.org/2000/svg"
   xmlns:sodipodi="http://sodipodi.sourceforge.net/DTD/sodipodi-0.dtd"
   xmlns:inkscape="http://www.inkscape.org/namespaces/inkscape"
   version="1.1"
   id="Layer_1"
   x="0px"
   y="0px"
   viewBox="0 0 32 32"
   enable-background="new 0 0 32 32"
   xml:space="preserve"
   inkscape:version="0.91 r13725"
   sodipodi:docname="icon - Copy (2).svg"><metadata
     id="metadata8"><rdf:RDF><cc:Work
         rdf:about=""><dc:format>image/svg+xml</dc:format><dc:type
           rdf:resource="http://purl.org/dc/dcmitype/StillImage" /><dc:title /></cc:Work></rdf:RDF></metadata><defs
     id="defs6" /><sodipodi:namedview
     pagecolor="#ffffff"
     bordercolor="#666666"
     borderopacity="1"
     objecttolerance="10"
     gridtolerance="10"
     guidetolerance="10"
     inkscape:pageopacity="0"
     inkscape:pageshadow="2"
     inkscape:window-width="1280"
     inkscape:window-height="962"
     id="namedview4"
     showgrid="false"
     inkscape:zoom="24.8125"
     inkscape:cx="16"
     inkscape:cy="16"
     inkscape:window-x="1305"
     inkscape:window-y="25"
     inkscape:window-maximized="0"
     inkscape:current-layer="Layer_1" /><polygon
     transform="matrix(0.08627888,0,0,0.08627888,-105.55471,-128.84465)"
     style="fill:#4fa26a;fill-rule:evenodd"
     id="polygon166"
     points="1253.7,1766.1 1282.5,1803.9 1320.3,1830.9 1361.7,1848.9 1408.5,1856.1 1458.9,1784.1 1358.1,1784.1 1356.3,1782.2 1354.5,1780.4 1354.5,1776.9 1352.7,1775.1 1352.7,1773.3 1354.5,1771.5 1354.5,1769.6 1356.3,1767.9 1358.1,1766.1 1359.9,1764.3 1376.1,1764.3 1379.7,1760.7 1379.7,1674.3 1376.1,1668.9 1372.5,1667.1 1359.9,1667.1 1356.3,1665.3 1354.5,1663.5 1352.7,1659.8 1352.7,1654.5 1356.3,1649.1 1428.3,1649.1 1406.7,1638.3 1390.5,1634.6 1376.1,1620.3 1372.5,1604.1 1376.1,1586.1 1390.5,1575.3 1406.7,1569.8 1408.5,1499.6 1361.7,1506.9 1320.3,1523.1 1282.5,1551.9 1253.7,1587.9 1237.5,1631.1 1230.3,1677.9 1237.5,1722.9 " /><polygon
     transform="matrix(0.08627888,0,0,0.08627888,-105.55471,-128.84465)"
     style="fill:#4fa26a;fill-rule:evenodd"
     id="polygon168"
     points="1428.3,1651.9 1431.9,1651.9 1435.5,1655.5 1435.5,1657.3 1437.3,1657.3 1437.3,1763.5 1439.1,1767.1 1440.9,1767.1 1444.5,1770.7 1460.7,1770.7 1462.5,1772.5 1464.3,1776.1 1464.3,1781.5 1462.5,1785.1 1460.7,1786.9 1458.9,1786.9 1408.5,1858.9 1455.3,1851.7 1496.7,1833.7 1534.5,1806.7 1563.3,1768.9 1579.5,1725.7 1584.9,1680.7 1579.5,1633.9 1563.3,1590.7 1534.5,1554.7 1496.7,1525.9 1455.3,1509.7 1408.5,1502.5 1406.7,1572.7 1424.7,1578.1 1435.5,1588.9 1440.9,1606.9 1435.5,1623.1 1424.7,1637.5 1406.7,1641.1 " /></svg>