<?xml version="1.0" encoding="UTF-8" standalone="no"?>
<!-- Generator: Adobe Illustrator 19.2.0, SVG Export Plug-In . SVG Version: 6.00 Build 0)  -->

<svg
   xmlns:dc="http://purl.org/dc/elements/1.1/"
   xmlns:cc="http://creativecommons.org/ns#"
   xmlns:rdf="http://www.w3.org/1999/02/22-rdf-syntax-ns#"
   xmlns:svg="http://www.w3.org/2000/svg"
   xmlns="http://www.w3.org/2000/svg"
   xmlns:sodipodi="http://sodipodi.sourceforge.net/DTD/sodipodi-0.dtd"
   xmlns:inkscape="http://www.inkscape.org/namespaces/inkscape"
   version="1.1"
   id="Layer_1"
   x="0px"
   y="0px"
   viewBox="0 0 32 32"
   enable-background="new 0 0 32 32"
   xml:space="preserve"
   inkscape:version="0.91 r13725"
   sodipodi:docname="icon - Copy (4).svg"><metadata
     id="metadata8"><rdf:RDF><cc:Work
         rdf:about=""><dc:format>image/svg+xml</dc:format><dc:type
           rdf:resource="http://purl.org/dc/dcmitype/StillImage" /><dc:title /></cc:Work></rdf:RDF></metadata><defs
     id="defs6" /><sodipodi:namedview
     pagecolor="#ffffff"
     bordercolor="#666666"
     borderopacity="1"
     objecttolerance="10"
     gridtolerance="10"
     guidetolerance="10"
     inkscape:pageopacity="0"
     inkscape:pageshadow="2"
     inkscape:window-width="1280"
     inkscape:window-height="962"
     id="namedview4"
     showgrid="false"
     inkscape:zoom="24.8125"
     inkscape:cx="16"
     inkscape:cy="16"
     inkscape:window-x="1272"
     inkscape:window-y="-8"
     inkscape:window-maximized="1"
     inkscape:current-layer="Layer_1" /><polygon
     transform="matrix(0.08698092,0,0,0.08698092,-109.3869,-285.06693)"
     style="fill:#6f6f6e;fill-rule:evenodd"
     id="polygon108"
     points="1286.4,3549.3 1315.2,3585.3 1353,3614.1 1394.4,3632.1 1441.2,3637.5 1491.6,3567.3 1394.4,3567.3 1390.8,3565.5 1389,3565.5 1387.2,3561.9 1387.2,3560.1 1385.4,3558.3 1385.4,3554.7 1387.2,3552.9 1387.2,3551.1 1389,3551.1 1390.8,3549.3 1394.4,3547.5 1407,3547.5 1407,3545.7 1408.8,3545.7 1412.4,3542.1 1412.4,3455.7 1408.8,3450.3 1405.2,3448.5 1389,3448.5 1387.2,3446.7 1385.4,3443.1 1385.4,3435.9 1389,3432.3 1390.8,3430.5 1461,3430.5 1439.4,3421.5 1423.2,3416.1 1408.8,3403.5 1405.2,3387.3 1408.8,3369.3 1423.2,3356.7 1439.4,3353.1 1441.2,3282.9 1394.4,3288.3 1353,3306.3 1315.2,3333.3 1286.4,3371.1 1270.2,3414.3 1263,3459.3 1270.2,3506.1 " /><polygon
     transform="matrix(0.08698092,0,0,0.08698092,-109.3869,-285.06693)"
     style="fill:#6f6f6e;fill-rule:evenodd"
     id="polygon110"
     points="1461,3430.5 1464.6,3430.5 1464.6,3432.3 1466.4,3434.1 1468.2,3434.1 1468.2,3437.7 1470,3437.7 1470,3542.1 1471.8,3545.7 1473.6,3547.5 1477.2,3549.3 1491.6,3549.3 1491.6,3551.1 1495.2,3551.1 1497,3554.7 1497,3560.1 1495.2,3565.5 1493.4,3567.3 1491.6,3567.3 1441.2,3637.5 1488,3632.1 1529.4,3614.1 1567.2,3585.3 1596,3549.3 1612.2,3506.1 1619.4,3459.3 1612.2,3414.3 1596,3371.1 1567.2,3333.3 1529.4,3306.3 1488,3288.3 1441.2,3282.9 1439.4,3353.1 1457.4,3356.7 1468.2,3369.3 1473.6,3387.3 1468.2,3403.5 1457.4,3416.1 1439.4,3421.5 " /></svg>