<?xml version="1.0" encoding="UTF-8" standalone="no"?>
<!-- Generator: Adobe Illustrator 19.2.0, SVG Export Plug-In . SVG Version: 6.00 Build 0)  -->

<svg
   xmlns:dc="http://purl.org/dc/elements/1.1/"
   xmlns:cc="http://creativecommons.org/ns#"
   xmlns:rdf="http://www.w3.org/1999/02/22-rdf-syntax-ns#"
   xmlns:svg="http://www.w3.org/2000/svg"
   xmlns="http://www.w3.org/2000/svg"
   xmlns:sodipodi="http://sodipodi.sourceforge.net/DTD/sodipodi-0.dtd"
   xmlns:inkscape="http://www.inkscape.org/namespaces/inkscape"
   version="1.1"
   id="Layer_1"
   x="0px"
   y="0px"
   viewBox="0 0 32 32"
   enable-background="new 0 0 32 32"
   xml:space="preserve"
   inkscape:version="0.91 r13725"
   sodipodi:docname="icon - Copy (29).svg"><metadata
     id="metadata8"><rdf:RDF><cc:Work
         rdf:about=""><dc:format>image/svg+xml</dc:format><dc:type
           rdf:resource="http://purl.org/dc/dcmitype/StillImage" /><dc:title /></cc:Work></rdf:RDF></metadata><defs
     id="defs6" /><sodipodi:namedview
     pagecolor="#ffffff"
     bordercolor="#666666"
     borderopacity="1"
     objecttolerance="10"
     gridtolerance="10"
     guidetolerance="10"
     inkscape:pageopacity="0"
     inkscape:pageshadow="2"
     inkscape:window-width="1280"
     inkscape:window-height="962"
     id="namedview4"
     showgrid="false"
     inkscape:zoom="24.8125"
     inkscape:cx="16"
     inkscape:cy="16"
     inkscape:window-x="1272"
     inkscape:window-y="-8"
     inkscape:window-maximized="1"
     inkscape:current-layer="Layer_1" /><polygon
     style="fill:#6f6f6e;fill-rule:evenodd"
     id="polygon52"
     points="263.6,4176.5 263.6,4183.7 265.4,4183.7 267.2,4185.5 267.2,4297.1 265.4,4297.1 263.6,4298.9 263.6,4302.5 265.4,4304.3 260,4306.1 252.8,4306.1 252.8,4311.5 303.2,4311.5 303.2,4306.1 296,4306.1 292.4,4304.3 292.4,4302.5 294.2,4302.5 294.2,4300.7 292.4,4300.7 290.6,4298.9 290.6,4185.5 292.4,4183.7 292.4,4178.3 290.6,4176.5 296,4176.5 296,4165.7 297.8,4163.9 301.4,4162.1 305,4158.5 305,4156.7 303.2,4154.9 306.8,4154.9 306.8,4147.7 249.2,4147.7 249.2,4154.9 252.8,4154.9 251,4156.7 251,4160.3 252.8,4162.1 254.6,4163.9 256.4,4163.9 258.2,4165.7 260,4167.5 260,4171.1 258.2,4176.5 "
     transform="matrix(0.0808555,0,0,0.0808555,-17.13471,-323.23797)" /><polygon
     style="fill:#6f6f6e;fill-rule:evenodd"
     id="polygon54"
     points="396.8,4176.5 395,4178.3 395,4181.9 396.8,4183.7 400.4,4185.5 400.4,4297.1 396.8,4297.1 396.8,4298.9 395,4300.7 395,4302.5 396.8,4304.3 391.4,4306.1 384.2,4306.1 384.2,4311.5 434.6,4311.5 434.6,4306.1 429.2,4306.1 423.8,4304.3 423.8,4302.5 425.6,4302.5 425.6,4300.7 423.8,4298.9 422,4298.9 422,4185.5 423.8,4185.5 423.8,4183.7 425.6,4181.9 425.6,4180.1 423.8,4178.3 423.8,4176.5 429.2,4176.5 427.4,4172.9 427.4,4169.3 429.2,4165.7 431,4163.9 434.6,4162.1 436.4,4160.3 436.4,4154.9 438.2,4154.9 438.2,4147.7 380.6,4147.7 380.6,4154.9 384.2,4154.9 384.2,4160.3 386,4162.1 387.8,4163.9 389.6,4163.9 391.4,4165.7 391.4,4167.5 393.2,4169.3 391.4,4171.1 389.6,4176.5 "
     transform="matrix(0.0808555,0,0,0.0808555,-17.13471,-323.23797)" /><polygon
     style="fill:#6f6f6e;fill-rule:evenodd"
     id="polygon56"
     points="531.8,4185.5 531.8,4297.1 530,4297.1 528.2,4298.9 528.2,4304.3 522.8,4306.1 517.4,4306.1 517.4,4311.5 567.8,4311.5 567.8,4306.1 560.6,4306.1 557,4304.3 557,4300.7 555.2,4298.9 553.4,4298.9 553.4,4185.5 555.2,4185.5 557,4183.7 557,4178.3 555.2,4176.5 560.6,4176.5 558.8,4172.9 558.8,4169.3 560.6,4165.7 562.4,4163.9 566,4162.1 567.8,4160.3 567.8,4154.9 571.4,4154.9 571.4,4147.7 512,4147.7 512,4154.9 515.6,4154.9 515.6,4160.3 517.4,4162.1 519.2,4163.9 521,4163.9 522.8,4165.7 522.8,4167.5 524.6,4169.3 524.6,4171.1 521,4176.5 528.2,4176.5 528.2,4183.7 530,4183.7 "
     transform="matrix(0.0808555,0,0,0.0808555,-17.13471,-323.23797)" /><polygon
     style="fill:#6f6f6e;fill-rule:evenodd"
     id="polygon58"
     points="218.6,4311.5 218.6,4351.1 602,4351.1 602,4311.5 303.2,4311.5 252.8,4311.5 "
     transform="matrix(0.0808555,0,0,0.0808555,-17.13471,-323.23797)" /><polygon
     style="fill:#6f6f6e;fill-rule:evenodd"
     id="polygon60"
     points="303.2,4124.3 308.6,4117.1 317.6,4109.9 324.8,4104.5 333.8,4102.7 344.6,4100.9 353.6,4102.7 364.4,4104.5 373.4,4109.9 378.8,4113.5 384.2,4120.7 389.6,4129.7 391.4,4140.5 393.2,4147.7 427.4,4147.7 427.4,4140.5 429.2,4133.3 434.6,4124.3 440,4115.3 449,4109.9 458,4104.5 467,4100.9 477.8,4100.9 490.4,4102.7 497.6,4104.5 504.8,4109.9 510.2,4115.3 515.6,4120.7 521,4127.9 522.8,4136.9 524.6,4147.7 560.6,4147.7 560.6,4138.7 564.2,4129.7 567.8,4120.7 571.4,4113.5 578.6,4106.3 584,4100.9 593,4100.9 602,4099.1 602,4045.1 218.6,4045.1 218.6,4100.9 236.6,4100.9 240.2,4102.7 245.6,4106.3 249.2,4109.9 252.8,4115.3 256.4,4120.7 258.2,4127.9 260,4136.9 260,4147.7 296,4147.7 296,4140.5 299.6,4131.5 "
     transform="matrix(0.0808555,0,0,0.0808555,-17.13471,-323.23797)" /></svg>