<?xml version="1.0" encoding="UTF-8" standalone="no"?>
<!-- Generator: Adobe Illustrator 19.2.0, SVG Export Plug-In . SVG Version: 6.00 Build 0)  -->

<svg
   xmlns:dc="http://purl.org/dc/elements/1.1/"
   xmlns:cc="http://creativecommons.org/ns#"
   xmlns:rdf="http://www.w3.org/1999/02/22-rdf-syntax-ns#"
   xmlns:svg="http://www.w3.org/2000/svg"
   xmlns="http://www.w3.org/2000/svg"
   xmlns:sodipodi="http://sodipodi.sourceforge.net/DTD/sodipodi-0.dtd"
   xmlns:inkscape="http://www.inkscape.org/namespaces/inkscape"
   version="1.1"
   id="Layer_1"
   x="0px"
   y="0px"
   viewBox="0 0 32 32"
   enable-background="new 0 0 32 32"
   xml:space="preserve"
   inkscape:version="0.91 r13725"
   sodipodi:docname="icon - Copy (21).svg"><metadata
     id="metadata8"><rdf:RDF><cc:Work
         rdf:about=""><dc:format>image/svg+xml</dc:format><dc:type
           rdf:resource="http://purl.org/dc/dcmitype/StillImage" /><dc:title /></cc:Work></rdf:RDF></metadata><defs
     id="defs6" /><sodipodi:namedview
     pagecolor="#ffffff"
     bordercolor="#666666"
     borderopacity="1"
     objecttolerance="10"
     gridtolerance="10"
     guidetolerance="10"
     inkscape:pageopacity="0"
     inkscape:pageshadow="2"
     inkscape:window-width="1280"
     inkscape:window-height="962"
     id="namedview4"
     showgrid="false"
     inkscape:zoom="24.8125"
     inkscape:cx="16"
     inkscape:cy="16"
     inkscape:window-x="1330"
     inkscape:window-y="50"
     inkscape:window-maximized="0"
     inkscape:current-layer="Layer_1" /><polygon
     style="fill:#6f6f6e;fill-rule:evenodd"
     id="polygon68"
     points="455.8,11649.5 446.8,11662.1 452.2,11678.3 463,11685.5 495.4,11685.5 504.4,11680.1 509.8,11662.1 500.8,11647.7 "
     transform="matrix(0.08700533,0,0,0.08700533,-19.665535,-1012.9187)" /><polygon
     style="fill:#6f6f6e;fill-rule:evenodd"
     id="polygon70"
     points="455.8,11692.7 448.7,11759.3 448.7,11779.1 508,11793.5 500.8,11692.7 499,11690.9 495.4,11687.3 461.3,11687.3 459.4,11687.3 457.7,11690.9 "
     transform="matrix(0.08700533,0,0,0.08700533,-19.665535,-1012.9187)" /><polygon
     style="fill:#6f6f6e;fill-rule:evenodd"
     id="polygon72"
     points="522.4,11705.3 513.4,11717.9 520.6,11734.1 529.6,11741.3 562,11741.3 571,11734.1 578.2,11717.9 567.4,11703.5 "
     transform="matrix(0.08700533,0,0,0.08700533,-19.665535,-1012.9187)" /><polygon
     style="fill:#6f6f6e;fill-rule:evenodd"
     id="polygon74"
     points="239.8,11831.3 236.3,11842.1 234.4,11852.9 234.4,11869.1 355,11897.9 347.9,11905.1 342.4,11912.3 338.9,11919.5 234.4,11894.3 232.7,11964.5 371.3,12000.5 373,11917.7 374.8,11908.7 382,11899.7 389.2,11892.5 396.4,11887.1 410.8,11883.5 423.4,11883.5 428.9,11885.3 432.4,11878.1 439.6,11867.3 448.7,11858.3 459.4,11851.1 468.4,11847.5 482.9,11845.7 495.4,11849.3 504.4,11854.7 513.4,11860.1 518.9,11867.3 522.4,11874.5 529.6,11872.7 540.4,11872.7 551.3,11874.5 560.2,11879.9 565.6,11887.1 571,11894.3 572.8,11905.1 572.8,11966.3 589,11962.7 589,11874.5 587.2,11869.1 585.4,11861.9 581.8,11854.7 571,11752.1 562,11743.1 529.6,11743.1 518.9,11752.1 511.6,11820.5 338.9,11775.5 331.6,11777.3 320.8,11779.1 308.2,11784.5 299.2,11791.7 292,11798.9 286.6,11806.1 434.2,11842.1 425.2,11849.3 419.8,11856.5 414.4,11863.7 250.6,11822.3 "
     transform="matrix(0.08700533,0,0,0.08700533,-19.665535,-1012.9187)" /><polygon
     style="fill:#6f6f6e;fill-rule:evenodd"
     id="polygon76"
     points="383.9,12002.3 389.2,12002.3 436,11993.3 436,11939.3 434.2,11930.3 430.6,11924.9 425.2,11919.5 419.8,11915.9 400,11915.9 392.9,11921.3 387.4,11926.7 385.6,11932.1 385.6,11935.7 "
     transform="matrix(0.08700533,0,0,0.08700533,-19.665535,-1012.9187)" /><polygon
     style="fill:#6f6f6e;fill-rule:evenodd"
     id="polygon78"
     points="439.6,11993.3 511.6,11978.9 511.6,11901.5 508,11890.7 504.4,11883.5 497.2,11876.3 488.2,11870.9 477.4,11869.1 464.8,11870.9 455.8,11876.3 448.7,11883.5 443.2,11892.5 439.6,11899.7 "
     transform="matrix(0.08700533,0,0,0.08700533,-19.665535,-1012.9187)" /><polygon
     style="fill:#6f6f6e;fill-rule:evenodd"
     id="polygon80"
     points="567.4,11968.1 567.4,11919.5 565.6,11910.5 560.2,11903.3 554.8,11899.7 545.8,11897.9 538.7,11897.9 531.4,11901.5 526,11905.1 520.6,11910.5 518.9,11917.7 518.9,11977.1 "
     transform="matrix(0.08700533,0,0,0.08700533,-19.665535,-1012.9187)" /></svg>