<?xml version="1.0" encoding="UTF-8" standalone="no"?>
<!-- Generator: Adobe Illustrator 19.2.0, SVG Export Plug-In . SVG Version: 6.00 Build 0)  -->

<svg
   xmlns:dc="http://purl.org/dc/elements/1.1/"
   xmlns:cc="http://creativecommons.org/ns#"
   xmlns:rdf="http://www.w3.org/1999/02/22-rdf-syntax-ns#"
   xmlns:svg="http://www.w3.org/2000/svg"
   xmlns="http://www.w3.org/2000/svg"
   xmlns:sodipodi="http://sodipodi.sourceforge.net/DTD/sodipodi-0.dtd"
   xmlns:inkscape="http://www.inkscape.org/namespaces/inkscape"
   version="1.1"
   id="Layer_1"
   x="0px"
   y="0px"
   viewBox="0 0 32 32"
   enable-background="new 0 0 32 32"
   xml:space="preserve"
   inkscape:version="0.91 r13725"
   sodipodi:docname="icon - Copy (50) - Copy.svg"><metadata
     id="metadata8"><rdf:RDF><cc:Work
         rdf:about=""><dc:format>image/svg+xml</dc:format><dc:type
           rdf:resource="http://purl.org/dc/dcmitype/StillImage" /><dc:title /></cc:Work></rdf:RDF></metadata><defs
     id="defs6" /><sodipodi:namedview
     pagecolor="#ffffff"
     bordercolor="#666666"
     borderopacity="1"
     objecttolerance="10"
     gridtolerance="10"
     guidetolerance="10"
     inkscape:pageopacity="0"
     inkscape:pageshadow="2"
     inkscape:window-width="1280"
     inkscape:window-height="962"
     id="namedview4"
     showgrid="false"
     inkscape:zoom="24.8125"
     inkscape:cx="16"
     inkscape:cy="16"
     inkscape:window-x="1272"
     inkscape:window-y="-8"
     inkscape:window-maximized="1"
     inkscape:current-layer="Layer_1" /><path
     inkscape:connector-curvature="0"
     id="path4154"
     d="m 1.5549397,29.969836 c -0.085827,-0.189095 -0.1235255,-0.425377 -0.067983,-0.425377 0.01332,0 0.1092,0.05014 0.2130218,0.111462 l 0.1888318,0.111462 0.1051789,-0.133692 C 2.1382614,29.450288 2.3105688,28.258085 2.2655819,27.754571 2.2419575,27.490907 2.1369797,27.136127 1.8978329,26.512505 1.5854504,25.697928 1.5350223,25.605328 1.143963,25.128178 0.58437863,24.445445 0.51555373,24.351601 0.54948243,24.317672 c 0.015833,-0.01583 0.2691423,0.259705 0.56278867,0.612438 0.5284202,0.634742 0.5373924,0.6504 0.8740904,1.526903 0.4132763,1.075828 0.4612917,1.41289 0.3278138,2.301507 -0.1211379,0.806535 -0.1221432,0.810104 -0.2779009,0.995228 -0.092236,0.109703 -0.1713901,0.153999 -0.2418486,0.135577 -0.082183,-0.02149 -0.1093257,0.0063 -0.126001,0.128225 l -0.021237,0.155607 -0.092236,-0.20322 z m 3.5481469,-0.0013 C 5.0449052,29.665144 4.7886935,29.227188 4.0478925,28.164743 3.6186069,27.549076 3.3038871,27.040423 3.2597421,26.890898 3.2065872,26.711088 2.9911904,26.4048 2.4836427,25.787613 2.0972078,25.317713 1.6861431,24.793515 1.5701825,24.622741 1.4541967,24.451967 1.2877829,24.252052 1.20036,24.178477 0.94700077,23.965292 0.87441853,23.805525 0.83240983,23.368537 c -0.0238758,-0.248032 -0.0934924,-0.527918 -0.1763411,-0.709172 -0.1308013,-0.285969 -0.135589,-0.332614 -0.1065612,-1.038745 0.016713,-0.406629 0.058558,-0.825422 0.09299,-0.930639 0.038201,-0.116614 0.070999,-0.76435 0.083942,-1.659903 0.019855,-1.362399 0.033677,-1.534317 0.1918227,-2.37752 0.093744,-0.499907 0.21464287,-1.019707 0.26870247,-1.155108 0.2503433,-0.627027 0.8087589,-2.496534 0.8204832,-2.74689 0.00503,-0.103545 -0.1573411,-0.0075 -0.718094,0.423618 -0.33213653,0.255534 -0.62404877,0.46461 -0.64871617,0.46461 -0.02463,0 -0.057553,0.05529 -0.073135,0.123022 -0.015582,0.06761 -0.017216,-0.07163 -0.00377,-0.309454 0.0193516,-0.341662 0.0653438,-0.525228 0.2192669,-0.874555 0.1070638,-0.243181 0.20810844,-0.472878 0.22444447,-0.510451 0.045867,-0.105556 -0.078664,-0.08093 -0.25685267,0.05077 -0.2671945,0.197553 -0.2428413,0.07175 0.0299075,-0.154463 0.13968564,-0.115863 0.36362747,-0.373269 0.49767077,-0.572078 l 0.243721,-0.361466 -0.059312,-0.371305 c -0.034431,-0.215498 -0.038955,-0.391613 -0.01131,-0.419698 0.028148,-0.02815 0.073638,0.130311 0.1085717,0.377475 0.050642,0.358714 0.047123,0.445798 -0.022116,0.552196 -0.2023908,0.310899 0.024504,0.184974 0.9920114,-0.550524 C 3.1001266,10.184648 3.7705194,9.7037283 4.0195055,9.5495414 4.7541742,9.0945831 5.3797937,8.5761153 5.6187898,8.2241749 5.7377914,8.0489019 5.835217,7.8838327 5.835217,7.8573558 5.835217,7.8308411 5.7732657,7.7510459 5.6976928,7.6800345 5.5425508,7.534292 5.2650394,7.0849257 5.305314,7.0446637 5.3197651,7.0302126 5.4370201,7.1685661 5.5657982,7.3521202 5.8983871,7.8262545 5.9491419,7.8043014 6.3569645,7.0096794 6.5387216,6.6555772 6.7723896,6.2840206 6.876249,6.184019 7.1083714,5.9604919 9.8795646,4.1869274 11.219256,3.4044947 12.43301,2.6956243 13.823042,2.1249441 14.772178,1.9458259 c 0.330704,-0.062454 0.650463,-0.1109594 0.710592,-0.1079435 0.131781,0.00628 0.0088,0.042474 -0.812479,0.2363446 -0.994084,0.234711 -2.252122,0.7690749 -3.442302,1.4621245 -1.005872,0.5857345 -2.2771404,1.3897559 -2.2771404,1.4402091 0,0.050893 0.426194,-0.1709754 0.792574,-0.4126983 0.5636044,-0.371833 3.3266544,-1.5860897 3.9887034,-1.7528806 0.241333,-0.06082 0.678221,-0.2079827 0.970875,-0.3270849 0.507548,-0.2065627 0.591967,-0.2227605 1.831118,-0.351325 0.714475,-0.07414 1.397434,-0.1519879 1.517679,-0.1730237 l 0.218652,-0.038327 -0.163989,-0.042599 c -0.140754,-0.036568 -0.133025,-0.039583 0.05466,-0.021362 0.525982,0.050893 1.149993,0.1605454 1.913112,0.3362205 2.146968,0.494215 3.157628,0.6691362 3.279909,0.5676517 0.04159,-0.034431 0.128137,-0.2207248 0.192401,-0.4138543 0.06434,-0.1931421 0.139447,-0.3511617 0.167067,-0.3511617 0.06534,0 0.06748,-0.012566 -0.05919,0.355296 -0.159942,0.4648981 -0.150015,0.5189955 0.09563,0.5206668 0.112719,7.665e-4 0.500146,0.012566 0.860909,0.025258 0.360762,0.013069 1.184763,0.037322 1.831117,0.053783 4.79118,0.1222689 4.908272,0.1290797 5.041473,0.2908441 0.05994,0.072758 0.05077,0.079544 -0.06735,0.050516 -0.498927,-0.1225207 -3.598914,-0.2300871 -3.700637,-0.128364 -0.01898,0.018975 0.05353,0.034431 0.161124,0.034431 0.107566,0 0.388408,0.039081 0.624048,0.086832 0.264745,0.053657 0.892362,0.1006551 1.642726,0.1230229 1.089952,0.032421 1.22431,0.04662 1.311858,0.1389693 0.09437,0.099524 0.09312,0.101409 -0.03908,0.060946 -0.07515,-0.022996 -0.660918,-0.061826 -1.301705,-0.08633 C 29.473758,3.49761 28.76044,3.4409366 28.529385,3.3962764 28.275084,3.347017 27.440526,3.2917258 26.414813,3.2558871 24.60654,3.1928049 23.760623,3.1219568 23.408494,3.0041489 23.288236,2.9639372 22.870096,2.8792412 22.479263,2.8159454 22.088443,2.7527375 21.707185,2.6867023 21.632039,2.6693358 c -0.30728,-0.070999 0.01483,0.1020374 0.969443,0.520692 0.618054,0.2710649 1.093785,0.5166707 1.252081,0.6464291 l 0.255281,0.2092644 3.339411,0.034431 c 3.526307,0.036316 3.698086,0.049259 3.97316,0.2981953 0.235967,0.2135496 0.09362,0.2308155 -0.387792,0.046997 -0.218828,-0.083565 -0.591427,-0.096885 -3.375287,-0.1210122 -1.792137,-0.015582 -3.127959,-0.00628 -3.12615,0.021111 0.0013,0.026515 0.371293,0.328995 0.82125,0.6721898 0.449969,0.3431822 0.848254,0.6848941 0.885086,0.7593738 0.07703,0.1555944 0.57166,0.3630996 1.406154,0.589831 0.285604,0.077533 0.76704,0.2466614 1.069872,0.375716 0.302832,0.1290421 0.890678,0.3149335 1.306329,0.4130753 0.582945,0.1376624 0.792762,0.2115389 0.917695,0.3231642 l 0.161965,0.1447247 -0.279434,0.5568197 c -0.321141,0.6399445 -0.340681,0.8166877 -0.152452,1.3787224 0.104173,0.3111388 0.138466,0.3586888 0.275701,0.3826278 0.12722,0.02224 0.191509,0.09412 0.341725,0.3826139 0.105681,0.202932 0.19744,0.472501 0.213977,0.628598 l 0.0289,0.273302 -0.110834,-0.327965 c -0.133364,-0.394816 -0.32902,-0.747436 -0.433885,-0.78198 -0.05341,-0.01759 -0.06761,0.0063 -0.04712,0.07779 0.01621,0.05667 0.05856,0.225965 0.09412,0.376269 0.03556,0.150316 0.124405,0.457786 0.19749,0.68326 0.07314,0.225475 0.148432,0.526221 0.167394,0.668332 0.01897,0.142111 0.05579,0.245191 0.08193,0.229082 0.02601,-0.01608 0.0465,0.02752 0.04536,0.09689 -0.0025,0.139585 -0.113849,0.218035 -0.996334,0.70001 -0.520742,0.284411 -0.533032,0.295607 -0.505085,0.460123 0.01571,0.09274 0.05265,0.426873 0.08206,0.742548 0.02941,0.315662 0.105682,0.733814 0.169443,0.929218 0.11121,0.340757 0.304943,1.391013 0.353888,1.918993 0.01282,0.138505 0.111337,0.851823 0.218765,1.585148 0.332815,2.270833 0.317685,3.101457 -0.07753,4.257633 -0.236446,0.691667 -0.718396,3.780131 -0.628133,4.025159 0.02061,0.05592 0.152289,0.273879 0.292616,0.484325 0.140326,0.210446 0.289776,0.455385 0.332099,0.544304 0.05868,0.1234 0.128753,0.171993 0.295594,0.205218 0.502131,0.100027 0.637884,0.295946 0.163976,0.236734 -0.337327,-0.0421 -0.344464,-0.03217 -0.212482,0.29773 0.06069,0.151712 0.158598,0.262558 0.314305,0.355887 0.155645,0.09337 0.193117,0.135715 0.120259,0.136066 -0.212721,0.001 -0.46324,-0.232637 -0.556129,-0.518756 -0.04876,-0.150317 -0.116614,-0.300784 -0.150606,-0.334386 -0.03531,-0.03493 -0.459293,-0.0862 -0.988191,-0.119756 -0.830963,-0.05265 -0.942073,-0.04926 -1.079547,0.03192 -0.08432,0.04976 -0.153232,0.13285 -0.153232,0.184585 0,0.05177 0.174343,0.249363 0.38744,0.439162 0.393497,0.350496 1.26285,1.309396 1.223129,1.349117 -0.01257,0.01257 -0.411957,-0.374811 -0.888894,-0.859476 l -0.867141,-0.881228 -0.499204,0.36834 c -0.274571,0.202592 -0.500108,0.39836 -0.501202,0.435028 -0.0011,0.03669 0.158774,0.264204 0.355259,0.505613 0.445093,0.546817 0.371317,0.582429 -0.08834,0.0426 -0.185589,-0.21796 -0.356326,-0.417058 -0.37941,-0.442455 -0.02312,-0.02538 -0.311993,0.105053 -0.642018,0.289864 -0.528684,0.296059 -1.155837,0.547219 -1.369512,0.548463 -0.152139,8.8e-4 0.08093,-0.150781 0.532491,-0.346462 0.250268,-0.108446 0.64702,-0.309743 0.881656,-0.447305 l 0.426634,-0.250127 -0.104174,-0.229433 c -0.08055,-0.177498 -0.104425,-0.35737 -0.105304,-0.794647 -0.0012,-0.55491 0.0075,-0.593275 0.467122,-2.10442 0.401112,-1.318342 0.490835,-1.68824 0.625268,-2.577762 0.08633,-0.571195 0.209339,-1.259922 0.273364,-1.530484 0.100278,-0.423757 0.113975,-0.62293 0.09902,-1.436904 -0.01131,-0.609409 -0.03883,-0.958787 -0.07766,-0.983894 -0.08608,-0.05567 -0.119756,-0.255131 -0.210144,-1.24145 -0.07929,-0.865457 -0.143004,-1.120526 -0.517061,-2.069246 -0.05215,-0.13231 -0.04335,-0.185615 0.0578,-0.34924 0.0656,-0.106184 0.09048,-0.183491 0.05529,-0.171741 -0.03531,0.01131 -0.259756,0.315159 -0.498915,0.674238 -0.471319,0.707664 -0.475265,0.733236 -0.135024,0.875397 0.164253,0.06861 0.184861,0.10832 0.303524,0.58444 0.101786,0.408577 0.12727,0.658505 0.127195,1.248726 -1.01e-4,0.689656 -0.01332,0.78296 -0.201863,1.426587 -0.19685,0.671888 -0.232663,0.976995 -0.214316,1.825702 0.005,0.227938 -0.03154,0.381609 -0.220147,0.929231 -0.0622,0.180374 -0.148721,0.475541 -0.192388,0.655929 -0.0436,0.180374 -0.137876,0.475541 -0.209365,0.655916 -0.0715,0.180388 -0.158673,0.45095 -0.193758,0.601266 -0.03506,0.150317 -0.246988,0.638588 -0.470892,1.085039 -0.667214,1.330406 -1.054591,2.444108 -1.054591,3.031904 0,0.110833 0.0475,0.367522 0.10543,0.570353 0.05806,0.202843 0.08457,0.368792 0.05906,0.368792 -0.05265,0 -0.192677,-0.415626 -0.245128,-0.727983 -0.09576,-0.569952 0.327738,-1.909493 1.03936,-3.287864 0.217772,-0.421822 0.426722,-0.902226 0.46432,-1.067572 0.03757,-0.165346 0.123651,-0.42681 0.191295,-0.581022 0.06761,-0.154212 0.140905,-0.387893 0.16287,-0.519272 0.02199,-0.131392 0.09048,-0.361868 0.152252,-0.512185 0.113975,-0.27726 0.131455,-0.387427 0.2777,-1.749136 0.0529,-0.492116 0.143418,-0.970083 0.253724,-1.339177 0.245191,-0.820382 0.281055,-1.630561 0.106309,-2.40127 -0.119755,-0.528206 -0.136054,-0.561934 -0.345997,-0.716322 -0.121138,-0.08909 -0.2375,-0.162028 -0.258511,-0.162028 -0.02098,0 -0.113598,0.117368 -0.205633,0.260924 -0.09211,0.143506 -0.242238,0.332589 -0.333657,0.420175 -0.09136,0.08759 -0.166225,0.199614 -0.166225,0.248923 0,0.04939 0.100781,0.321443 0.224105,0.60471 0.209729,0.48195 0.223665,0.545811 0.217081,0.994323 -0.0038,0.263613 -0.06861,0.804751 -0.14377,1.202533 -0.07515,0.397782 -0.148017,0.966351 -0.161802,1.263491 -0.01382,0.29714 -0.04536,0.567702 -0.07024,0.601266 -0.02488,0.03355 -0.226204,0.479161 -0.447368,0.990227 -0.465677,1.076067 -0.421721,1.005156 -1.29649,2.091652 -0.369521,0.458954 -0.671863,0.860331 -0.671863,0.891947 0,0.03167 0.07376,0.005 0.163989,-0.05931 0.09023,-0.06421 0.163976,-0.09387 0.163976,-0.06572 0,0.09827 -0.223314,0.333833 -0.291598,0.307632 -0.08721,-0.03343 -0.333029,0.222698 -0.286308,0.298296 0.0191,0.03104 0.06773,0.04373 0.107943,0.02827 0.04021,-0.01546 0.08784,0.01005 0.105807,0.05705 0.03657,0.09538 -0.07439,0.11674 -0.160281,0.03091 -0.05265,-0.05265 -0.275576,0.238883 -0.712992,0.932171 -0.187588,0.297303 -0.271844,0.730711 -0.211501,1.087866 0.02438,0.14431 0.0088,0.26301 -0.05014,0.376596 -0.06547,0.126604 -0.07251,0.20072 -0.02978,0.313162 0.06107,0.160796 0.02124,0.257732 -0.05517,0.134081 -0.0387,-0.06258 -0.06308,-0.06396 -0.130964,-0.0075 -0.07301,0.06057 -0.07967,0.0431 -0.05353,-0.140176 0.01646,-0.115231 0.06283,-0.307795 0.103168,-0.428054 0.04034,-0.120258 0.08909,-0.401803 0.108446,-0.625669 0.03933,-0.45526 0.142613,-0.696631 0.493989,-1.154103 0.281696,-0.366756 0.326657,-0.521986 0.145591,-0.502634 -0.108823,0.01131 -0.117242,-5.53e-4 -0.06635,-0.09563 0.03204,-0.05994 0.08822,-0.109577 0.124782,-0.110205 0.03657,-6.79e-4 0.492381,-0.535671 1.013035,-1.188873 0.946094,-1.186963 0.946848,-1.188132 1.331838,-2.062197 0.412422,-0.936369 0.460186,-1.08705 0.545862,-1.721805 0.03041,-0.225474 0.103294,-0.692823 0.161966,-1.038544 0.05868,-0.345733 0.133201,-0.874932 0.165647,-1.176005 l 0.05906,-0.547395 -0.230728,-0.545812 C 25.9887,18.448565 25.86613,18.182992 25.843209,18.158601 c -0.04863,-0.05177 -0.765896,0.720795 -0.7668,0.825987 -3.27e-4,0.03908 0.03958,0.148745 0.08872,0.243733 0.161789,0.31286 0.18995,0.914642 0.09978,2.133058 -0.04624,0.62479 -0.06861,1.160863 -0.04989,1.19126 0.01872,0.03041 0.01005,0.08495 -0.0181,0.121264 -0.02878,0.03632 -0.08356,0.19945 -0.121766,0.362647 -0.181933,0.775496 -0.530544,1.362173 -1.074973,1.809089 -0.384136,0.315323 -1.625548,1.83064 -1.57145,1.918164 0.01646,0.02651 -0.01784,0.04825 -0.07603,0.04825 -0.160369,0 -0.449982,0.134659 -0.824278,0.383281 -0.320701,0.213021 -0.335668,0.232763 -0.304089,0.401137 0.03116,0.166012 0.01131,0.193846 -0.308009,0.445169 -0.255332,0.200594 -0.38161,0.265008 -0.501667,0.25586 -0.08821,-0.0063 -0.538159,0.09085 -0.999815,0.216968 -0.779869,0.212959 -0.843102,0.239901 -0.89201,0.380214 -0.07866,0.225752 -0.584842,0.352306 -0.767202,0.191823 -0.05944,-0.05228 -0.125034,-0.0612 -0.210496,-0.02865 -0.182423,0.06949 -0.207304,0.199941 -0.07288,0.381823 0.124782,0.168827 0.09751,0.20547 -0.06258,0.08394 -0.05265,-0.03996 -0.09563,-0.135501 -0.09563,-0.212355 0,-0.166364 -0.07904,-0.203133 -0.300633,-0.139824 -0.25919,0.07402 -1.415341,-0.04775 -1.940444,-0.204402 -1.276559,-0.380855 -1.307711,-0.395369 -1.74803,-0.814526 C 13.085024,27.924133 12.753679,27.677107 12.529096,27.559199 11.779914,27.165852 10.979964,26.416871 10.563483,25.71882 10.446869,25.523403 10.186762,25.191342 9.9853895,24.980897 9.5845286,24.561991 9.1684126,23.950596 9.0628816,23.625522 9.0258116,23.511421 8.8157176,23.136786 8.5959726,22.793088 8.1177426,22.045112 7.5632476,20.915991 7.3169876,20.188711 7.1489531,19.692485 7.1377064,19.611936 7.1338234,18.876865 c -0.00628,-1.128052 0.1103312,-1.938055 0.3297242,-2.296694 0.06472,-0.105807 0.183177,-0.544266 0.285151,-1.055508 0.129444,-0.648968 0.237953,-1.022623 0.42064,-1.448503 0.401389,-0.935715 0.499129,-1.134637 0.991622,-2.018026 l 0.469874,-0.842826 0.6303064,-0.409946 c 0.346676,-0.225475 0.807251,-0.491991 1.023515,-0.592244 0.216264,-0.100278 0.406654,-0.204062 0.423103,-0.2306649 0.01646,-0.02664 0.09714,-0.06522 0.179219,-0.08583 0.08218,-0.02061 0.506668,-0.2555204 0.943405,-0.5220238 1.166681,-0.7118989 1.315879,-0.7636464 2.99423,-1.0383552 l 1.434901,-0.2348911 0.405171,0.1177451 c 0.222848,0.064716 0.467336,0.117745 0.543323,0.117745 0.07603,0 0.151046,0.02086 0.166829,0.046369 0.01583,0.025509 0.310372,0.126805 0.65466,0.2250724 0.501403,0.1431036 0.658492,0.2127328 0.789369,0.34988 0.288544,0.3023421 0.944298,1.3022195 1.059919,1.6161225 0.06157,0.167319 0.131203,0.328819 0.154602,0.358878 0.02388,0.03066 0.215158,0.04662 0.435895,0.03632 l 0.393359,-0.01835 -0.03456,-0.172923 C 21.707826,10.175814 21.028096,9.2026522 20.191327,8.434809 19.600755,7.8928928 19.303175,7.7272203 18.775622,7.6466837 c -0.127458,-0.019477 -0.275576,-0.05793 -0.329145,-0.08545 -0.219846,-0.1129699 -1.038092,-0.2081336 -1.78838,-0.208121 -0.712892,0 -0.855732,0.016964 -1.42087,0.1684244 -0.545774,0.146308 -0.825761,0.2719948 -2.131751,0.9569767 -0.826904,0.4337089 -1.540349,0.8130816 -1.585449,0.843052 -0.04511,0.030033 -0.118876,0.068863 -0.163976,0.08633 -0.04511,0.017467 -0.437127,0.1956427 -0.871187,0.3959353 l -0.7891804,0.3641669 -0.358689,0.567187 c -0.197264,0.311955 -0.552283,0.803896 -0.788917,1.093207 -0.248722,0.304076 -0.511405,0.698993 -0.622603,0.935978 -0.105808,0.225463 -0.214053,0.446841 -0.24058,0.491941 -0.02651,0.04511 -0.173627,0.340254 -0.326884,0.655917 -0.2494507,0.513768 -0.3147823,0.733374 -0.6231939,2.09463 -0.3692947,1.630033 -0.5034009,2.638972 -0.4437492,3.338518 0.038327,0.449328 0.2077816,1.14841 0.3573819,1.474288 0.057051,0.124154 0.2309035,0.528106 0.3864475,0.897665 0.3221467,0.76538 1.1148207,2.058967 2.0070817,3.275373 0.313463,0.42735 0.636791,0.92428 0.718508,1.104303 0.147414,0.324735 0.2270709,0.408011 1.2129374,1.268052 0.135287,0.117997 0.886066,0.691567 1.668423,1.274549 1.104089,0.822745 1.443564,1.104265 1.516825,1.257887 0.105933,0.22217 0.111713,0.249162 0.05341,0.248194 -0.02249,-3.77e-4 -0.09638,-0.0862 -0.164101,-0.190716 -0.07138,-0.110206 -0.610767,-0.555827 -1.284514,-1.061176 C 10.984323,27.55933 10.983104,27.558363 10.378093,26.990208 9.9411925,26.579935 9.7790886,26.387384 9.6759336,26.156154 9.6021736,25.990808 9.2657986,25.474263 8.9284726,25.008284 8.1131756,23.882053 7.2510606,22.509161 7.019717,21.968665 6.9166744,21.727935 6.7698638,21.397118 6.693474,21.233531 6.6170717,21.069932 6.4924655,20.727014 6.4165658,20.471481 c -0.3669699,-1.235494 -0.3276755,-2.077 0.2086488,-4.468368 0.3232271,-1.441164 0.3862339,-1.656599 0.639518,-2.186414 0.154538,-0.323239 0.301827,-0.624614 0.327323,-0.669714 0.02551,-0.04511 0.135652,-0.254163 0.244789,-0.464609 0.109075,-0.210445 0.367234,-0.583686 0.573558,-0.829417 0.206312,-0.245732 0.559647,-0.739922 0.785172,-1.098183 l 0.410072,-0.651381 0.7248914,-0.3425659 c 0.3987,-0.1884047 0.786391,-0.3824767 0.86155,-0.431246 0.07514,-0.048757 0.213889,-0.1161115 0.308286,-0.1495752 0.09437,-0.033426 0.83232,-0.4074204 1.63981,-0.8309882 1.311921,-0.6881487 1.53717,-0.7879619 2.116344,-0.9377381 0.562286,-0.1454032 0.743327,-0.167683 1.366509,-0.1681605 0.672567,-4.901e-4 1.817961,0.1235255 2.003525,0.2169173 0.04549,0.02287 0.228881,0.084068 0.407609,0.1360791 0.556619,0.1618146 0.797123,0.3250743 1.42753,0.9690276 0.845993,0.8641757 1.25095,1.4383369 1.422943,2.0174609 0.0431,0.145177 0.102163,0.278643 0.131204,0.2966 0.05026,0.03104 0.871728,-0.06258 0.913297,-0.104174 0.03054,-0.03054 -0.101535,-0.53469 -0.182273,-0.695977 C 22.707292,10.000135 22.493488,9.7418291 22.271708,9.50512 22.049927,9.2684109 21.616382,8.7434214 21.308272,8.3384893 20.826397,7.7051793 20.674233,7.5477628 20.219928,7.2125476 19.534757,6.7069853 19.391629,6.6368158 19.047001,6.6375321 c -0.156448,3.267e-4 -0.690297,-0.030033 -1.186347,-0.067355 -0.853633,-0.064339 -0.970624,-0.060443 -2.186413,0.071124 -1.236801,0.13388 -1.296704,0.1458682 -1.612479,0.3227245 -0.180388,0.101032 -0.489943,0.3137396 -0.687923,0.4726892 -0.262733,0.2109357 -0.617049,0.403638 -1.311845,0.713457 -0.523545,0.2334544 -0.988795,0.4537391 -1.033882,0.489515 -0.04511,0.035814 -0.144323,0.079795 -0.220511,0.097765 -0.07615,0.01797 -0.349529,0.1302359 -0.607437,0.2493883 l -0.4689184,0.216654 -0.591414,0.782822 c -0.325276,0.4305549 -0.915609,1.1517909 -1.311846,1.6027399 -0.7334747,0.834759 -0.9534958,1.132652 -0.9538603,1.291489 -1.131e-4,0.04888 -0.038955,0.121138 -0.086455,0.160545 -0.3418879,0.283744 -1.0176087,2.209611 -1.274122,3.631373 -0.2620801,1.452574 -0.273641,2.126422 -0.051647,3.006331 0.060695,0.240504 0.1534958,0.65368 0.206236,0.918173 0.052778,0.26448 0.1242795,0.509231 0.1588616,0.543864 0.034683,0.03468 0.062957,0.09563 0.062957,0.135526 0,0.03984 0.2659631,0.631463 0.5910374,1.314585 0.5061529,1.063689 0.6644615,1.340144 1.102405,1.925288 0.281269,0.375792 0.862103,1.215765 1.290772,1.866605 0.494391,0.750653 0.854337,1.240331 0.984371,1.339177 0.5190587,0.394565 1.3588687,1.445261 1.7125307,2.14257 0.128539,0.253435 0.119756,0.377098 -0.01131,0.163423 C 10.951861,29.039135 10.553237,28.490496 10.30028,28.294564 9.7020166,27.831137 9.2482526,27.250893 8.4062686,25.872673 8.2718986,25.65274 7.8977906,25.114229 7.5749036,24.675984 7.0673805,23.987132 6.9058047,23.709696 6.3822225,22.628125 6.0491184,21.940039 5.7523808,21.362096 5.7228,21.343812 5.69327,21.325592 5.657707,21.250952 5.64401,21.177926 5.630187,21.104916 5.595128,20.934607 5.5661,20.799332 5.3818799,19.942458 5.2655297,19.290989 5.2244258,18.886208 c -0.080298,-0.790978 0.101032,-2.067023 0.5081006,-3.574574 0.3073058,-1.138156 0.4294992,-1.42954 1.1369622,-2.711365 0.058056,-0.105179 0.4333952,-0.563166 0.8340292,-1.017659 0.400635,-0.454493 0.998998,-1.188421 1.32969,-1.6309639 L 9.6344736,9.1470343 10.235739,8.8610659 c 0.330692,-0.1572782 0.847237,-0.3923034 1.147857,-0.5222876 1.114557,-0.481875 1.647802,-0.7563454 1.948486,-1.0029188 0.169769,-0.1392207 0.45952,-0.3415361 0.643916,-0.4496052 0.325841,-0.1909681 0.36854,-0.2003299 1.522454,-0.3339209 1.201905,-0.1391326 1.477921,-0.1427643 3.359366,-0.044107 0.562575,0.02953 0.697862,0.087335 1.367162,0.5851187 0.558604,0.4154 0.678033,0.5369023 1.200371,1.2213315 0.31903,0.4180135 0.761698,0.9580824 0.983705,1.2001446 0.407144,0.4439129 0.480329,0.5677398 0.59066,0.9992998 0.03581,0.140377 0.08708,0.227825 0.125536,0.21468 0.03581,-0.01257 0.257846,-0.09425 0.493549,-0.182209 l 0.428557,-0.16003 -0.03493,-0.265285 C 23.9271,9.4731893 22.578008,7.8468754 21.333618,6.8921479 20.461563,6.2230746 19.870325,5.905163 19.336652,5.8183684 19.111177,5.7816752 18.447055,5.7418404 17.860818,5.7297769 16.972113,5.7115559 16.613223,5.7299402 15.701735,5.8407362 l -1.093206,0.1328621 -0.78565,0.362044 C 13.390778,6.5347785 12.79616,6.8556432 12.501521,7.0486973 12.117699,7.3001841 11.7712,7.4702547 11.279448,7.6485184 10.901947,7.785364 10.549579,7.9194577 10.496387,7.9465001 10.443232,7.9735173 10.26439,8.0389871 10.099044,8.0920163 9.7263826,8.211395 9.6017006,8.3201804 9.2974366,8.7911477 c -0.262395,0.4061764 -1.133884,1.5415173 -1.405929,1.8315953 -0.250871,0.267496 -0.7288001,0.536362 -1.0815451,0.608416 -0.3376154,0.06899 -0.3932584,0.112719 -0.4511005,0.354077 -0.044233,0.184585 -0.2905425,0.741115 -0.7774189,1.756625 -0.475328,0.991396 -1.0163898,2.708664 -1.1643439,3.695448 -0.1311783,0.87492 -0.1447623,1.832425 -0.03418,2.410318 0.1071895,0.559923 0.5175379,1.857632 0.6109171,1.931747 0.042097,0.03343 0.076528,0.109577 0.076528,0.169204 0,0.122143 0.6825191,1.714478 1.0346358,2.413936 0.1561096,0.310096 0.6132419,0.952604 1.4194625,1.995094 1.051424,1.359572 1.862143,2.476491 2.069309,2.850888 0.0377,0.06811 0.115106,0.341724 0.171993,0.607901 0.05692,0.266189 0.121515,0.54546 0.143556,0.620618 0.03632,0.123777 0.03192,0.128879 -0.0475,0.05429 -0.048128,-0.04537 -0.126654,-0.278998 -0.174368,-0.519276 -0.047752,-0.240265 -0.128326,-0.522451 -0.179169,-0.627052 -0.220146,-0.45296 -0.997314,-1.554649 -2.082981,-2.952774 C 6.1674289,24.37231 6.1312132,24.311779 5.2347047,22.329955 4.8607228,21.503239 4.3905595,20.074264 4.2732919,19.407943 4.0131596,17.929859 4.4937277,15.434041 5.4265902,13.418239 c 0.1648305,-0.356151 0.2996781,-0.677782 0.2996781,-0.714726 0,-0.03694 0.034934,-0.106059 0.077533,-0.153459 0.1212636,-0.134998 0.4690827,-0.963071 0.4690827,-1.116806 0,-0.169442 0.033929,-0.19147 0.4425429,-0.286785 0.4547196,-0.106058 0.8000505,-0.296976 1.0944255,-0.604973 0.349868,-0.36609 1.18631,-1.4517323 1.432908,-1.8598314 0.195417,-0.3234027 0.476635,-0.6180669 0.589881,-0.6180669 0.02915,0 0.1549291,-0.049134 0.2793716,-0.1093257 0.124405,-0.060192 0.252391,-0.1093257 0.284334,-0.1094514 0.03192,-5.03e-5 0.388421,-0.1232742 0.79221,-0.2736787 0.505826,-0.1884926 0.908207,-0.3845249 1.293775,-0.6303192 0.307783,-0.1962208 0.907592,-0.5173871 1.332882,-0.7137084 l 0.773284,-0.3569547 1.130579,-0.1348727 c 0.937072,-0.111839 1.33028,-0.1322716 2.297234,-0.11963 0.641667,0.0088 1.176345,0.030913 1.188195,0.050139 0.01131,0.019226 0.13868,0.052275 0.281847,0.073386 0.99563,0.1475017 3.174353,1.9525445 4.181544,3.4643428 0.242653,0.3642306 0.424486,0.6950224 0.425013,0.7732214 0.0025,0.2836689 0.07502,0.3125089 0.394855,0.1556699 0.360636,-0.1768809 0.642948,-0.4092929 0.642948,-0.5292995 0,-0.1744311 -0.27863,-0.9252222 -0.434676,-1.1712802 C 24.254474,7.7355517 21.431093,5.7524463 20.115955,5.2148528 19.514111,4.9688197 19.565193,4.9758442 17.970206,4.9202012 17.048075,4.8880318 16.547816,4.899467 15.647135,4.9734818 l -1.147869,0.094246 -0.71058,0.3296735 c -0.39082,0.1813173 -0.932699,0.4845014 -1.204153,0.6737228 -0.471496,0.3286808 -0.541175,0.3579223 -1.557829,0.6539939 -0.585332,0.1704727 -1.0876145,0.3322873 -1.1161764,0.3596188 -0.02853,0.027268 -0.107693,0.049636 -0.175738,0.049636 -0.236156,0 -0.490006,0.2963984 -0.619789,0.7236734 -0.252957,0.8327983 -0.647183,1.4131921 -1.471888,2.1669358 -0.44517,0.406868 -0.5608537,0.480581 -1.1378673,0.725044 -0.5230041,0.221591 -0.6870052,0.319721 -0.8829244,0.528319 -0.2205992,0.234887 -0.5518184,0.821375 -0.5519189,0.977309 -2.51e-5,0.03581 -0.047752,0.146547 -0.1060585,0.24597 -0.3411213,0.581387 -1.0708264,2.551901 -1.5951626,4.307634 -0.2942621,0.985352 -0.342579,1.650014 -0.2071156,2.849317 0.090853,0.804562 0.1114619,0.887159 0.3539765,1.421171 0.1416208,0.311817 0.29102,0.60579 0.3319983,0.653253 0.040966,0.0475 0.074517,0.11586 0.074517,0.151875 0,0.112216 0.3193693,0.704598 0.4817871,0.893668 0.2273849,0.264682 0.812579,1.314573 1.0223335,1.834159 0.1154832,0.286144 0.3094043,0.616609 0.5291239,0.901899 0.1907419,0.247642 0.4408339,0.59482 0.5557641,0.771475 0.1149805,0.176668 0.3486485,0.471835 0.5193725,0.655929 0.256827,0.276946 0.355736,0.445735 0.573143,0.978 0.228378,0.559145 0.301199,0.679655 0.556669,0.921264 0.170448,0.161212 0.321279,0.36168 0.359078,0.477251 0.03757,0.114855 0.189021,0.316831 0.357659,0.476911 0.160859,0.152705 0.292465,0.294137 0.292465,0.314293 0,0.06585 -0.208674,0.03845 -0.241409,-0.03167 -0.02551,-0.05466 -0.0382,-0.05466 -0.06371,0 -0.01759,0.03757 -0.07615,0.06836 -0.13016,0.06836 -0.07075,0 -0.115483,-0.06823 -0.159565,-0.243394 -0.05617,-0.223301 -0.103043,-0.272259 -0.56676,-0.592922 C 7.7303466,29.117875 7.1585227,28.780574 6.7376313,28.560565 6.3167525,28.340557 5.8427816,28.078527 5.6843598,27.978286 5.5259506,27.878008 5.3848702,27.796014 5.3708715,27.796014 c -0.013949,0 0.023247,0.07992 0.082811,0.177648 0.059564,0.09764 0.1084461,0.248898 0.1084461,0.335994 1.13e-4,0.08708 0.083816,0.44375 0.1859542,0.792574 0.2441356,0.833602 0.2560735,0.894071 0.1954417,0.989976 -0.042348,0.06685 -0.051647,0.06182 -0.052401,-0.02815 C 5.8906838,30.00374 5.7918509,29.613384 5.6716429,29.196615 5.5513846,28.779832 5.4527401,28.374133 5.4524134,28.295067 5.451672,28.114893 5.0413362,27.519885 4.7680596,27.302704 4.6165367,27.18232 4.5050496,27.139896 4.3386107,27.139419 4.2149595,27.139042 3.9805124,27.103229 3.817592,27.059879 c -0.3095174,-0.08231 -0.413314,-0.06723 -0.3669448,0.05366 0.015079,0.03946 0.333368,0.510463 0.7071614,1.046686 0.7427236,1.065423 0.9459061,1.423572 1.0001794,1.762997 0.042222,0.263864 -0.00503,0.303347 -0.054914,0.04549 z m 2.995713,-0.99778 c -0.05177,-0.07892 -0.234095,-0.21424 -0.405247,-0.300645 C 7.2707766,28.456743 7.0567998,28.266027 6.9038695,27.966361 6.6424302,27.454063 6.293631,27.259426 5.5486077,27.210066 c -0.3962114,-0.02626 -0.4782811,-0.0181 -0.4782811,0.04763 0,0.140892 0.7134319,0.620241 1.7218045,1.156854 0.5411375,0.287979 1.0697075,0.58713 1.1745975,0.664788 0.213625,0.158183 0.274232,0.108321 0.132071,-0.108571 z m 9.1334704,0.02362 c 0.09023,-0.03732 0.208573,-0.0622 0.263086,-0.05529 0.05454,0.0075 0.152905,-0.02249 0.218638,-0.06522 0.06572,-0.04285 0.254817,-0.109577 0.420163,-0.148394 0.773171,-0.181493 0.706508,-0.14725 0.6742,-0.346349 -0.02878,-0.17756 -0.02463,-0.181656 0.366631,-0.354454 0.302681,-0.133691 0.413251,-0.160306 0.47005,-0.113095 0.111211,0.09224 0.08972,0.249903 -0.04725,0.345783 -0.06685,0.04675 -0.08997,0.08507 -0.05152,0.08507 0.128363,0 0.582065,-0.124405 0.651292,-0.178553 0.129721,-0.101534 0.07175,-0.162204 -0.120509,-0.126139 -0.170209,0.03192 -0.197201,0.01935 -0.273302,-0.127861 -0.116237,-0.224834 -0.108069,-0.262984 0.07678,-0.358613 0.230665,-0.119253 0.260949,-0.108572 0.386046,0.136632 l 0.112216,0.220021 0.421808,-0.332136 c 0.231984,-0.182675 0.587833,-0.44483 0.790752,-0.582581 0.202931,-0.13775 0.368968,-0.27486 0.368968,-0.304679 0,-0.03091 0.06962,-0.04034 0.162053,-0.02186 0.154979,0.03104 0.190604,-0.0038 0.815193,-0.800642 0.417046,-0.531926 0.774227,-0.927094 0.988128,-1.093194 0.527277,-0.409468 1.033493,-1.313278 1.063061,-1.898007 0.0075,-0.137512 0.02878,-0.276029 0.04838,-0.307808 0.06924,-0.112091 0.20743,-2.233575 0.172068,-2.642315 -0.01948,-0.225475 -0.08357,-0.520641 -0.142362,-0.655929 l -0.106938,-0.24597 -0.48621,0.519272 -0.486223,0.519272 -0.0025,0.77287 c -0.0013,0.425088 -0.03732,0.966225 -0.07992,1.202532 -0.04273,0.236307 -0.0891,0.503451 -0.103169,0.593639 -0.106058,0.679076 -0.157806,0.806245 -0.601605,1.477166 -0.246084,0.372009 -0.558102,0.879167 -0.693389,1.12701 -0.202391,0.370777 -0.325891,0.51838 -0.69692,0.832886 -0.248031,0.210232 -0.45095,0.414545 -0.45095,0.454028 0,0.04009 -0.06032,0.07175 -0.136657,0.07175 -0.07515,0 -0.136644,-0.01005 -0.136644,-0.02111 0,-0.01131 0.239825,-0.22349 0.532931,-0.470779 0.473946,-0.399843 0.560476,-0.501881 0.781641,-0.921729 0.289424,-0.549418 0.464031,-0.829468 0.855204,-1.371673 0.20082,-0.278366 0.299791,-0.476397 0.337954,-0.676261 0.02966,-0.155457 0.104802,-0.545787 0.166954,-0.867406 0.114604,-0.59301 0.162418,-1.974598 0.07037,-2.03151 -0.0235,-0.01445 -0.287891,0.180676 -0.587607,0.433747 -0.478922,0.404392 -0.542557,0.478369 -0.525329,0.610741 0.0436,0.334725 0.01005,0.838415 -0.07062,1.077549 -0.08193,0.241321 -0.09161,0.345846 -0.07364,0.801395 0.0063,0.14911 -0.06836,0.330855 -0.301224,0.737923 -0.262457,0.458716 -0.427074,0.657815 -1.092767,1.321648 l -0.783765,0.781578 -1.390485,0.519335 c -0.764764,0.285641 -1.467992,0.55501 -1.562716,0.598602 -0.262973,0.121012 -0.462322,0.09977 -1.609714,-0.171189 C 14.65569,26.66604 14.670505,26.673064 13.650786,25.909343 12.420984,24.98828 11.571561,24.031579 10.637719,22.515747 10.07537,21.60294 9.8192096,21.141837 9.2032906,19.933688 c -0.36996,-0.725684 -0.399704,-1.550113 -0.111085,-3.078273 0.345306,-1.828165 0.557486,-2.408734 1.0757394,-2.943362 0.07288,-0.07515 0.372361,-0.425491 0.665567,-0.778512 0.592018,-0.712791 1.241978,-1.316558 1.66537,-1.546997 0.153169,-0.08331 0.278504,-0.172269 0.278504,-0.197552 0,-0.02526 0.04072,-0.04599 0.0906,-0.04599 0.04989,0 0.427351,-0.254918 0.838906,-0.566484 0.583409,-0.441675 0.807313,-0.579375 1.016239,-0.624991 0.147388,-0.03217 0.751494,-0.07163 1.342469,-0.08759 1.088419,-0.02941 1.686858,0.02187 1.849829,0.158736 0.04511,0.03782 0.14005,0.08658 0.211023,0.108321 0.185263,0.05655 0.545209,0.397505 0.662602,0.627617 l 0.100404,0.196925 0.496841,-0.05064 c 0.491224,-0.05014 0.496841,-0.0524 0.496841,-0.198709 0,-0.164919 -0.423228,-0.761385 -0.713645,-1.0057589 -0.30801,-0.2591649 -1.054,-0.5913516 -1.605241,-0.7147766 -0.149713,-0.033552 -2.250476,0.052275 -2.742391,0.1119646 -0.162443,0.019729 -0.492581,0.1953035 -1.203488,0.640033 -0.538799,0.3370619 -1.040705,0.6564319 -1.115335,0.7097119 -0.07464,0.05328 -0.480066,0.339978 -0.900945,0.637105 -0.420891,0.297127 -0.836681,0.632079 -0.92399,0.744345 -0.6837255,0.879129 -1.0643044,1.409258 -1.1230634,1.56435 -0.03795,0.100278 -0.102792,0.256086 -0.143984,0.346274 -0.28916,0.632983 -0.540747,1.325781 -0.754674,2.078193 -0.276003,0.970699 -0.359694,1.644196 -0.360674,2.902774 -5.78e-4,0.727267 0.04147,0.909451 0.320475,1.386966 0.111085,0.190227 0.299465,0.715807 0.417109,1.163992 0.186645,0.711069 0.9355889,1.948435 1.6279094,2.689563 0.280829,0.300633 0.678586,0.804876 0.883905,1.120538 0.205318,0.315663 0.437416,0.643991 0.515778,0.729605 0.07841,0.08557 0.413038,0.291761 0.743729,0.458112 0.34802,0.175072 0.839132,0.486588 1.165978,0.739595 0.630696,0.488208 0.882145,0.59624 1.92892,0.828664 0.945705,0.20998 1.469249,0.181631 1.469249,-0.07954 0,-0.05906 0.03695,-0.107441 0.08193,-0.107441 0.04511,0 0.08193,0.03694 0.08193,0.08193 0,0.183467 0.344615,0.07615 1.2462,-0.388043 0.502094,-0.258511 0.965572,-0.52514 1.029974,-0.592508 0.116237,-0.12164 0.595737,-0.292628 0.654823,-0.233542 0.06999,0.06999 -2.293351,1.287304 -2.726017,1.404144 -0.142802,0.03858 -0.25963,0.09111 -0.25963,0.116614 0,0.107818 -1.178443,0.005 -1.865624,-0.163448 -0.912016,-0.223062 -1.087314,-0.304591 -1.722345,-0.800993 -0.31002,-0.242351 -0.786932,-0.545296 -1.12662,-0.715656 -0.601128,-0.301475 -0.999891,-0.60383 -1.082325,-0.820647 -0.111965,-0.294375 -0.678598,-1.073465 -1.127512,-1.550163 -0.6835994,-0.72591 -1.4426214,-1.98362 -1.6105554,-2.668728 -0.06396,-0.260836 -0.196095,-0.634127 -0.293709,-0.829531 -0.422312,-0.845515 -0.471043,-1.021316 -0.478219,-1.725574 -0.01005,-0.934358 0.101661,-1.903361 0.319583,-2.78391 0.241874,-0.97751 0.260434,-1.035126 0.554847,-1.721805 0.420363,-0.98045 0.458527,-1.048546 0.9632964,-1.718524 0.684141,-0.908069 0.790765,-1.016277 1.511045,-1.533651 0.349993,-0.251399 0.668407,-0.495711 0.707576,-0.542897 0.03921,-0.04725 0.09236,-0.08583 0.118248,-0.08583 0.02589,0 0.543411,-0.30909 1.150106,-0.6868789 l 1.103071,-0.6868798 1.371246,-0.076779 c 1.66341,-0.093115 1.876381,-0.06924 2.573779,0.2881172 0.270562,0.1386677 0.570994,0.3115906 0.667615,0.3842986 0.263362,0.198144 0.769829,0.8893839 0.7904,1.0787559 l 0.01784,0.163988 0.409959,-0.0191 c 0.225475,-0.01005 0.427036,-0.03506 0.447909,-0.05466 0.07476,-0.07007 -0.271672,-0.756751 -0.682486,-1.3530287 -0.229961,-0.3337962 -0.449655,-0.6330722 -0.488196,-0.6650657 -0.08105,-0.067229 -1.158513,-0.395181 -1.298374,-0.395181 -0.05165,0 -0.165233,-0.034431 -0.25253,-0.076402 -0.08733,-0.041971 -0.334688,-0.1206353 -0.549758,-0.1747323 l -0.391046,-0.098393 -1.412752,0.2368095 c -0.958611,0.1606833 -1.51817,0.2812683 -1.740704,0.3751251 -0.180375,0.076025 -0.709223,0.3694957 -1.175201,0.6520461 -1.029635,0.624338 -0.911387,0.559496 -1.486139,0.814891 -0.261213,0.116112 -0.752877,0.39552 -1.092603,0.620995 l -0.6176654,0.409959 -0.429348,0.765242 c -0.236131,0.420879 -0.492631,0.912832 -0.569989,1.093207 -0.07741,0.180375 -0.243796,0.549343 -0.36986,0.819905 -0.287715,0.617489 -0.315838,0.710278 -0.488636,1.612479 -0.07778,0.405862 -0.200128,0.860908 -0.271994,1.011225 -0.140892,0.294676 -0.249125,0.799183 -0.249125,1.161265 0,0.124028 -0.02212,0.283606 -0.04913,0.35468 -0.0284,0.07477 -0.03016,0.439062 -0.0038,0.864465 0.04298,0.703416 0.130524,1.10238 0.352983,1.609789 0.375176,0.855732 0.604672,1.305488 0.975663,1.912069 0.238695,0.390243 0.499279,0.869894 0.579087,1.065876 0.182423,0.447996 0.512876,0.93251 0.8767794,1.285569 0.15494,0.150317 0.404995,0.473745 0.555701,0.718735 0.478922,0.778613 1.254883,1.504435 2.054242,1.921544 0.234008,0.122143 0.511569,0.31002 0.616798,0.417586 0.105179,0.107567 0.25581,0.26296 0.33465,0.345319 0.144411,0.150857 0.535533,0.305798 1.488149,0.589517 0.765582,0.228013 1.757882,0.288406 2.14007,0.130261 z m 10.579411,-0.408049 c 0.487882,-0.369483 0.544191,-0.430065 0.546126,-0.587607 0.0088,-0.749471 0.165521,-1.979788 0.32094,-2.525851 0.09412,-0.330591 0.209063,-0.834833 0.25547,-1.120538 0.04637,-0.285705 0.180476,-0.814627 0.297919,-1.17539 0.322523,-0.990767 0.374371,-1.192291 0.519888,-2.021055 0.285666,-1.626967 0.11875,-3.181767 -0.453413,-4.225011 C 29.154653,16.66843 28.985349,16.430879 28.922367,16.40297 28.7766,16.33838 28.714812,16.154474 28.599668,15.4425 c -0.09312,-0.57577 -0.152616,-0.765243 -0.240316,-0.765243 -0.02589,0 -0.17046,0.16556 -0.321204,0.367925 -0.198771,0.266818 -0.261313,0.391776 -0.227623,0.454732 0.03079,0.05743 0.01131,0.141006 -0.05919,0.247001 -0.05806,0.08809 -0.105807,0.2113 -0.105933,0.273754 -3.89e-4,0.116866 0.217948,0.7097 0.350697,0.952315 0.04197,0.07665 0.103168,0.484062 0.139334,0.926969 0.03556,0.434664 0.08557,0.829669 0.111336,0.877772 0.111211,0.207769 0.217797,1.108751 0.21796,1.842164 1.64e-4,0.659033 -0.0245,0.890112 -0.162116,1.519715 -0.08922,0.408375 -0.21091,1.091711 -0.270348,1.518521 -0.08646,0.621134 -0.201285,1.081458 -0.575142,2.306496 -0.45629,1.495174 -0.467072,1.543453 -0.467549,2.092519 -5.03e-4,0.562148 0.08733,0.941131 0.217998,0.941131 0.03305,0 0.304868,-0.185376 0.604043,-0.411944 z m 0.795225,-11.495485 c -0.01898,-0.03054 -0.0075,-0.07213 0.02475,-0.09224 0.08407,-0.0519 0.138266,0.01923 0.06811,0.08934 -0.03921,0.03921 -0.06987,0.04021 -0.09286,0.0025 z M 7.6393676,28.379135 c 0,-0.03996 -0.0857,-0.290744 -0.190327,-0.557398 C 7.3122696,27.473365 7.1911696,27.26689 7.0186992,27.088074 6.8188844,26.880908 6.3479545,26.274238 5.6854031,25.370479 5.6177971,25.278369 5.486468,25.017646 5.3934657,24.791216 5.1633037,24.230815 4.7917722,23.546637 4.4336237,23.023683 4.2696729,22.784298 4.072384,22.462591 3.99519,22.308781 3.9180337,22.154971 3.8277834,21.995519 3.7946967,21.95444 3.7616476,21.913349 3.7056025,21.802691 3.6701659,21.70847 3.6347293,21.614223 3.5049459,21.309544 3.3817722,21.031329 3.1868709,20.591111 3.1463324,20.427989 3.0693269,19.774134 3.0085066,19.257601 2.9900343,18.792188 3.0102659,18.284891 3.0370318,17.611659 3.0614102,17.475102 3.2875385,16.727063 3.7114458,15.325017 4.1649213,14.026643 4.5188727,13.201472 5.3985048,11.150836 5.4091986,11.136674 6.420009,10.687094 7.0127805,10.423443 7.1549919,10.332665 7.5760336,9.9491831 8.3921566,9.2058565 8.8174966,8.5674824 9.0370146,7.7565122 9.1913776,7.1862844 9.3298066,7.1016261 10.785848,6.6869927 11.954515,6.3541901 11.99812,6.3365849 12.504222,5.9933022 12.789814,5.7995821 13.330951,5.4939728 13.706742,5.314176 l 0.683261,-0.326909 1.147869,-0.1027913 c 0.918852,-0.082308 1.425834,-0.096634 2.541094,-0.072004 l 1.393237,0.030913 0.601869,0.2442361 c 0.994525,0.4035878 2.755335,1.5297305 3.941732,2.5209754 0.684543,0.5719494 0.840992,0.7767152 1.050206,1.3746259 0.08067,0.2306772 0.17134,0.417222 0.20141,0.414558 0.06132,-0.00503 0.491828,-0.8458668 0.546579,-1.0669054 0.0294,-0.1186247 -0.01734,-0.205746 -0.278354,-0.519272 C 24.961346,7.1217446 24.838499,7.0229367 23.408959,6.1010572 21.672515,4.9812729 20.323498,4.3033404 19.692061,4.2331835 19.481615,4.2098104 18.818837,4.1262454 18.21923,4.0474429 17.242587,3.9191171 16.98351,3.905885 15.732183,3.9203989 L 14.33534,3.9366089 12.996163,4.570874 C 11.995142,5.0449831 11.443047,5.2703574 10.809749,5.463399 9.6769216,5.8087174 9.4226456,5.952864 8.9036496,6.5439642 8.7603956,6.7071234 8.7139136,6.827545 8.6476396,7.2072696 8.5158326,7.9624464 8.3674766,8.4730473 8.2031866,8.7370123 8.0038746,9.057211 7.0265781,9.8341271 6.3955049,10.17403 c -1.0901029,0.587154 -1.2482356,0.695386 -1.77604,1.215639 -0.2931186,0.288921 -0.532944,0.55878 -0.532944,0.599695 0,0.04097 -0.0475,0.13486 -0.1056815,0.208762 -0.058181,0.07389 -0.3317218,0.815696 -0.6079766,1.648431 -0.2762547,0.832747 -0.6885634,1.969119 -0.9162248,2.525285 l -0.4139423,1.011225 -0.030285,0.847237 c -0.016713,0.465979 -0.017844,1.191587 -0.00251,1.612479 0.018849,0.522287 0.00628,0.843341 -0.040463,1.011212 -0.110331,0.398901 -0.086455,0.63992 0.095126,0.957166 0.090351,0.157969 0.2013604,0.317949 0.2466112,0.355497 0.045238,0.03757 0.1286525,0.173111 0.1853259,0.301236 0.056673,0.128112 0.1768061,0.287476 0.2669558,0.35414 0.2277744,0.168386 0.9427394,1.010395 1.1307168,1.331625 0.118122,0.20185 0.205658,0.514459 0.3629111,1.296087 0.1941976,0.965271 0.220285,1.047064 0.4146837,1.300222 0.1141008,0.148583 0.2566515,0.284473 0.3167806,0.301978 0.060066,0.01747 0.2990247,0.03217 0.5308831,0.03255 0.7189862,0.0013 1.2323395,0.259668 1.463155,0.736466 0.1133469,0.234108 0.4922166,0.630797 0.6024856,0.630797 0.03003,0 0.05454,-0.03267 0.05454,-0.07263 z M 28.672665,27.94138 c 0.144875,-0.07175 0.280791,-0.06899 1.691759,0.0338 0.367975,0.02676 0.372473,-0.03833 0.03531,-0.510363 -0.416092,-0.58248 -0.412473,-0.562977 -0.289538,-1.558205 0.167771,-1.358215 0.367259,-2.524004 0.515213,-3.010843 0.07439,-0.244852 0.1353,-0.480895 0.1353,-0.524537 0,-0.0436 0.0431,-0.163084 0.09563,-0.265398 0.08256,-0.16047 0.0945,-0.332601 0.08683,-1.25193 -0.0075,-0.947929 -0.03355,-1.226169 -0.232449,-2.514378 -0.123023,-0.79667 -0.236357,-1.583778 -0.251964,-1.749123 -0.05026,-0.53253 -0.138002,-1.000293 -0.276732,-1.475834 -0.07452,-0.255534 -0.161049,-0.735184 -0.192213,-1.065876 -0.03116,-0.330704 -0.07628,-0.621397 -0.100278,-0.646002 -0.024,-0.02463 -0.126792,-0.0088 -0.228453,0.03619 -0.212682,0.09311 -0.942375,0.702198 -1.105169,0.922558 -0.09726,0.131593 -0.101535,0.166263 -0.03745,0.300633 0.03984,0.08357 0.115735,0.360976 0.168563,0.616509 0.114226,0.551856 0.2421,0.915898 0.374459,1.065888 0.145919,0.165346 0.442091,0.626738 0.442091,0.688702 0,0.03003 0.03506,0.12252 0.07804,0.205457 0.04285,0.08294 0.153584,0.480128 0.24597,0.882623 0.223577,0.974029 0.231808,1.841912 0.02853,3.005992 -0.07615,0.43592 -0.152453,0.878664 -0.169605,0.983893 -0.01709,0.105179 -0.148218,0.523369 -0.291259,0.929218 -0.143028,0.405863 -0.300872,0.983894 -0.350772,1.284527 -0.04989,0.300633 -0.174054,0.85406 -0.275916,1.229852 -0.138831,0.512159 -0.200015,0.883741 -0.244336,1.483838 -0.08231,1.115236 -0.09726,1.024508 0.148569,0.90283 z M 17.301334,27.035597 c 0.05215,-0.02727 0.759034,-0.29014 1.570746,-0.584126 l 1.475822,-0.534527 0.72591,-0.71308 c 0.602686,-0.592055 0.780699,-0.80602 1.048723,-1.260664 0.400094,-0.678611 0.438094,-0.811385 0.280351,-0.979307 l -0.117494,-0.125033 0.159176,-0.322875 c 0.08759,-0.177573 0.176379,-0.426898 0.197402,-0.554043 0.03908,-0.236608 -0.04587,-0.616069 -0.137914,-0.616069 -0.02702,0 -0.301814,0.186796 -0.610691,0.415086 -0.383632,0.283555 -0.55555,0.443761 -0.542544,0.505612 0.09563,0.454318 0.07879,0.547672 -0.143644,0.800403 -0.11963,0.135865 -0.424737,0.412987 -0.678083,0.615817 -0.795992,0.637281 -1.270428,1.092403 -1.438224,1.379703 -0.192288,0.329259 -0.494743,0.495183 -1.09337,0.599822 -0.210446,0.03682 -0.456416,0.09148 -0.546604,0.121514 -0.13305,0.04436 -0.395294,0.0025 -1.390195,-0.223891 -0.674414,-0.153194 -1.265866,-0.278542 -1.314359,-0.278542 -0.04851,0 -0.283795,-0.202491 -0.522916,-0.449994 -0.868298,-0.898708 -1.125917,-1.134977 -1.660344,-1.522744 -0.477363,-0.346374 -0.621774,-0.494039 -1.177174,-1.203827 -1.3913635,-1.778101 -2.0888364,-3.596577 -1.7316684,-4.51485 0.05605,-0.14392 0.157153,-0.593727 0.224834,-0.999576 0.1318194,-0.7904 0.4611654,-1.743192 0.7152914,-2.069322 1.138081,-1.460491 2.375308,-2.63147 2.780341,-2.63147 0.04964,0 0.187638,-0.04976 0.306728,-0.110708 0.119127,-0.06082 0.306816,-0.135074 0.417159,-0.164918 0.110331,-0.02978 0.412497,-0.210396 0.671474,-0.401251 l 0.470842,-0.347015 0.503727,-0.03644 c 0.468505,-0.03393 0.538134,-0.02475 0.995668,0.129897 0.270575,0.09148 0.563857,0.219141 0.651745,0.283694 0.157869,0.115986 0.166615,0.116362 0.727581,0.03255 0.312282,-0.04662 0.583649,-0.100781 0.603051,-0.120133 0.06547,-0.06547 -0.177133,-0.431547 -0.386724,-0.583422 -0.114478,-0.08294 -0.286295,-0.167985 -0.381823,-0.188958 -0.0955,-0.02099 -0.234749,-0.07791 -0.309379,-0.126629 -0.11674,-0.07615 -0.31129,-0.08658 -1.394644,-0.07477 -0.692409,0.0075 -1.377039,0.04109 -1.521387,0.07452 -0.19754,0.04574 -0.427338,0.187914 -0.929218,0.574852 -0.366731,0.282752 -0.715154,0.554872 -0.774265,0.604735 -0.05906,0.04989 -0.273842,0.173865 -0.477175,0.275588 -0.228365,0.114227 -0.538373,0.343635 -0.810921,0.600035 -0.445546,0.419145 -1.419424,1.551546 -1.419424,1.650479 0,0.02941 -0.04612,0.08583 -0.10254,0.125411 -0.3053824,0.213913 -0.4831564,0.528746 -0.6586554,1.166517 -0.194763,0.707803 -0.518279,2.318723 -0.578383,2.880054 -0.04612,0.431133 0.09613,1.333057 0.256626,1.627118 0.05743,0.105179 0.139082,0.252807 0.181405,0.327965 0.04235,0.07515 0.254264,0.468718 0.470968,0.874568 1.3185934,2.469454 2.2982014,3.678094 4.0440824,4.989575 l 0.853105,0.640837 1.005344,0.239926 c 1.032701,0.24646 1.346441,0.288381 1.511698,0.202014 z M 4.2504215,26.979552 c 0,-0.02802 -0.1045506,-0.137235 -0.2322983,-0.242628 -0.1277728,-0.10543 -0.3302139,-0.316127 -0.449869,-0.468278 -0.2726105,-0.346613 -0.3558112,-0.355572 -0.3372635,-0.03632 0.020483,0.352104 0.2248465,0.594191 0.5917411,0.700878 0.3576207,0.103922 0.4276897,0.111588 0.4276897,0.04637 z m 0.4372903,-0.0063 c 0,-0.03179 -0.074643,-0.150719 -0.1658107,-0.264191 C 4.3756308,26.527057 4.3332828,26.384104 4.1625714,25.49609 4.0233005,24.771638 3.9295568,24.420476 3.8281478,24.243456 3.6487154,23.930207 2.9742512,23.128435 2.7646098,22.979161 2.6054089,22.865814 2.4475275,22.655834 2.1585935,22.173255 1.7883438,21.554848 1.7174077,21.267271 1.8510364,20.926401 c 0.038704,-0.09877 0.063208,-0.76102 0.06836,-1.848345 l 0.00754,-1.694473 0.4043795,-0.983894 C 2.5537243,15.858552 2.964148,14.739383 3.2433558,13.912642 3.5225636,13.085914 3.783563,12.321689 3.8233475,12.214374 3.8631823,12.107059 4.1399648,11.756576 4.438512,11.435535 5.0028839,10.828627 5.1513784,10.722191 6.2451004,10.140692 6.9952758,9.7418541 7.9543636,8.9754306 8.1476066,8.620386 8.3551866,8.2389904 8.3324176,8.1999222 8.0352646,8.4275961 7.6095986,8.7537131 7.3591166,8.8224123 6.9875225,8.7149967 6.9360012,8.7000429 6.8932762,8.7597323 6.8601643,8.8930594 6.801229,9.1302207 6.38887,9.5282543 5.8078604,9.9088331 4.6704081,10.653907 3.8931526,11.195408 3.4447413,11.555165 2.8839256,12.005122 2.9418179,11.89635 2.5826139,13.174731 c -0.1098284,0.390821 -0.4410727,1.448503 -0.736139,2.35039 l -0.5364876,1.639823 -0.1171168,1.42381 c -0.064464,0.783086 -0.1521386,1.540047 -0.19490133,1.682108 -0.042725,0.142073 -0.067606,0.288469 -0.055166,0.325326 0.012566,0.03682 0.048003,0.332953 0.079167,0.658002 0.051773,0.540521 0.086455,0.662262 0.4065031,1.425833 0.1924258,0.459156 0.4704901,1.02726 0.617929,1.262423 0.2444372,0.389916 0.290354,0.434099 0.5210564,0.501365 0.3013494,0.08784 0.5784084,0.399655 0.6282961,0.707036 0.040212,0.247592 -0.085576,0.240806 -0.1650944,-0.0088 -0.05881,-0.184811 -0.3529964,-0.515854 -0.4583763,-0.515854 -0.097639,0 -0.090225,0.03745 0.046746,0.237526 0.1745567,0.255068 0.4408464,0.527716 0.5154015,0.527716 0.035939,0 0.080424,0.06032 0.099022,0.134081 0.045113,0.179734 0.6706818,0.909364 1.0088626,1.176684 0.1493992,0.118122 0.2875392,0.240441 0.3069665,0.271882 0.045866,0.07427 0.1382028,0.07376 0.1382028,-7.04e-4 z M 3.1318813,26.08611 C 3.1777473,25.903335 3.0835013,25.702615 2.7812725,25.339453 2.6337331,25.162169 2.4564746,24.916513 2.3873733,24.793553 2.2877233,24.616169 2.2159078,24.558189 2.0398809,24.5128 1.9178633,24.48138 1.7749985,24.44306 1.7223839,24.42785 1.6697319,24.41252 1.6267559,24.4178 1.6267559,24.4379 c 0,0.112091 1.334138,1.773012 1.4241998,1.773012 0.027268,0 0.063711,-0.0563 0.080926,-0.125159 z M 17.47824,25.637573 c 0.813409,-0.06233 1.351291,-0.288256 1.525019,-0.640485 0.166263,-0.337101 0.226894,-0.39831 1.04401,-1.054064 0.917821,-0.736553 1.093207,-0.899474 1.093207,-1.015447 0,-0.05052 0.03694,-0.12252 0.08193,-0.159955 0.100906,-0.08382 0.107441,-0.348083 0.01005,-0.428494 -0.05378,-0.04461 -0.185426,0.0088 -0.532944,0.2183 -0.791279,0.475868 -1.840957,0.973715 -2.466463,1.169835 -0.538046,0.168701 -0.665417,0.188229 -1.227238,0.188229 -0.526912,0 -0.727292,-0.02677 -1.256542,-0.168035 -0.678297,-0.181016 -1.33126,-0.437215 -1.551093,-0.60858 -0.07527,-0.05868 -0.438471,-0.316366 -0.80715,-0.572678 -1.017081,-0.707073 -1.596344,-1.37861 -2.16147,-2.50572 -0.305861,-0.610037 -0.365852,-0.951234 -0.365764,-2.080116 1.14e-4,-1.186159 0.07552,-1.563622 0.50736,-2.537224 0.193318,-0.43592 0.361151,-0.821199 0.372976,-0.856171 0.01131,-0.03493 0.429964,-0.515929 0.929206,-1.068791 0.873387,-0.96718 0.925059,-1.013775 1.366508,-1.232176 0.654296,-0.323692 0.731314,-0.335391 0.838868,-0.127421 0.048,0.09286 0.108823,0.168915 0.135162,0.168915 0.02626,0 0.265485,-0.102289 0.531536,-0.22736 0.266051,-0.125033 0.766587,-0.327977 1.11232,-0.45095 0.396375,-0.140992 0.628585,-0.251888 0.628585,-0.300205 0,-0.04624 -0.195115,-0.150581 -0.49194,-0.263098 -0.463198,-0.175575 -0.521668,-0.184912 -1.000691,-0.15988 -0.5009,0.02614 -0.513429,0.03028 -0.811461,0.263098 -0.49042,0.383155 -0.716711,0.520416 -1.018651,0.617891 -0.156663,0.05052 -0.383218,0.1375 -0.503477,0.193168 -0.120258,0.05567 -0.288004,0.116111 -0.372762,0.134282 -0.20978,0.04499 -1.234903,0.996723 -1.676994,1.556911 -0.195417,0.247604 -0.471797,0.589316 -0.614172,0.759361 -0.370739,0.442769 -0.662212,1.222563 -0.8323695,2.226827 -0.07276,0.429775 -0.1706869,0.855467 -0.2174959,0.945994 -0.155883,0.30145 -0.09048,1.02021 0.153509,1.687976 0.3627464,0.992602 0.8147264,1.779747 1.5807484,2.752897 0.477992,0.607247 0.680194,0.815004 1.091774,1.12182 0.277826,0.207103 0.570793,0.418277 0.651028,0.469271 0.0803,0.05102 0.357722,0.337364 0.616635,0.636376 0.670066,0.773812 0.772166,0.828714 2.140019,1.150571 0.628284,0.147841 1.179223,0.255533 1.224323,0.239298 0.04511,-0.01621 0.168072,-0.03607 0.273301,-0.04423 z M 1.8235668,23.879804 C 1.491003,23.304776 0.93128047,21.958763 0.88993773,21.634631 c -0.0947489,-0.742812 -0.134923,-0.773322 -0.2456687,-0.186444 -0.083314,0.441877 -0.056296,0.673609 0.1331763,1.139927 0.075648,0.186043 0.15994234,0.53929 0.18743714,0.784997 0.035185,0.314418 0.079921,0.475604 0.15093233,0.544165 0.094875,0.09148 0.9004542,0.44101 0.9383412,0.407081 0.010053,-0.0088 -0.094121,-0.208648 -0.2305892,-0.444553 z M 18.100769,23.58333 c 0.66568,-0.202579 1.62791,-0.643275 2.394182,-1.096537 0.309945,-0.183328 0.573671,-0.342604 0.586049,-0.353938 0.047,-0.04298 -0.132611,-0.480493 -0.239109,-0.582405 -0.100404,-0.09613 -0.165157,-0.103419 -0.660767,-0.07452 -0.533145,0.03116 -0.563907,0.04021 -1.038557,0.306464 -0.467864,0.262432 -0.506957,0.274281 -0.899084,0.272635 -0.720633,-0.0025 -1.496732,-0.09638 -1.834121,-0.220524 -0.267308,-0.09839 -0.407396,-0.203886 -0.789583,-0.594555 -0.255533,-0.261213 -0.714714,-0.6907 -1.020411,-0.954401 -0.885714,-0.764086 -1.126972,-1.223016 -1.215451,-2.312088 l -0.05429,-0.667264 0.235817,-0.821124 c 0.333557,-1.161428 0.3228,-1.149277 2.368008,-2.67716 1.590374,-1.188094 1.774858,-1.364586 1.847805,-1.767671 0.04562,-0.252354 -0.08005,-0.47803 -0.266277,-0.47803 -0.209755,0 -1.210022,0.360699 -1.84445,0.665115 -0.655955,0.314757 -0.62998,0.278491 -0.509106,0.710529 0.03682,0.131756 -0.703781,0.992212 -1.250008,1.452172 -0.573244,0.48273 -0.995769,1.121757 -1.282453,1.939589 -0.192765,0.549896 -0.197515,0.583347 -0.220763,1.555981 -0.02702,1.132363 -0.02777,1.128556 0.427891,2.258242 0.283706,0.703329 0.314381,0.753141 0.706533,1.147078 0.225475,0.226505 0.522263,0.514032 0.659548,0.638965 0.157731,0.143543 0.273541,0.307104 0.31467,0.44439 0.04926,0.164202 0.111713,0.23936 0.256023,0.307846 0.223263,0.105933 0.248747,0.235364 0.05429,0.27574 -0.07515,0.01558 -0.2017,0.04197 -0.281206,0.05868 -0.07954,0.01671 -0.12252,0.04976 -0.09563,0.07351 0.08696,0.07665 0.655502,0.284272 1.289089,0.470741 0.525743,0.15474 0.707337,0.182624 1.213465,0.186319 0.51608,0.0038 0.668684,-0.01797 1.147869,-0.163825 z m -3.465826,-0.704635 c 0.06811,-0.0431 0.05818,-0.07552 -0.06258,-0.204138 -0.07904,-0.08407 -0.160307,-0.232235 -0.180739,-0.329196 -0.02664,-0.126403 -0.132674,-0.255495 -0.374711,-0.456127 -0.705666,-0.584943 -0.928401,-0.888541 -1.290056,-1.758372 -0.181945,-0.437592 -0.358663,-0.925574 -0.39273,-1.084385 -0.03845,-0.179219 -0.05316,-0.642659 -0.03883,-1.221797 0.02274,-0.916363 0.02689,-0.943795 0.234761,-1.534304 0.285504,-0.811134 0.571673,-1.241325 1.363531,-2.049769 0.968387,-0.988682 1.124886,-1.183206 1.124886,-1.398314 0,-0.09915 -0.0245,-0.195492 -0.05429,-0.213951 -0.06949,-0.04298 -0.834344,0.600851 -1.373332,1.156012 -0.587469,0.605087 -0.839609,0.948093 -1.146563,1.559776 -0.219845,0.438082 -0.292993,0.66308 -0.409004,1.258063 -0.145993,0.748768 -0.150731,1.084636 -0.01973,1.395436 0.06547,0.155142 0.06371,0.185225 -0.01382,0.24597 -0.204867,0.160457 0.115357,1.37489 0.671775,2.547993 0.344627,0.726538 0.703492,1.256391 1.218039,1.798382 0.26247,0.276481 0.356553,0.341473 0.49331,0.340795 0.09299,-4.4e-4 0.205445,-0.02388 0.250017,-0.05202 z m -1.212548,-0.562022 c -0.07326,-0.09764 -0.23505,-0.313778 -0.359455,-0.480167 -0.467839,-0.625707 -1.161668,-2.312791 -1.266005,-3.078335 -0.03217,-0.236068 -0.07213,-0.451289 -0.08884,-0.478281 -0.01671,-0.02702 -0.102665,-0.04913 -0.191093,-0.04913 -0.122772,0 -0.160747,-0.02513 -0.160747,-0.106184 0,-0.123777 0.208511,-0.502421 0.311754,-0.566119 0.03896,-0.024 0.07087,-0.11121 0.07087,-0.193619 0,-0.08243 0.05931,-0.458515 0.131731,-0.835701 0.1092,-0.56833 0.180601,-0.783237 0.417109,-1.254871 0.444591,-0.886593 1.195495,-1.75435 2.17156,-2.50954 0.213713,-0.165345 0.390067,-0.32667 0.391914,-0.3585 0.0013,-0.03179 -0.02966,-0.102917 -0.06987,-0.158045 -0.0999,-0.136581 -0.36516,-0.08143 -0.713884,0.148608 -0.147326,0.09714 -0.333557,0.213524 -0.413842,0.258624 -0.145805,0.08193 -1.696031,1.760973 -1.696031,1.837011 0,0.02212 -0.03267,0.07904 -0.07276,0.126454 -0.03996,0.0475 -0.234033,0.45526 -0.431246,0.906197 -0.450862,1.030979 -0.502157,1.327679 -0.467751,2.705698 0.02174,0.872017 0.04197,1.055609 0.146559,1.333773 0.395508,1.051626 1.167926,2.10927 1.94258,2.659933 0.208749,0.148393 0.402293,0.269795 0.430102,0.269795 0.02777,0 -0.0088,-0.07992 -0.08269,-0.177648 z m 8.446253,-0.751797 c 0.583045,-0.438974 0.747662,-0.637494 0.747662,-0.901673 0,-0.270826 -0.141596,-0.440118 -0.518845,-0.620317 -0.539629,-0.25777 -0.743578,-0.240114 -1.526715,0.132134 -0.352204,0.167419 -0.743213,0.340895 -0.868888,0.385517 -0.454317,0.161275 -1.702025,0.403299 -2.079161,0.403299 -0.354064,0 -0.411894,-0.01797 -0.822921,-0.255722 -0.503438,-0.291208 -1.70195,-1.418959 -2.054192,-1.932928 -0.272297,-0.39733 -0.313664,-0.573282 -0.28857,-1.227627 0.01822,-0.474122 0.047,-0.610189 0.217269,-1.026154 l 0.196297,-0.479563 0.606908,-0.380064 c 0.363502,-0.227624 0.66171,-0.457559 0.743553,-0.573294 0.07515,-0.10631 0.520554,-0.511355 0.989762,-0.900153 1.104655,-0.915345 1.292758,-1.12765 1.484153,-1.675234 0.146497,-0.419082 0.209126,-1.071831 0.108823,-1.133619 -0.04021,-0.02475 -1.001675,0.113975 -1.0374,0.149751 -0.01005,0.01005 0.02463,0.09299 0.07716,0.184333 0.09048,0.157592 0.09048,0.181116 0.0011,0.458351 -0.0519,0.160734 -0.161627,0.369207 -0.243948,0.46329 -0.08231,0.09412 -0.838389,0.687357 -1.68016,1.318392 -0.941684,0.705943 -1.623298,1.257824 -1.771742,1.43453 -0.214781,0.255646 -0.267144,0.377299 -0.477012,1.10806 l -0.235741,0.820872 0.05592,0.688727 c 0.04989,0.614348 0.07703,0.733048 0.251135,1.099138 0.161865,0.340317 0.280087,0.489767 0.692233,0.87502 0.273352,0.255546 0.722165,0.688086 0.997352,0.961212 0.614913,0.610327 0.7312,0.694394 1.160825,0.839119 0.259127,0.08733 0.542042,0.123023 1.182728,0.149487 l 0.842122,0.03468 0.48895,-0.277989 0.488937,-0.278002 0.649483,-0.03795 0.649483,-0.03795 0.16008,0.334913 c 0.08809,0.184208 0.176341,0.334927 0.196221,0.334927 0.01985,0 0.297655,-0.196875 0.617263,-0.437504 z m -3.20592,-0.848707 c 0.844082,-0.180588 1.056865,-0.252994 1.866705,-0.635182 0.769175,-0.362999 0.963712,-0.39018 1.452825,-0.203007 0.459018,0.175663 0.687081,0.399429 0.733048,0.719238 l 0.0377,0.26198 0.5056,-0.423644 c 0.337791,-0.28304 0.50521,-0.460701 0.504418,-0.535281 -0.0038,-0.315562 -0.489427,-0.934773 -0.835939,-1.065021 -0.325904,-0.12252 -0.782458,-0.06811 -1.599561,0.190428 l -0.784519,0.248257 -0.477652,-0.06358 c -0.466733,-0.06208 -0.503929,-0.05831 -1.628024,0.16806 -0.915935,0.184409 -1.17985,0.219883 -1.295044,0.174092 -0.136582,-0.05429 -0.832936,-0.834633 -0.963725,-1.079937 -0.0666,-0.124908 -0.15288,-0.658442 -0.127534,-0.788364 0.02626,-0.13481 0.479462,-0.855191 0.753103,-1.197141 0.154979,-0.193683 0.312646,-0.477503 0.401326,-0.722467 l 0.146069,-0.403463 0.786002,-0.637167 c 0.432301,-0.350446 0.874819,-0.747889 0.983391,-0.883214 0.132987,-0.165748 0.289575,-0.49762 0.479902,-1.017106 0.238832,-0.651858 0.282512,-0.829606 0.282512,-1.149666 0,-0.208222 -0.01847,-0.388961 -0.04096,-0.40164 -0.02249,-0.01269 -0.225475,-0.0075 -0.45095,0.01005 l -0.409959,0.03343 -0.0328,0.464609 c -0.03983,0.563278 -0.236986,1.106464 -0.528848,1.456557 -0.111964,0.134333 -0.587933,0.563505 -1.057695,0.953735 -0.469748,0.390217 -0.956574,0.831039 -1.081821,0.979584 -0.145089,0.172056 -0.414571,0.381571 -0.742536,0.577277 -0.283141,0.168977 -0.535997,0.335517 -0.561909,0.370111 -0.02589,0.03456 -0.125284,0.247378 -0.220963,0.472853 -0.157015,0.370212 -0.175173,0.470968 -0.187387,1.039461 l -0.01357,0.629528 0.191307,0.326268 c 0.265096,0.452093 1.520545,1.670987 2.067223,2.007044 0.396664,0.243834 0.441463,0.258159 0.81175,0.259642 0.218639,8.67e-4 0.677807,-0.05956 1.038544,-0.136783 z m 5.752166,-1.359572 c 0.392253,-0.394301 0.452118,-0.478708 0.4227,-0.595938 -0.03669,-0.146308 -0.53185,-0.623006 -0.722328,-0.695424 -0.06333,-0.02413 -0.570253,-0.01797 -1.126507,0.01357 l -1.011351,0.05743 -1.170049,-0.385957 c -0.847991,-0.279736 -1.285796,-0.395809 -1.590601,-0.421721 -0.254993,-0.02174 -0.445534,-0.06585 -0.483999,-0.112216 -0.08997,-0.108446 0.01395,-0.514899 0.318628,-1.246979 0.20327,-0.488346 0.361265,-0.747737 0.886456,-1.455338 0.507359,-0.683575 0.680923,-0.965573 0.842009,-1.368042 0.193318,-0.482981 0.20327,-0.538963 0.210294,-1.182439 0.005,-0.417411 -0.01495,-0.697837 -0.05114,-0.734041 -0.0387,-0.0387 -0.209465,-0.04536 -0.502458,-0.01985 l -0.443875,0.0387 -0.0025,0.416569 c -0.0013,0.366819 -0.03657,0.509144 -0.292151,1.192065 -0.183328,0.489767 -0.364294,0.872419 -0.491162,1.038544 -0.110457,0.144674 -0.543914,0.53361 -0.963172,0.864301 l -0.762277,0.601267 -0.171591,0.43675 c -0.103922,0.264492 -0.282512,0.576046 -0.452822,0.789909 -0.260145,0.326683 -0.625066,0.899964 -0.704296,1.106439 -0.01847,0.04825 -0.0038,0.23456 0.03368,0.414093 0.05667,0.274948 0.127132,0.400585 0.446992,0.796809 0.208862,0.258712 0.449341,0.499493 0.534427,0.535067 0.131228,0.05491 0.325526,0.02928 1.281611,-0.1687 1.10659,-0.22917 1.135479,-0.232211 1.600566,-0.168651 l 0.473644,0.06472 0.804386,-0.24974 c 1.227087,-0.380994 1.591845,-0.34562 2.116005,0.205218 0.175814,0.184773 0.319659,0.35316 0.319659,0.374208 0,0.08595 0.109702,0.318691 0.150165,0.318691 0.024,0 0.2492,-0.206714 0.500549,-0.459369 z m 0.957127,-1.027737 0.359506,-0.393911 -0.173489,-0.178993 c -0.294048,-0.303385 -0.939208,-0.600739 -1.401203,-0.645813 -0.219959,-0.02149 -0.763508,-0.118499 -1.207886,-0.215736 -0.728034,-0.159226 -0.856096,-0.20542 -1.294555,-0.466922 -0.706269,-0.42123 -0.844082,-0.531813 -0.802463,-0.643865 0.01935,-0.05202 0.165622,-0.297831 0.325137,-0.546327 0.396212,-0.6172 0.465803,-0.764765 0.702173,-1.488627 0.201913,-0.618381 0.205092,-0.641478 0.195881,-1.421171 -0.005,-0.435921 -0.03694,-0.884809 -0.07075,-0.997553 -0.05956,-0.199224 -0.06861,-0.20498 -0.319156,-0.20498 -0.141809,0 -0.33284,0.01495 -0.424535,0.0333 l -0.166716,0.0333 -0.0025,0.731917 c -0.0025,0.714676 -0.0075,0.744244 -0.209076,1.255348 -0.170071,0.431535 -0.315285,0.667641 -0.827168,1.34487 -0.47754,0.631802 -0.676613,0.948871 -0.862253,1.373344 -0.269042,0.615152 -0.433219,1.177111 -0.364105,1.246225 0.02501,0.02501 0.244801,0.06773 0.488497,0.095 0.298145,0.0333 0.805291,0.170297 1.550314,0.41863 l 1.107231,0.369056 1.017747,-0.05429 c 0.806597,-0.04298 1.051751,-0.03971 1.181722,0.01621 0.187048,0.08055 0.737911,0.584227 0.737911,0.674779 0,0.127974 0.11385,0.04536 0.459972,-0.333896 z m 0.671147,-0.71592 c 0.243696,-0.277549 0.419409,-0.586476 0.364695,-0.641189 -0.02664,-0.02677 -0.429511,-0.224293 -0.895163,-0.439087 -1.209281,-0.55785 -1.851023,-0.950757 -1.954065,-1.196375 -0.193381,-0.46094 -0.289286,-1.163728 -0.313527,-2.297461 -0.02212,-1.034196 -0.115608,-1.811841 -0.242363,-2.017009 -0.02777,-0.04499 -0.15748,-0.04411 -0.490383,0.0025 l -0.452633,0.06396 0.04599,0.168425 c 0.02526,0.09261 0.04423,0.598878 0.0421,1.124986 l -0.0038,0.95655 -0.220436,0.628598 c -0.154652,0.440997 -0.329322,0.79956 -0.585282,1.201451 -0.200657,0.315085 -0.357671,0.610088 -0.348912,0.655565 0.0088,0.04549 0.283832,0.246058 0.611269,0.44571 0.581085,0.354328 0.615126,0.36707 1.420492,0.531737 0.453828,0.09274 1.018049,0.194085 1.253815,0.225098 0.45335,0.05956 0.899474,0.267082 1.293135,0.601292 0.105179,0.08934 0.219506,0.163096 0.253975,0.1639 0.03443,8.04e-4 0.134006,-0.07979 0.221215,-0.179118 z M 1.8398902,15.197169 c 0.4813222,-1.452976 0.8800468,-2.790155 0.8800468,-2.951392 0,-0.104299 -0.026515,-0.103168 -0.1963841,0.0075 -0.1915211,0.125536 -0.3222595,0.406352 -0.5096463,1.094903 -0.088466,0.325162 -0.2390463,0.800289 -0.3345618,1.055835 -0.1535084,0.41065 -0.4903949,2.093009 -0.48709,2.432384 0.00251,0.230049 0.1632974,-0.177749 0.6476354,-1.63981 z m 25.1953148,0.97521 c 0.350106,-0.529111 0.438974,-0.700149 0.382627,-0.736352 -0.145366,-0.09337 -0.462171,-0.156248 -0.783978,-0.155519 -0.273679,6.16e-4 -0.440319,-0.04662 -1.006702,-0.285554 l -0.678724,-0.286282 -0.218877,-0.466331 c -0.206802,-0.44062 -0.225676,-0.52514 -0.342127,-1.532219 -0.131002,-1.13289 -0.270964,-2.070993 -0.315625,-2.115666 -0.02538,-0.02526 -0.963549,0.307834 -0.963549,0.34214 0,0.0088 0.04926,0.222936 0.109326,0.476144 0.08507,0.358262 0.114604,0.713834 0.133164,1.60313 0.02689,1.287731 0.158547,2.13885 0.373441,2.413685 0.139497,0.17839 2.584435,1.427957 2.800322,1.431187 0.03003,4.4e-4 0.259868,-0.309317 0.510676,-0.688363 z m 0.899147,-1.259369 c 0.171591,-0.231444 0.31198,-0.45443 0.31198,-0.495534 0,-0.188795 -0.139434,-0.289676 -0.696618,-0.503992 -0.490709,-0.188744 -0.635723,-0.273025 -0.877132,-0.509772 -0.159062,-0.156009 -0.365286,-0.418931 -0.45825,-0.584277 -0.09299,-0.165345 -0.238569,-0.389048 -0.323567,-0.497105 -0.08495,-0.108069 -0.180462,-0.312131 -0.212142,-0.453488 -0.03167,-0.141357 -0.115985,-0.3727 -0.187462,-0.514107 -0.08294,-0.164051 -0.153182,-0.445031 -0.194285,-0.776376 -0.03544,-0.285591 -0.07728,-0.564422 -0.09312,-0.6195999 -0.02752,-0.09626 -0.03355,-0.09601 -0.146534,0.0063 -0.06484,0.05856 -0.283857,0.1981049 -0.486776,0.3100069 -0.202931,0.111965 -0.368968,0.234648 -0.368968,0.272762 0,0.03807 0.04737,0.386522 0.105305,0.774214 0.05793,0.387692 0.14681,1.084184 0.197502,1.547776 0.08595,0.785712 0.107567,0.874442 0.318289,1.307962 l 0.226116,0.465062 0.628597,0.263525 c 0.522992,0.219242 0.688287,0.264216 0.983894,0.267722 0.195404,0.0025 0.453676,0.03669 0.573935,0.07628 0.120258,0.03958 0.256576,0.07464 0.302945,0.07779 0.04637,0.0038 0.224708,-0.18363 0.396287,-0.415074 z m 0.543826,-0.730647 c 0.07226,-0.118625 0.92144,-0.811536 1.133921,-0.925248 0.112845,-0.06044 0.120761,-0.09249 0.08884,-0.363137 -0.01922,-0.163297 -0.06534,-0.34601 -0.102537,-0.406038 C 29.4887,12.310933 29.182035,12.126398 28.612033,11.894477 27.992558,11.642425 27.546308,11.312626 27.030819,10.725911 26.541882,10.169418 26.556396,10.194337 26.441868,9.7148117 26.343098,9.3013092 26.086559,8.5778118 26.006022,8.485664 25.985412,8.46204 25.886769,8.621919 25.786793,8.8409474 c -0.0999,0.2190284 -0.254327,0.5008123 -0.343082,0.6261724 l -0.161375,0.2279504 0.09349,0.6939798 c 0.06924,0.513793 0.134634,0.781038 0.252052,1.029245 0.08721,0.184396 0.158623,0.386975 0.158648,0.45017 2.5e-5,0.06321 0.06095,0.198483 0.135275,0.300633 0.07439,0.102163 0.203496,0.305245 0.286961,0.451327 0.08344,0.146082 0.281872,0.42059 0.440909,0.610012 0.27716,0.330101 0.313149,0.353135 0.866363,0.554307 0.402959,0.146534 0.612663,0.254352 0.69472,0.357181 0.143368,0.179671 0.179244,0.185099 0.267383,0.04046 z M 1.4267773,12.811368 C 1.9284817,12.425172 2.096504,12.262478 2.1738614,12.087996 2.2287756,11.964219 2.480099,11.580009 2.7324278,11.234288 3.2028048,10.589782 3.4665813,10.347154 5.2721393,8.8982743 5.7497921,8.5149809 6.0988553,8.0980231 5.9955488,8.0341744 5.9235446,7.9896901 5.9045697,8.0092934 5.6606854,8.3777084 5.4561709,8.6867354 4.8782526,9.1533299 4.0864455,9.648701 3.8309124,9.8085681 3.09128,10.343032 2.4428403,10.836405 L 1.2638317,11.733417 0.98609417,12.37208 c -0.29320654,0.674238 -0.36888004,0.939887 -0.26734544,0.938416 0.033426,-4.9e-4 0.35201627,-0.225085 0.70802857,-0.499128 z m 28.8693117,0.03908 c 0.09023,-0.06421 0.331219,-0.200154 0.535608,-0.302078 0.204389,-0.101912 0.386912,-0.210057 0.405611,-0.240303 0.156398,-0.253058 -0.388396,-1.95306 -0.803972,-2.5087489 L 30.208138,9.4981834 29.869417,9.5253264 C 29.281873,9.5724495 28.890977,9.4109742 28.047334,8.7726754 27.40744,8.2884886 26.33322,7.2581001 26.33322,7.1284926 c 0,-0.02664 -0.02463,-0.048505 -0.05466,-0.048505 -0.03003,0 -0.05605,0.079921 -0.0578,0.177648 -0.0013,0.097765 -0.04725,0.3469771 -0.101283,0.5539294 l -0.09802,0.3762941 0.187525,0.4709421 c 0.103168,0.2590265 0.244449,0.6964173 0.314028,0.9719934 0.11762,0.4656894 0.152792,0.5324534 0.499192,0.9462834 0.547432,0.653981 1.046825,1.002428 1.922624,1.341476 0.461254,0.178566 0.832006,0.522703 0.832006,0.772255 0,0.183441 0.143619,0.35052 0.264782,0.308059 0.04976,-0.01747 0.164303,-0.08432 0.25449,-0.148494 z m -27.05688,-1.44526 c 0.1803748,-0.135865 0.4386474,-0.343257 0.5739348,-0.460877 0.1352874,-0.117619 0.442744,-0.327336 0.6832605,-0.466067 0.6075745,-0.35047 1.6860789,-1.1718832 1.764429,-1.3438513 l 0.064967,-0.142626 -0.1380143,0.090476 C 6.1118864,9.1320051 6.0269265,9.215344 5.999017,9.2675062 5.9306571,9.3952036 5.0071564,9.9166121 4.3283192,10.210773 3.6086922,10.522615 3.2967998,10.765457 3.0068856,11.239654 2.6553469,11.814669 2.6760559,11.829422 3.2391964,11.405226 Z M 4.5155049,10.014364 C 5.1979361,9.7184311 5.9522709,9.2461311 6.1443071,8.9945689 6.2921356,8.8009242 6.3123546,8.7367613 6.2877249,8.5395226 6.2720172,8.4132456 6.2392194,8.288187 6.2149667,8.2616347 6.1741267,8.2168991 5.8958865,8.4800721 5.8919909,8.5671054 5.8910359,8.5883422 5.4905645,8.9302678 5.0020294,9.327007 c -0.4885225,0.3967391 -0.924242,0.754498 -0.9682613,0.795024 -0.1364686,0.125662 0.029153,0.08859 0.481762,-0.107692 z M 30.177162,9.3947136 30.386201,9.3601566 30.350261,9.0985163 C 30.316835,8.8553734 30.33581,8.7952191 30.619668,8.2468192 L 30.925051,7.6567619 30.801902,7.5378859 C 30.715698,7.4546979 30.458318,7.3672876 29.944462,7.2467026 29.540585,7.1519536 28.962554,6.9690027 28.659935,6.8401743 28.357329,6.7113585 27.90085,6.5499334 27.645556,6.4814478 27.390262,6.4129621 26.988873,6.2859558 26.753597,6.1992115 26.518308,6.1125049 26.315188,6.0414809 26.302207,6.0414809 c -0.01294,0 -0.02362,0.1936071 -0.02362,0.4302281 l 0,0.4302406 0.325237,0.4033365 c 0.599759,0.7437918 1.976534,1.8505445 2.511275,2.0187553 0.32383,0.1019117 0.715455,0.1279111 1.062093,0.070622 z M 6.7663076,8.4170154 c 0.152968,-0.2266938 0.413339,-0.69124 0.578597,-1.0323111 0.25268,-0.5214962 0.323906,-0.6253807 0.447783,-0.6530389 0.253221,-0.056548 0.319319,-0.1506056 0.360159,-0.5124988 0.02124,-0.187902 0.01835,-0.3416365 -0.0063,-0.3416365 -0.117243,0 -0.495396,0.3935474 -0.960986,1.0000914 -0.9892798,1.2887867 -0.9035156,1.1468518 -0.8713588,1.4419432 0.029405,0.2694812 0.098644,0.5096334 0.1470368,0.5096334 0.014828,0 0.1521763,-0.1854893 0.3051569,-0.4121827 z m 0.801181,0.1912191 c 0.206149,-0.076277 0.596881,-0.5044938 0.674201,-0.7387901 0.05253,-0.1589998 0.04348,-0.2452414 -0.0568,-0.5467793 -0.114729,-0.3446022 -0.123526,-0.3551829 -0.236659,-0.2826886 -0.06459,0.041468 -0.191307,0.2109986 -0.281495,0.3768218 -0.09022,0.1658232 -0.202969,0.3608251 -0.250607,0.4333319 -0.3626096,0.5518058 -0.4245357,0.6770022 -0.3683775,0.744671 0.070622,0.085073 0.3097185,0.09123 0.5197745,0.013446 z M 25.944951,7.8043139 c 0.02928,-0.1127185 0.06924,-0.3279645 0.08872,-0.4782811 0.01948,-0.1503165 0.04662,-0.3139784 0.06019,-0.3637027 C 26.126532,6.8429514 25.653114,6.2769459 25.313174,6.0290278 25.061436,5.8454361 21.809197,4.0873656 21.422146,3.925639 21.320863,3.883291 20.899909,3.7894217 20.486595,3.7169148 20.073281,3.644408 19.664026,3.5580659 19.577131,3.5250294 19.490298,3.4919804 19.03779,3.3665071 18.571686,3.2461609 17.877581,3.0669421 17.600547,3.0223071 17.04095,2.9995246 c -0.626851,-0.025509 -0.762214,-0.012566 -1.63981,0.164642 -1.277063,0.2569405 -2.142746,0.5856716 -3.361615,1.2765347 -1.157055,0.655816 -1.646244,0.9609604 -1.577394,0.9839188 0.150857,0.050265 1.395901,-0.4240456 2.561288,-0.9757759 l 1.311846,-0.6210706 1.339177,-0.017467 c 1.166794,-0.015205 1.493967,6.786e-4 2.541709,0.1237768 1.883091,0.2211898 1.801311,0.2007949 2.896352,0.72209 0.701369,0.3338833 1.336023,0.6955629 2.213758,1.261581 1.556949,1.0040372 1.700241,1.1147703 2.132391,1.6479907 0.195404,0.2411198 0.372789,0.4395648 0.394176,0.4410099 0.02136,0.00126 0.06283,-0.089597 0.09211,-0.2023657 z M 6.9192253,6.9558585 C 7.4536016,6.259592 7.7185596,5.9618491 7.9285526,5.8216609 c 0.290367,-0.1938458 0.378594,-0.2770716 0.481121,-0.4538776 0.0519,-0.089597 0.04587,-0.093367 -0.05931,-0.03707 -0.39635,0.212117 -1.3685819,0.888328 -1.4975108,1.0415599 C 6.7685318,6.4724253 6.604983,6.7591476 6.4893994,7.0093276 6.3737906,7.2595075 6.2286262,7.5352973 6.1667503,7.6221924 6.1049247,7.7091503 6.0542831,7.8071288 6.0542831,7.8400647 c 0,0.1827624 0.2140773,-0.036065 0.8650051,-0.8842188 z M 8.4592726,7.38816 c 0,-0.1639006 0.13197,-0.6251546 0.200544,-0.700916 0.146597,-0.1620031 0.03732,-0.1796963 -0.147766,-0.023876 -0.09374,0.078915 -0.193192,0.1434554 -0.220951,0.1434554 -0.06635,0 -0.06472,0.2835306 0.0025,0.4610529 0.02928,0.077156 0.07854,0.1402133 0.109326,0.1402133 0.03079,0 0.05605,-0.0088 0.05605,-0.019855 z M 26.088343,6.1664264 C 26.065473,6.01425 26.018475,5.9135824 25.960432,5.8925215 25.909916,5.8741749 25.608115,5.6927696 25.289725,5.4893484 24.971336,5.2859398 24.350391,4.9200631 23.909834,4.6762919 23.260967,4.3172638 23.017925,4.2129771 22.630258,4.1272632 c -0.53278,-0.117745 -0.719313,-0.1347596 -0.639806,-0.058181 0.02852,0.02752 0.743578,0.4178379 1.588929,0.8673927 1.610167,0.856259 2.010651,1.1152353 2.320382,1.5004262 0.177484,0.2207248 0.18848,0.2261534 0.206072,0.1016603 0.01005,-0.072381 0.0025,-0.2398128 -0.01747,-0.3721346 z M 8.7488726,6.1837674 c 0.133817,-0.102163 0.301739,-0.2163895 0.37314,-0.2538618 0.07138,-0.037447 0.467373,-0.2857548 0.8799324,-0.5517555 0.412548,-0.2659882 1.241237,-0.7632568 1.841523,-1.105019 0.883314,-0.5028983 1.256228,-0.6801693 1.955598,-0.9295701 0.659045,-0.2350252 1.958413,-0.581663 2.180382,-0.581663 0.01257,0 0.023,-0.022242 0.023,-0.049511 0,-0.082057 -1.30697,0.00126 -1.667142,0.1064354 -0.180375,0.052527 -0.807603,0.2837694 -1.39384,0.5137303 C 12.355225,3.5625268 11.617314,3.8502922 11.301652,3.9720459 10.98599,4.0938121 10.555536,4.292898 10.34509,4.4145134 9.5081956,4.8981351 9.2946846,5.0313742 9.0059136,5.2502644 8.8405676,5.3755492 8.6437946,5.510535 8.5686356,5.5501184 8.3553506,5.66246 8.2989406,5.7730298 8.2970686,6.0825095 c -0.0013,0.2473148 0.01282,0.2869611 0.10342,0.2869611 0.0578,0 0.21463,-0.083565 0.348447,-0.1857155 z M 25.838025,5.5817475 C 25.794672,5.5407818 25.404819,5.2338656 24.971588,4.8997938 l -0.787698,-0.6073985 -0.328279,0 c -0.180563,0 -0.317623,0.010053 -0.304579,0.02375 0.01307,0.013069 0.30615,0.1818702 0.651368,0.3751882 0.345205,0.1933306 0.860506,0.5011892 1.145105,0.6841527 0.471872,0.3033726 0.689857,0.3950428 0.49052,0.2062989 z M 23.706199,3.9331033 C 23.509777,3.696432 21.299463,2.7694757 20.211257,2.4673974 18.969154,2.1226193 18.394314,2.095024 16.576341,2.292891 c -1.399809,0.1523648 -1.503166,0.1703847 -1.503166,0.2621555 0,0.041343 0.242213,0.048003 0.806246,0.022242 0.857666,-0.039207 1.539457,0.043228 2.451195,0.2964988 0.213274,0.059187 0.594531,0.1348979 0.847237,0.1681354 0.760769,0.1000268 1.279538,0.2146805 1.696747,0.3749621 0.560791,0.2154345 2.237697,0.5837616 2.718629,0.5971194 0.161689,0.00503 0.175575,-0.00503 0.11297,-0.080926 z m 3.392264,-0.8510064 c -0.105179,-0.023122 -0.240504,-0.026012 -0.300633,-0.00628 -0.09362,0.03041 -0.08583,0.040212 0.05466,0.067857 0.09023,0.017844 0.225475,0.020734 0.300633,0.00628 0.12516,-0.02375 0.12051,-0.029405 -0.05466,-0.067857 z M 19.227364,30.092093 c -0.06786,-0.04386 -0.06321,-0.05303 0.02727,-0.05303 0.06019,0 0.14622,0.02388 0.19132,0.05303 0.06786,0.04386 0.06321,0.05303 -0.02727,0.05303 -0.06019,0 -0.14622,-0.02388 -0.19132,-0.05303 z m 1.284526,0 c -0.0186,-0.03003 -0.0075,-0.05466 0.02413,-0.05466 0.03179,0 0.05793,0.02463 0.05793,0.05466 0,0.03003 -0.01131,0.05466 -0.02413,0.05466 -0.01332,0 -0.03933,-0.02463 -0.05793,-0.05466 z m 2.213745,0 c 0,-0.03003 0.03833,-0.05466 0.0852,-0.05466 0.04687,0 0.06999,0.02463 0.0514,0.05466 -0.0186,0.03003 -0.05692,0.05466 -0.0852,0.05466 -0.02827,0 -0.0514,-0.02463 -0.0514,-0.05466 z m -1.986636,-1.247834 c -0.04976,-0.05491 -0.09035,-0.122646 -0.0901,-0.150316 6.41e-4,-0.09085 0.443486,-0.569625 0.526825,-0.569625 0.100655,0 0.436498,0.25111 0.477012,0.356678 0.01634,0.04273 -0.03217,0.151347 -0.108069,0.241421 -0.117243,0.139334 -0.153144,0.154187 -0.24063,0.09952 -0.08281,-0.05165 -0.122897,-0.04599 -0.205834,0.02903 -0.132875,0.120259 -0.246247,0.118122 -0.359242,-0.0063 z M 0.53352333,27.778949 c 0,-0.07703 0.027897,-0.157379 0.062077,-0.178465 0.060695,-0.03745 0.051773,-0.401803 -0.03996,-1.635248 -0.029279,-0.3939 -0.024504,-0.426433 0.048003,-0.327965 0.048882,0.06635 0.1195043,0.43621 0.1794324,0.939925 0.097136,0.815884 0.097011,0.834105 -0.00754,1.02888 -0.1516612,0.284046 -0.2425146,0.348812 -0.2425146,0.172873 z M 23.853739,27.44107 c -0.01734,-0.04511 -0.0075,-0.08193 0.02149,-0.08193 0.02915,0 0.0529,0.03694 0.0529,0.08193 0,0.04511 -0.01005,0.08193 -0.02149,0.08193 -0.01131,0 -0.03569,-0.03694 -0.0529,-0.08193 z m 7.590219,-15.988168 c -0.02048,-0.06472 -0.02501,-0.129859 -0.01005,-0.144888 0.01508,-0.01508 0.04411,0.02563 0.06459,0.09023 0.02048,0.06472 0.02501,0.129859 0.01005,0.144888 -0.01508,0.01508 -0.04411,-0.02551 -0.06459,-0.09023 z M 1.3316262,9.8158811 C 1.2980745,9.5628364 1.3105151,9.525075 1.5485561,9.1570747 1.6874374,8.942369 1.7874139,8.7530345 1.7707009,8.7363215 1.7539879,8.7196085 1.5424615,8.850548 1.3006129,9.0272158 c -0.241836,0.176693 -0.51336597,0.3665679 -0.60340257,0.421947 -0.1469362,0.090351 -0.163687,0.091482 -0.163687,0.011309 0,-0.1236511 0.1637247,-0.2780517 0.75158297,-0.7089332 0.2780768,-0.2038233 0.5055999,-0.3887719 0.5055999,-0.4110014 0,-0.022242 -0.1437696,-0.1857909 -0.3195075,-0.363464 C 1.1656271,7.6681218 1.1488889,7.6366058 1.0875032,7.2544056 1.0440242,6.9835669 0.94896107,6.7105165 0.79257503,6.4071691 0.49792343,5.8355842 0.49789823,5.8355088 0.61134573,5.929177 0.78538723,6.0728838 1.126785,6.833376 1.1924684,7.2236939 c 0.058684,0.3487741 0.085199,0.3981843 0.370011,0.6899709 0.1687386,0.1728728 0.3357933,0.3143051 0.3712173,0.3143051 0.074517,0 1.5064957,-1.0373878 1.7264288,-1.2506861 C 3.741303,6.8984939 4.0633112,6.3773747 4.3756811,5.8191351 4.688051,5.2608828 5.0669966,4.6459571 5.2177906,4.4526266 5.4527278,4.1514154 5.4971744,4.0551837 5.5283762,3.780173 5.5643154,3.4630279 5.5614252,3.4540054 5.2825818,3.0149307 4.9509479,2.4927937 4.8948023,2.3277119 4.9467508,2.0276945 c 0.038453,-0.2220317 0.038578,-0.2218809 0.072507,0.1167397 0.028777,0.2877151 0.077533,0.4053596 0.32094,0.7761748 0.2771093,0.4220978 0.2872376,0.451 0.2955061,0.8436929 l 0.0088,0.4066162 0.2684763,-0.1359785 c 0.1476525,-0.074769 0.9282757,-0.5762973 1.7347221,-1.1144688 0.806434,-0.5381589 1.502022,-0.9784902 1.545752,-0.9784902 0.04373,0 0.09475,-0.02463 0.113347,-0.054663 0.0186,-0.030033 0.107818,-0.054663 0.198445,-0.054663 0.137751,0 0.152667,0.012566 0.09136,0.073386 -0.04034,0.040337 -0.134345,0.1055559 -0.208887,0.1448126 -0.07452,0.039332 -0.787346,0.5060398 -1.584016,1.0371993 C 7.0070126,3.6192003 6.2157835,4.1327169 6.0453862,4.2292 5.641057,4.458118 4.9679248,5.1960916 4.9036991,5.4808537 4.8534341,5.7037776 4.8936461,5.942472 5.0683663,6.4463756 c 0.127999,0.3701994 0.1261895,0.3603978 0.066601,0.3603978 -0.048631,0 -0.2732514,-0.7047361 -0.2962475,-0.9292308 C 4.8118278,5.6145452 4.6785384,5.7461382 4.3129633,6.3968146 L 3.9444478,7.0527437 2.9938796,7.767583 C 2.471064,8.1607409 2.0325548,8.5174062 2.0194231,8.5601563 2.0062287,8.6028813 1.8610517,8.8518297 1.6966987,9.1133067 1.4251186,9.5453568 1.4011926,9.6084139 1.4343421,9.8046221 c 0.020232,0.119756 0.013446,0.2300989 -0.015079,0.2477919 -0.028399,0.01759 -0.067606,-0.08884 -0.087209,-0.2365329 z M 31.47046,6.7657826 c -6.4e-4,-0.073261 -0.01131,-0.078539 -0.047,-0.022745 -0.09751,0.1538225 -0.110457,-0.1016603 -0.03179,-0.6258457 0.05755,-0.3836578 0.06308,-0.5490412 0.01998,-0.6010023 -0.04197,-0.050516 -0.04285,-0.1247821 -0.0025,-0.2514492 0.03117,-0.098896 0.06748,-0.2412454 0.08093,-0.3164036 0.01344,-0.075146 0.02086,0.3244837 0.01671,0.8880891 -0.0038,0.563618 -0.01382,1.0248091 -0.02124,1.0248845 -0.0075,5.03e-5 -0.01407,-0.042976 -0.01445,-0.095503 z M 0.53352333,2.4951058 c 0,-0.091859 0.3341597,-0.3103467 0.68324807,-0.4467777 0.1803874,-0.070496 0.3513376,-0.1478536 0.379888,-0.1719178 0.071502,-0.060192 0.1528926,-0.055166 0.1144778,0.00754 -0.017216,0.027897 -0.2206745,0.140628 -0.4520178,0.2504438 -0.2313432,0.1098284 -0.48923887,0.2485087 -0.57310547,0.3082231 -0.083816,0.059689 -0.1524654,0.083565 -0.1524654,0.052904 z"
     style="fill:#000000" /></svg>