<?xml version="1.0" encoding="UTF-8" standalone="no"?>
<!-- Generator: Adobe Illustrator 19.2.0, SVG Export Plug-In . SVG Version: 6.00 Build 0)  -->

<svg
   xmlns:dc="http://purl.org/dc/elements/1.1/"
   xmlns:cc="http://creativecommons.org/ns#"
   xmlns:rdf="http://www.w3.org/1999/02/22-rdf-syntax-ns#"
   xmlns:svg="http://www.w3.org/2000/svg"
   xmlns="http://www.w3.org/2000/svg"
   xmlns:sodipodi="http://sodipodi.sourceforge.net/DTD/sodipodi-0.dtd"
   xmlns:inkscape="http://www.inkscape.org/namespaces/inkscape"
   version="1.1"
   id="Layer_1"
   x="0px"
   y="0px"
   viewBox="0 0 32 32"
   enable-background="new 0 0 32 32"
   xml:space="preserve"
   inkscape:version="0.91 r13725"
   sodipodi:docname="icon - Copy (13).svg"><metadata
     id="metadata8"><rdf:RDF><cc:Work
         rdf:about=""><dc:format>image/svg+xml</dc:format><dc:type
           rdf:resource="http://purl.org/dc/dcmitype/StillImage" /><dc:title /></cc:Work></rdf:RDF></metadata><defs
     id="defs6" /><sodipodi:namedview
     pagecolor="#ffffff"
     bordercolor="#666666"
     borderopacity="1"
     objecttolerance="10"
     gridtolerance="10"
     guidetolerance="10"
     inkscape:pageopacity="0"
     inkscape:pageshadow="2"
     inkscape:window-width="1280"
     inkscape:window-height="962"
     id="namedview4"
     showgrid="false"
     inkscape:zoom="24.8125"
     inkscape:cx="16"
     inkscape:cy="16"
     inkscape:window-x="1272"
     inkscape:window-y="-8"
     inkscape:window-maximized="1"
     inkscape:current-layer="Layer_1" /><rect
     style="fill:#6f6f6e;fill-rule:evenodd"
     id="rect718"
     height="2.8935418"
     width="31"
     y="26.668762"
     x="0.4596976" /><polygon
     style="fill:#6f6f6e;fill-rule:evenodd"
     id="polygon720"
     points="5540.4,7211 5561.5,7235.7 5582.7,7269.2 5596.8,7313.3 5607.4,7355.7 5612.7,7387.4 5616.2,7415.6 5635.6,7415.6 5632.1,7366.3 5625,7327.4 5614.5,7285.1 5607.4,7260.4 5575.7,7193.4 5542.1,7152.8 5521,7133.4 5496.3,7121 5475.1,7114 5443.3,7114 5425.7,7119.3 5404.5,7131.6 5381.6,7149.3 5363.9,7168.7 5337.5,7207.5 5323.4,7241 5309.3,7272.8 5295.1,7329.2 5286.3,7390.9 5286.3,7415.6 5353.4,7415.6 5358.6,7382.1 5362.2,7359.2 5367.5,7336.3 5372.8,7315.1 5381.6,7288.6 5395.7,7256.8 5408,7235.7 5427.5,7212.8 5446.9,7196.9 5468,7188.1 5487.5,7182.8 5510.4,7188.1 "
     transform="matrix(0.07820384,0,0,0.07820384,-411.2522,-553.25958)" /></svg>