<?xml version="1.0" encoding="UTF-8" standalone="no"?>
<!-- Generator: Adobe Illustrator 19.2.0, SVG Export Plug-In . SVG Version: 6.00 Build 0)  -->

<svg
   xmlns:dc="http://purl.org/dc/elements/1.1/"
   xmlns:cc="http://creativecommons.org/ns#"
   xmlns:rdf="http://www.w3.org/1999/02/22-rdf-syntax-ns#"
   xmlns:svg="http://www.w3.org/2000/svg"
   xmlns="http://www.w3.org/2000/svg"
   xmlns:sodipodi="http://sodipodi.sourceforge.net/DTD/sodipodi-0.dtd"
   xmlns:inkscape="http://www.inkscape.org/namespaces/inkscape"
   version="1.1"
   id="Layer_1"
   x="0px"
   y="0px"
   viewBox="0 0 32 32"
   enable-background="new 0 0 32 32"
   xml:space="preserve"
   inkscape:version="0.91 r13725"
   sodipodi:docname="icon - Copy (43) - Copy.svg"><metadata
     id="metadata8"><rdf:RDF><cc:Work
         rdf:about=""><dc:format>image/svg+xml</dc:format><dc:type
           rdf:resource="http://purl.org/dc/dcmitype/StillImage" /><dc:title /></cc:Work></rdf:RDF></metadata><defs
     id="defs6" /><sodipodi:namedview
     pagecolor="#ffffff"
     bordercolor="#666666"
     borderopacity="1"
     objecttolerance="10"
     gridtolerance="10"
     guidetolerance="10"
     inkscape:pageopacity="0"
     inkscape:pageshadow="2"
     inkscape:window-width="1280"
     inkscape:window-height="962"
     id="namedview4"
     showgrid="false"
     inkscape:zoom="24.8125"
     inkscape:cx="16"
     inkscape:cy="16"
     inkscape:window-x="1272"
     inkscape:window-y="-8"
     inkscape:window-maximized="1"
     inkscape:current-layer="Layer_1" /><polygon
     style="fill:#6f6f6e;fill-rule:evenodd"
     id="polygon600"
     points="3626,11002.2 3624.2,11108.4 3960.7,11108.4 "
     transform="matrix(0.09112287,0,0,0.09112287,-329.61923,-980.81225)" /><path
     style="fill:#6f6f6e;fill-rule:evenodd"
     inkscape:connector-curvature="0"
     id="path602"
     d="m 3.2525739,3.0407509 0,6.561 5.0847,1.4760001 0,-6.3960001 -5.0847,-1.641 z m 6.7248998,2.133 0,6.3960001 4.9206013,1.641 0,-6.5610001 -4.9206013,-1.476 z m 6.7249013,2.123 0,6.4060001 4.9206,1.64 0,-6.5610001 -4.9206,-1.485 z m 6.5608,2.141 0,6.3970001 5.0847,1.64 0,-6.561 -5.0847,-1.4760001 z m -11.6455,10.4980001 0.1458,0.05 -0.4738,1.595 -1.148201,1.312 -1.4762003,0.656 -1.8041998,0 -1.4762,-0.984 -0.8201,-1.476 -0.164,-1.641 0.6561,-1.64 -0.164,0 -3.6084999,-1.148 0,-16.23800009 29.195801,9.18499999 0,16.2380001 -3.7725,-1.148 -0.4921,1.64 -1.1481,1.313 -1.4762,0.656 -1.8043,0 -1.4762,-0.985 -0.8201,-1.476 -0.164,-1.64 0.6561,-1.64 -8.2193,-2.57 0.018,-0.05 -0.164,0 z" /></svg>