<?xml version="1.0" encoding="UTF-8" standalone="no"?>
<!-- Generator: Adobe Illustrator 19.2.0, SVG Export Plug-In . SVG Version: 6.00 Build 0)  -->

<svg
   xmlns:dc="http://purl.org/dc/elements/1.1/"
   xmlns:cc="http://creativecommons.org/ns#"
   xmlns:rdf="http://www.w3.org/1999/02/22-rdf-syntax-ns#"
   xmlns:svg="http://www.w3.org/2000/svg"
   xmlns="http://www.w3.org/2000/svg"
   xmlns:sodipodi="http://sodipodi.sourceforge.net/DTD/sodipodi-0.dtd"
   xmlns:inkscape="http://www.inkscape.org/namespaces/inkscape"
   version="1.1"
   id="Layer_1"
   x="0px"
   y="0px"
   viewBox="0 0 32 32"
   enable-background="new 0 0 32 32"
   xml:space="preserve"
   inkscape:version="0.91 r13725"
   sodipodi:docname="icon - Copy (7).svg"><metadata
     id="metadata8"><rdf:RDF><cc:Work
         rdf:about=""><dc:format>image/svg+xml</dc:format><dc:type
           rdf:resource="http://purl.org/dc/dcmitype/StillImage" /><dc:title /></cc:Work></rdf:RDF></metadata><defs
     id="defs6" /><sodipodi:namedview
     pagecolor="#ffffff"
     bordercolor="#666666"
     borderopacity="1"
     objecttolerance="10"
     gridtolerance="10"
     guidetolerance="10"
     inkscape:pageopacity="0"
     inkscape:pageshadow="2"
     inkscape:window-width="1280"
     inkscape:window-height="962"
     id="namedview4"
     showgrid="false"
     inkscape:zoom="18.967248"
     inkscape:cx="16.765743"
     inkscape:cy="15.153652"
     inkscape:window-x="1272"
     inkscape:window-y="-8"
     inkscape:window-maximized="1"
     inkscape:current-layer="Layer_1" /><polygon
     transform="matrix(0.0783026,0,0,0.0783026,-97.145187,-480.16341)"
     style="fill:#6f6f6e;fill-rule:evenodd"
     id="polygon174"
     points="1365.8,6529 1380.2,6530.8 1394.6,6530.8 1401.8,6527.1 1414.3,6519.9 1419.8,6512.8 1423.4,6505.5 1425.2,6494.7 1423.4,6473.2 1419.8,6457 1409,6437.1 1394.6,6417.3 1378.4,6399.4 1356.8,6383.2 1337,6372.3 1319,6365.2 1304.6,6361.6 1292,6359.7 1279.3,6359.7 1268.6,6363.4 1263.2,6367 1257.8,6370.5 1252.4,6377.8 1248.8,6386.8 1247,6397.5 1248.8,6413.8 1252.4,6429.9 1261.4,6449.7 1274,6467.8 1293.8,6487.5 1315.4,6505.5 1326.1,6512.8 1342.4,6521.8 " /><polygon
     transform="matrix(0.0783026,0,0,0.0783026,-97.145187,-480.16341)"
     style="fill:#6f6f6e;fill-rule:evenodd"
     id="polygon176"
     points="1472,6444.4 1489.9,6415.5 1500.8,6395.8 1506.1,6383.2 1509.8,6372.3 1509.8,6365.2 1507.9,6356.1 1504.3,6345.3 1499,6334.5 1484.6,6312.9 1466.6,6296.8 1446.8,6282.3 1428.8,6275.2 1416.1,6271.6 1407.2,6271.6 1398.2,6273.4 1376.6,6280.5 1354.9,6293.2 1313.6,6322 1295.6,6334.5 1284.8,6343.5 1299.2,6341.8 1315.4,6343.5 1337,6352.5 1358.6,6361.6 1378.4,6377.8 1399.9,6397.5 1416.1,6415.5 1427,6431.8 1436,6451.6 1439.6,6469.5 1439.6,6482.1 1437.8,6492.9 1455.8,6469.5 " /><polygon
     transform="matrix(0.0783026,0,0,0.0783026,-97.145187,-480.16341)"
     style="fill:#6f6f6e;fill-rule:evenodd"
     id="polygon178"
     points="1621.4,6203.2 1612.4,6190.5 1601.6,6179.7 1590.8,6170.8 1581.8,6163.5 1571,6156.4 1560.2,6150.9 1547.6,6147.3 1533.2,6143.8 1522.4,6149.2 1540.4,6154.5 1556.6,6163.5 1572.8,6174.4 1587.2,6187 1603.4,6201.4 1614.2,6214 1623.2,6228.4 1628.6,6240.9 1635.8,6260.8 1642.9,6249.9 1637.6,6237.3 1635.8,6226.6 1630.4,6214 " /><polygon
     transform="matrix(0.0783026,0,0,0.0783026,-97.145187,-480.16341)"
     style="fill:#6f6f6e;fill-rule:evenodd"
     id="polygon180"
     points="1526,6350.8 1526,6365.2 1522.4,6379.5 1518.8,6388.5 1511.6,6401.1 1522.4,6402.9 1538.6,6402.9 1552.9,6401.1 1565.6,6397.5 1579.9,6388.5 1590.8,6377.8 1603.4,6361.6 1612.4,6347.1 1621.4,6325.5 1628.6,6302.1 1628.6,6284.2 1626.8,6269.7 1619.6,6246.4 1610.6,6226.6 1599.8,6212.1 1585.4,6195.9 1571,6183.4 1556.6,6172.5 1540.4,6161.8 1515.2,6152.8 1493.6,6147.3 1479.2,6149.2 1461.1,6152.8 1441.4,6158.2 1421.6,6167.1 1403.6,6177.9 1387.4,6192.3 1374.8,6212.1 1369.3,6233.8 1371.1,6255.3 1374.8,6271.6 1385.6,6264.4 1396.4,6260.8 1409,6257.1 1421.6,6255.3 1432.4,6257.1 1444.9,6260.8 1459.3,6267.9 1470.2,6275.2 1481,6282.3 1491.8,6293.2 1502.6,6305.8 1513.4,6320.2 1520.6,6334.5 " /></svg>