<?xml version="1.0" encoding="UTF-8" standalone="no"?>
<!-- Generator: Adobe Illustrator 19.2.0, SVG Export Plug-In . SVG Version: 6.00 Build 0)  -->

<svg
   xmlns:dc="http://purl.org/dc/elements/1.1/"
   xmlns:cc="http://creativecommons.org/ns#"
   xmlns:rdf="http://www.w3.org/1999/02/22-rdf-syntax-ns#"
   xmlns:svg="http://www.w3.org/2000/svg"
   xmlns="http://www.w3.org/2000/svg"
   xmlns:sodipodi="http://sodipodi.sourceforge.net/DTD/sodipodi-0.dtd"
   xmlns:inkscape="http://www.inkscape.org/namespaces/inkscape"
   version="1.1"
   id="Layer_1"
   x="0px"
   y="0px"
   viewBox="0 0 32 32"
   enable-background="new 0 0 32 32"
   xml:space="preserve"
   inkscape:version="0.91 r13725"
   sodipodi:docname="icon - Copy (8).svg"><metadata
     id="metadata8"><rdf:RDF><cc:Work
         rdf:about=""><dc:format>image/svg+xml</dc:format><dc:type
           rdf:resource="http://purl.org/dc/dcmitype/StillImage" /><dc:title /></cc:Work></rdf:RDF></metadata><defs
     id="defs6" /><sodipodi:namedview
     pagecolor="#ffffff"
     bordercolor="#666666"
     borderopacity="1"
     objecttolerance="10"
     gridtolerance="10"
     guidetolerance="10"
     inkscape:pageopacity="0"
     inkscape:pageshadow="2"
     inkscape:window-width="1280"
     inkscape:window-height="962"
     id="namedview4"
     showgrid="false"
     inkscape:zoom="24.8125"
     inkscape:cx="16"
     inkscape:cy="16"
     inkscape:window-x="1272"
     inkscape:window-y="-8"
     inkscape:window-maximized="1"
     inkscape:current-layer="Layer_1" /><polygon
     transform="matrix(0.08360302,0,0,0.08360302,-104.88805,-592.60764)"
     style="fill:#6f6f6e;fill-rule:evenodd"
     id="polygon182"
     points="1395.1,7339.9 1398.7,7338.1 1402.3,7336.3 1405.9,7334.5 1409.5,7332.7 1414.9,7330.9 1420.3,7330.9 1414.9,7316.5 1413.1,7316.5 1407.7,7318.3 1402.3,7320.1 1395.1,7321.9 1389.7,7323.7 " /><polygon
     transform="matrix(0.08360302,0,0,0.08360302,-104.88805,-592.60764)"
     style="fill:#6f6f6e;fill-rule:evenodd"
     id="polygon184"
     points="1585.9,7262.5 1591.3,7266.1 1598.5,7271.5 1600.3,7264.3 1602.1,7258.9 1603.9,7255.3 1603.9,7240.9 1602.1,7235.5 1600.3,7231.9 1598.5,7226.5 1594.9,7221.1 1591.3,7217.5 1587.7,7215.7 1584.1,7212.1 1582.3,7210.3 1578.7,7208.5 1575.1,7206.7 1571.5,7206.7 1566.1,7204.9 1564.3,7213.9 1564.3,7217.5 1562.5,7221.1 1562.5,7226.5 1558.9,7233.7 1558.9,7237.3 1557.1,7240.9 1555.3,7246.3 1553.5,7248.1 1558.9,7251.7 1564.3,7251.7 1571.5,7255.3 1580.5,7258.9 " /><polygon
     transform="matrix(0.08360302,0,0,0.08360302,-104.88805,-592.60764)"
     style="fill:#6f6f6e;fill-rule:evenodd"
     id="polygon186"
     points="1476.1,7244.5 1485.1,7251.7 1497.7,7257.1 1510.3,7258.9 1522.9,7257.1 1533.7,7251.7 1544.5,7244.5 1551.7,7233.7 1557.1,7222.9 1558.9,7210.3 1557.1,7197.7 1551.7,7185.1 1544.5,7176.1 1533.7,7167.1 1522.9,7163.5 1510.3,7161.7 1497.7,7163.5 1485.1,7167.1 1467.1,7185.1 1463.5,7197.7 1461.7,7210.3 1463.5,7222.9 1467.1,7233.7 " /><polygon
     transform="matrix(0.08360302,0,0,0.08360302,-104.88805,-592.60764)"
     style="fill:#6f6f6e;fill-rule:evenodd"
     id="polygon188"
     points="1427.5,7318.3 1434.7,7327.3 1443.7,7334.5 1454.5,7339.9 1467.1,7341.7 1477.9,7339.9 1488.7,7334.5 1497.7,7327.3 1504.9,7318.3 1510.3,7307.5 1512.1,7296.7 1510.3,7284.1 1504.9,7275.1 1497.7,7264.3 1488.7,7257.1 1477.9,7253.5 1467.1,7251.7 1454.5,7253.5 1443.7,7257.1 1434.7,7264.3 1427.5,7275.1 1423.9,7284.1 1422.1,7296.7 1423.9,7307.5 " /><polygon
     transform="matrix(0.08360302,0,0,0.08360302,-104.88805,-592.60764)"
     style="fill:#6f6f6e;fill-rule:evenodd"
     id="polygon190"
     points="1351.9,7302.1 1360.9,7309.3 1369.9,7312.9 1391.5,7312.9 1400.5,7309.3 1407.7,7302.1 1414.9,7293.1 1418.5,7284.1 1420.3,7273.3 1418.5,7264.3 1414.9,7253.5 1407.7,7246.3 1400.5,7239.1 1391.5,7235.5 1380.7,7233.7 1369.9,7235.5 1360.9,7239.1 1351.9,7246.3 1346.5,7253.5 1341.1,7264.3 1341.1,7284.1 1346.5,7293.1 " /><polygon
     transform="matrix(0.08360302,0,0,0.08360302,-104.88805,-592.60764)"
     style="fill:#6f6f6e;fill-rule:evenodd"
     id="polygon192"
     points="1522.9,7321.9 1530.1,7330.9 1537.3,7336.3 1548.1,7341.7 1558.9,7343.5 1569.7,7341.7 1580.5,7336.3 1587.7,7330.9 1594.9,7321.9 1598.5,7311.1 1600.3,7300.3 1598.5,7289.5 1594.9,7280.5 1587.7,7271.5 1580.5,7264.3 1569.7,7260.7 1558.9,7258.9 1548.1,7260.7 1537.3,7264.3 1530.1,7271.5 1522.9,7280.5 1519.3,7289.5 1517.5,7300.3 1519.3,7311.1 " /><polygon
     transform="matrix(0.08360302,0,0,0.08360302,-104.88805,-592.60764)"
     style="fill:#6f6f6e;fill-rule:evenodd"
     id="polygon194"
     points="1315.9,7368.7 1321.3,7375.9 1330.3,7383.1 1339.3,7386.7 1359.1,7386.7 1369.9,7383.1 1384.3,7368.7 1387.9,7357.9 1387.9,7348.9 1387.9,7338.1 1384.3,7329.1 1377.1,7320.1 1369.9,7314.7 1359.1,7311.1 1350.1,7309.3 1339.3,7311.1 1330.3,7314.7 1321.3,7320.1 1315.9,7329.1 1312.3,7338.1 1310.5,7348.9 1312.3,7357.9 " /><polygon
     transform="matrix(0.08360302,0,0,0.08360302,-104.88805,-592.60764)"
     style="fill:#6f6f6e;fill-rule:evenodd"
     id="polygon196"
     points="1391.5,7401.1 1396.9,7408.3 1405.9,7415.5 1414.9,7419.1 1425.7,7420.9 1434.7,7419.1 1445.5,7415.5 1459.9,7401.1 1463.5,7392.1 1465.3,7381.3 1463.5,7370.5 1459.9,7361.5 1452.7,7354.3 1445.5,7347.1 1434.7,7343.5 1425.7,7341.7 1414.9,7343.5 1405.9,7347.1 1396.9,7354.3 1391.5,7361.5 1387.9,7370.5 1386.1,7381.3 1387.9,7392.1 " /><polygon
     transform="matrix(0.08360302,0,0,0.08360302,-104.88805,-592.60764)"
     style="fill:#6f6f6e;fill-rule:evenodd"
     id="polygon198"
     points="1477.9,7397.5 1485.1,7406.5 1492.3,7411.9 1503.1,7417.3 1522.9,7417.3 1531.9,7411.9 1540.9,7406.5 1546.3,7397.5 1549.9,7388.5 1551.7,7379.5 1549.9,7368.7 1546.3,7359.7 1540.9,7350.7 1531.9,7345.3 1522.9,7341.7 1512.1,7339.9 1503.1,7341.7 1492.3,7345.3 1485.1,7350.7 1477.9,7359.7 1474.3,7368.7 1472.5,7379.5 1474.3,7388.5 " /><polygon
     transform="matrix(0.08360302,0,0,0.08360302,-104.88805,-592.60764)"
     style="fill:#6f6f6e;fill-rule:evenodd"
     id="polygon200"
     points="1279.9,7446.1 1287.1,7455.1 1294.3,7460.5 1305.1,7464.1 1315.9,7465.9 1324.9,7464.1 1335.7,7460.5 1344.7,7455.1 1350.1,7446.1 1353.7,7437.1 1355.5,7426.3 1353.7,7415.5 1350.1,7404.7 1344.7,7397.5 1335.7,7390.3 1324.9,7386.7 1315.9,7384.9 1305.1,7386.7 1294.3,7390.3 1287.1,7397.5 1279.9,7404.7 1276.3,7415.5 1274.5,7426.3 1276.3,7437.1 " /><polygon
     transform="matrix(0.08360302,0,0,0.08360302,-104.88805,-592.60764)"
     style="fill:#6f6f6e;fill-rule:evenodd"
     id="polygon202"
     points="1405.9,7428.1 1407.7,7424.5 1402.3,7420.9 1398.7,7419.1 1395.1,7417.3 1393.3,7417.3 1389.7,7413.7 1387.9,7410.1 1386.1,7408.3 1384.3,7404.7 1382.5,7402.9 1380.7,7399.3 1378.9,7397.5 1377.1,7399.3 1373.5,7399.3 1371.7,7401.1 1360.9,7401.1 1357.3,7401.1 1359.1,7406.5 1360.9,7410.1 1360.9,7415.5 1362.7,7420.9 1362.7,7429.9 1360.9,7433.5 1360.9,7437.1 1368.1,7440.7 1371.7,7442.5 1380.7,7442.5 1387.9,7440.7 1396.9,7437.1 1404.1,7429.9 " /><polygon
     transform="matrix(0.08360302,0,0,0.08360302,-104.88805,-592.60764)"
     style="fill:#6f6f6e;fill-rule:evenodd"
     id="polygon204"
     points="1389.7,7228.3 1387.9,7221.1 1386.1,7215.7 1386.1,7192.3 1387.9,7186.9 1389.7,7183.3 1391.5,7179.7 1391.5,7172.5 1389.7,7170.7 1386.1,7170.7 1382.5,7172.5 1373.5,7176.1 1371.7,7177.9 1364.5,7185.1 1360.9,7188.7 1357.3,7195.9 1353.7,7203.1 1351.9,7210.3 1351.9,7222.9 1353.7,7230.1 1355.5,7233.7 1355.5,7231.9 1359.1,7231.9 1362.7,7230.1 1366.3,7228.3 " /><polygon
     transform="matrix(0.08360302,0,0,0.08360302,-104.88805,-592.60764)"
     style="fill:#6f6f6e;fill-rule:evenodd"
     id="polygon206"
     points="1402.3,7176.1 1400.5,7179.7 1396.9,7185.1 1395.1,7190.5 1395.1,7212.1 1398.7,7217.5 1400.5,7226.5 1404.1,7230.1 1405.9,7231.9 1407.7,7235.5 1413.1,7237.3 1416.7,7240.9 1420.3,7240.9 1425.7,7242.7 1429.3,7242.7 1434.7,7244.5 1440.1,7242.7 1447.3,7242.7 1454.5,7240.9 1458.1,7239.1 1456.3,7231.9 1452.7,7217.5 1452.7,7212.1 1454.5,7204.9 1454.5,7197.7 1456.3,7194.1 1458.1,7185.1 1461.7,7177.9 1465.3,7170.7 1470.7,7165.3 1468.9,7163.5 1465.3,7161.7 1463.5,7159.9 1459.9,7158.1 1454.5,7158.1 1450.9,7156.3 1443.7,7156.3 1431.1,7158.1 1423.9,7159.9 1420.3,7161.7 1416.7,7163.5 1411.3,7168.9 1407.7,7172.5 " /><polygon
     transform="matrix(0.08360302,0,0,0.08360302,-104.88805,-592.60764)"
     style="fill:#6f6f6e;fill-rule:evenodd"
     id="polygon208"
     points="1602.1,7134.7 1609.3,7136.5 1611.1,7132.9 1612.9,7123.9 1611.1,7120.3 1609.3,7118.5 1602.1,7116.7 1573.3,7116.7 1544.5,7111.3 1526.5,7105.9 1501.3,7095.1 1497.7,7095.1 1488.7,7107.7 1488.7,7109.5 1490.5,7111.3 1510.3,7123.9 1533.7,7132.9 1537.3,7134.7 1537.3,7136.5 1539.1,7138.3 1539.1,7143.7 1535.5,7150.9 1531.9,7152.7 1531.9,7154.5 1531.9,7158.1 1533.7,7158.1 1537.3,7161.7 1544.5,7165.3 1546.3,7165.3 1549.9,7161.7 1555.3,7152.7 1558.9,7147.3 1562.5,7143.7 1566.1,7140.1 1569.7,7136.5 1578.7,7134.7 1589.5,7132.9 " /></svg>