<?xml version="1.0" encoding="UTF-8" standalone="no"?>
<!-- Generator: Adobe Illustrator 19.2.0, SVG Export Plug-In . SVG Version: 6.00 Build 0)  -->

<svg
   xmlns:dc="http://purl.org/dc/elements/1.1/"
   xmlns:cc="http://creativecommons.org/ns#"
   xmlns:rdf="http://www.w3.org/1999/02/22-rdf-syntax-ns#"
   xmlns:svg="http://www.w3.org/2000/svg"
   xmlns="http://www.w3.org/2000/svg"
   xmlns:sodipodi="http://sodipodi.sourceforge.net/DTD/sodipodi-0.dtd"
   xmlns:inkscape="http://www.inkscape.org/namespaces/inkscape"
   version="1.1"
   id="Layer_1"
   x="0px"
   y="0px"
   viewBox="0 0 32 32"
   enable-background="new 0 0 32 32"
   xml:space="preserve"
   inkscape:version="0.91 r13725"
   sodipodi:docname="Denominació d’origen. Oli.svg"><metadata
     id="metadata8"><rdf:RDF><cc:Work
         rdf:about=""><dc:format>image/svg+xml</dc:format><dc:type
           rdf:resource="http://purl.org/dc/dcmitype/StillImage" /><dc:title /></cc:Work></rdf:RDF></metadata><defs
     id="defs6" /><sodipodi:namedview
     pagecolor="#ffffff"
     bordercolor="#666666"
     borderopacity="1"
     objecttolerance="10"
     gridtolerance="10"
     guidetolerance="10"
     inkscape:pageopacity="0"
     inkscape:pageshadow="2"
     inkscape:window-width="1280"
     inkscape:window-height="962"
     id="namedview4"
     showgrid="false"
     inkscape:zoom="24.8125"
     inkscape:cx="16"
     inkscape:cy="16"
     inkscape:window-x="1272"
     inkscape:window-y="-8"
     inkscape:window-maximized="1"
     inkscape:current-layer="Layer_1" /><polygon
     transform="matrix(0.09138377,0,0,0.09138377,-115.2585,-734.61378)"
     style="fill:#6f6f6e;fill-rule:evenodd"
     id="polygon254"
     points="1542.8,8292 1568,8277.6 1586,8254.2 1593.2,8223.6 1591.4,8191.2 1578.8,8158.8 1559,8130 1530.2,8106.6 1499.6,8092.2 1467.2,8088.6 1438.4,8094 1413.2,8108.4 1395.2,8131.8 1388,8162.4 1389.8,8194.8 1402.4,8227.2 1422.2,8256 1451,8279.4 1481.6,8293.8 1514,8297.4 " /><polygon
     transform="matrix(0.09138377,0,0,0.09138377,-115.2585,-734.61378)"
     style="fill:none;fill-rule:evenodd;stroke:#6f6f6e;stroke-width:8.50500011;stroke-miterlimit:3.86369991"
     id="polygon256"
     points="1379.2,8185.7 1384.5,8181.7 1385.6,8151.2 1383.3,8103.8 1405.2,8119.6 1409.1,8114.9 1391.5,8101.5 1353.5,8086.8 1333.6,8081.6 1316.6,8079.2 1293.2,8079.8 1293.8,8085.7 1318.3,8085.7 1350.5,8090.9 1376.9,8103.2 "
     stroke-miterlimit="3.8637" /><path
     style="fill:none;fill-rule:evenodd;stroke:#6f6f6e;stroke-width:0.777219;stroke-miterlimit:3.86369991"
     inkscape:connector-curvature="0"
     id="path258"
     d="m 7.4607713,4.7632076 -1.12402,2.19321 -1.65405,4.7062704 -1.27937,7.64882 -0.16449,0.31984 -0.53917,7.81331 0.26501,0.26502 c 0,0 1.12402,-1.06919 1.23368,-1.44387 0.10967,-0.37467 1.27938,-3.42689 1.27938,-3.42689 l 0.10966,-1.38903 0.9047,-3.05222 0.85901,-6.63446 0.4295,-3.7467404 -0.31984,-2.67754 0.37467,-0.48433 -0.37467,-0.0914 z"
     stroke-miterlimit="3.8637" /><path
     style="fill:none;fill-rule:evenodd;stroke:#6f6f6e;stroke-width:0.777219;stroke-miterlimit:3.86369991"
     inkscape:connector-curvature="0"
     id="path260"
     d="m 11.280611,13.225348 -0.45692,0.3107 -1.5900797,3.20757 -0.26501,4.7611 1.6083497,4.33159 3.2624,3.58224 4.17624,1.59922 c 0,0 3.69191,-0.58486 3.84726,-0.63969 0.16449,-0.0548 2.62271,-2.45822 2.62271,-2.45822 l 0.69452,-0.21018 1.06919,-4.38642 -2.06527,0.65796 -1.24282,0.17363 -1.39818,-0.18277 -1.00522,-0.0731 -1.54438,-0.47519 -2.43081,-1.3799 -2.41253,-2.08355 -1.38904,-1.70887 -1.08746,-2.43995 -0.0366,-0.0731 -0.35639,-2.51305 z"
     stroke-miterlimit="3.8637" /><polygon
     transform="matrix(0.09138377,0,0,0.09138377,-115.2585,-734.61378)"
     style="fill:none;fill-rule:evenodd;stroke:#6f6f6e;stroke-width:8.50500011;stroke-miterlimit:3.86369991"
     id="polygon262"
     points="1514.4,8048.8 1553.7,8047.6 1514.4,8061.7 1498.1,8063.4 1459.4,8076.3 1414.3,8082.1 1395.6,8086.8 1358.1,8087.3 1355.8,8085.7 1372.2,8076.9 1431.9,8060.5 "
     stroke-miterlimit="3.8637" /></svg>