<?xml version="1.0" encoding="UTF-8" standalone="no"?>
<!-- Generator: Adobe Illustrator 19.2.0, SVG Export Plug-In . SVG Version: 6.00 Build 0)  -->

<svg
   xmlns:dc="http://purl.org/dc/elements/1.1/"
   xmlns:cc="http://creativecommons.org/ns#"
   xmlns:rdf="http://www.w3.org/1999/02/22-rdf-syntax-ns#"
   xmlns:svg="http://www.w3.org/2000/svg"
   xmlns="http://www.w3.org/2000/svg"
   xmlns:sodipodi="http://sodipodi.sourceforge.net/DTD/sodipodi-0.dtd"
   xmlns:inkscape="http://www.inkscape.org/namespaces/inkscape"
   version="1.1"
   id="Layer_1"
   x="0px"
   y="0px"
   viewBox="0 0 32 32"
   enable-background="new 0 0 32 32"
   xml:space="preserve"
   inkscape:version="0.91 r13725"
   sodipodi:docname="icon - Copy (23).svg"><metadata
     id="metadata8"><rdf:RDF><cc:Work
         rdf:about=""><dc:format>image/svg+xml</dc:format><dc:type
           rdf:resource="http://purl.org/dc/dcmitype/StillImage" /><dc:title /></cc:Work></rdf:RDF></metadata><defs
     id="defs6" /><sodipodi:namedview
     pagecolor="#ffffff"
     bordercolor="#666666"
     borderopacity="1"
     objecttolerance="10"
     gridtolerance="10"
     guidetolerance="10"
     inkscape:pageopacity="0"
     inkscape:pageshadow="2"
     inkscape:window-width="1280"
     inkscape:window-height="962"
     id="namedview4"
     showgrid="false"
     inkscape:zoom="24.8125"
     inkscape:cx="16"
     inkscape:cy="16"
     inkscape:window-x="1272"
     inkscape:window-y="-8"
     inkscape:window-maximized="1"
     inkscape:current-layer="Layer_1" /><polygon
     style="fill:#6f6f6e;fill-rule:evenodd"
     id="polygon32"
     points="243.6,9824.7 583.8,9824.7 414.6,9750.9 "
     transform="matrix(0.09112287,0,0,0.09112287,-21.697531,-887.36547)" /><polygon
     style="fill:#6f6f6e;fill-rule:evenodd"
     id="polygon34"
     points="380.4,9898.5 382.2,9894.9 385.8,9893.1 387.6,9889.5 389.4,9887.7 391.2,9885.9 394.8,9884.1 396.6,9882.3 400.2,9880.5 403.8,9878.7 409.2,9878.7 411,9876.9 416.4,9876.9 420,9878.7 423.6,9878.7 427.2,9880.5 430.8,9882.3 434.4,9884.1 436.2,9885.9 438,9887.7 439.8,9889.5 441.6,9891.3 445.2,9894.9 448.8,9900.3 450.6,9902.1 450.6,9905.7 452.4,9907.5 454.2,9909.3 456,9912.9 456,9916.5 457.8,9920.1 457.8,9923.7 459.6,9927.3 459.6,9932.7 461.4,9938.1 461.4,10065.9 583.8,10065.9 583.8,9848.1 243.6,9848.1 243.6,10065.9 366,10065.9 366,9939.9 367.8,9934.5 367.8,9929.1 369.6,9923.7 371.4,9920.1 371.4,9916.5 373.2,9911.1 375,9907.5 376.8,9905.7 378.6,9902.1 "
     transform="matrix(0.09112287,0,0,0.09112287,-21.697531,-887.36547)" /></svg>