<?xml version="1.0" encoding="UTF-8" standalone="no"?>
<!-- Generator: Adobe Illustrator 19.2.0, SVG Export Plug-In . SVG Version: 6.00 Build 0)  -->

<svg
   xmlns:dc="http://purl.org/dc/elements/1.1/"
   xmlns:cc="http://creativecommons.org/ns#"
   xmlns:rdf="http://www.w3.org/1999/02/22-rdf-syntax-ns#"
   xmlns:svg="http://www.w3.org/2000/svg"
   xmlns="http://www.w3.org/2000/svg"
   xmlns:sodipodi="http://sodipodi.sourceforge.net/DTD/sodipodi-0.dtd"
   xmlns:inkscape="http://www.inkscape.org/namespaces/inkscape"
   version="1.1"
   id="Layer_1"
   x="0px"
   y="0px"
   viewBox="0 0 32 32"
   enable-background="new 0 0 32 32"
   xml:space="preserve"
   inkscape:version="0.91 r13725"
   sodipodi:docname="icon - Copy (3).svg"><metadata
     id="metadata8"><rdf:RDF><cc:Work
         rdf:about=""><dc:format>image/svg+xml</dc:format><dc:type
           rdf:resource="http://purl.org/dc/dcmitype/StillImage" /><dc:title /></cc:Work></rdf:RDF></metadata><defs
     id="defs6" /><sodipodi:namedview
     pagecolor="#ffffff"
     bordercolor="#666666"
     borderopacity="1"
     objecttolerance="10"
     gridtolerance="10"
     guidetolerance="10"
     inkscape:pageopacity="0"
     inkscape:pageshadow="2"
     inkscape:window-width="1280"
     inkscape:window-height="962"
     id="namedview4"
     showgrid="false"
     inkscape:zoom="24.8125"
     inkscape:cx="16"
     inkscape:cy="16"
     inkscape:window-x="1272"
     inkscape:window-y="-8"
     inkscape:window-maximized="1"
     inkscape:current-layer="Layer_1" /><path
     style="fill:#4fa26a"
     inkscape:connector-curvature="0"
     id="path244"
     d="m 0.46461348,15.924177 c 0,-8.5571199 6.93464002,-15.49999993 15.49999952,-15.49999993 8.55712,0 15.49176,6.93464003 15.49176,15.49999993 0,8.55712 -6.93464,15.5 -15.49176,15.5 -8.5571195,0 -15.49999952,-6.94288 -15.49999952,-15.5 z" /><path
     style="fill:#4fa26a"
     inkscape:connector-curvature="0"
     id="path246"
     d="M 15.964613,15.924177" /><path
     style="fill:#ffffff;fill-rule:evenodd"
     inkscape:connector-curvature="0"
     id="path248"
     d="m 22.512173,7.6306071 0.21413,0.008 c 1.78719,0.25531 3.03905,1.78719 3.03905,3.6485099 0,1.82837 -1.33422,3.34378 -3.08023,3.64027 0.14001,0.44474 0.18119,0.91419 0.18119,1.42482 0,2.03427 -1.64718,3.68969 -3.68969,3.68969 -0.6177,0 -1.17774,-0.15648 -1.68837,-0.42827 l 0,4.01089 0.733,-0.68358 0.86477,-0.5271 0.47769,-0.22237 1.34245,0.94714 -0.21413,0.45297 -0.27179,0.28002 -0.0576,0.31297 0.8483,-0.0577 1.41658,-0.60946 2.1331,-1.57306 0.94713,-1.06244 2.55314,0 -1.31775,1.63895 -1.19421,2.56137 -1.35892,1.31775 c 0,0 -0.18119,0.23884 -0.42827,0.42827 -0.38709,0.29649 -0.90595,0.59298 -0.93066,0.60946 l -0.94713,0.46944 -1.33422,0.28002 -2.16605,0.0247 -0.70829,0.23884 -0.78241,0.77418 -1.94368,0.0329 0,-9.68544 c -0.5271,0.28826 -1.14479,0.46121 -1.79543,0.46121 -2.0425,0 -3.6896895,-1.65542 -3.6896895,-3.68969 0,-0.53533 0.1317796,-1.04596 0.3376695,-1.49894 -1.8283695,-0.22236 -3.2367095,-1.77895 -3.2367095,-3.66498 0,-1.8366099 1.34245,-3.3355499 3.0966996,-3.6237999 -0.1647096,-0.4118 -0.2470696,-0.86478 -0.2470696,-1.33422 0,-2.03427 1.6471795,-3.68969 3.6896895,-3.68969 1.17773,0 2.21546,0.54357 3.03905,1.4001 0.63417,-0.85653 1.58953,-1.4001 2.75903,-1.4001 2.03428,0 3.6897,1.65542 3.6897,3.68969 0.0247,0.51886 -0.0906,0.9636 -0.28002,1.40834 z" /><path
     style="fill:#4fa26a"
     inkscape:connector-curvature="0"
     id="path250"
     d="m 14.696283,11.287357 c 0,-0.87301 0.70829,-1.5812999 1.58129,-1.5812999 0.87301,0 1.5813,0.7082899 1.5813,1.5812999 0,0.87301 -0.70829,1.58129 -1.5813,1.58129 -0.873,0 -1.58129,-0.70828 -1.58129,-1.58129 z" /><path
     style="fill:#4fa26a"
     inkscape:connector-curvature="0"
     id="path252"
     d="M 16.277573,11.287357" /></svg>