<?xml version="1.0" encoding="UTF-8" standalone="no"?>
<!-- Generator: Adobe Illustrator 19.2.0, SVG Export Plug-In . SVG Version: 6.00 Build 0)  -->

<svg
   xmlns:dc="http://purl.org/dc/elements/1.1/"
   xmlns:cc="http://creativecommons.org/ns#"
   xmlns:rdf="http://www.w3.org/1999/02/22-rdf-syntax-ns#"
   xmlns:svg="http://www.w3.org/2000/svg"
   xmlns="http://www.w3.org/2000/svg"
   xmlns:sodipodi="http://sodipodi.sourceforge.net/DTD/sodipodi-0.dtd"
   xmlns:inkscape="http://www.inkscape.org/namespaces/inkscape"
   version="1.1"
   id="Layer_1"
   x="0px"
   y="0px"
   viewBox="0 0 32 32"
   enable-background="new 0 0 32 32"
   xml:space="preserve"
   inkscape:version="0.91 r13725"
   sodipodi:docname="icon - Copy (17).svg"><metadata
     id="metadata8"><rdf:RDF><cc:Work
         rdf:about=""><dc:format>image/svg+xml</dc:format><dc:type
           rdf:resource="http://purl.org/dc/dcmitype/StillImage" /><dc:title /></cc:Work></rdf:RDF></metadata><defs
     id="defs6" /><sodipodi:namedview
     pagecolor="#ffffff"
     bordercolor="#666666"
     borderopacity="1"
     objecttolerance="10"
     gridtolerance="10"
     guidetolerance="10"
     inkscape:pageopacity="0"
     inkscape:pageshadow="2"
     inkscape:window-width="1280"
     inkscape:window-height="962"
     id="namedview4"
     showgrid="false"
     inkscape:zoom="24.8125"
     inkscape:cx="16"
     inkscape:cy="16"
     inkscape:window-x="1272"
     inkscape:window-y="-8"
     inkscape:window-maximized="1"
     inkscape:current-layer="Layer_1" /><polygon
     transform="matrix(0.0726676,0,0,0.0726676,-86.876809,-14.155714)"
     style="fill:#6f6f6e"
     id="polygon162"
     points="1524.9,560.3 1512.3,542.2 1499.7,529.7 1478.1,515.3 1467.3,508.1 1443.9,495.5 1416.9,482.8 1389.9,470.3 1366.5,461.3 1344.9,452.2 1332.3,445.1 1321.5,443.3 1314.3,441.5 1316.1,446.9 1317.9,454.1 1321.5,455.9 1326.9,457.7 1332.3,463.1 1328.7,473.9 1323.3,486.5 1316.1,502.7 1308.9,490.1 1305.3,479.3 1299.9,468.5 1294.5,459.5 1285.5,448.7 1280.1,439.7 1267.5,425.3 1256.7,412.7 1254.9,407.2 1256.7,401.9 1258.5,396.5 1263.9,394.7 1271.1,392.8 1280.1,391.1 1292.7,389.3 1305.3,389.3 1307.1,355.1 1305.3,346.1 1305.3,342.5 1298.1,328.1 1292.7,317.2 1289.1,308.3 1289.1,302.8 1285.5,293.9 1283.7,290.3 1280.1,288.5 1272.9,284.9 1265.7,279.5 1262.1,277.7 1258.5,272.2 1258.5,266.9 1260.3,261.5 1262.1,257.8 1267.5,256.1 1272.9,254.3 1281.9,254.3 1294.5,252.5 1308.9,248.9 1314.3,239.9 1321.5,229.1 1335.9,211.1 1341.3,205.7 1352.1,203.9 1355.7,207.5 1357.5,218.3 1366.5,214.7 1371.9,211.1 1380.9,207.5 1386.3,207.5 1389.9,209.3 1393.5,211.1 1395.3,214.7 1397.1,220.1 1393.5,223.7 1389.9,225.5 1382.7,229.1 1377.3,230.9 1371.9,232.7 1375.5,238.1 1375.5,245.3 1371.9,248.9 1368.3,250.7 1361.1,250.7 1355.7,248.9 1348.5,248.9 1344.9,250.7 1339.5,250.7 1335.9,254.3 1344.9,265.1 1348.5,270.5 1348.5,275.9 1346.7,279.5 1341.3,284.9 1339.5,288.5 1355.7,310.1 1371.9,331.6 1391.7,349.7 1415.1,367.7 1436.7,380.3 1461.9,389.3 1488.9,400.1 1506.9,409.1 1524.9,419.9 1535.7,428.9 1541.1,436.1 1541.1,441.5 1537.5,446.9 1533.9,448.7 1537.5,457.7 1541.1,475.7 1544.7,513.5 1548.3,529.7 1559.1,569.3 1566.3,583.7 1584.3,601.6 1551.9,630.5 1542.9,599.9 1533.9,574.7 " /></svg>