<?xml version="1.0" encoding="UTF-8" standalone="no"?>
<!-- Generator: Adobe Illustrator 19.2.0, SVG Export Plug-In . SVG Version: 6.00 Build 0)  -->

<svg
   xmlns:dc="http://purl.org/dc/elements/1.1/"
   xmlns:cc="http://creativecommons.org/ns#"
   xmlns:rdf="http://www.w3.org/1999/02/22-rdf-syntax-ns#"
   xmlns:svg="http://www.w3.org/2000/svg"
   xmlns="http://www.w3.org/2000/svg"
   xmlns:sodipodi="http://sodipodi.sourceforge.net/DTD/sodipodi-0.dtd"
   xmlns:inkscape="http://www.inkscape.org/namespaces/inkscape"
   version="1.1"
   id="Layer_1"
   x="0px"
   y="0px"
   viewBox="0 0 32 32"
   enable-background="new 0 0 32 32"
   xml:space="preserve"
   inkscape:version="0.91 r13725"
   sodipodi:docname="icon - Copy (42) - Copy.svg"><metadata
     id="metadata8"><rdf:RDF><cc:Work
         rdf:about=""><dc:format>image/svg+xml</dc:format><dc:type
           rdf:resource="http://purl.org/dc/dcmitype/StillImage" /><dc:title /></cc:Work></rdf:RDF></metadata><defs
     id="defs6" /><sodipodi:namedview
     pagecolor="#ffffff"
     bordercolor="#666666"
     borderopacity="1"
     objecttolerance="10"
     gridtolerance="10"
     guidetolerance="10"
     inkscape:pageopacity="0"
     inkscape:pageshadow="2"
     inkscape:window-width="1280"
     inkscape:window-height="962"
     id="namedview4"
     showgrid="false"
     inkscape:zoom="24.8125"
     inkscape:cx="16"
     inkscape:cy="16"
     inkscape:window-x="1272"
     inkscape:window-y="-8"
     inkscape:window-maximized="1"
     inkscape:current-layer="Layer_1" /><polygon
     style="fill:#6f6f6e;fill-rule:evenodd"
     id="polygon606"
     points="3789.3,9840.9 3791.1,9837.3 3792.9,9831.9 3791.1,9830.1 3789.3,9824.7 3787.5,9822.9 3785.7,9819.3 3782.1,9819.3 3778.5,9819.3 3771.3,9819.3 3767.7,9822.9 3765.9,9824.7 3764.1,9830.1 3764.1,9837.3 3765.9,9840.9 3767.7,9842.7 3771.3,9844.5 3774.9,9846.3 3778.5,9848.1 3782.1,9846.3 3785.7,9844.5 "
     transform="matrix(0.0808555,0,0,0.0808555,-290.52456,-793.2832)" /><polygon
     style="fill:#6f6f6e;fill-rule:evenodd"
     id="polygon608"
     points="3823.5,9842.7 3827.1,9840.9 3828.9,9837.3 3828.9,9830.1 3827.1,9824.7 3823.5,9822.9 3821.7,9819.3 3818.1,9819.3 3814.5,9819.3 3807.3,9819.3 3803.7,9822.9 3801.9,9824.7 3800.1,9830.1 3798.3,9831.9 3800.1,9837.3 3801.9,9840.9 3803.7,9842.7 3807.3,9844.5 3810.9,9846.3 3814.5,9848.1 3821.7,9844.5 "
     transform="matrix(0.0808555,0,0,0.0808555,-290.52456,-793.2832)" /><polygon
     style="fill:#6f6f6e;fill-rule:evenodd"
     id="polygon610"
     points="3888.3,10105.5 3893.7,10100.1 3895.5,10094.7 3899.1,10089.3 3900.9,10082.1 3900.9,10078.5 3902.7,10069.5 3870.3,10069.5 3870.3,10071.3 3868.5,10076.7 3868.5,10080.3 3864.9,10083.9 3859.5,10089.3 3846.9,10089.3 3843.3,10087.5 3839.7,10085.7 3836.1,10082.1 3834.3,10078.5 3834.3,10074.9 3834.3,10071.3 3796.5,10062.3 3796.5,10146.9 3848.7,10146.9 3884.7,10202.7 3917.1,10202.7 3888.3,10157.7 3872.1,10132.5 3864.9,10119.9 3870.3,10116.3 3875.7,10114.5 3877.5,10112.7 3882.9,10109.1 "
     transform="matrix(0.0808555,0,0,0.0808555,-290.52456,-793.2832)" /><polygon
     style="fill:#6f6f6e;fill-rule:evenodd"
     id="polygon612"
     points="3690.3,10069.5 3690.3,10078.5 3692.1,10082.1 3693.9,10089.3 3695.7,10094.7 3699.3,10100.1 3704.7,10105.5 3710.1,10109.1 3713.7,10112.7 3715.5,10114.5 3720.9,10116.3 3726.3,10119.9 3720.9,10132.5 3704.7,10157.7 3675.9,10202.7 3706.5,10202.7 3742.5,10146.9 3796.5,10146.9 3796.5,10062.3 3758.7,10071.3 3758.7,10074.9 3755.1,10082.1 3751.5,10085.7 3749.7,10087.5 3744.3,10089.3 3731.7,10089.3 3729.9,10085.7 3726.3,10083.9 3724.5,10080.3 3722.7,10076.7 3720.9,10071.3 3722.7,10069.5 "
     transform="matrix(0.0808555,0,0,0.0808555,-290.52456,-793.2832)" /><polygon
     style="fill:#6f6f6e;fill-rule:evenodd"
     id="polygon614"
     points="3872.1,9914.7 3873.9,9920.1 3873.9,9957.9 3872.1,9961.5 3870.3,9966.9 3868.5,9970.5 3866.7,9974.1 3861.3,9975.9 3857.7,9977.7 3854.1,9979.5 3796.5,9979.5 3796.5,10062.3 3834.3,10071.3 3834.3,10067.7 3836.1,10064.1 3837.9,10060.5 3839.7,10058.7 3843.3,10056.9 3846.9,10055.1 3850.5,10053.3 3854.1,10053.3 3857.7,10055.1 3861.3,10056.9 3863.1,10058.7 3866.7,10060.5 3868.5,10062.3 3868.5,10065.9 3870.3,10067.7 3870.3,10069.5 3902.7,10069.5 3902.7,9893.1 3900.9,9885.9 3897.3,9876.9 3893.7,9867.9 3888.3,9862.5 3882.9,9858.9 3877.5,9855.3 3870.3,9851.7 3864.9,9851.7 3861.3,9849.9 3796.5,9849.9 3796.5,9864.3 3819.9,9864.3 3823.5,9866.1 3825.3,9867.9 3825.3,9885.9 3821.7,9889.5 3796.5,9889.5 3796.5,9900.3 3854.1,9900.3 3859.5,9902.1 3864.9,9903.9 3870.3,9909.3 "
     transform="matrix(0.0808555,0,0,0.0808555,-290.52456,-793.2832)" /><polygon
     style="fill:#6f6f6e;fill-rule:evenodd"
     id="polygon616"
     points="3724.5,10062.3 3726.3,10060.5 3729.9,10056.9 3733.5,10055.1 3738.9,10053.3 3742.5,10053.3 3746.1,10055.1 3747.9,10056.9 3751.5,10058.7 3753.3,10060.5 3756.9,10064.1 3756.9,10067.7 3758.7,10071.3 3796.5,10062.3 3796.5,9979.5 3738.9,9979.5 3735.3,9977.7 3729.9,9975.9 3726.3,9974.1 3722.7,9970.5 3720.9,9966.9 3719.1,9961.5 3717.3,9957.9 3717.3,9920.1 3719.1,9914.7 3722.7,9909.3 3726.3,9903.9 3731.7,9902.1 3738.9,9900.3 3796.5,9900.3 3796.5,9889.5 3771.3,9889.5 3767.7,9887.7 3765.9,9885.9 3765.9,9867.9 3767.7,9866.1 3771.3,9864.3 3796.5,9864.3 3796.5,9849.9 3731.7,9849.9 3726.3,9851.7 3720.9,9851.7 3715.5,9855.3 3708.3,9858.9 3702.9,9862.5 3699.3,9867.9 3693.9,9876.9 3690.3,9885.9 3690.3,10069.5 3722.7,10069.5 3722.7,10065.9 "
     transform="matrix(0.0808555,0,0,0.0808555,-290.52456,-793.2832)" /><path
     style="fill:#6f6f6e"
     inkscape:connector-curvature="0"
     id="path618"
     d="m 10.476135,20.891198 0,0.582 0.1456,0.291 0.1455,0.291 0.2911,0.146 0.1455,0.291 1.0188,0 0.4366,-0.146 0.4367,-0.436 0.291,-0.582 0,-0.291 -0.1455,-0.291 0,-0.292 -0.2911,-0.291 -0.4366,-0.291 -0.4366,-0.291 -0.2911,0 -0.4366,0.146 -0.2911,0.145 -0.2911,0.291 -0.2911,0.437 0,0.291 z m 5.9672,-14.5540006 2.0375,0 0.2911,-0.291 0,-1.455 -0.4366,-0.292 -1.892,0 -2.0376,0 -0.2911,0.1460001 -0.1455,1.601 0.4366,0.291 2.0376,0 z m 0,7.2770006 4.6573,0 0.291,-0.145 0.2911,-0.146 0.4366,-0.146 0.1456,-0.291 0.1455,-0.291 0.1455,-0.436 0.1456,-0.291 0,-3.0570006 -0.1456,-0.436 -0.1455,-0.437 -0.4366,-0.437 -0.4366,-0.145 -0.4366,-0.146 -4.6573,0 -4.6573,0 -0.5822,0.146 -0.4366,0.145 -0.2911,0.437 -0.291,0.437 -0.1456,0.436 0,3.0570006 0.1456,0.291 0.1455,0.436 0.1455,0.291 0.2911,0.291 0.2911,0.146 0.4366,0.146 0.2911,0.145 4.6573,0 z m 5.9671,7.277 -0.1455,-0.291 0,-0.291 -0.4366,-0.291 -0.4367,-0.291 -0.291,-0.146 -0.2911,0 -0.2911,0.146 -0.2911,0.145 -0.2911,0.146 -0.291,0.436 -0.1456,0.292 0,0.291 0,0.291 0,0.291 0.1456,0.291 0.291,0.291 0.2911,0.145 0.2911,0.146 1.0188,0 0.4366,-0.437 0.2911,-0.291 0,-0.291 0.1455,-0.436 0,-0.146 z m -5.9671,-17.7560006 5.2394,0 0.2911,0.146 0.4366,0 0.5822,0.291 0.4366,0.291 0.4366,0.291 0.4366,0.437 0.2911,0.727 0.2911,0.728 0.1455,0.582 0,14.2630006 -0.1455,0.728 0,0.291 -0.1456,0.582 -0.291,0.437 -0.1456,0.436 -0.4366,0.437 -0.4366,0.291 -0.4366,0.291 -0.5822,0.291 -0.4366,0.291 0.5821,1.019 1.3099,2.038 2.3286,3.638 -2.6197,0 -2.9108,-4.512 -4.2206,0 -4.3662,0 -2.9107999,4.512 -2.4741997,0 2.3285997,-3.638 1.3098999,-2.038 0.4366,-1.019 -0.4366,-0.291 -0.4365999,-0.145 -0.4366,-0.437 -0.4367,-0.291 -0.4366,-0.437 -0.2911,-0.436 -0.1455,-0.437 -0.1455,-0.582 -0.1456,-0.291 0,-0.728 0,-14.8450006 0.2911,-0.728 0.4366,-0.727 0.2911,-0.437 0.4366,-0.291 0.5822,-0.291 0.4365999,-0.291 0.4366,0 0.4366,-0.146 5.2395,0 z" /></svg>