<?xml version="1.0" encoding="UTF-8" standalone="no"?>
<!-- Generator: Adobe Illustrator 19.2.0, SVG Export Plug-In . SVG Version: 6.00 Build 0)  -->

<svg
   xmlns:dc="http://purl.org/dc/elements/1.1/"
   xmlns:cc="http://creativecommons.org/ns#"
   xmlns:rdf="http://www.w3.org/1999/02/22-rdf-syntax-ns#"
   xmlns:svg="http://www.w3.org/2000/svg"
   xmlns="http://www.w3.org/2000/svg"
   xmlns:sodipodi="http://sodipodi.sourceforge.net/DTD/sodipodi-0.dtd"
   xmlns:inkscape="http://www.inkscape.org/namespaces/inkscape"
   version="1.1"
   id="Layer_1"
   x="0px"
   y="0px"
   viewBox="0 0 32 32"
   enable-background="new 0 0 32 32"
   xml:space="preserve"
   inkscape:version="0.91 r13725"
   sodipodi:docname="icon - Copy (5).svg"><metadata
     id="metadata8"><rdf:RDF><cc:Work
         rdf:about=""><dc:format>image/svg+xml</dc:format><dc:type
           rdf:resource="http://purl.org/dc/dcmitype/StillImage" /><dc:title /></cc:Work></rdf:RDF></metadata><defs
     id="defs6" /><sodipodi:namedview
     pagecolor="#ffffff"
     bordercolor="#666666"
     borderopacity="1"
     objecttolerance="10"
     gridtolerance="10"
     guidetolerance="10"
     inkscape:pageopacity="0"
     inkscape:pageshadow="2"
     inkscape:window-width="1280"
     inkscape:window-height="962"
     id="namedview4"
     showgrid="false"
     inkscape:zoom="24.8125"
     inkscape:cx="16"
     inkscape:cy="16"
     inkscape:window-x="1272"
     inkscape:window-y="-8"
     inkscape:window-maximized="1"
     inkscape:current-layer="Layer_1" /><polygon
     style="fill:#3f3e3e;fill-rule:evenodd"
     id="polygon768"
     points="6533.9,4375.7 6539.3,4381.1 6548.3,4384.7 6555.5,4386.5 6564.5,4386.5 6571.7,4384.7 6578.9,4379.3 6586.1,4373.9 6589.7,4366.7 6591.5,4357.7 6591.5,4348.7 6589.7,4341.5 6584.3,4334.3 6578.9,4328.9 6569.9,4323.5 6562.7,4321.7 6553.7,4321.7 6539.3,4328.9 6532.1,4336.1 6528.5,4343.3 6526.7,4350.5 6526.7,4359.5 6530.3,4368.5 "
     transform="matrix(0.07520621,0,0,0.07520621,-487.35574,-324.23347)" /><polygon
     style="fill:#3f3e3e;fill-rule:evenodd"
     id="polygon770"
     points="6569.9,4442.3 6640.1,4487.3 6609.5,4557.5 6609.5,4568.3 6611.3,4573.7 6616.7,4580.9 6623.9,4584.5 6715.7,4622.3 6769.7,4595.3 6677.9,4559.3 6704.9,4490.9 6827.3,4566.5 6850.7,4555.7 6713.9,4469.3 6715.7,4462.1 6715.7,4454.9 6713.9,4444.1 6706.7,4433.3 6701.3,4426.1 6694.1,4418.9 6622.1,4372.1 6613.1,4370.3 6602.3,4372.1 6550.1,4397.3 6544.7,4400.9 6541.1,4406.3 6539.3,4411.7 6512.3,4478.3 6501.5,4469.3 6485.3,4483.7 6503.3,4501.7 6501.5,4507.1 6501.5,4514.3 6505.1,4523.3 6510.5,4528.7 6517.7,4530.5 6526.7,4528.7 6643.7,4656.5 6665.3,4645.7 6542.9,4512.5 6541.1,4510.7 6542.9,4508.9 "
     transform="matrix(0.07520621,0,0,0.07520621,-487.35574,-324.23347)" /><polygon
     style="fill:#3f3e3e;fill-rule:evenodd"
     id="polygon772"
     points="6512.3,4721.3 6523.1,4723.1 6555.5,4723.1 6562.7,4721.3 6573.5,4717.7 6582.5,4712.3 6719.3,4642.1 6897.5,4557.5 6884.9,4539.5 6850.7,4555.7 6827.3,4566.5 6769.7,4595.3 6715.7,4622.3 6665.3,4645.7 6643.7,4656.5 6571.7,4694.3 6553.7,4701.5 6535.7,4705.1 6519.5,4703.3 6510.5,4697.9 6490.7,4708.7 6497.9,4714.1 6503.3,4717.7 "
     transform="matrix(0.07520621,0,0,0.07520621,-487.35574,-324.23347)" /></svg>