<?xml version="1.0" encoding="UTF-8" standalone="no"?>
<!-- Generator: Adobe Illustrator 19.2.0, SVG Export Plug-In . SVG Version: 6.00 Build 0)  -->

<svg
   xmlns:dc="http://purl.org/dc/elements/1.1/"
   xmlns:cc="http://creativecommons.org/ns#"
   xmlns:rdf="http://www.w3.org/1999/02/22-rdf-syntax-ns#"
   xmlns:svg="http://www.w3.org/2000/svg"
   xmlns="http://www.w3.org/2000/svg"
   xmlns:sodipodi="http://sodipodi.sourceforge.net/DTD/sodipodi-0.dtd"
   xmlns:inkscape="http://www.inkscape.org/namespaces/inkscape"
   version="1.1"
   id="Layer_1"
   x="0px"
   y="0px"
   viewBox="0 0 32 32"
   enable-background="new 0 0 32 32"
   xml:space="preserve"
   inkscape:version="0.91 r13725"
   sodipodi:docname="icon - Copy (4).svg"><metadata
     id="metadata8"><rdf:RDF><cc:Work
         rdf:about=""><dc:format>image/svg+xml</dc:format><dc:type
           rdf:resource="http://purl.org/dc/dcmitype/StillImage" /><dc:title /></cc:Work></rdf:RDF></metadata><defs
     id="defs6" /><sodipodi:namedview
     pagecolor="#ffffff"
     bordercolor="#666666"
     borderopacity="1"
     objecttolerance="10"
     gridtolerance="10"
     guidetolerance="10"
     inkscape:pageopacity="0"
     inkscape:pageshadow="2"
     inkscape:window-width="1280"
     inkscape:window-height="962"
     id="namedview4"
     showgrid="false"
     inkscape:zoom="24.8125"
     inkscape:cx="16"
     inkscape:cy="16"
     inkscape:window-x="1272"
     inkscape:window-y="-8"
     inkscape:window-maximized="1"
     inkscape:current-layer="Layer_1" /><polygon
     style="fill:#3f3e3e;fill-rule:evenodd"
     id="polygon774"
     points="6742.4,5344.9 6751.3,5344.9 6765.7,5337.7 6771.1,5330.5 6774.8,5323.3 6776.5,5316.1 6776.5,5307.1 6774.8,5299.9 6769.3,5292.7 6763.9,5287.3 6756.8,5283.7 6747.7,5281.9 6740.5,5281.9 6731.5,5285.5 6724.3,5289.1 6718.9,5296.3 6715.3,5303.5 6713.5,5310.7 6715.3,5319.7 6717.1,5326.9 6722.5,5334.1 6727.9,5339.5 6735.1,5343.1 "
     transform="matrix(0.07391512,0,0,0.07391512,-478.65882,-389.12613)" /><polygon
     style="fill:#3f3e3e;fill-rule:evenodd"
     id="polygon776"
     points="6864.8,5681.5 6870.1,5677.9 6877.4,5670.7 6884.5,5663.5 6888.1,5641.9 6857.5,5636.5 6853.9,5641.9 6850.3,5641.9 6843.1,5643.7 6727.9,5640.1 6664.9,5641.9 6630.7,5641.9 6528.1,5546.5 6483.1,5562.7 6605.5,5677.9 6610.9,5681.5 6619.9,5683.3 6855.7,5683.3 "
     transform="matrix(0.07391512,0,0,0.07391512,-478.65882,-389.12613)" /><polygon
     style="fill:#3f3e3e;fill-rule:evenodd"
     id="polygon778"
     points="6873.7,5384.5 6729.8,5533.9 6740.5,5542.9 6886.3,5384.5 6893.5,5382.7 6897.1,5380.9 6900.7,5375.5 6902.5,5370.1 6902.5,5361.1 6897.1,5353.9 6891.8,5350.3 6886.3,5348.5 6621.8,5348.5 6618.1,5350.3 6614.5,5352.1 6610.9,5353.9 6562.4,5406.1 6558.7,5409.7 6558.7,5413.3 6499.3,5413.3 6499.3,5422.3 6558.7,5422.3 6560.5,5425.9 6562.4,5427.7 6564.1,5429.5 6569.5,5433.1 6576.8,5433.1 6582.1,5431.3 6585.7,5429.5 6628.9,5384.5 6650.5,5386.3 6628.9,5415.1 6679.3,5461.9 6765.7,5384.5 "
     transform="matrix(0.07391512,0,0,0.07391512,-478.65882,-389.12613)" /><polygon
     style="fill:#3f3e3e;fill-rule:evenodd"
     id="polygon780"
     points="6717.1,5503.3 6614.5,5406.1 6583.9,5438.5 6542.5,5481.7 6484.9,5481.7 6483.1,5562.7 6528.1,5546.5 6562.4,5546.5 6567.7,5544.7 6574.9,5541.1 6580.3,5535.7 6616.3,5499.7 6659.5,5539.3 6664.9,5641.9 6727.9,5640.1 6724.3,5551.9 6722.5,5515.9 6720.7,5508.7 "
     transform="matrix(0.07391512,0,0,0.07391512,-478.65882,-389.12613)" /></svg>