<?xml version="1.0" encoding="UTF-8" standalone="no"?>
<!-- Generator: Adobe Illustrator 19.2.0, SVG Export Plug-In . SVG Version: 6.00 Build 0)  -->

<svg
   xmlns:dc="http://purl.org/dc/elements/1.1/"
   xmlns:cc="http://creativecommons.org/ns#"
   xmlns:rdf="http://www.w3.org/1999/02/22-rdf-syntax-ns#"
   xmlns:svg="http://www.w3.org/2000/svg"
   xmlns="http://www.w3.org/2000/svg"
   xmlns:sodipodi="http://sodipodi.sourceforge.net/DTD/sodipodi-0.dtd"
   xmlns:inkscape="http://www.inkscape.org/namespaces/inkscape"
   version="1.1"
   id="Layer_1"
   x="0px"
   y="0px"
   viewBox="0 0 32 32"
   enable-background="new 0 0 32 32"
   xml:space="preserve"
   inkscape:version="0.91 r13725"
   sodipodi:docname="icon - Copy (49) - Copy.svg"><metadata
     id="metadata8"><rdf:RDF><cc:Work
         rdf:about=""><dc:format>image/svg+xml</dc:format><dc:type
           rdf:resource="http://purl.org/dc/dcmitype/StillImage" /><dc:title /></cc:Work></rdf:RDF></metadata><defs
     id="defs6" /><sodipodi:namedview
     pagecolor="#ffffff"
     bordercolor="#666666"
     borderopacity="1"
     objecttolerance="10"
     gridtolerance="10"
     guidetolerance="10"
     inkscape:pageopacity="0"
     inkscape:pageshadow="2"
     inkscape:window-width="1280"
     inkscape:window-height="962"
     id="namedview4"
     showgrid="false"
     inkscape:zoom="24.8125"
     inkscape:cx="16"
     inkscape:cy="16"
     inkscape:window-x="1272"
     inkscape:window-y="-8"
     inkscape:window-maximized="1"
     inkscape:current-layer="Layer_1" /><polygon
     style="fill:#0080c6;fill-rule:evenodd"
     id="polygon1022"
     points="9700.1,3897 9759.5,3913.2 9754.1,3897 9700.1,3891.6 "
     transform="matrix(0.09897829,0,0,0.09897829,-939.21683,-379.39634)" /><polygon
     style="fill:#0080c6;fill-rule:evenodd"
     id="polygon1024"
     points="9550.7,3898.8 9545.3,3913.2 9604.7,3897 9604.7,3891.6 "
     transform="matrix(0.09897829,0,0,0.09897829,-939.21683,-379.39634)" /><polygon
     style="fill:#0080c6;fill-rule:evenodd"
     id="polygon1026"
     points="9696.5,3880.8 9799.1,3861 9797.3,3839.4 9692.9,3873.6 "
     transform="matrix(0.09897829,0,0,0.09897829,-939.21683,-379.39634)" /><polygon
     style="fill:#0080c6;fill-rule:evenodd"
     id="polygon1028"
     points="9507.5,3839.4 9505.7,3861 9608.3,3880.8 9611.9,3873.6 "
     transform="matrix(0.09897829,0,0,0.09897829,-939.21683,-379.39634)" /><polygon
     style="fill:#0080c6;fill-rule:evenodd"
     id="polygon1030"
     points="9669.5,3861 9653.3,3857.4 9637.1,3861 9622.7,3871.8 9613.7,3886.2 9611.9,3902.4 9692.9,3902.4 9694.7,3902.4 9692.9,3886.2 9683.9,3871.8 "
     transform="matrix(0.09897829,0,0,0.09897829,-939.21683,-379.39634)" /><polygon
     style="fill:#0080c6;fill-rule:evenodd"
     id="polygon1032"
     points="9572.3,4152.6 9732.5,4152.6 9692.9,3913.2 9611.9,3913.2 "
     transform="matrix(0.09897829,0,0,0.09897829,-939.21683,-379.39634)" /></svg>