<?xml version="1.0" encoding="UTF-8" standalone="no"?>
<!-- Generator: Adobe Illustrator 19.2.0, SVG Export Plug-In . SVG Version: 6.00 Build 0)  -->

<svg
   xmlns:dc="http://purl.org/dc/elements/1.1/"
   xmlns:cc="http://creativecommons.org/ns#"
   xmlns:rdf="http://www.w3.org/1999/02/22-rdf-syntax-ns#"
   xmlns:svg="http://www.w3.org/2000/svg"
   xmlns="http://www.w3.org/2000/svg"
   xmlns:sodipodi="http://sodipodi.sourceforge.net/DTD/sodipodi-0.dtd"
   xmlns:inkscape="http://www.inkscape.org/namespaces/inkscape"
   version="1.1"
   id="Layer_1"
   x="0px"
   y="0px"
   viewBox="0 0 32 32"
   enable-background="new 0 0 32 32"
   xml:space="preserve"
   inkscape:version="0.91 r13725"
   sodipodi:docname="icon - Copy (15).svg"><metadata
     id="metadata8"><rdf:RDF><cc:Work
         rdf:about=""><dc:format>image/svg+xml</dc:format><dc:type
           rdf:resource="http://purl.org/dc/dcmitype/StillImage" /><dc:title /></cc:Work></rdf:RDF></metadata><defs
     id="defs6" /><sodipodi:namedview
     pagecolor="#ffffff"
     bordercolor="#666666"
     borderopacity="1"
     objecttolerance="10"
     gridtolerance="10"
     guidetolerance="10"
     inkscape:pageopacity="0"
     inkscape:pageshadow="2"
     inkscape:window-width="1280"
     inkscape:window-height="962"
     id="namedview4"
     showgrid="false"
     inkscape:zoom="24.8125"
     inkscape:cx="16"
     inkscape:cy="16"
     inkscape:window-x="1272"
     inkscape:window-y="-8"
     inkscape:window-maximized="1"
     inkscape:current-layer="Layer_1" /><polygon
     style="fill:#0080c6;fill-rule:evenodd"
     id="polygon722"
     points="5514.4,5411.9 5495,5406.5 5479.1,5397.7 5442.1,5447.1 5440.3,5448.9 5433.3,5445.3 5417.4,5434.8 5403.3,5426 5390.9,5420.6 5378.6,5418.9 5366.2,5418.9 5355.7,5422.4 5345.1,5427.7 5336.2,5438.3 5327.4,5452.4 5322.1,5468.3 5323.9,5482.4 5329.2,5498.3 5343.3,5512.4 5346.8,5521.2 5350.4,5528.3 5346.8,5535.3 5343.3,5538.9 5336.2,5540.6 5323.9,5501.8 5255.1,5572.4 5348.6,5586.5 5341.5,5563.5 5355.7,5565.3 5366.2,5563.5 5373.3,5560 5382.1,5553 5387.4,5545.9 5389.2,5537.1 5389.2,5530 5387.4,5521.2 5376.8,5503.6 5366.2,5487.7 5360.9,5477.1 5362.7,5471.8 5366.2,5464.8 5371.5,5459.5 5376.8,5456 5383.9,5456 5394.5,5459.5 5403.3,5463 5429.8,5475.4 5440.3,5480.7 5456.2,5484.2 5470.3,5484.2 5477.4,5482.4 5486.2,5478.9 5495,5470.1 5505.6,5471.8 5540.9,5471.8 5576.2,5461.2 5604.4,5443.6 5629.1,5418.9 5646.7,5388.9 5655.6,5355.4 5653.8,5320.1 5645,5286.6 5627.3,5256.6 5600.9,5231.9 5570.9,5216 5537.4,5207.2 5530.3,5267.2 5549.7,5270.7 5565.6,5281.3 5579.7,5293.7 5588.5,5311.3 5593.8,5328.9 5593.8,5348.4 5590.3,5366 5581.5,5383.6 5567.4,5396 5551.5,5406.5 5532.1,5411.9 "
     transform="matrix(0.07740325,0,0,0.07740325,-406.30212,-401.81821)" /><polygon
     style="fill:#0080c6;fill-rule:evenodd"
     id="polygon724"
     points="5465,5385.4 5454.4,5369.5 5449.1,5350.1 5449.1,5330.7 5454.4,5311.3 5463.3,5295.4 5475.6,5281.3 5493.3,5272.5 5510.9,5267.2 5530.3,5267.2 5537.4,5207.2 5502.1,5207.2 5468.6,5217.8 5438.6,5235.4 5413.9,5260.1 5398,5290.1 5389.2,5323.7 5389.2,5358.9 5399.8,5392.4 5417.4,5422.4 5442.1,5447.1 5479.1,5397.7 "
     transform="matrix(0.07740325,0,0,0.07740325,-406.30212,-401.81821)" /><path
     style="fill:#0080c6"
     inkscape:connector-curvature="0"
     id="path726"
     d="m 17.797979,15.981295 1.2307,0.6812 1.5017,0.4102 1.37,0 1.5016,-0.4102 1.2307,-0.8128 1.0914,-0.9598 0.6812,-1.3623 0.2709,-1.3623 0,-1.501599 -0.4103,-1.3623005 -0.6811,-1.3623 -1.0914,-0.9598 -1.2307,-0.8204 -1.5016,-0.271 -1.5016,0 -1.3623,0.4103 -1.3623,0.6811 -0.9598,1.0914 -0.6812,1.2307 -0.4102,1.5016005 0,1.509399 0.4102,1.5016 0.8205,1.2307 1.0836,0.9366 z m 4.5126,-14.7452995 2.593,0.6812 2.3221,1.2307 2.0512,1.9118 1.3623,2.3221 0.6812,2.593 0.1393,2.7323995 -0.6811,2.593 -1.3623,2.3221 -1.9119,1.9118 -2.1828,1.3623 -2.7323,0.8205 -2.7323,0 -0.8205,-0.1316 -0.6812,0.6812 -0.6811,0.2709 -0.5418,0.1393 -1.0914,0 -1.2307,-0.2709 -0.8205,-0.4102 -2.0512,-0.9598 -0.6811,-0.271 -0.8205,-0.2709 -0.5417999,0 -0.4103,0.2709 -0.4102,0.4103 -0.2709,0.5495 -0.1394,0.4103 0.4103,0.8205 0.8205,1.2229 0.8203999,1.3623 0.1394,0.6812 0,0.5495 -0.1394,0.6812 -0.4102,0.5496 -0.6811999,0.5495 -0.5418,0.2709 -0.8205,0.1394 -1.0913004,-0.1394 0.5495,1.7803 -7.23719988,-1.0914 5.32539988,-5.4647 0.952,3.0033 0.5496,-0.1393 0.5496,-0.8205 -0.271,-0.5496 -0.2709,-0.6811 -1.0914,-1.0914 -0.4102,-1.2307 -0.1393,-1.0914 0.4102,-1.2307 0.6812,-1.0914 0.6811,-0.8205 0.8205004,-0.4102 0.8205,-0.2709 0.9519999,0 0.9521,0.1316 0.9598,0.4179 1.0914,0.6812 1.2307,0.8127 0.5495,0.2787 -1.7802,-2.0512 -1.3623,-2.3221 -0.8205,-2.593 0,-2.724599 0.6811,-2.5930005 1.2308,-2.3221 1.9118,-1.9119 2.3221,-1.3623 2.593,-0.8205 2.7091,0 z" /></svg>