<?xml version="1.0" encoding="UTF-8" standalone="no"?>
<!-- Generator: Adobe Illustrator 19.2.0, SVG Export Plug-In . SVG Version: 6.00 Build 0)  -->

<svg
   xmlns:dc="http://purl.org/dc/elements/1.1/"
   xmlns:cc="http://creativecommons.org/ns#"
   xmlns:rdf="http://www.w3.org/1999/02/22-rdf-syntax-ns#"
   xmlns:svg="http://www.w3.org/2000/svg"
   xmlns="http://www.w3.org/2000/svg"
   xmlns:sodipodi="http://sodipodi.sourceforge.net/DTD/sodipodi-0.dtd"
   xmlns:inkscape="http://www.inkscape.org/namespaces/inkscape"
   version="1.1"
   id="Layer_1"
   x="0px"
   y="0px"
   viewBox="0 0 32 32"
   enable-background="new 0 0 32 32"
   xml:space="preserve"
   inkscape:version="0.91 r13725"
   sodipodi:docname="icon - Copy (13).svg"><metadata
     id="metadata8"><rdf:RDF><cc:Work
         rdf:about=""><dc:format>image/svg+xml</dc:format><dc:type
           rdf:resource="http://purl.org/dc/dcmitype/StillImage" /><dc:title /></cc:Work></rdf:RDF></metadata><defs
     id="defs6" /><sodipodi:namedview
     pagecolor="#ffffff"
     bordercolor="#666666"
     borderopacity="1"
     objecttolerance="10"
     gridtolerance="10"
     guidetolerance="10"
     inkscape:pageopacity="0"
     inkscape:pageshadow="2"
     inkscape:window-width="1280"
     inkscape:window-height="962"
     id="namedview4"
     showgrid="false"
     inkscape:zoom="24.8125"
     inkscape:cx="16"
     inkscape:cy="16"
     inkscape:window-x="1272"
     inkscape:window-y="-8"
     inkscape:window-maximized="1"
     inkscape:current-layer="Layer_1" /><path
     style="fill:#717171;fill-rule:evenodd"
     inkscape:connector-curvature="0"
     id="path234"
     d="m 5.9361778,3.5841714 0,7.8547896 c 0,0.49206 -0.16402,0.94768 -0.45561,1.29394 -0.30982,0.3645 -0.69253,0.53763 -1.1117,0.53763 l 0,13.92357 c 0,0.34627 -0.11846,0.67431 -0.34627,0.92034 -0.20958,0.28249 -0.49206,0.41006 -0.8201,0.41006 -0.34627,0 -0.5923,-0.12757 -0.83833,-0.41006 -0.20958,-0.24603 -0.34627,-0.57407 -0.34627,-0.92034 l 0,-13.92357 c -0.42828,0 -0.78366,-0.18225 -1.10259003,-0.53763 -0.30981,-0.34626 -0.45561,-0.80188 -0.45561,-1.29394 l 0,-7.8547896 c 0,-0.30982 0.11846,-0.49206 0.36449,-0.49206 0.30982003,0 0.42828003,0.18224 0.42828003,0.49206 l 0,5.82275 0.75632,0 0,-5.82275 c 0,-0.30982 0.1458,-0.49206 0.42828,-0.49206 0.27336,0 0.42827,0.18224 0.42827,0.49206 l 0,5.82275 0.67431,0 0,-5.82275 c 0,-0.30982 0.16402,-0.49206 0.44651,-0.49206 0.27336,0 0.42827,0.18224 0.42827,0.49206 l 0,5.82275 0.70165,0 0,-5.82275 c 0,-0.30982 0.16402,-0.49206 0.42828,-0.49206 0.25514,0 0.39182,0.17313 0.39182,0.49206 l 0,0 z" /><path
     style="fill:#717171;fill-rule:evenodd"
     inkscape:connector-curvature="0"
     id="path236"
     d="m 31.459698,5.1241414 0,22.0790796 c 0,0.34626 -0.11846,0.67431 -0.36449,0.92034 -0.20958,0.28248 -0.49206,0.41005 -0.80188,0.41005 -0.34627,0 -0.61964,-0.12757 -0.86567,-0.41005 -0.24603,-0.24603 -0.32804,-0.57408 -0.32804,-0.92034 l 0,-8.71135 -1.29395,0 0,-13.3677296 c 0,-0.61963 0.18225,-1.11169 0.52852,-1.51263 0.20958,-0.24604 0.45561,-0.42828 0.73809,-0.52852 0.18225,-0.0638 0.36449,-0.10023 0.55585,-0.10023 0.51029,0 0.94768,0.20958 1.31217,0.61963 0.33715,0.40094 0.5194,0.89301 0.5194,1.52175 l 0,0 z" /><path
     style="fill:#717171;fill-rule:evenodd"
     inkscape:connector-curvature="0"
     id="path238"
     d="m 16.561108,4.0762314 c 5.2669,0 9.54968,5.20312 9.54968,11.6454996 0,6.43328 -4.28278,11.62728 -9.54968,11.62728 -5.2669,0 -9.5496798,-5.20311 -9.5496798,-11.62728 0.009,-6.4514896 4.2827798,-11.6454996 9.5496798,-11.6454996 l 0,0 z" /><path
     style="fill:#ffffff;fill-rule:evenodd"
     inkscape:connector-curvature="0"
     id="path240"
     d="m 16.561108,5.6982214 c 4.49236,0 8.1555,4.5105796 8.1555,10.0235096 0,5.51294 -3.65403,9.96885 -8.1555,9.96885 -4.52881,0 -8.2010598,-4.46502 -8.2010598,-9.96885 0,-5.51293 3.6722498,-10.0235096 8.2010598,-10.0235096 l 0,0 z" /><path
     style="fill:#717171;fill-rule:evenodd"
     inkscape:connector-curvature="0"
     id="path242"
     d="m 16.561108,6.8099214 c 4.00029,0 7.26249,3.9638396 7.26249,8.9026996 0,4.88419 -3.2622,8.85715 -7.26249,8.85715 -4.01852,0 -7.2807198,-3.97296 -7.2807198,-8.85715 0,-4.92974 3.2621998,-8.9026996 7.2807198,-8.9026996 l 0,0 z" /></svg>