<?xml version="1.0" encoding="UTF-8" standalone="no"?>
<!-- Generator: Adobe Illustrator 19.2.0, SVG Export Plug-In . SVG Version: 6.00 Build 0)  -->

<svg
   xmlns:dc="http://purl.org/dc/elements/1.1/"
   xmlns:cc="http://creativecommons.org/ns#"
   xmlns:rdf="http://www.w3.org/1999/02/22-rdf-syntax-ns#"
   xmlns:svg="http://www.w3.org/2000/svg"
   xmlns="http://www.w3.org/2000/svg"
   xmlns:sodipodi="http://sodipodi.sourceforge.net/DTD/sodipodi-0.dtd"
   xmlns:inkscape="http://www.inkscape.org/namespaces/inkscape"
   version="1.1"
   id="Layer_1"
   x="0px"
   y="0px"
   viewBox="0 0 32 32"
   enable-background="new 0 0 32 32"
   xml:space="preserve"
   inkscape:version="0.91 r13725"
   sodipodi:docname="icon - Copy (6).svg"><metadata
     id="metadata8"><rdf:RDF><cc:Work
         rdf:about=""><dc:format>image/svg+xml</dc:format><dc:type
           rdf:resource="http://purl.org/dc/dcmitype/StillImage" /><dc:title /></cc:Work></rdf:RDF></metadata><defs
     id="defs6" /><sodipodi:namedview
     pagecolor="#ffffff"
     bordercolor="#666666"
     borderopacity="1"
     objecttolerance="10"
     gridtolerance="10"
     guidetolerance="10"
     inkscape:pageopacity="0"
     inkscape:pageshadow="2"
     inkscape:window-width="1280"
     inkscape:window-height="962"
     id="namedview4"
     showgrid="false"
     inkscape:zoom="24.8125"
     inkscape:cx="16"
     inkscape:cy="16"
     inkscape:window-x="1272"
     inkscape:window-y="-8"
     inkscape:window-maximized="1"
     inkscape:current-layer="Layer_1" /><path
     style="fill:#6f6f6e"
     inkscape:connector-curvature="0"
     id="path802"
     d="m 10.059164,21.652798 -0.9949004,0.2842 -0.4264,0.2843 -0.5685,0.5685 -0.5685,1.137 0,1.2792 0.2843,0.7107 0.4263,0.5685 0.5686,0.5685 1.137,0.2842 0.9949004,0 0.9949,-0.4263 0.8528,-1.1371 0.2842,-1.2791 -0.2842,-1.2792 -0.8528,-0.9949 -0.9949,-0.4264 -0.8528,-0.1421 z m 16.3449,6.1194 -0.1421,0.5607 -0.4264,0.4263 -0.8528,0.5686 -0.7106,0.4263 -1.5635,0.5686 -1.5634,0.4264 -1.9898,0.4263 -3.269,0.2843 -2.9847,-0.1421 -2.7004,-0.1422 -2.8426004,-0.5685 -1.1371,-0.5685 -0.9949,-0.5685 -0.1421,-0.4264 0,-0.7185 0.4264,-0.4264 0.4264,-0.2843 0.9949,-0.7106 -0.5685,-0.8528 -0.1422,-1.2792 0,-1.137 0.4264,-0.8528 0.5685,-0.8528 0.7107,-0.7185 0.8528,-0.4264 1.137,-0.4264 1.4213004,0.2843 0.8528,0.2842 0.7106,0.4264 0,-20.89300026 0.8528,0 1.4213,0.85279996 2.2741,1.9898 1.7055,2.1319 1.5634,2.132 1.8477,1.4213 1.7056,1.4213003 1.5634,1.137 0.8528,0.5685 0.7106,0.7107 0,0.4263 -1.4213,0.1422 -1.7055,-0.5685 -1.2792,-0.2843 -1.9898,-0.1421 -2.4162,0.2842 -1.8477,0.2843 -1.2792,0.4264 -0.1421,11.3703 2.5583,0 0.995,0.1422 2.4162,0.2842 2.9847,0.7107 1.137,0.4263 0.5685,0.5686 0.2843,0.2842 0.1421,0.5922 z m -6.5379,1.6977 1.2791,-0.2843 1.8477,-0.4264 0.8528,-0.4263 0.5685,-0.1422 0.5685,-0.2842 -0.5685,-0.2843 -0.5685,-0.2843 -0.8528,-0.4263 -1.2792,-0.2843 -0.8527,0 -1.5635,-0.2843 0.4264,0.8528 0.1422,0.5685 0,1.7056 z" /></svg>