<?xml version="1.0" encoding="UTF-8" standalone="no"?>
<!-- Generator: Adobe Illustrator 19.2.0, SVG Export Plug-In . SVG Version: 6.00 Build 0)  -->

<svg
   xmlns:dc="http://purl.org/dc/elements/1.1/"
   xmlns:cc="http://creativecommons.org/ns#"
   xmlns:rdf="http://www.w3.org/1999/02/22-rdf-syntax-ns#"
   xmlns:svg="http://www.w3.org/2000/svg"
   xmlns="http://www.w3.org/2000/svg"
   xmlns:sodipodi="http://sodipodi.sourceforge.net/DTD/sodipodi-0.dtd"
   xmlns:inkscape="http://www.inkscape.org/namespaces/inkscape"
   version="1.1"
   id="Layer_1"
   x="0px"
   y="0px"
   viewBox="0 0 32 32"
   enable-background="new 0 0 32 32"
   xml:space="preserve"
   inkscape:version="0.91 r13725"
   sodipodi:docname="icon - Copy (40) - Copy.svg"><metadata
     id="metadata8"><rdf:RDF><cc:Work
         rdf:about=""><dc:format>image/svg+xml</dc:format><dc:type
           rdf:resource="http://purl.org/dc/dcmitype/StillImage" /><dc:title /></cc:Work></rdf:RDF></metadata><defs
     id="defs6" /><sodipodi:namedview
     pagecolor="#ffffff"
     bordercolor="#666666"
     borderopacity="1"
     objecttolerance="10"
     gridtolerance="10"
     guidetolerance="10"
     inkscape:pageopacity="0"
     inkscape:pageshadow="2"
     inkscape:window-width="1280"
     inkscape:window-height="962"
     id="namedview4"
     showgrid="false"
     inkscape:zoom="24.8125"
     inkscape:cx="16"
     inkscape:cy="16"
     inkscape:window-x="1272"
     inkscape:window-y="-8"
     inkscape:window-maximized="1"
     inkscape:current-layer="Layer_1" /><polygon
     style="fill:#0080c6;fill-rule:evenodd"
     id="polygon572"
     points="3763.6,7095.8 3670,7095.8 3670,7187.6 3763.6,7187.6 3763.6,7281.2 3855.4,7281.2 3855.4,7187.6 3947.2,7187.6 3947.2,7095.8 3855.4,7095.8 3855.4,7002.2 3763.6,7002.2 "
     transform="matrix(0.08742245,0,0,0.08742245,-317.03582,-608.42552)" /><polygon
     style="fill:#0080c6;fill-rule:evenodd"
     id="polygon574"
     points="3653.8,6987.8 3963.4,6987.8 3963.4,7297.4 3986.8,7319 3986.8,6964.4 3632.2,6964.4 "
     transform="matrix(0.08742245,0,0,0.08742245,-317.03582,-608.42552)" /><polygon
     style="fill:#0080c6;fill-rule:evenodd"
     id="polygon576"
     points="3632.2,7319 3986.8,7319 3963.4,7297.4 3653.8,7297.4 3653.8,6987.8 3632.2,6964.4 "
     transform="matrix(0.08742245,0,0,0.08742245,-317.03582,-608.42552)" /></svg>