<?xml version="1.0" encoding="UTF-8" standalone="no"?>
<!-- Generator: Adobe Illustrator 19.2.0, SVG Export Plug-In . SVG Version: 6.00 Build 0)  -->

<svg
   xmlns:dc="http://purl.org/dc/elements/1.1/"
   xmlns:cc="http://creativecommons.org/ns#"
   xmlns:rdf="http://www.w3.org/1999/02/22-rdf-syntax-ns#"
   xmlns:svg="http://www.w3.org/2000/svg"
   xmlns="http://www.w3.org/2000/svg"
   xmlns:sodipodi="http://sodipodi.sourceforge.net/DTD/sodipodi-0.dtd"
   xmlns:inkscape="http://www.inkscape.org/namespaces/inkscape"
   version="1.1"
   id="Layer_1"
   x="0px"
   y="0px"
   viewBox="0 0 32 32"
   enable-background="new 0 0 32 32"
   xml:space="preserve"
   inkscape:version="0.91 r13725"
   sodipodi:docname="icon - Copy (36).svg"><metadata
     id="metadata8"><rdf:RDF><cc:Work
         rdf:about=""><dc:format>image/svg+xml</dc:format><dc:type
           rdf:resource="http://purl.org/dc/dcmitype/StillImage" /><dc:title /></cc:Work></rdf:RDF></metadata><defs
     id="defs6" /><sodipodi:namedview
     pagecolor="#ffffff"
     bordercolor="#666666"
     borderopacity="1"
     objecttolerance="10"
     gridtolerance="10"
     guidetolerance="10"
     inkscape:pageopacity="0"
     inkscape:pageshadow="2"
     inkscape:window-width="1280"
     inkscape:window-height="962"
     id="namedview4"
     showgrid="false"
     inkscape:zoom="24.8125"
     inkscape:cx="16"
     inkscape:cy="16"
     inkscape:window-x="1272"
     inkscape:window-y="-8"
     inkscape:window-maximized="1"
     inkscape:current-layer="Layer_1" /><polygon
     style="fill:#6f6f6e;fill-rule:evenodd"
     id="polygon538"
     points="3640.3,3309.6 3633.1,3300.6 3622.3,3295.2 3589.9,3295.2 3589.9,3349.2 3622.3,3349.2 3634.9,3345.6 3640.3,3333 "
     transform="matrix(0.08240298,0,0,0.08240298,-281.79343,-260.03081)" /><polygon
     style="fill:#6f6f6e;fill-rule:evenodd"
     id="polygon540"
     points="3467.5,3228.6 3463.9,3228.6 3460.3,3232.2 3458.5,3235.8 3456.7,3237.6 3456.7,3241.2 3424.3,3520.2 3424.3,3523.8 3426.1,3527.4 3427.9,3529.2 3431.5,3532.8 3528.7,3471.6 3528.7,3248.4 "
     transform="matrix(0.08240298,0,0,0.08240298,-281.79343,-260.03081)" /><polygon
     style="fill:#6f6f6e;fill-rule:evenodd"
     id="polygon542"
     points="3589.9,3397.8 3589.9,3471.6 3528.7,3471.6 3431.5,3532.8 3793.3,3532.8 3798.7,3527.4 3800.5,3523.8 3800.5,3520.2 3766.3,3241.2 3768.1,3237.6 3764.5,3232.2 3760.9,3228.6 3757.3,3228.6 3613.3,3163.8 3467.5,3228.6 3528.7,3248.4 3589.9,3248.4 3631.3,3248.4 3654.7,3255.6 3676.3,3270 3690.7,3286.2 3699.7,3309.6 3699.7,3324 3696.1,3343.8 3685.3,3363.6 3669.1,3378 3654.7,3388.8 3636.7,3394.2 3622.3,3396 "
     transform="matrix(0.08240298,0,0,0.08240298,-281.79343,-260.03081)" /></svg>