<?xml version="1.0" encoding="UTF-8" standalone="no"?>
<!-- Generator: Adobe Illustrator 19.2.0, SVG Export Plug-In . SVG Version: 6.00 Build 0)  -->

<svg
   xmlns:dc="http://purl.org/dc/elements/1.1/"
   xmlns:cc="http://creativecommons.org/ns#"
   xmlns:rdf="http://www.w3.org/1999/02/22-rdf-syntax-ns#"
   xmlns:svg="http://www.w3.org/2000/svg"
   xmlns="http://www.w3.org/2000/svg"
   xmlns:sodipodi="http://sodipodi.sourceforge.net/DTD/sodipodi-0.dtd"
   xmlns:inkscape="http://www.inkscape.org/namespaces/inkscape"
   version="1.1"
   id="Layer_1"
   x="0px"
   y="0px"
   viewBox="0 0 32 32"
   enable-background="new 0 0 32 32"
   xml:space="preserve"
   inkscape:version="0.91 r13725"
   sodipodi:docname="icon - Copy (37).svg"><metadata
     id="metadata8"><rdf:RDF><cc:Work
         rdf:about=""><dc:format>image/svg+xml</dc:format><dc:type
           rdf:resource="http://purl.org/dc/dcmitype/StillImage" /><dc:title /></cc:Work></rdf:RDF></metadata><defs
     id="defs6" /><sodipodi:namedview
     pagecolor="#ffffff"
     bordercolor="#666666"
     borderopacity="1"
     objecttolerance="10"
     gridtolerance="10"
     guidetolerance="10"
     inkscape:pageopacity="0"
     inkscape:pageshadow="2"
     inkscape:window-width="1280"
     inkscape:window-height="962"
     id="namedview4"
     showgrid="false"
     inkscape:zoom="24.8125"
     inkscape:cx="16"
     inkscape:cy="16"
     inkscape:window-x="1272"
     inkscape:window-y="-8"
     inkscape:window-maximized="1"
     inkscape:current-layer="Layer_1" /><polygon
     style="fill:#6f6f6e;fill-rule:evenodd"
     id="polygon504"
     points="3383.1,4327.4 3426.2,4327.4 3426.2,4244.6 3496.4,4244.6 3496.4,4476.8 3426.2,4476.8 3426.2,4395.8 3383.1,4395.8 3383.1,4514.6 3563.1,4514.6 3566.6,4512.8 3568.5,4509.2 3570.2,4505.6 3570.2,4502 3536,4223 3537.8,4221.2 3536,4217.6 3530.6,4212.2 3527,4210.4 3383.1,4145.6 "
     transform="matrix(0.08240298,0,0,0.08240298,-262.77572,-340.93405)" /><polygon
     style="fill:#6f6f6e;fill-rule:evenodd"
     id="polygon506"
     points="3226.4,4221.2 3226.4,4223 3194,4502 3194,4505.6 3197.6,4512.8 3201.2,4514.6 3383.1,4514.6 3383.1,4395.8 3338.1,4395.8 3338.1,4476.8 3267.8,4476.8 3267.8,4244.6 3338.1,4244.6 3338.1,4327.4 3383.1,4327.4 3383.1,4145.6 3237.2,4210.4 3233.6,4212.2 3230,4215.8 3228.2,4217.6 "
     transform="matrix(0.08240298,0,0,0.08240298,-262.77572,-340.93405)" /></svg>