<?xml version="1.0" encoding="UTF-8" standalone="no"?>
<!-- Generator: Adobe Illustrator 19.2.0, SVG Export Plug-In . SVG Version: 6.00 Build 0)  -->

<svg
   xmlns:dc="http://purl.org/dc/elements/1.1/"
   xmlns:cc="http://creativecommons.org/ns#"
   xmlns:rdf="http://www.w3.org/1999/02/22-rdf-syntax-ns#"
   xmlns:svg="http://www.w3.org/2000/svg"
   xmlns="http://www.w3.org/2000/svg"
   xmlns:sodipodi="http://sodipodi.sourceforge.net/DTD/sodipodi-0.dtd"
   xmlns:inkscape="http://www.inkscape.org/namespaces/inkscape"
   version="1.1"
   id="Layer_1"
   x="0px"
   y="0px"
   viewBox="0 0 32 32"
   enable-background="new 0 0 32 32"
   xml:space="preserve"
   inkscape:version="0.91 r13725"
   sodipodi:docname="icon - Copy (7).svg"><metadata
     id="metadata8"><rdf:RDF><cc:Work
         rdf:about=""><dc:format>image/svg+xml</dc:format><dc:type
           rdf:resource="http://purl.org/dc/dcmitype/StillImage" /><dc:title /></cc:Work></rdf:RDF></metadata><defs
     id="defs6" /><sodipodi:namedview
     pagecolor="#ffffff"
     bordercolor="#666666"
     borderopacity="1"
     objecttolerance="10"
     gridtolerance="10"
     guidetolerance="10"
     inkscape:pageopacity="0"
     inkscape:pageshadow="2"
     inkscape:window-width="1280"
     inkscape:window-height="962"
     id="namedview4"
     showgrid="false"
     inkscape:zoom="24.8125"
     inkscape:cx="16"
     inkscape:cy="16"
     inkscape:window-x="1272"
     inkscape:window-y="-8"
     inkscape:window-maximized="1"
     inkscape:current-layer="Layer_1" /><polygon
     style="fill:#6f6f6e;fill-rule:evenodd"
     id="polygon762"
     points="6769.2,2770.8 6760.2,2778 6751.2,2781.6 6774.6,2781.6 6790.8,2772.6 6803.4,2760 6814.2,2747.4 6819.6,2734.8 6832.2,2738.5 6837.6,2738.5 6846.6,2736.6 6855.6,2733 6864.6,2727.6 6870,2722.2 6875.4,2713.2 6848.4,2698.8 6846.6,2698.8 6844.8,2700.6 6839.4,2700.6 6832.2,2697 6826.8,2693.5 6825,2684.4 6825,2680.8 6790.8,2702.4 6794.4,2709.6 6787.2,2720.4 6780,2729.4 6772.8,2736.6 6765.6,2742 6760.2,2745.6 6753,2751.1 6740.4,2756.4 6731.4,2760 6724.2,2761.8 6718.8,2763.6 6706.2,2765.4 6704.4,2765.4 6704.4,2765.4 6704.4,2781.6 6727.8,2776.2 6749.4,2769 6760.2,2763.6 6772.8,2758.2 6783.6,2749.2 6792.6,2736.6 6799.8,2722.2 6808.8,2729.4 6798,2743.8 6789,2752.8 6783.6,2760 6780,2763.6 "
     transform="matrix(0.07936508,0,0,0.07936508,-514.55494,-190.41753)" /><polygon
     style="fill:#6f6f6e;fill-rule:evenodd"
     id="polygon764"
     points="6690,2450.4 6686.4,2457.6 6682.8,2466.6 6681,2475.6 6681,2481.1 6682.8,2486.4 6655.8,2491.8 6630.6,2499 6596.4,2511.6 6562.2,2526.1 6529.8,2545.8 6490.2,2572.8 6558.6,2567.4 6556.8,2560.2 6544.2,2544 6565.8,2531.4 6569.4,2545.8 6573,2562 6574.8,2567.4 6598.2,2565.6 6589.2,2544 6574.8,2527.8 6598.2,2517 6601.8,2524.2 6610.8,2544 6612.6,2565.6 6641.4,2563.8 6641.4,2558.5 6630.6,2531.4 6614.4,2509.8 6634.2,2502.6 6645,2500.8 6648.6,2513.5 6652.2,2535 6652.2,2562 6727.8,2558.5 6727.8,2558.5 6726,2558.5 6722.4,2554.8 6722.4,2553 6724.2,2551.2 6727.8,2549.4 6731.4,2547.6 6745.8,2547.6 6749.4,2549.4 6783.6,2533.2 6708,2425.2 6700.8,2432.4 6697.2,2437.8 6691.8,2443.2 "
     transform="matrix(0.07936508,0,0,0.07936508,-514.55494,-190.41753)" /><polygon
     style="fill:#6f6f6e;fill-rule:evenodd"
     id="polygon766"
     points="6828.6,2671.8 6830.4,2670 6835.8,2666.4 6846.6,2666.4 6853.8,2670 6857.4,2675.4 6859.2,2680.8 6859.2,2686.2 6855.6,2691.6 6853.8,2695.2 6848.4,2698.8 6875.4,2713.2 6879,2706.1 6879,2698.8 6880.8,2688 6879,2677.2 6875.4,2666.4 6864.6,2644.8 6783.6,2533.2 6749.4,2549.4 6753,2551.2 6754.8,2551.2 6754.8,2553 6753,2556.6 6749.4,2558.5 6747.6,2560.2 6733.2,2560.2 6727.8,2558.5 6652.2,2562 6646.8,2596.2 6641.4,2563.8 6612.6,2565.6 6614.4,2571.1 6609,2605.2 6601.8,2574.6 6598.2,2565.6 6574.8,2567.4 6576.6,2581.8 6573,2610.6 6564,2580 6558.6,2567.4 6490.2,2572.8 6490.2,2781.6 6704.4,2781.6 6704.4,2781.6 6704.4,2765.4 6700.8,2767.2 6700.8,2707.8 6695.4,2684.4 6691.8,2671.8 6715.2,2688 6726,2693.5 6735,2697 6753,2700.6 6771,2704.2 6790.8,2702.4 6825,2680.8 6825,2677.2 "
     transform="matrix(0.07936508,0,0,0.07936508,-514.55494,-190.41753)" /></svg>