<?xml version="1.0" encoding="UTF-8" standalone="no"?>
<!-- Generator: Adobe Illustrator 19.2.0, SVG Export Plug-In . SVG Version: 6.00 Build 0)  -->

<svg
   xmlns:dc="http://purl.org/dc/elements/1.1/"
   xmlns:cc="http://creativecommons.org/ns#"
   xmlns:rdf="http://www.w3.org/1999/02/22-rdf-syntax-ns#"
   xmlns:svg="http://www.w3.org/2000/svg"
   xmlns="http://www.w3.org/2000/svg"
   xmlns:sodipodi="http://sodipodi.sourceforge.net/DTD/sodipodi-0.dtd"
   xmlns:inkscape="http://www.inkscape.org/namespaces/inkscape"
   version="1.1"
   id="Layer_1"
   x="0px"
   y="0px"
   viewBox="0 0 32 32"
   enable-background="new 0 0 32 32"
   xml:space="preserve"
   inkscape:version="0.91 r13725"
   sodipodi:docname="icon - Copy (62) - Copy - Copy.svg"><metadata
     id="metadata8"><rdf:RDF><cc:Work
         rdf:about=""><dc:format>image/svg+xml</dc:format><dc:type
           rdf:resource="http://purl.org/dc/dcmitype/StillImage" /><dc:title /></cc:Work></rdf:RDF></metadata><defs
     id="defs6" /><sodipodi:namedview
     pagecolor="#ffffff"
     bordercolor="#666666"
     borderopacity="1"
     objecttolerance="10"
     gridtolerance="10"
     guidetolerance="10"
     inkscape:pageopacity="0"
     inkscape:pageshadow="2"
     inkscape:window-width="1280"
     inkscape:window-height="962"
     id="namedview4"
     showgrid="false"
     inkscape:zoom="24.8125"
     inkscape:cx="16"
     inkscape:cy="16"
     inkscape:window-x="1272"
     inkscape:window-y="-8"
     inkscape:window-maximized="1"
     inkscape:current-layer="Layer_1" /><polygon
     style="fill:#0080c6;fill-rule:evenodd"
     id="polygon826"
     points="6779,10139.8 6807.8,10069.6 6759.2,10055.2 6753.8,10130.8 "
     transform="matrix(0.07359924,0,0,0.07359924,-476.65088,-738.48367)" /><polygon
     style="fill:#0080c6;fill-rule:evenodd"
     id="polygon828"
     points="6793.4,10289.2 6843.8,10246 6845.6,10244.2 6847.4,10240.6 6847.4,10231.6 6845.6,10226.2 6843.8,10222.6 6838.4,10217.2 6834.8,10215.4 6822.2,10215.4 6818.6,10217.2 6815,10219 6813.2,10220.8 6757.4,10265.8 6730.4,10265.8 6712.4,10301.8 6759.2,10300 6773.6,10300 6775.4,10298.2 6780.8,10298.2 6782.6,10296.4 6788,10292.8 6789.8,10291 6791.6,10289.2 "
     transform="matrix(0.07359924,0,0,0.07359924,-476.65088,-738.48367)" /><polygon
     style="fill:#0080c6;fill-rule:evenodd"
     id="polygon830"
     points="6858.2,10217.2 6903.2,10152.4 6860,10129 6842,10199.2 "
     transform="matrix(0.07359924,0,0,0.07359924,-476.65088,-738.48367)" /><polygon
     style="fill:#0080c6;fill-rule:evenodd"
     id="polygon832"
     points="6566.6,10303.6 6563,10307.2 6561.2,10316.2 6563,10321.6 6566.6,10327 6572,10332.4 6577.4,10336 6582.8,10337.8 6582.8,10341.4 6581,10345 6581,10359.4 6582.8,10364.8 6586.4,10368.4 6588.2,10372 6591.8,10375.6 6595.4,10377.4 6600.8,10379.2 6604.4,10381 6750.2,10379.2 6755.6,10381 6759.2,10379.2 6762.8,10377.4 6764.6,10373.8 6768.2,10370.2 6768.2,10368.4 6770,10364.8 6770,10361.2 6768.2,10357.6 6766.4,10355.8 6766.4,10354 6764.6,10352.2 6761,10348.6 6757.4,10348.6 6753.8,10346.8 6750.2,10348.6 6654.8,10348.6 6703.4,10300 6771.8,10174 6773.6,10170.4 6773.6,10161.4 6770,10154.2 6768.2,10152.4 6766.4,10150.6 6764.6,10148.8 6762.8,10147 6757.4,10145.2 6746.6,10145.2 6743,10147 6741.2,10147 6739.4,10148.8 6737.6,10150.6 6734,10152.4 6732.2,10156 6690.8,10238.8 6658.4,10267.6 6656.6,10260.4 6653,10255 6649.4,10249.6 6644,10247.8 6638.6,10244.2 6633.2,10244.2 6627.8,10246 6618.8,10251.4 "
     transform="matrix(0.07359924,0,0,0.07359924,-476.65088,-738.48367)" /><polygon
     style="fill:#0080c6;fill-rule:evenodd"
     id="polygon834"
     points="6510.8,10368.4 6532.4,10390 6539.6,10373.8 6521.6,10357.6 "
     transform="matrix(0.07359924,0,0,0.07359924,-476.65088,-738.48367)" /><polygon
     style="fill:#0080c6;fill-rule:evenodd"
     id="polygon836"
     points="6523.4,10431.4 6568.4,10444 6579.2,10418.8 6573.8,10420.6 6570.2,10422.4 6563,10422.4 6557.6,10420.6 6550.4,10418.8 6543.2,10415.2 6539.6,10411.6 6536,10409.8 6534.2,10406.2 "
     transform="matrix(0.07359924,0,0,0.07359924,-476.65088,-738.48367)" /><polygon
     style="fill:#0080c6;fill-rule:evenodd"
     id="polygon838"
     points="6541.4,10400.8 6545,10406.2 6550.4,10411.6 6555.8,10415.2 6568.4,10415.2 6575.6,10413.4 6581,10409.8 6584.6,10406.2 6588.2,10399 6588.2,10381 6584.6,10375.6 6579.2,10370.2 6573.8,10368.4 6566.6,10366.6 6561.2,10366.6 6554,10368.4 6548.6,10372 6545,10375.6 6541.4,10381 6539.6,10388.2 6539.6,10395.4 "
     transform="matrix(0.07359924,0,0,0.07359924,-476.65088,-738.48367)" /><polygon
     style="fill:#0080c6;fill-rule:evenodd"
     id="polygon840"
     points="6510.8,10359.4 6512.6,10359.4 6514.4,10357.6 6514.4,10355.8 6516.2,10354 6516.2,10352.2 6514.4,10348.6 6512.6,10348.6 6512.6,10346.8 6510.8,10345 6505.4,10345 6505.4,10346.8 6501.8,10346.8 6501.8,10348.6 6500,10350.4 6500,10357.6 6501.8,10357.6 6503.6,10359.4 6505.4,10359.4 6507.2,10361.2 6509,10361.2 "
     transform="matrix(0.07359924,0,0,0.07359924,-476.65088,-738.48367)" /><polygon
     style="fill:#0080c6;fill-rule:evenodd"
     id="polygon842"
     points="6523.4,10318 6527,10316.2 6528.8,10312.6 6530.6,10309 6530.6,10301.8 6528.8,10300 6527,10298.2 6523.4,10294.6 6519.8,10294.6 6518,10292.8 6514.4,10294.6 6510.8,10294.6 6507.2,10298.2 6505.4,10300 6505.4,10312.6 6507.2,10314.4 6510.8,10318 6514.4,10318 6518,10319.8 6519.8,10318 "
     transform="matrix(0.07359924,0,0,0.07359924,-476.65088,-738.48367)" /><polygon
     style="fill:#0080c6;fill-rule:evenodd"
     id="polygon844"
     points="6507.2,10258.6 6509,10255 6512.6,10247.8 6510.8,10242.4 6510.8,10238.8 6507.2,10237 6505.4,10233.4 6501.8,10231.6 6492.8,10231.6 6489.2,10233.4 6485.6,10235.2 6483.8,10238.8 6482,10242.4 6482,10249.6 6485.6,10256.8 6489.2,10260.4 6492.8,10262.2 6500,10262.2 6503.6,10260.4 "
     transform="matrix(0.07359924,0,0,0.07359924,-476.65088,-738.48367)" /><polygon
     style="fill:#0080c6;fill-rule:evenodd"
     id="polygon846"
     points="6514.4,10199.2 6528.8,10199.2 6532.4,10195.6 6536,10192 6537.8,10188.4 6539.6,10183 6539.6,10177.6 6537.8,10174 6534.2,10170.4 6530.6,10166.8 6527,10165 6521.6,10163.2 6518,10163.2 6512.6,10165 6509,10166.8 6505.4,10170.4 6503.6,10175.8 6501.8,10179.4 6501.8,10184.8 6503.6,10190.2 6507.2,10193.8 6510.8,10195.6 "
     transform="matrix(0.07359924,0,0,0.07359924,-476.65088,-738.48367)" /><polygon
     style="fill:#0080c6;fill-rule:evenodd"
     id="polygon848"
     points="6622.4,10107.4 6635,10107.4 6640.4,10103.8 6645.8,10100.2 6649.4,10094.8 6651.2,10087.6 6651.2,10082.2 6649.4,10076.8 6647.6,10069.6 6644,10066 6636.8,10062.4 6633.2,10060.6 6626,10058.8 6618.8,10060.6 6613.4,10064.2 6609.8,10067.8 6606.2,10073.2 6604.4,10078.6 6602.6,10085.8 6606.2,10096.6 6611.6,10102 6617,10105.6 "
     transform="matrix(0.07359924,0,0,0.07359924,-476.65088,-738.48367)" /></svg>