<?xml version="1.0" encoding="UTF-8" standalone="no"?>
<!-- Generator: Adobe Illustrator 19.2.0, SVG Export Plug-In . SVG Version: 6.00 Build 0)  -->

<svg
   xmlns:dc="http://purl.org/dc/elements/1.1/"
   xmlns:cc="http://creativecommons.org/ns#"
   xmlns:rdf="http://www.w3.org/1999/02/22-rdf-syntax-ns#"
   xmlns:svg="http://www.w3.org/2000/svg"
   xmlns="http://www.w3.org/2000/svg"
   xmlns:sodipodi="http://sodipodi.sourceforge.net/DTD/sodipodi-0.dtd"
   xmlns:inkscape="http://www.inkscape.org/namespaces/inkscape"
   version="1.1"
   id="Layer_1"
   x="0px"
   y="0px"
   viewBox="0 0 32 32"
   enable-background="new 0 0 32 32"
   xml:space="preserve"
   inkscape:version="0.91 r13725"
   sodipodi:docname="icon - Copy (8).svg"><metadata
     id="metadata8"><rdf:RDF><cc:Work
         rdf:about=""><dc:format>image/svg+xml</dc:format><dc:type
           rdf:resource="http://purl.org/dc/dcmitype/StillImage" /><dc:title /></cc:Work></rdf:RDF></metadata><defs
     id="defs6" /><sodipodi:namedview
     pagecolor="#ffffff"
     bordercolor="#666666"
     borderopacity="1"
     objecttolerance="10"
     gridtolerance="10"
     guidetolerance="10"
     inkscape:pageopacity="0"
     inkscape:pageshadow="2"
     inkscape:window-width="1280"
     inkscape:window-height="962"
     id="namedview4"
     showgrid="false"
     inkscape:zoom="24.8125"
     inkscape:cx="14.206549"
     inkscape:cy="16"
     inkscape:window-x="1272"
     inkscape:window-y="-8"
     inkscape:window-maximized="1"
     inkscape:current-layer="Layer_1" /><path
     style="fill:none;stroke:#505050;stroke-width:0.72531331;stroke-miterlimit:3.86369991"
     inkscape:connector-curvature="0"
     id="path1079"
     d="m 0.78209529,16 c 0,-8.3575001 6.77980001,-15.13730017 15.13730071,-15.13730017 8.3575,0 15.1373,6.77130007 15.1373,15.13730017 0,8.3575 -6.7798,15.1373 -15.1373,15.1373 C 7.5533953,31.1373 0.78209529,24.3575 0.78209529,16 Z"
     stroke-miterlimit="3.8637" /><path
     style="fill:none;fill-rule:evenodd;stroke:#505050;stroke-width:1.45037067;stroke-miterlimit:3.86369991"
     inkscape:connector-curvature="0"
     id="path1081"
     d="m 21.488196,23.2318 c -1.0404,2.7034 -3.667,4.6222 -6.7457,4.6222 -3.9911,0 -7.2233007,-3.2321 -7.2233007,-7.2233 0,-3.3771 2.1491,-6.2084 5.4324007,-7.0015"
     stroke-miterlimit="3.8637" /><polygon
     style="fill:#505050;fill-rule:evenodd"
     id="polygon1083"
     points="6663.6,1536.1 6644.8,1534.1 6659.2,1665.5 6734.8,1674.5 6770.8,1773.5 6806.8,1755.5 6797.8,1737.5 6781.6,1744.7 6751,1654.7 6679,1645.7 6677.2,1633.1 6715,1634.9 6713.2,1615.1 6673.6,1611.5 "
     transform="matrix(0.08528081,0,0,0.08528081,-553.9696,-124.6451)" /><circle
     style="opacity:1;fill:#505050;fill-opacity:1;stroke:none;stroke-width:0.1;stroke-linejoin:miter;stroke-miterlimit:4;stroke-dasharray:none;stroke-dashoffset:0;stroke-opacity:1"
     id="path4135"
     cx="13.944584"
     cy="6.0453401"
     r="3.1435769" /></svg>