<?xml version="1.0" encoding="UTF-8" standalone="no"?>
<!-- Generator: Adobe Illustrator 19.2.0, SVG Export Plug-In . SVG Version: 6.00 Build 0)  -->

<svg
   xmlns:dc="http://purl.org/dc/elements/1.1/"
   xmlns:cc="http://creativecommons.org/ns#"
   xmlns:rdf="http://www.w3.org/1999/02/22-rdf-syntax-ns#"
   xmlns:svg="http://www.w3.org/2000/svg"
   xmlns="http://www.w3.org/2000/svg"
   xmlns:sodipodi="http://sodipodi.sourceforge.net/DTD/sodipodi-0.dtd"
   xmlns:inkscape="http://www.inkscape.org/namespaces/inkscape"
   version="1.1"
   id="Layer_1"
   x="0px"
   y="0px"
   viewBox="0 0 32 32"
   enable-background="new 0 0 32 32"
   xml:space="preserve"
   inkscape:version="0.91 r13725"
   sodipodi:docname="icon - Copy (31).svg"><metadata
     id="metadata8"><rdf:RDF><cc:Work
         rdf:about=""><dc:format>image/svg+xml</dc:format><dc:type
           rdf:resource="http://purl.org/dc/dcmitype/StillImage" /><dc:title /></cc:Work></rdf:RDF></metadata><defs
     id="defs6" /><sodipodi:namedview
     pagecolor="#ffffff"
     bordercolor="#666666"
     borderopacity="1"
     objecttolerance="10"
     gridtolerance="10"
     guidetolerance="10"
     inkscape:pageopacity="0"
     inkscape:pageshadow="2"
     inkscape:window-width="1280"
     inkscape:window-height="962"
     id="namedview4"
     showgrid="false"
     inkscape:zoom="24.8125"
     inkscape:cx="16"
     inkscape:cy="16"
     inkscape:window-x="1272"
     inkscape:window-y="-8"
     inkscape:window-maximized="1"
     inkscape:current-layer="Layer_1" /><polygon
     style="fill:#6f6f6e;fill-rule:evenodd"
     id="polygon50"
     points="362.7,2221 369.9,2222.8 380.7,2228.1 384.3,2229.9 395.1,2231.7 463.5,2235.4 467.1,2239 468.9,2242.6 470.7,2249.8 476.1,2301.9 481.5,2330.7 490.5,2361.3 494.1,2393.7 495.9,2397.3 497.7,2404.6 499.5,2409.9 503.1,2413.6 508.5,2415.4 512.1,2417.2 548.1,2417.2 553.5,2413.6 557.1,2406.3 560.7,2401 560.7,2395.6 557.1,2350.6 553.5,2334.3 537.3,2273.1 535.5,2240.7 533.7,2229.9 566.1,2229.9 576.9,2228.1 580.5,2224.6 584.1,2221 587.7,2202.9 591.3,2199.3 598.5,2190.4 600.3,2183.1 600.3,2174.2 598.5,2168.7 596.7,2163.4 593.1,2159.8 582.3,2149 575.1,2145.4 566.1,2143.6 521.1,2145.4 481.5,2145.4 468.9,2141.7 463.5,2141.7 429.3,2145.4 396.9,2150.7 375.3,2150.7 360.9,2149 344.7,2145.4 315.9,2138.1 305.1,2138.1 296.1,2136.3 283.5,2138.1 272.7,2139.9 265.5,2143.6 258.3,2149 245.7,2161.6 227.7,2174.2 225.9,2176 224.1,2179.6 220.5,2184.9 218.7,2192.2 220.5,2197.6 224.1,2204.8 225.9,2210.2 229.5,2215.6 234.9,2221 242.1,2224.6 267.3,2224.6 276.3,2221 285.3,2221 267.3,2395.6 269.1,2401 272.7,2406.3 285.3,2408.1 324.9,2408.1 328.5,2406.3 332.1,2402.8 339.3,2391.9 341.1,2382.9 341.1,2370.4 337.5,2221 346.5,2219.2 "
     transform="matrix(0.0812369,0,0,0.0812369,-17.347115,-168.59339)" /></svg>