<?xml version="1.0" encoding="UTF-8" standalone="no"?>
<!-- Generator: Adobe Illustrator 19.2.0, SVG Export Plug-In . SVG Version: 6.00 Build 0)  -->

<svg
   xmlns:dc="http://purl.org/dc/elements/1.1/"
   xmlns:cc="http://creativecommons.org/ns#"
   xmlns:rdf="http://www.w3.org/1999/02/22-rdf-syntax-ns#"
   xmlns:svg="http://www.w3.org/2000/svg"
   xmlns="http://www.w3.org/2000/svg"
   xmlns:sodipodi="http://sodipodi.sourceforge.net/DTD/sodipodi-0.dtd"
   xmlns:inkscape="http://www.inkscape.org/namespaces/inkscape"
   version="1.1"
   id="Layer_1"
   x="0px"
   y="0px"
   viewBox="0 0 32 32"
   enable-background="new 0 0 32 32"
   xml:space="preserve"
   inkscape:version="0.91 r13725"
   sodipodi:docname="icon - Copy (19).svg"><metadata
     id="metadata8"><rdf:RDF><cc:Work
         rdf:about=""><dc:format>image/svg+xml</dc:format><dc:type
           rdf:resource="http://purl.org/dc/dcmitype/StillImage" /><dc:title /></cc:Work></rdf:RDF></metadata><defs
     id="defs6" /><sodipodi:namedview
     pagecolor="#ffffff"
     bordercolor="#666666"
     borderopacity="1"
     objecttolerance="10"
     gridtolerance="10"
     guidetolerance="10"
     inkscape:pageopacity="0"
     inkscape:pageshadow="2"
     inkscape:window-width="1280"
     inkscape:window-height="962"
     id="namedview4"
     showgrid="false"
     inkscape:zoom="24.8125"
     inkscape:cx="16"
     inkscape:cy="16"
     inkscape:window-x="1272"
     inkscape:window-y="-8"
     inkscape:window-maximized="1"
     inkscape:current-layer="Layer_1" /><polygon
     style="fill:#6f6f6e;fill-rule:evenodd"
     id="polygon82"
     points="501.1,13080.8 496.2,13042.1 494.6,13027.6 493,13024.3 494.6,13024.3 494.6,13022.7 497.8,13021.1 501.1,13017.9 502.7,13016.3 504.3,13016.3 504.3,13014.7 502.7,13013.1 499.5,13009.8 494.6,13009.8 496.2,13008.2 494.6,13006.6 493,13005 491.4,13003.4 489.8,13001.8 488.2,13001.8 485,13003.4 483.3,13005 480.1,13006.6 480.1,13009.8 476.9,13011.4 473.7,13013.1 472.1,13014.7 470.5,13016.3 470.5,13017.9 472.1,13017.9 473.7,13019.5 478.5,13021.1 480.1,13022.7 480.1,13024.3 481.7,13027.6 480.1,13037.2 478.5,13050.1 475.3,13072.7 472.1,13103.3 467.2,13156.6 465.6,13209.7 465.6,13280.7 464,13313 509.1,13313 509.1,13203.3 507.5,13146.9 504.3,13113 "
     transform="matrix(0.08982904,0,0,0.08982904,-21.389646,-1164.4974)" /><polygon
     style="fill:#6f6f6e;fill-rule:evenodd"
     id="polygon84"
     points="444.6,12993.7 444.6,12990.5 446.3,12988.9 447.9,12987.3 454.3,12984 454.3,12980.8 452.7,12979.2 451.1,12977.6 446.3,12977.6 446.3,12974.4 441.4,12969.5 436.6,12969.5 433.4,12972.8 431.8,12974.4 431.8,12977.6 426.9,12977.6 425.3,12979.2 423.7,12980.8 422.1,12984 422.1,12985.6 423.7,12987.3 426.9,12987.3 428.5,12988.9 430.1,12990.5 431.8,12992.1 433.4,12993.7 430.1,13008.2 426.9,13027.6 425.3,13051.7 422.1,13080.8 418.8,13106.6 415.6,13143.6 415.6,13171.1 414,13198.5 423.7,13208.1 431.8,13219.4 447.9,13243.6 452.7,13259.7 455.9,13269.4 457.5,13238.8 459.1,13196.9 459.1,13129.1 455.9,13087.2 451.1,13042.1 447.9,13017.9 446.3,13000.2 "
     transform="matrix(0.08982904,0,0,0.08982904,-21.389646,-1164.4974)" /><polygon
     style="fill:#6f6f6e;fill-rule:evenodd"
     id="polygon86"
     points="394.7,12987.3 397.9,12985.6 399.5,12984 399.5,12982.4 397.9,12980.8 394.7,12979.2 393.1,12977.6 389.8,12977.6 389.8,12974.4 388.2,12972.8 386.6,12972.8 385,12969.5 380.1,12969.5 376.9,12972.8 375.3,12972.8 375.3,12977.6 370.5,12977.6 368.9,12979.2 367.2,12980.8 365.6,12980.8 365.6,12982.4 367.2,12984 368.9,12985.6 372.1,12987.3 373.7,12988.9 375.3,12990.5 376.9,12992.1 376.9,12993.7 375.3,12996.9 373.7,13009.8 372.1,13024.3 370.5,13042.1 368.9,13055 364,13090.5 364,13109.8 362.4,13137.2 362.4,13200.1 364,13225.9 364,13251.7 364,13267.8 370.5,13251.7 376.9,13238.8 385,13224.3 396.3,13209.7 406,13198.5 406,13154.9 404.3,13135.6 394.7,13035.6 388.2,12993.7 388.2,12992.1 389.8,12990.5 391.4,12988.9 "
     transform="matrix(0.08982904,0,0,0.08982904,-21.389646,-1164.4974)" /><polygon
     style="fill:#6f6f6e;fill-rule:evenodd"
     id="polygon88"
     points="349.5,13019.5 349.5,13014.7 347.9,13013.1 346.3,13013.1 344.7,13011.4 341.5,13009.8 339.8,13009.8 339.8,13006.6 338.2,13005 335,13003.4 333.4,13001.8 331.8,13003.4 328.6,13003.4 326.9,13005 325.3,13006.6 325.3,13009.8 322.1,13009.8 320.5,13011.4 318.9,13013.1 317.3,13014.7 317.3,13016.3 320.5,13017.9 323.7,13021.1 325.3,13022.7 326.9,13022.7 328.6,13024.3 328.6,13025.9 326.9,13027.6 322.1,13063 318.9,13096.9 315.6,13119.4 314.1,13146.9 312.4,13163 312.4,13201.7 310.8,13227.5 312.4,13258.1 312.4,13306.5 312.4,13314.6 356,13314.6 356,13193.6 354.4,13154.9 351.1,13121.1 349.5,13098.5 344.7,13066.3 339.8,13032.4 338.2,13027.6 339.8,13024.3 341.5,13022.7 343.1,13021.1 346.3,13019.5 "
     transform="matrix(0.08982904,0,0,0.08982904,-21.389646,-1164.4974)" /><polygon
     style="fill:#6f6f6e;fill-rule:evenodd"
     id="polygon90"
     points="383.4,13246.9 376.9,13261.4 372.1,13285.6 372.1,13293.6 370.5,13301.7 370.5,13309.7 451.1,13309.7 451.1,13295.2 449.5,13283.9 447.9,13275.9 443,13259.7 435,13242 426.9,13227.5 418.8,13216.2 410.8,13206.5 399.5,13217.8 393.1,13229.1 389.8,13233.9 "
     transform="matrix(0.08982904,0,0,0.08982904,-21.389646,-1164.4974)" /></svg>