<?xml version="1.0" encoding="UTF-8" standalone="no"?>
<!-- Generator: Adobe Illustrator 19.2.0, SVG Export Plug-In . SVG Version: 6.00 Build 0)  -->

<svg
   xmlns:dc="http://purl.org/dc/elements/1.1/"
   xmlns:cc="http://creativecommons.org/ns#"
   xmlns:rdf="http://www.w3.org/1999/02/22-rdf-syntax-ns#"
   xmlns:svg="http://www.w3.org/2000/svg"
   xmlns="http://www.w3.org/2000/svg"
   xmlns:sodipodi="http://sodipodi.sourceforge.net/DTD/sodipodi-0.dtd"
   xmlns:inkscape="http://www.inkscape.org/namespaces/inkscape"
   version="1.1"
   id="Layer_1"
   x="0px"
   y="0px"
   viewBox="0 0 32 32"
   enable-background="new 0 0 32 32"
   xml:space="preserve"
   inkscape:version="0.91 r13725"
   sodipodi:docname="icon - Copy (20).svg"><metadata
     id="metadata8"><rdf:RDF><cc:Work
         rdf:about=""><dc:format>image/svg+xml</dc:format><dc:type
           rdf:resource="http://purl.org/dc/dcmitype/StillImage" /><dc:title /></cc:Work></rdf:RDF></metadata><defs
     id="defs6" /><sodipodi:namedview
     pagecolor="#ffffff"
     bordercolor="#666666"
     borderopacity="1"
     objecttolerance="10"
     gridtolerance="10"
     guidetolerance="10"
     inkscape:pageopacity="0"
     inkscape:pageshadow="2"
     inkscape:window-width="1280"
     inkscape:window-height="962"
     id="namedview4"
     showgrid="false"
     inkscape:zoom="24.8125"
     inkscape:cx="16"
     inkscape:cy="16"
     inkscape:window-x="1272"
     inkscape:window-y="-8"
     inkscape:window-maximized="1"
     inkscape:current-layer="Layer_1" /><polygon
     style="fill:#6f6f6e;fill-rule:evenodd"
     id="polygon92"
     points="518.5,12947.6 581.4,12947.6 581.4,12686.4 565.3,12712.2 566.9,12734.7 526.6,12791.2 523.3,12792.8 513.7,12792.8 507.2,12791.2 489.5,12791.2 489.5,12728.3 431.4,12765.4 433.1,12775 431.4,12813.7 433.1,12826.7 404,12828.3 339.5,12837.9 337.9,12846 339.5,12847.6 346,12846 346,12854.1 342.8,12854.1 341.2,12855.7 341.2,12862.1 337.9,12862.1 336.3,12863.7 336.3,12912.1 305.7,12912.1 305.7,12865.4 299.2,12865.4 299.2,12854.1 291.2,12854.1 241.2,12947.6 454,12947.6 454,12852.5 457.3,12849.2 462.1,12844.4 468.5,12842.8 475,12841.2 492.7,12841.2 500.8,12842.8 508.9,12846 513.7,12849.2 515.3,12850.9 518.5,12854.1 "
     transform="matrix(0.09112287,0,0,0.09112287,-21.478839,-1148.5102)" /><polygon
     style="fill:#6f6f6e;fill-rule:evenodd"
     id="polygon94"
     points="376.6,12721.8 386.3,12718.6 407.3,12710.6 421.8,12704.1 428.2,12697.7 433.1,12694.4 434.7,12689.6 436.3,12681.5 437.9,12678.3 441.1,12673.5 452.4,12662.2 457.3,12657.3 465.3,12650.9 481.4,12644.5 492.7,12641.2 504,12641.2 510.5,12644.5 523.3,12649.3 528.2,12654.1 533,12658.9 537.9,12667 542.7,12681.5 545.9,12686.4 550.8,12691.2 558.8,12699.2 560.4,12702.5 562,12707.3 565.3,12712.2 581.4,12686.4 581.4,12684.8 579.8,12681.5 574.9,12679.9 568.5,12678.3 563.6,12676.7 558.8,12673.5 555.6,12670.3 554,12663.8 549.2,12650.9 541.1,12639.6 534.6,12629.9 529.8,12623.5 523.3,12620.3 512,12615.4 500.8,12612.2 491.1,12612.2 483,12613.8 463.7,12621.9 449.2,12631.5 441.1,12639.6 433.1,12647.7 418.5,12662.2 416.9,12667 415.3,12670.3 413.7,12676.7 412.1,12681.5 407.3,12684.8 395.9,12688 386.3,12691.2 371.8,12694.4 363.7,12697.7 357.3,12700.9 354,12707.3 350.8,12710.6 349.2,12721.8 346,12725.1 341.2,12729.9 334.7,12731.5 325,12736.4 315.3,12739.6 299.2,12744.4 286.3,12746 275,12747.6 270.2,12747.6 263.8,12749.2 258.9,12752.5 254.1,12754.1 249.2,12757.3 241.2,12762.2 258.9,12771.8 265.4,12770.2 289.5,12768.6 300.9,12765.4 315.3,12763.8 344.4,12755.7 350.8,12752.5 354,12749.2 355.6,12746 358.9,12736.4 365.3,12728.3 370.2,12723.4 "
     transform="matrix(0.09112287,0,0,0.09112287,-21.478839,-1148.5102)" /><polygon
     style="fill:#6f6f6e;fill-rule:evenodd"
     id="polygon96"
     points="412.1,12754.1 416.9,12750.9 426.6,12750.9 428.2,12755.7 429.8,12762.2 431.4,12765.4 489.5,12728.3 491.1,12723.4 492.7,12720.2 495.9,12717 500.8,12712.2 502.4,12710.6 507.2,12708.9 515.3,12712.2 521.7,12713.8 525,12715.4 526.6,12718.6 526.6,12733.1 528.2,12758.9 526.6,12776.7 526.6,12791.2 566.9,12734.7 560.4,12733.1 555.6,12729.9 550.8,12723.4 545.9,12717 542.7,12707.3 542.7,12704.1 537.9,12696 533,12689.6 529.8,12684.8 525,12679.9 520.1,12676.7 508.9,12671.9 495.9,12668.6 489.5,12668.6 476.6,12670.3 468.5,12673.5 460.4,12676.7 455.6,12681.5 450.8,12688 447.6,12692.8 442.7,12704.1 441.1,12705.7 437.9,12710.6 433.1,12715.4 416.9,12729.9 410.5,12734.7 404,12736.4 399.2,12738 389.5,12739.6 384.7,12741.2 378.2,12746 363.7,12755.7 357.3,12760.6 355.6,12763.8 350.8,12770.2 347.6,12775 342.8,12778.3 336.3,12783.1 326.6,12786.3 317,12786.3 304.1,12787.9 299.2,12787.9 294.4,12791.2 289.5,12791.2 279.9,12789.5 258.9,12789.5 255.7,12786.3 255.7,12775 257.3,12773.4 258.9,12771.8 241.2,12762.2 241.2,12947.6 291.2,12854.1 291.2,12846 297.6,12846 297.6,12837.9 339.5,12837.9 404,12828.3 404,12825.1 405.6,12804.1 405.6,12778.3 407.3,12767 410.5,12757.3 "
     transform="matrix(0.09112287,0,0,0.09112287,-21.478839,-1148.5102)" /><path
     style="fill:#6f6f6e"
     inkscape:connector-curvature="0"
     id="path98"
     d="m 23.125811,11.329892 0,5.731 1.61287,0 0.5923,0.146 0.88389,0 0.2916,-1.467 0.14579,-1.613 -0.14579,-2.351 0,-1.321 -0.43739,-0.438001 -0.5923,-0.1449997 -0.7381,-0.292 -0.43739,0.146 -0.5923,0.5919997 -0.43739,0.583001 -0.14579,0.429 z m -7.79101,9.112 2.64257,-0.146 -0.1458,-1.175 0.1458,-3.527 -0.1458,-0.884 -0.29159,-0.884 -0.1458,-0.446 -0.87478,0 -0.4465,0.291 -0.43739,1.176 -0.1458,1.03 0,2.351 -0.14579,1.913 0,0.301 z m -10.2786596,2.351 0.7381,0 0,1.029 0.5923,0 0,4.256 2.79747,0 0,-4.41 0.43739,-0.146 0,-0.593 0.4373896,-0.145 0,-0.738 -0.5922996,0.145 0,-0.884 -3.81805,0 0,0.739 -0.5923,0 0,0.747 z M 30.032921,9.8618913 l -0.29159,-0.437 -0.1458,-0.437 -0.88389,-1.03 -0.43739,-0.447 -0.29159,-0.437 -0.43739,-1.321 -0.4465,-0.738 -0.43739,-0.438 -0.43739,-0.437 -1.17549,-0.447 -0.5923,-0.291 -1.02969,0 -1.02968,0.291 -1.46708,0.593 -0.7381,0.583 -0.4465,0.446 -1.02969,1.03 -0.29159,0.437 -0.29159,1.03 -0.1458,0.438 -0.43739,0.291 -0.5923,0.592 -1.32128,0.584 -1.91358,0.7380007 -0.87478,0.291 -0.5923,0.146 -0.43739,0.447 -0.58319,0.738 -0.3007,0.884 -0.43739,0.583 -0.5831896,0.301 -2.65167,0.729 -1.32128,0.145 -1.02969,0.292 -2.2051797,0.146 -0.5923,0.145 -0.29159,1.322 2.2051797,0.291 0.88389,0.146 0.43739,0 0.43739,-0.291 0.4465,0 1.17548,-0.146 0.8839,0 0.88389,-0.292 0.58318,-0.446 0.4465096,-0.292 0.29159,-0.437 0.43739,-0.593 0.73809,-0.729 1.32129,-0.883 0.59229,-0.447 0.43739,-0.146 0.8839,-0.146 0.43739,-0.145 0.58318,-0.146 0.5923,-0.438 1.46708,-1.321001 0.43739,-0.4459997 0.29159,-0.438 0.58319,-1.175 0.29159,-0.438 0.43739,-0.592 0.43739,-0.437 0.7381,-0.292 0.72898,-0.291 1.17548,-0.146 0.58319,0 1.17549,0.291 1.02968,0.447 0.43739,0.291 0.43739,0.438 0.2916,0.446 0.4465,0.583 0.43739,0.739 0.29159,1.1749997 0.43739,0.583001 0.43739,0.593 0.43739,0.291 0.58319,0.146 -0.10024,-2.0690007 z m -29.53291938,4.5570007 0.73809998,-0.438 0.4373901,-0.291 0.43738,-0.146 0.44651,-0.292 0.58318,-0.146 0.43739,0 1.0296897,-0.145 1.17549,-0.146 1.46707,-0.447 0.8839,-0.291 0.88389,-0.438 0.5923,-0.145 0.4373896,-0.447 0.43739,-1.3210007 0.5923,-0.884 0.58318,-0.292 0.7381,-0.291 1.32128,-0.292 0.88389,-0.291 1.02969,-0.292 0.43739,-0.292 0.14579,-0.437 0.1458,-0.592 0.29159,-0.738 1.32129,-1.322 0.73809,-0.738 0.7381,-0.738 1.32128,-0.884 1.76778,-0.73800005 0.7381,-0.146 0.88389,0 1.02969,0.29200005 1.02969,0.437 0.59229,0.301 0.43739,0.583 0.58319,0.884 0.7381,1.03 0.43739,1.175 0.14579,0.583 0.7381,0.593 0.43739,0.145 0.58318,0.146 0.43739,0.146 0.1458,0.437 0,23.8020007 -5.73163,0 0,-8.52 -0.43739,-0.438 -0.43739,-0.291 -0.73809,-0.292 -0.7381,-0.146 -1.61287,0 -0.58319,0.146 -0.5923,0.146 -0.43739,0.447 -0.3007,8.966 -19.39094938,0 0,-16.912 z" /></svg>