<?xml version="1.0" encoding="UTF-8" standalone="no"?>
<!-- Generator: Adobe Illustrator 19.2.0, SVG Export Plug-In . SVG Version: 6.00 Build 0)  -->

<svg
   xmlns:dc="http://purl.org/dc/elements/1.1/"
   xmlns:cc="http://creativecommons.org/ns#"
   xmlns:rdf="http://www.w3.org/1999/02/22-rdf-syntax-ns#"
   xmlns:svg="http://www.w3.org/2000/svg"
   xmlns="http://www.w3.org/2000/svg"
   xmlns:sodipodi="http://sodipodi.sourceforge.net/DTD/sodipodi-0.dtd"
   xmlns:inkscape="http://www.inkscape.org/namespaces/inkscape"
   version="1.1"
   id="Layer_1"
   x="0px"
   y="0px"
   viewBox="0 0 32 32"
   enable-background="new 0 0 32 32"
   xml:space="preserve"
   inkscape:version="0.91 r13725"
   sodipodi:docname="icon - Copy (28).svg"><metadata
     id="metadata8"><rdf:RDF><cc:Work
         rdf:about=""><dc:format>image/svg+xml</dc:format><dc:type
           rdf:resource="http://purl.org/dc/dcmitype/StillImage" /><dc:title /></cc:Work></rdf:RDF></metadata><defs
     id="defs6" /><sodipodi:namedview
     pagecolor="#ffffff"
     bordercolor="#666666"
     borderopacity="1"
     objecttolerance="10"
     gridtolerance="10"
     guidetolerance="10"
     inkscape:pageopacity="0"
     inkscape:pageshadow="2"
     inkscape:window-width="1280"
     inkscape:window-height="962"
     id="namedview4"
     showgrid="false"
     inkscape:zoom="24.8125"
     inkscape:cx="16"
     inkscape:cy="16"
     inkscape:window-x="1272"
     inkscape:window-y="-8"
     inkscape:window-maximized="1"
     inkscape:current-layer="Layer_1" /><polygon
     style="fill:#6f6f6e;fill-rule:evenodd"
     id="polygon62"
     points="532.1,5278.9 525,5280.7 517.9,5284.2 512.6,5287.8 510.8,5291.3 505.5,5296.6 503.7,5303.7 502,5309.1 502,5374.7 450.5,5374.7 450.5,5309.1 448.8,5305.5 447,5298.4 441.7,5291.3 432.8,5282.5 423.9,5278.9 411.5,5277.1 402.7,5278.9 395.6,5280.7 388.5,5284.2 383.2,5287.8 379.6,5291.3 376.1,5296.6 374.3,5303.7 372.5,5309.1 372.5,5374.7 321.1,5374.7 321.1,5309.1 319.3,5305.5 315.8,5298.4 310.5,5291.3 301.6,5282.5 294.5,5278.9 282.1,5277.1 273.3,5278.9 266.2,5280.7 259.1,5284.2 253.7,5287.8 250.2,5291.3 246.7,5296.6 244.9,5303.7 241.3,5309.1 241.3,5374.7 225.4,5374.7 225.4,5261.2 264.4,5220.4 264.4,5179.6 266.2,5174.3 269.7,5169 276.8,5167.2 282.1,5167.2 289.2,5169 291,5172.5 294.5,5177.8 294.5,5179.6 459.4,5195.6 459.4,5140.6 406.2,5080.4 406.2,5043.1 408,5039.6 411.5,5037.8 415.1,5034.3 431,5034.3 432.8,5036 436.4,5037.8 439.9,5041.3 439.9,5080.4 539.2,5115.8 541,5112.3 542.7,5108.7 546.3,5106.9 549.8,5105.2 558.7,5105.2 564,5106.9 565.8,5108.7 569.3,5112.3 569.3,5114 608.3,5067.9 461.2,5067.9 461.2,5000.6 351.3,5000.6 351.3,5130 213,5130 213,5383.5 608.3,5383.5 608.3,5261.2 597.7,5261.2 597.7,5374.7 580,5374.7 580,5309.1 576.4,5298.4 571.1,5291.3 562.2,5282.5 555.1,5278.9 541,5277.1 "
     transform="matrix(0.07842145,0,0,0.07842145,-16.163467,-391.2487)" /><polygon
     style="fill:#6f6f6e;fill-rule:evenodd"
     id="polygon64"
     points="478.9,5131.8 484.2,5133.5 487.8,5135.3 489.5,5138.9 489.5,5195.6 459.4,5195.6 294.5,5179.6 294.5,5220.4 264.4,5220.4 225.4,5261.2 608.3,5261.2 608.3,5067.9 569.3,5114 569.3,5176.1 539.2,5176.1 539.2,5115.8 439.9,5080.4 406.2,5080.4 459.4,5140.6 462.9,5135.3 466.5,5133.5 471.8,5131.8 "
     transform="matrix(0.07842145,0,0,0.07842145,-16.163467,-391.2487)" /></svg>