<?xml version="1.0" encoding="UTF-8" standalone="no"?>
<!-- Generator: Adobe Illustrator 19.2.0, SVG Export Plug-In . SVG Version: 6.00 Build 0)  -->

<svg
   xmlns:dc="http://purl.org/dc/elements/1.1/"
   xmlns:cc="http://creativecommons.org/ns#"
   xmlns:rdf="http://www.w3.org/1999/02/22-rdf-syntax-ns#"
   xmlns:svg="http://www.w3.org/2000/svg"
   xmlns="http://www.w3.org/2000/svg"
   xmlns:sodipodi="http://sodipodi.sourceforge.net/DTD/sodipodi-0.dtd"
   xmlns:inkscape="http://www.inkscape.org/namespaces/inkscape"
   version="1.1"
   id="Layer_1"
   x="0px"
   y="0px"
   viewBox="0 0 32 32"
   enable-background="new 0 0 32 32"
   xml:space="preserve"
   inkscape:version="0.91 r13725"
   sodipodi:docname="icon - Copy (18).svg"><metadata
     id="metadata8"><rdf:RDF><cc:Work
         rdf:about=""><dc:format>image/svg+xml</dc:format><dc:type
           rdf:resource="http://purl.org/dc/dcmitype/StillImage" /><dc:title /></cc:Work></rdf:RDF></metadata><defs
     id="defs6" /><sodipodi:namedview
     pagecolor="#ffffff"
     bordercolor="#666666"
     borderopacity="1"
     objecttolerance="10"
     gridtolerance="10"
     guidetolerance="10"
     inkscape:pageopacity="0"
     inkscape:pageshadow="2"
     inkscape:window-width="1280"
     inkscape:window-height="962"
     id="namedview4"
     showgrid="false"
     inkscape:zoom="24.8125"
     inkscape:cx="16"
     inkscape:cy="16"
     inkscape:window-x="1272"
     inkscape:window-y="-8"
     inkscape:window-maximized="1"
     inkscape:current-layer="Layer_1" /><polygon
     style="fill:#6f6f6e;fill-rule:evenodd"
     id="polygon36"
     points="560.4,373.8 573,373.8 573,359.4 245.4,359.4 245.4,359.4 245.4,373.8 259.8,373.8 259.8,575.4 310.2,575.4 310.2,373.8 384,373.8 384,575.4 436.2,575.4 436.2,373.8 508.2,373.8 508.2,575.4 560.4,575.4 "
     transform="matrix(0.08483853,0,0,0.08483853,-18.792281,-18.919539)" /><polygon
     style="fill:#6f6f6e"
     id="polygon38"
     points="236.1,588 236.1,575.4 236.1,575.4 563.7,575.4 563.7,588 "
     transform="matrix(0.08483853,0,0,0.08483853,-18.792281,-18.919539)" /><path
     style="fill:#6f6f6e"
     inkscape:connector-curvature="0"
     id="path40"
     d="M 15.134649,30.431041" /><polygon
     style="fill:#6f6f6e;fill-rule:evenodd"
     id="polygon42"
     points="592.8,303.6 409.2,235.2 227.4,303.6 227.4,303.6 245.4,303.6 245.4,346.8 573,346.8 573,303.6 "
     transform="matrix(0.08483853,0,0,0.08483853,-18.792281,-18.919539)" /></svg>