<?xml version="1.0" encoding="UTF-8" standalone="no"?>
<!-- Generator: Adobe Illustrator 19.2.0, SVG Export Plug-In . SVG Version: 6.00 Build 0)  -->

<svg
   xmlns:dc="http://purl.org/dc/elements/1.1/"
   xmlns:cc="http://creativecommons.org/ns#"
   xmlns:rdf="http://www.w3.org/1999/02/22-rdf-syntax-ns#"
   xmlns:svg="http://www.w3.org/2000/svg"
   xmlns="http://www.w3.org/2000/svg"
   xmlns:sodipodi="http://sodipodi.sourceforge.net/DTD/sodipodi-0.dtd"
   xmlns:inkscape="http://www.inkscape.org/namespaces/inkscape"
   version="1.1"
   id="Layer_1"
   x="0px"
   y="0px"
   viewBox="0 0 32 32"
   enable-background="new 0 0 32 32"
   xml:space="preserve"
   inkscape:version="0.91 r13725"
   sodipodi:docname="icon - Copy (10).svg"><metadata
     id="metadata8"><rdf:RDF><cc:Work
         rdf:about=""><dc:format>image/svg+xml</dc:format><dc:type
           rdf:resource="http://purl.org/dc/dcmitype/StillImage" /><dc:title /></cc:Work></rdf:RDF></metadata><defs
     id="defs6" /><sodipodi:namedview
     pagecolor="#ffffff"
     bordercolor="#666666"
     borderopacity="1"
     objecttolerance="10"
     gridtolerance="10"
     guidetolerance="10"
     inkscape:pageopacity="0"
     inkscape:pageshadow="2"
     inkscape:window-width="1280"
     inkscape:window-height="962"
     id="namedview4"
     showgrid="false"
     inkscape:zoom="24.8125"
     inkscape:cx="16"
     inkscape:cy="16"
     inkscape:window-x="1272"
     inkscape:window-y="-8"
     inkscape:window-maximized="1"
     inkscape:current-layer="Layer_1" /><polygon
     style="fill:#4fa26a"
     id="polygon728"
     points="5285.4,10302.7 5285.4,9960.6 5285.4,9960.6 5627.5,9960.6 5627.5,10302.7 "
     transform="matrix(0.09061678,0,0,0.09061678,-478.44593,-902.0975)" /><path
     style="fill:#4fa26a"
     inkscape:connector-curvature="0"
     id="path730"
     d="M 16.004472,16.005002" /><polygon
     style="fill:#ffffff;fill-rule:evenodd"
     id="polygon732"
     points="5380.9,10021.4 5380.9,10045.7 5380.9,10045.7 5434.8,10045.7 5436.5,10021.4 "
     transform="matrix(0.09061678,0,0,0.09061678,-478.44593,-902.0975)" /><polygon
     style="fill:#ffffff;fill-rule:evenodd"
     id="polygon734"
     points="5380.9,10021.4 5380.9,10045.7 5380.9,10045.7 5434.8,10045.7 5436.5,10021.4 "
     transform="matrix(0.09061678,0,0,0.09061678,-478.44593,-902.0975)" /><polygon
     style="fill:#ffffff;fill-rule:evenodd"
     id="polygon736"
     points="5533.8,10021.4 5478.2,10021.4 5478.2,10021.4 5479.9,10045.7 5533.8,10045.7 "
     transform="matrix(0.09061678,0,0,0.09061678,-478.44593,-902.0975)" /><polygon
     style="fill:#ffffff;fill-rule:evenodd"
     id="polygon738"
     points="5533.8,10021.4 5478.2,10021.4 5478.2,10021.4 5479.9,10045.7 5533.8,10045.7 "
     transform="matrix(0.09061678,0,0,0.09061678,-478.44593,-902.0975)" /><polygon
     style="fill:#ffffff;fill-rule:evenodd"
     id="polygon740"
     points="5440,10061.3 5335.8,10061.3 5335.8,10061.3 5318.4,10182.9 5441.7,10181.2 "
     transform="matrix(0.09061678,0,0,0.09061678,-478.44593,-902.0975)" /><polygon
     style="fill:#ffffff;fill-rule:evenodd"
     id="polygon742"
     points="5440,10061.3 5335.8,10061.3 5335.8,10061.3 5318.4,10182.9 5441.7,10181.2 "
     transform="matrix(0.09061678,0,0,0.09061678,-478.44593,-902.0975)" /><polygon
     style="fill:#ffffff;fill-rule:evenodd"
     id="polygon744"
     points="5580.7,10061.3 5474.7,10061.3 5474.7,10061.3 5474.7,10181.2 5598,10182.9 "
     transform="matrix(0.09061678,0,0,0.09061678,-478.44593,-902.0975)" /><polygon
     style="fill:#ffffff;fill-rule:evenodd"
     id="polygon746"
     points="5580.7,10061.3 5474.7,10061.3 5474.7,10061.3 5474.7,10181.2 5598,10182.9 "
     transform="matrix(0.09061678,0,0,0.09061678,-478.44593,-902.0975)" /><polygon
     style="fill:#ffffff;fill-rule:evenodd"
     id="polygon748"
     points="5459.1,10087.4 5455.6,10090.9 5455.6,10090.9 5455.6,10182.9 5459.1,10181.2 "
     transform="matrix(0.09061678,0,0,0.09061678,-478.44593,-902.0975)" /><polygon
     style="fill:#ffffff;fill-rule:evenodd"
     id="polygon750"
     points="5459.1,10087.4 5455.6,10090.9 5455.6,10090.9 5455.6,10182.9 5459.1,10181.2 "
     transform="matrix(0.09061678,0,0,0.09061678,-478.44593,-902.0975)" /><polygon
     style="fill:#ffffff;fill-rule:evenodd"
     id="polygon752"
     points="5389.6,10196.8 5323.6,10196.8 5323.6,10196.8 5318.4,10231.5 5398.3,10231.5 "
     transform="matrix(0.09061678,0,0,0.09061678,-478.44593,-902.0975)" /><polygon
     style="fill:#ffffff;fill-rule:evenodd"
     id="polygon754"
     points="5389.6,10196.8 5323.6,10196.8 5323.6,10196.8 5318.4,10231.5 5398.3,10231.5 "
     transform="matrix(0.09061678,0,0,0.09061678,-478.44593,-902.0975)" /><polygon
     style="fill:#ffffff;fill-rule:evenodd"
     id="polygon756"
     points="5592.8,10196.8 5526.8,10196.8 5526.8,10196.8 5518.1,10231.5 5596.3,10231.5 "
     transform="matrix(0.09061678,0,0,0.09061678,-478.44593,-902.0975)" /><polygon
     style="fill:#ffffff;fill-rule:evenodd"
     id="polygon758"
     points="5592.8,10196.8 5526.8,10196.8 5526.8,10196.8 5518.1,10231.5 5596.3,10231.5 "
     transform="matrix(0.09061678,0,0,0.09061678,-478.44593,-902.0975)" /></svg>