<?xml version="1.0" encoding="UTF-8" standalone="no"?>
<!-- Generator: Adobe Illustrator 19.2.0, SVG Export Plug-In . SVG Version: 6.00 Build 0)  -->

<svg
   xmlns:dc="http://purl.org/dc/elements/1.1/"
   xmlns:cc="http://creativecommons.org/ns#"
   xmlns:rdf="http://www.w3.org/1999/02/22-rdf-syntax-ns#"
   xmlns:svg="http://www.w3.org/2000/svg"
   xmlns="http://www.w3.org/2000/svg"
   xmlns:sodipodi="http://sodipodi.sourceforge.net/DTD/sodipodi-0.dtd"
   xmlns:inkscape="http://www.inkscape.org/namespaces/inkscape"
   version="1.1"
   id="Layer_1"
   x="0px"
   y="0px"
   viewBox="0 0 32 32"
   enable-background="new 0 0 32 32"
   xml:space="preserve"
   inkscape:version="0.91 r13725"
   sodipodi:docname="icon - Copy (41) - Copy.svg"><metadata
     id="metadata8"><rdf:RDF><cc:Work
         rdf:about=""><dc:format>image/svg+xml</dc:format><dc:type
           rdf:resource="http://purl.org/dc/dcmitype/StillImage" /><dc:title /></cc:Work></rdf:RDF></metadata><defs
     id="defs6" /><sodipodi:namedview
     pagecolor="#ffffff"
     bordercolor="#666666"
     borderopacity="1"
     objecttolerance="10"
     gridtolerance="10"
     guidetolerance="10"
     inkscape:pageopacity="0"
     inkscape:pageshadow="2"
     inkscape:window-width="1280"
     inkscape:window-height="962"
     id="namedview4"
     showgrid="false"
     inkscape:zoom="24.8125"
     inkscape:cx="16"
     inkscape:cy="16"
     inkscape:window-x="1272"
     inkscape:window-y="-8"
     inkscape:window-maximized="1"
     inkscape:current-layer="Layer_1" /><polygon
     style="fill:#6f6f6e;fill-rule:evenodd"
     id="polygon550"
     points="3703.2,9196.2 3705,9196.2 3706.8,9194.4 3708.6,9192.6 3710.4,9190.8 3710.4,9156.6 3872.4,9156.6 3872.4,9187.2 3874.2,9190.8 3874.2,9192.6 3876,9194.4 3879.6,9196.2 3881.4,9199.8 3885,9201.6 3899.4,9201.6 3901.2,9199.8 3903,9198 3904.8,9196.2 3906.6,9196.2 3908.4,9194.4 3908.4,9192.6 3910.2,9190.8 3912,9187.2 3912,9156.6 3935.4,9156.6 3933.6,9093.6 3910.2,9093.6 3910.2,9099 3908.4,9100.8 3908.4,9102.6 3906.6,9104.4 3904.8,9104.4 3904.8,9108 3903,9108 3901.2,9109.8 3899.4,9109.8 3897.6,9111.6 3885,9111.6 3883.2,9109.8 3881.4,9109.8 3879.6,9108 3877.8,9108 3877.8,9106.2 3876,9104.4 3874.2,9102.6 3874.2,9100.8 3872.4,9099 3710.4,9099 3710.4,9100.8 3708.6,9102.6 3706.8,9104.4 3705,9108 3703.2,9108 3703.2,9109.8 3699.6,9111.6 3685.2,9111.6 3683.4,9109.8 3679.8,9106.2 3676.2,9102.6 3676.2,9100.8 3674.4,9099 3674.4,9093.6 3649.2,9093.6 3649.2,9093.6 3649.2,9156.6 3672.6,9156.6 3672.6,9189 3674.4,9192.6 3678,9196.2 3679.8,9198 3683.4,9199.8 3685.2,9199.8 3687,9201.6 3696,9201.6 3697.8,9199.8 3699.6,9199.8 "
     transform="matrix(0.09160757,0,0,0.09160757,-331.12127,-811.43621)" /><polygon
     style="fill:#6f6f6e;fill-rule:evenodd"
     id="polygon552"
     points="3721.2,8902.8 3719.4,8899.2 3719.4,8895.6 3721.2,8892 3723,8890.2 3726.6,8888.4 3791.4,8888.4 3791.4,8863.2 3755.4,8865 3739.2,8865 3712.2,8872.2 3681.6,8883 3676.2,8886.6 3669,8892 3663.6,8902.8 3649.2,9018 3649.2,9093.6 3674.4,9093.6 3674.4,9086.4 3676.2,9084.6 3676.2,9082.8 3678,9081 3683.4,9075.6 3685.2,9075.6 3688.8,9073.8 3697.8,9073.8 3701.4,9075.6 3703.2,9075.6 3705,9077.4 3706.8,9079.2 3708.6,9081 3708.6,9082.8 3710.4,9084.6 3710.4,9088.2 3712.2,9090 3712.2,9095.4 3710.4,9097.2 3710.4,9099 3793.2,9099 3791.4,9027 3690.6,9027 3690.6,9027 3687,9027 3685.2,9023.4 3683.4,9021.6 3683.4,9016.2 3692.4,8933.4 3692.4,8928 3694.2,8926.2 3697.8,8922.6 3791.4,8922.6 3791.4,8906.4 3726.6,8906.4 3724.8,8904.6 "
     transform="matrix(0.09160757,0,0,0.09160757,-331.12127,-811.43621)" /><polygon
     style="fill:#6f6f6e;fill-rule:evenodd"
     id="polygon554"
     points="3897.6,9075.6 3899.4,9075.6 3901.2,9077.4 3903,9077.4 3904.8,9079.2 3904.8,9081 3906.6,9082.8 3908.4,9084.6 3908.4,9086.4 3910.2,9088.2 3910.2,9093.6 3933.6,9093.6 3933.6,9018 3919.2,8902.8 3913.8,8892 3908.4,8886.6 3903,8883 3872.4,8872.2 3845.4,8865 3827.4,8865 3791.4,8863.2 3791.4,8888.4 3858,8888.4 3861.6,8890.2 3863.4,8892 3865.2,8895.6 3863.4,8899.2 3861.6,8902.8 3858,8904.6 3856.2,8906.4 3791.4,8906.4 3791.4,8922.6 3886.8,8922.6 3890.4,8926.2 3892.2,8929.8 3901.2,9016.2 3901.2,9021.6 3899.4,9023.4 3895.8,9025.2 3894,9027 3894,9027 3791.4,9027 3793.2,9099 3872.4,9099 3872.4,9088.2 3874.2,9084.6 3874.2,9082.8 3877.8,9079.2 3879.6,9077.4 3881.4,9075.6 3883.2,9075.6 3886.8,9073.8 3895.8,9073.8 "
     transform="matrix(0.09160757,0,0,0.09160757,-331.12127,-811.43621)" /></svg>