<?xml version="1.0" encoding="UTF-8" standalone="no"?>
<!-- Generator: Adobe Illustrator 19.2.0, SVG Export Plug-In . SVG Version: 6.00 Build 0)  -->

<svg
   xmlns:dc="http://purl.org/dc/elements/1.1/"
   xmlns:cc="http://creativecommons.org/ns#"
   xmlns:rdf="http://www.w3.org/1999/02/22-rdf-syntax-ns#"
   xmlns:svg="http://www.w3.org/2000/svg"
   xmlns="http://www.w3.org/2000/svg"
   xmlns:sodipodi="http://sodipodi.sourceforge.net/DTD/sodipodi-0.dtd"
   xmlns:inkscape="http://www.inkscape.org/namespaces/inkscape"
   version="1.1"
   id="Layer_1"
   x="0px"
   y="0px"
   viewBox="0 0 32 32"
   enable-background="new 0 0 32 32"
   xml:space="preserve"
   inkscape:version="0.91 r13725"
   sodipodi:docname="icon - Copy (61) - Copy - Copy.svg"><metadata
     id="metadata8"><rdf:RDF><cc:Work
         rdf:about=""><dc:format>image/svg+xml</dc:format><dc:type
           rdf:resource="http://purl.org/dc/dcmitype/StillImage" /><dc:title /></cc:Work></rdf:RDF></metadata><defs
     id="defs6" /><sodipodi:namedview
     pagecolor="#ffffff"
     bordercolor="#666666"
     borderopacity="1"
     objecttolerance="10"
     gridtolerance="10"
     guidetolerance="10"
     inkscape:pageopacity="0"
     inkscape:pageshadow="2"
     inkscape:window-width="1280"
     inkscape:window-height="962"
     id="namedview4"
     showgrid="false"
     inkscape:zoom="24.8125"
     inkscape:cx="16"
     inkscape:cy="16"
     inkscape:window-x="1272"
     inkscape:window-y="-8"
     inkscape:window-maximized="1"
     inkscape:current-layer="Layer_1" /><path
     style="fill:#6f6f6e"
     inkscape:connector-curvature="0"
     id="path782"
     d="m 13.842699,18.14929 c 0,-0.854 0.6941,-1.541 1.5417,-1.541 0.8549,0 1.5418,0.687 1.5418,1.541 0,0.848 -0.6942,1.542 -1.5418,1.542 -0.8476,0 -1.5417,-0.694 -1.5417,-1.542 z" /><path
     style="fill:#6f6f6e;fill-rule:evenodd"
     inkscape:connector-curvature="0"
     id="path784"
     d="m 16.180899,29.66529 -0.6284,-3.325 -2.8716,-1.556 -0.2485,-0.256 -0.3872,0 -0.1535,-0.138 -0.095,-3.332 0.2338,-0.117 0.7599,-0.01 -1.0084,-1.527 -0.5041,-2.601 c 0,0 -0.1535,-0.848 0.7599,-0.965 0.906,-0.117 0.9572,0.782 0.9572,0.782 l 0.4457,2.375 0.7891,1.169 2.3309,0 0.1169,0.109 3.1127,-3.083 c 0,0 0.5919,-0.395 1.1399,0.161 0.4822,0.482 0.088,1.015 0.088,1.015 l -3.8361,3.829 0,1.038 2.5574,0.906 c 0,0 0.3069,0.04 0.5261,0.979 0.2192,0.928 0.6357,3.354 0.6357,3.354 0,0 0.1388,0.752 -0.5919,0.898 -0.7599,0.161 -1.1106,-0.518 -1.1106,-0.518 l -0.5919,-3.15 -2.1043,-0.789 -0.095,0.132 0.7453,0.387 0.1607,0.512 0.5042,3.368 c 0,0 0.095,0.745 -0.643,0.921 -0.6649,0.16 -0.9937,-0.563 -0.9937,-0.563 z" /><path
     style="fill:#6f6f6e;fill-rule:evenodd"
     inkscape:connector-curvature="0"
     id="path786"
     d="m 10.715299,16.15529 -6.4445999,-8.7979998 -1.3737,-0.877 c 0,0 2.0167,-1.746 4.6983,-1.877 2.7181999,-0.132 3.9383999,0.613 5.6700999,1.476 0.066,0.03 0.57,-1.111 0.57,-1.111 0,0 -2.1117,-1.578 -5.2682999,-1.578 -3.1565,0 -5.239,0.672 -7.1168,2.55 -0.70149997,0.709 -1.54179997,-0.541 -0.50419997,-1.308 1.03759997,-0.775 5.10019997,-2.8860001 10.10539987,-2.8860001 4.9978,0 6.8172,-0.168 12.2535,2.1480001 5.4363,2.316 7.4018,6.2759998 8.1544,9.3009998 0.029,0.132 -2.1847,1.813 -2.1847,1.813 l -1.0156,-0.117 -1.476,0.07 -1.2714,0.293 -3.9603,2.382 -0.738,-1.111 1.1033,-0.774 -1.6148,-0.738 3.7265,-7.9869998 c 0,0 3.7265,4.9619998 4.1649,6.7149998 0.037,0.132 1.7756,-0.804 1.7756,-0.804 0,0 -2.6524,-6.0059998 -6.1086,-7.4819998 -3.4561,-1.476 -5.0709,-1.819 -8.4905,-0.54 -0.2704,0.102 -1.2056,1.848 -1.2056,1.848 0,0 3.2515,-1.205 4.2599,-1.205 1.0083,0 3.7557,0.423 4.6325,1.008 0.1023,0.07 -3.5219,7.6499998 -3.5219,7.6499998 l -1.4468,0.132 -0.7745,1.98 -1.4102,-0.468 1.2787,-2.886 -1.8779,-3.4199998 -2.3162,-2.25 -0.7088,-0.972 c -0.2046,0.07 2.6889,9.3669998 2.6889,9.3669998 l -1.4102,0.468 -2.8204,-9.7979998 -4.5302999,1.139 5.6700999,7.7529998 -1.1618,0.899 z" /></svg>