<?xml version="1.0" encoding="UTF-8" standalone="no"?>
<!-- Generator: Adobe Illustrator 19.2.0, SVG Export Plug-In . SVG Version: 6.00 Build 0)  -->

<svg
   xmlns:dc="http://purl.org/dc/elements/1.1/"
   xmlns:cc="http://creativecommons.org/ns#"
   xmlns:rdf="http://www.w3.org/1999/02/22-rdf-syntax-ns#"
   xmlns:svg="http://www.w3.org/2000/svg"
   xmlns="http://www.w3.org/2000/svg"
   xmlns:sodipodi="http://sodipodi.sourceforge.net/DTD/sodipodi-0.dtd"
   xmlns:inkscape="http://www.inkscape.org/namespaces/inkscape"
   version="1.1"
   id="Layer_1"
   x="0px"
   y="0px"
   viewBox="0 0 32 32"
   enable-background="new 0 0 32 32"
   xml:space="preserve"
   inkscape:version="0.91 r13725"
   sodipodi:docname="icon - Copy (5).svg"><metadata
     id="metadata8"><rdf:RDF><cc:Work
         rdf:about=""><dc:format>image/svg+xml</dc:format><dc:type
           rdf:resource="http://purl.org/dc/dcmitype/StillImage" /><dc:title /></cc:Work></rdf:RDF></metadata><defs
     id="defs6" /><sodipodi:namedview
     pagecolor="#ffffff"
     bordercolor="#666666"
     borderopacity="1"
     objecttolerance="10"
     gridtolerance="10"
     guidetolerance="10"
     inkscape:pageopacity="0"
     inkscape:pageshadow="2"
     inkscape:window-width="1280"
     inkscape:window-height="962"
     id="namedview4"
     showgrid="false"
     inkscape:zoom="24.8125"
     inkscape:cx="16"
     inkscape:cy="16"
     inkscape:window-x="1272"
     inkscape:window-y="-8"
     inkscape:window-maximized="1"
     inkscape:current-layer="Layer_1" /><path
     style="fill:#6f6f6e;fill-rule:evenodd"
     inkscape:connector-curvature="0"
     id="path172"
     d="m 17.553647,3.922989 -3.03921,0 -1.51961,0.30392 -1.36765,0.60784 -1.21568,0.60785 -0.15196,0 5.62255,6.68627 0.30392,0 5.47059,-6.53431 -1.36765,-0.75981 -2.7353,-0.91176 z m -0.91176,11.2451 4.2549,7.29411 0.60785,-0.45588 0.7598,-0.45588 0.60784,-0.60784 0.45588,-0.60785 0.60785,-0.60784 0.45588,-0.60784 0.30392,-0.75981 0.30392,-0.7598 -8.35784,-2.43137 z m -7.7499999,-8.50981 0,0.15196 -0.7598,0.75981 -0.75981,1.06372 -0.60784,1.0637303 -0.30392,1.0637197 -0.30392,1.21569 -0.15197,1.21569 0,1.21568 0.1182,1.02996 -0.1182,0.0338 0.15197,0.15196 -0.0338,-0.17729 8.0876899,-1.95016 0,-0.15196 0.15196,0 0,-0.15196 -0.15196,0 -5.3186299,-6.53432 z m 14.1323499,0.30392 -5.47059,6.53432 8.05393,2.27941 0.15196,-1.21569 0,-2.27941 -0.30392,-1.21569 -0.45589,-1.2156797 -0.45588,-1.0637303 -0.7598,-0.91176 -0.75981,-0.91177 z m -8.05392,8.35785 -8.3578399,2.12745 0.30392,0.7598 0.45588,0.7598 0.45588,0.59941 0.45589,0.7598 0.60784,0.60784 0.60784,0.45589 0.7598099,0.60784 0.60784,0.45588 4.10294,-7.13371 z M 15.882087,0.57984896 7.8281571,3.315139 l -4.71078,7.14216 0.60784,8.35784 5.62255,6.38236 -0.15196,0 -3.64706,6.38235 20.5147099,0 -3.64706,-6.38235 5.62255,-6.38236 0.60784,-8.35784 -4.71078,-7.14216 -8.05392,-2.73529004 z" /></svg>