<?xml version="1.0" encoding="UTF-8" standalone="no"?>
<!-- Generator: Adobe Illustrator 19.2.0, SVG Export Plug-In . SVG Version: 6.00 Build 0)  -->

<svg
   xmlns:dc="http://purl.org/dc/elements/1.1/"
   xmlns:cc="http://creativecommons.org/ns#"
   xmlns:rdf="http://www.w3.org/1999/02/22-rdf-syntax-ns#"
   xmlns:svg="http://www.w3.org/2000/svg"
   xmlns="http://www.w3.org/2000/svg"
   xmlns:sodipodi="http://sodipodi.sourceforge.net/DTD/sodipodi-0.dtd"
   xmlns:inkscape="http://www.inkscape.org/namespaces/inkscape"
   version="1.1"
   id="Layer_1"
   x="0px"
   y="0px"
   viewBox="0 0 32 32"
   enable-background="new 0 0 32 32"
   xml:space="preserve"
   inkscape:version="0.91 r13725"
   sodipodi:docname="icon - Copy (16).svg"><metadata
     id="metadata8"><rdf:RDF><cc:Work
         rdf:about=""><dc:format>image/svg+xml</dc:format><dc:type
           rdf:resource="http://purl.org/dc/dcmitype/StillImage" /><dc:title /></cc:Work></rdf:RDF></metadata><defs
     id="defs6" /><sodipodi:namedview
     pagecolor="#ffffff"
     bordercolor="#666666"
     borderopacity="1"
     objecttolerance="10"
     gridtolerance="10"
     guidetolerance="10"
     inkscape:pageopacity="0"
     inkscape:pageshadow="2"
     inkscape:window-width="1280"
     inkscape:window-height="962"
     id="namedview4"
     showgrid="false"
     inkscape:zoom="24.8125"
     inkscape:cx="16"
     inkscape:cy="16"
     inkscape:window-x="1272"
     inkscape:window-y="-8"
     inkscape:window-maximized="1"
     inkscape:current-layer="Layer_1" /><polygon
     style="fill:#6f6f6e;fill-rule:evenodd"
     id="polygon698"
     points="5614.7,4354.7 5621.8,4342.1 5623.6,4329.5 5621.8,4316.9 5614.7,4304.3 5602.1,4297.1 5589.4,4295.3 5576.8,4297.1 5564.2,4304.3 5557.1,4316.9 5555.3,4329.5 5557.1,4342.1 5564.2,4354.7 5576.8,4361.9 5589.4,4363.7 5602.1,4361.9 "
     transform="matrix(0.07862034,0,0,0.07862034,-413.24542,-332.03851)" /><polygon
     style="fill:#6f6f6e;fill-rule:evenodd"
     id="polygon700"
     points="5605.6,4288.1 5609.2,4288.1 5598.5,4293.5 5609.2,4298.9 5618.2,4288.1 5611.1,4288.1 5627.3,4271.9 5620,4270.1 "
     transform="matrix(0.07862034,0,0,0.07862034,-413.24542,-332.03851)" /><polygon
     style="fill:#6f6f6e;fill-rule:evenodd"
     id="polygon702"
     points="5627.3,4311.5 5630.9,4316.9 5621.8,4311.5 5625.4,4325.9 5641.7,4325.9 5632.6,4318.7 5657.9,4325.9 5648.8,4315.1 "
     transform="matrix(0.07862034,0,0,0.07862034,-413.24542,-332.03851)" /><polygon
     style="fill:#6f6f6e;fill-rule:evenodd"
     id="polygon704"
     points="5630.9,4343.9 5630.9,4349.3 5623.6,4340.3 5618.2,4351.1 5630.9,4358.3 5629.1,4352.9 5647.1,4370.9 5645.3,4363.7 "
     transform="matrix(0.07862034,0,0,0.07862034,-413.24542,-332.03851)" /><polygon
     style="fill:#6f6f6e;fill-rule:evenodd"
     id="polygon706"
     points="5609.2,4369.1 5607.4,4372.7 5607.4,4360.1 5594.8,4365.5 5602.1,4376.3 5605.6,4374.5 5612.9,4396.1 5616.5,4390.7 "
     transform="matrix(0.07862034,0,0,0.07862034,-413.24542,-332.03851)" /><polygon
     style="fill:#6f6f6e;fill-rule:evenodd"
     id="polygon708"
     points="5546.2,4345.7 5555.3,4345.7 5551.7,4336.7 5537.3,4342.1 5542.6,4343.9 5521.1,4349.3 5528.2,4352.9 5549.8,4349.3 "
     transform="matrix(0.07862034,0,0,0.07862034,-413.24542,-332.03851)" /><polygon
     style="fill:#6f6f6e;fill-rule:evenodd"
     id="polygon710"
     points="5548,4315.1 5548,4309.7 5553.5,4318.7 5558.8,4307.9 5546.2,4302.5 5549.8,4307.9 5530,4293.5 5531.8,4302.5 "
     transform="matrix(0.07862034,0,0,0.07862034,-413.24542,-332.03851)" /><polygon
     style="fill:#6f6f6e;fill-rule:evenodd"
     id="polygon712"
     points="5575,4369.1 5567.9,4370.9 5578.6,4365.5 5566.1,4358.3 5558.8,4374.5 5566.1,4370.9 5549.8,4392.5 5558.8,4388.9 "
     transform="matrix(0.07862034,0,0,0.07862034,-413.24542,-332.03851)" /><polygon
     style="fill:#6f6f6e;fill-rule:evenodd"
     id="polygon714"
     points="5569.7,4288.1 5571.5,4282.7 5575,4295.3 5584.1,4293.5 5576.8,4273.7 5575,4280.9 5567.9,4255.7 5562.4,4262.9 "
     transform="matrix(0.07862034,0,0,0.07862034,-413.24542,-332.03851)" /><polygon
     style="fill:#6f6f6e;fill-rule:evenodd"
     id="polygon716"
     points="5441.8,4478.9 5447.3,4477.1 5449.1,4477.1 5450.9,4475.3 5452.6,4475.3 5454.4,4473.5 5456.2,4471.7 5458,4468.1 5461.7,4462.7 5465.3,4459.1 5467.1,4455.5 5468.8,4451.9 5468.8,4442.9 5467.1,4441.1 5465.3,4439.3 5463.5,4437.5 5461.7,4435.7 5458,4432.1 5454.4,4428.5 5454.4,4421.3 5456.2,4421.3 5456.2,4419.5 5459.8,4419.5 5461.7,4417.7 5465.3,4417.7 5468.8,4415.9 5474.2,4414.1 5477.9,4410.5 5481.5,4408.7 5483.2,4406.9 5485,4406.9 5486.8,4403.3 5486.8,4399.7 5488.6,4397.9 5488.6,4379.9 5486.8,4376.3 5486.8,4372.7 5485,4369.1 5483.2,4367.3 5483.2,4365.5 5479.7,4365.5 5476.1,4361.9 5467.1,4356.5 5463.5,4352.9 5461.7,4352.9 5459.8,4351.1 5459.8,4349.3 5458,4345.7 5458,4343.9 5459.8,4342.1 5459.8,4338.5 5461.7,4334.9 5463.5,4331.3 5463.5,4322.3 5461.7,4320.5 5461.7,4318.7 5459.8,4315.1 5456.2,4307.9 5454.4,4304.3 5452.6,4302.5 5450.9,4298.9 5447.3,4297.1 5445.4,4297.1 5443.6,4295.3 5440,4295.3 5436.5,4293.5 5432.9,4293.5 5431.1,4295.3 5425.6,4295.3 5423.8,4297.1 5420.3,4297.1 5416.7,4300.7 5414.8,4302.5 5407.6,4302.5 5407.6,4300.7 5405.9,4298.9 5405.9,4297.1 5404.1,4289.9 5404.1,4284.5 5402.3,4282.7 5402.3,4280.9 5398.6,4277.3 5396.8,4275.5 5395,4273.7 5393.2,4271.9 5389.7,4270.1 5386.1,4268.3 5384.2,4266.5 5380.6,4264.7 5369.8,4264.7 5366.2,4266.5 5364.4,4266.5 5362.6,4268.3 5360.9,4270.1 5357.3,4273.7 5353.6,4277.3 5353.6,4279.1 5351.8,4280.9 5350,4284.5 5350,4286.3 5346.5,4295.3 5344.7,4297.1 5342.9,4297.1 5341.1,4298.9 5337.4,4298.9 5337.4,4297.1 5333.8,4297.1 5332.1,4295.3 5330.3,4291.7 5326.7,4291.7 5323,4289.9 5321.2,4288.1 5314.1,4288.1 5310.4,4289.9 5306.8,4291.7 5305,4291.7 5301.5,4297.1 5297.9,4300.7 5294.2,4304.3 5292.4,4309.7 5288.8,4320.5 5288.8,4325.9 5290.6,4327.7 5290.6,4329.5 5292.4,4331.3 5292.4,4333.1 5294.2,4334.9 5296.1,4336.7 5296.1,4338.5 5297.9,4338.5 5301.5,4342.1 5303.2,4342.1 5303.2,4343.9 5305,4345.7 5306.8,4347.5 5306.8,4349.3 5305,4351.1 5303.2,4352.9 5299.7,4352.9 5294.2,4354.7 5285.3,4354.7 5281.7,4356.5 5279.8,4358.3 5278,4360.1 5274.4,4361.9 5272.6,4363.7 5270.9,4365.5 5269.1,4369.1 5265.4,4374.5 5265.4,4378.1 5263.6,4379.9 5263.6,4388.9 5265.4,4390.7 5265.4,4396.1 5267.3,4396.1 5267.3,4397.9 5270.9,4401.5 5274.4,4403.3 5278,4406.9 5279.8,4406.9 5281.7,4408.7 5285.3,4408.7 5290.6,4410.5 5303.2,4410.5 5303.2,4412.3 5305,4414.1 5305,4419.5 5303.2,4421.3 5301.5,4423.1 5297.9,4424.9 5296.1,4424.9 5294.2,4426.7 5294.2,4428.5 5292.4,4430.3 5290.6,4435.7 5287.1,4441.1 5287.1,4450.1 5288.8,4451.9 5288.8,4455.5 5290.6,4460.9 5296.1,4466.3 5297.9,4468.1 5299.7,4469.9 5303.2,4473.5 5305,4475.3 5319.4,4475.3 5324.8,4473.5 5333.8,4473.5 5339.2,4471.7 5341.1,4471.7 5342.9,4469.9 5344.7,4468.1 5346.5,4466.3 5346.5,4464.5 5353.6,4464.5 5355.4,4466.3 5357.3,4468.1 5357.3,4469.9 5357.3,4595.9 5404.1,4595.9 5404.1,4468.1 5405.9,4468.1 5407.6,4466.3 5409.4,4468.1 5411.2,4468.1 5413,4469.9 5416.7,4471.7 5420.3,4475.3 5423.8,4477.1 5427.4,4477.1 5429.2,4478.9 "
     transform="matrix(0.07862034,0,0,0.07862034,-413.24542,-332.03851)" /></svg>