<?xml version="1.0" encoding="UTF-8" standalone="no"?>
<!-- Generator: Adobe Illustrator 19.2.0, SVG Export Plug-In . SVG Version: 6.00 Build 0)  -->

<svg
   xmlns:dc="http://purl.org/dc/elements/1.1/"
   xmlns:cc="http://creativecommons.org/ns#"
   xmlns:rdf="http://www.w3.org/1999/02/22-rdf-syntax-ns#"
   xmlns:svg="http://www.w3.org/2000/svg"
   xmlns="http://www.w3.org/2000/svg"
   xmlns:sodipodi="http://sodipodi.sourceforge.net/DTD/sodipodi-0.dtd"
   xmlns:inkscape="http://www.inkscape.org/namespaces/inkscape"
   version="1.1"
   id="Layer_1"
   x="0px"
   y="0px"
   viewBox="0 0 32 32"
   enable-background="new 0 0 32 32"
   xml:space="preserve"
   inkscape:version="0.91 r13725"
   sodipodi:docname="icon - Copy (40).svg"><metadata
     id="metadata8"><rdf:RDF><cc:Work
         rdf:about=""><dc:format>image/svg+xml</dc:format><dc:type
           rdf:resource="http://purl.org/dc/dcmitype/StillImage" /><dc:title /></cc:Work></rdf:RDF></metadata><defs
     id="defs6" /><sodipodi:namedview
     pagecolor="#ffffff"
     bordercolor="#666666"
     borderopacity="1"
     objecttolerance="10"
     gridtolerance="10"
     guidetolerance="10"
     inkscape:pageopacity="0"
     inkscape:pageshadow="2"
     inkscape:window-width="1280"
     inkscape:window-height="962"
     id="namedview4"
     showgrid="false"
     inkscape:zoom="24.8125"
     inkscape:cx="16"
     inkscape:cy="16"
     inkscape:window-x="1272"
     inkscape:window-y="-8"
     inkscape:window-maximized="1"
     inkscape:current-layer="Layer_1" /><polygon
     style="fill:#6f6f6e;fill-rule:evenodd"
     id="polygon578"
     points="3803.6,8174.1 3890,8059 3864.7,8060.7 3785.6,8165.1 3783.8,8165.1 3782,8163.4 3782,8093.1 3780.1,8093.1 3710,8184.9 3702.7,8188.6 3695.6,8188.6 3688.4,8184.9 3684.7,8179.5 3682.9,8176 3682.9,8166.9 3762.1,8062.5 3765.7,8059 3814.4,8057.1 3834.1,8046.4 3825.1,8046.4 3817.9,8044.5 3810.7,8041 3805.3,8033.8 3801.7,8030.1 3800,8023 3798.2,8015.7 3796.4,8010.4 3778.4,8010.4 3794.5,7992.4 3868.4,7992.4 3868.4,7985.1 3796.4,7985.1 3776.5,7959.9 3821.5,7958.1 3798.2,7924 3623.6,7924 3623.6,8271.4 3798.2,8271.4 3787.4,8233.6 3785.6,8231.7 3783.8,8229.9 3783.8,8194 3875.6,8194 3877.4,8192.1 3879.1,8192.1 3879.1,8177.7 3877.4,8176 3807.1,8176 "
     transform="matrix(0.08879977,0,0,0.08879977,-321.31515,-703.0739)" /><polygon
     style="fill:#6f6f6e;fill-rule:evenodd"
     id="polygon580"
     points="3848.6,8044.5 3841.4,8046.4 3834.1,8046.4 3814.4,8057.1 3862.9,8057.1 3864.7,8060.7 3890,8059 3895.3,8059 3900.7,8060.7 3904.4,8064.3 3909.7,8068 3913.4,8071.5 3913.4,8080.5 3915.1,8089.5 3913.4,8229.9 3911.5,8233.6 3787.4,8233.6 3798.2,8271.4 3972.7,8271.4 3972.7,7924 3798.2,7924 3821.5,7958.1 3868.4,7958.1 3870.1,7961.7 3870.1,7983.4 3868.4,7985.1 3868.4,7992.4 3870.1,8004.9 3870.1,8010.4 3868.4,8019.3 3864.7,8030.1 3861.1,8035.5 3855.7,8041 "
     transform="matrix(0.08879977,0,0,0.08879977,-321.31515,-703.0739)" /></svg>