<?xml version="1.0" encoding="UTF-8" standalone="no"?>
<!-- Generator: Adobe Illustrator 19.2.0, SVG Export Plug-In . SVG Version: 6.00 Build 0)  -->

<svg
   xmlns:dc="http://purl.org/dc/elements/1.1/"
   xmlns:cc="http://creativecommons.org/ns#"
   xmlns:rdf="http://www.w3.org/1999/02/22-rdf-syntax-ns#"
   xmlns:svg="http://www.w3.org/2000/svg"
   xmlns="http://www.w3.org/2000/svg"
   xmlns:sodipodi="http://sodipodi.sourceforge.net/DTD/sodipodi-0.dtd"
   xmlns:inkscape="http://www.inkscape.org/namespaces/inkscape"
   version="1.1"
   id="Layer_1"
   x="0px"
   y="0px"
   viewBox="0 0 32 32"
   enable-background="new 0 0 32 32"
   xml:space="preserve"
   inkscape:version="0.91 r13725"
   sodipodi:docname="icon - Copy (47) - Copy.svg"><metadata
     id="metadata8"><rdf:RDF><cc:Work
         rdf:about=""><dc:format>image/svg+xml</dc:format><dc:type
           rdf:resource="http://purl.org/dc/dcmitype/StillImage" /><dc:title /></cc:Work></rdf:RDF></metadata><defs
     id="defs6" /><sodipodi:namedview
     pagecolor="#ffffff"
     bordercolor="#666666"
     borderopacity="1"
     objecttolerance="10"
     gridtolerance="10"
     guidetolerance="10"
     inkscape:pageopacity="0"
     inkscape:pageshadow="2"
     inkscape:window-width="1280"
     inkscape:window-height="962"
     id="namedview4"
     showgrid="false"
     inkscape:zoom="24.8125"
     inkscape:cx="16"
     inkscape:cy="16"
     inkscape:window-x="1272"
     inkscape:window-y="-8"
     inkscape:window-maximized="1"
     inkscape:current-layer="Layer_1" /><polygon
     style="fill:#0080c6;fill-rule:evenodd"
     id="polygon1034"
     points="9728.9,2054.9 9718,2038.7 9709.1,2024.3 9691,2002.7 9676.6,1982.9 9676.6,2233.1 9808,2233.1 9802.7,2215.1 9799.1,2207.9 9797.3,2191.7 9791.8,2177.3 9786.5,2164.7 9781,2148.5 9773.9,2135.9 9764.9,2116.1 9759.4,2101.7 9746.8,2083.7 "
     transform="matrix(0.08010336,0,0,0.08010336,-757.29806,-154.87648)" /><polygon
     style="fill:#0080c6;fill-rule:evenodd"
     id="polygon1036"
     points="9763,2305.1 9786.5,2292.5 9806.3,2279.9 9824.2,2267.3 9827.9,2258.3 9827.9,2252.9 9656.8,2252.9 9656.8,1941.5 9651.5,1939.7 9500.3,2233.1 9642.5,2233.1 9642.5,2252.9 9478.6,2252.9 9487.7,2270.9 9505.6,2287.1 9527.3,2303.3 9552.5,2317.7 9581.3,2326.7 9734.2,2326.7 9745,2314.1 "
     transform="matrix(0.08010336,0,0,0.08010336,-757.29806,-154.87648)" /></svg>