<?xml version="1.0" encoding="UTF-8" standalone="no"?>
<!-- Generator: Adobe Illustrator 19.2.0, SVG Export Plug-In . SVG Version: 6.00 Build 0)  -->

<svg
   xmlns:dc="http://purl.org/dc/elements/1.1/"
   xmlns:cc="http://creativecommons.org/ns#"
   xmlns:rdf="http://www.w3.org/1999/02/22-rdf-syntax-ns#"
   xmlns:svg="http://www.w3.org/2000/svg"
   xmlns="http://www.w3.org/2000/svg"
   xmlns:sodipodi="http://sodipodi.sourceforge.net/DTD/sodipodi-0.dtd"
   xmlns:inkscape="http://www.inkscape.org/namespaces/inkscape"
   version="1.1"
   id="Layer_1"
   x="0px"
   y="0px"
   viewBox="0 0 32 32"
   enable-background="new 0 0 32 32"
   xml:space="preserve"
   inkscape:version="0.91 r13725"
   sodipodi:docname="icon - Copy (48) - Copy.svg"><metadata
     id="metadata8"><rdf:RDF><cc:Work
         rdf:about=""><dc:format>image/svg+xml</dc:format><dc:type
           rdf:resource="http://purl.org/dc/dcmitype/StillImage" /><dc:title /></cc:Work></rdf:RDF></metadata><defs
     id="defs6" /><sodipodi:namedview
     pagecolor="#ffffff"
     bordercolor="#666666"
     borderopacity="1"
     objecttolerance="10"
     gridtolerance="10"
     guidetolerance="10"
     inkscape:pageopacity="0"
     inkscape:pageshadow="2"
     inkscape:window-width="1280"
     inkscape:window-height="962"
     id="namedview4"
     showgrid="false"
     inkscape:zoom="24.8125"
     inkscape:cx="16"
     inkscape:cy="16"
     inkscape:window-x="1272"
     inkscape:window-y="-8"
     inkscape:window-maximized="1"
     inkscape:current-layer="Layer_1" /><polygon
     style="fill:#0080c6;fill-rule:evenodd"
     id="polygon1038"
     points="9555,2976.7 9549.6,2982 9549.6,3046.8 9555,3052.2 9841.2,3052.2 9844.9,3046.8 9844.9,2982 9841.2,2976.7 "
     transform="matrix(0.06859925,0,0,0.06859925,-647.43364,-195.06188)" /><polygon
     style="fill:#0080c6;fill-rule:evenodd"
     id="polygon1040"
     points="9614.5,2893.8 9607.2,2901 9607.2,2944.2 9614.5,2951.4 9691.9,2951.4 9700.9,2944.2 9700.9,2906.4 9691.9,2899.2 "
     transform="matrix(0.06859925,0,0,0.06859925,-647.43364,-195.06188)" /><polygon
     style="fill:#0080c6;fill-rule:evenodd"
     id="polygon1042"
     points="9634.3,3239.4 9643.3,3243 9655.9,3248.4 9666.7,3253.8 9673.9,3252 9686.5,3248.4 9704.5,3239.4 9718.9,3239.4 9731.5,3241.2 9740.5,3246.7 9751.2,3250.2 9760.2,3253.8 9774.6,3250.2 9787.2,3244.8 9799.9,3239.4 9814.3,3235.8 9823.3,3237.6 9832.2,3241.2 9843.1,3246.7 9852.1,3250.2 9862.9,3250.2 9862.9,3212.4 9850.2,3212.4 9832.2,3208.8 9816.1,3205.2 9803.4,3207 9778.3,3210.6 9765.7,3214.2 9753.1,3214.2 9735,3208.8 9717.1,3205.2 9700.9,3208.8 9677.4,3212.4 9666.7,3214.2 9645,3208.8 9628.9,3205.2 9616.2,3205.2 9605.5,3208.8 9591.1,3212.4 9576.7,3214.2 9565.9,3214.2 9555,3210.6 9538.9,3207 9526.2,3205.2 9515.5,3207 9502.9,3208.8 9486.7,3212.4 9474.1,3212.4 9475.9,3248.4 9486.7,3250.2 9499.3,3244.8 9511.9,3237.6 9520.9,3235.8 9533.4,3237.6 9547.9,3244.8 9560.5,3248.4 9574.9,3253.8 9583.9,3252 9598.3,3246.7 9612.6,3239.4 "
     transform="matrix(0.06859925,0,0,0.06859925,-647.43364,-195.06188)" /><polygon
     style="fill:#0080c6;fill-rule:evenodd"
     id="polygon1044"
     points="9655.9,3189 9668.4,3190.8 9675.7,3190.8 9697.2,3185.4 9717.1,3183.6 9738.6,3185.4 9756.7,3190.8 9763.9,3190.8 9774.6,3189 9799.9,3183.6 9816.1,3183.6 9837.6,3185.4 9843.1,3187.2 9862.9,3160.2 9873.6,3131.4 9897.1,3082.8 9889.9,3072 9452.4,3072 9445.2,3082.8 9502.9,3185.4 9511.9,3183.6 9526.2,3183.6 9542.4,3185.4 9560.5,3189 9569.5,3190.8 9574.9,3192.6 9585.7,3190.8 9600,3185.4 9614.5,3183.6 9630.7,3183.6 9641.5,3185.4 "
     transform="matrix(0.06859925,0,0,0.06859925,-647.43364,-195.06188)" /></svg>