<?xml version="1.0" encoding="UTF-8" standalone="no"?>
<!-- Generator: Adobe Illustrator 19.2.0, SVG Export Plug-In . SVG Version: 6.00 Build 0)  -->

<svg
   xmlns:dc="http://purl.org/dc/elements/1.1/"
   xmlns:cc="http://creativecommons.org/ns#"
   xmlns:rdf="http://www.w3.org/1999/02/22-rdf-syntax-ns#"
   xmlns:svg="http://www.w3.org/2000/svg"
   xmlns="http://www.w3.org/2000/svg"
   xmlns:sodipodi="http://sodipodi.sourceforge.net/DTD/sodipodi-0.dtd"
   xmlns:inkscape="http://www.inkscape.org/namespaces/inkscape"
   version="1.1"
   id="Layer_1"
   x="0px"
   y="0px"
   viewBox="0 0 32 32"
   enable-background="new 0 0 32 32"
   xml:space="preserve"
   inkscape:version="0.91 r13725"
   sodipodi:docname="icon - Copy (51) - Copy.svg"><metadata
     id="metadata8"><rdf:RDF><cc:Work
         rdf:about=""><dc:format>image/svg+xml</dc:format><dc:type
           rdf:resource="http://purl.org/dc/dcmitype/StillImage" /><dc:title /></cc:Work></rdf:RDF></metadata><defs
     id="defs6" /><sodipodi:namedview
     pagecolor="#ffffff"
     bordercolor="#666666"
     borderopacity="1"
     objecttolerance="10"
     gridtolerance="10"
     guidetolerance="10"
     inkscape:pageopacity="0"
     inkscape:pageshadow="2"
     inkscape:window-width="1280"
     inkscape:window-height="962"
     id="namedview4"
     showgrid="false"
     inkscape:zoom="24.8125"
     inkscape:cx="16"
     inkscape:cy="16"
     inkscape:window-x="1272"
     inkscape:window-y="-8"
     inkscape:window-maximized="1"
     inkscape:current-layer="Layer_1" /><polygon
     style="fill:#6f6f6e;fill-rule:evenodd"
     id="polygon944"
     points="8082.4,10839.4 8082.4,10911.4 8170.7,10978 8170.7,11197.6 8228.2,11197.6 8228.2,11197.6 8228.2,11021.2 8240.9,11032 8276.9,10988.8 "
     transform="matrix(0.07971201,0,0,0.07971201,-628.22803,-862.42768)" /><polygon
     style="fill:#6f6f6e;fill-rule:evenodd"
     id="polygon946"
     points="7996,10978 8082.4,10911.4 8082.4,10839.4 7888,10988.8 7925.9,11032 7925.9,11032 7940.3,11021.2 7940.3,11197.6 7996,11197.6 "
     transform="matrix(0.07971201,0,0,0.07971201,-628.22803,-862.42768)" /><path
     style="fill:#6f6f6e;fill-rule:evenodd"
     inkscape:connector-curvature="0"
     id="path948"
     d="m 17.040662,17.81631 2.4392,-1.148 0.7174,-2.152 -1.4348,-1.866 -2.7262,-0.717 -2.8696,0.861 -1.4348,1.865 0.8609,2.009 2.5826,1.148 0,10.904 1.8653,0 0,-0.43 2.2957,0 0,-1.435 -2.2957,0 0,-1.578 2.2957,0 0,-1.292 -2.2957,0 0,-6.169 0,0 z m -1.8653,-4.448 -0.4304,0 -0.1435,0.143 -0.287,0 -0.2869,0.287 -0.1435,0 -0.1435,0.144 -0.1435,0.143 -0.1435,0.144 -0.1434,0.143 -0.1435,0.144 0,0.717 0.1435,0.143 0,0.144 0.1434,0.143 0.1435,0.144 0.287,0.143 0.287,0.287 0.1434,0 0.1435,0.144 0.4305,0 0.2869,0.143 1.7218,0 0.1435,-0.143 0.2869,0 0.287,-0.144 0.1435,0 0.1435,-0.143 0.1435,0 0.2869,-0.144 0.1435,-0.143 0.1435,-0.144 0.1435,-0.143 0,-0.144 0.1434,-0.143 0,-0.717 -0.1434,-0.144 0,-0.143 -0.1435,0 -0.1435,-0.144 0,-0.143 -0.1435,0 -0.1435,-0.144 -0.1434,-0.143 -0.1435,0 -0.287,-0.144 -0.287,0 -0.1434,-0.143 -0.4305,0 -0.1435,-0.144 -1.0043,0 -0.287,0.144 -0.1435,0 0,0 z" /></svg>