<?xml version="1.0" encoding="UTF-8" standalone="no"?>
<!-- Generator: Adobe Illustrator 19.2.0, SVG Export Plug-In . SVG Version: 6.00 Build 0)  -->

<svg
   xmlns:dc="http://purl.org/dc/elements/1.1/"
   xmlns:cc="http://creativecommons.org/ns#"
   xmlns:rdf="http://www.w3.org/1999/02/22-rdf-syntax-ns#"
   xmlns:svg="http://www.w3.org/2000/svg"
   xmlns="http://www.w3.org/2000/svg"
   xmlns:sodipodi="http://sodipodi.sourceforge.net/DTD/sodipodi-0.dtd"
   xmlns:inkscape="http://www.inkscape.org/namespaces/inkscape"
   version="1.1"
   id="Layer_1"
   x="0px"
   y="0px"
   viewBox="0 0 32 32"
   enable-background="new 0 0 32 32"
   xml:space="preserve"
   inkscape:version="0.91 r13725"
   sodipodi:docname="icon - Copy (54) - Copy - Copy.svg"><metadata
     id="metadata8"><rdf:RDF><cc:Work
         rdf:about=""><dc:format>image/svg+xml</dc:format><dc:type
           rdf:resource="http://purl.org/dc/dcmitype/StillImage" /><dc:title /></cc:Work></rdf:RDF></metadata><defs
     id="defs6" /><sodipodi:namedview
     pagecolor="#ffffff"
     bordercolor="#666666"
     borderopacity="1"
     objecttolerance="10"
     gridtolerance="10"
     guidetolerance="10"
     inkscape:pageopacity="0"
     inkscape:pageshadow="2"
     inkscape:window-width="1280"
     inkscape:window-height="962"
     id="namedview4"
     showgrid="false"
     inkscape:zoom="24.8125"
     inkscape:cx="16"
     inkscape:cy="16"
     inkscape:window-x="1272"
     inkscape:window-y="-8"
     inkscape:window-maximized="1"
     inkscape:current-layer="Layer_1" /><polygon
     style="fill:#6f6f6e;fill-rule:evenodd"
     id="polygon912"
     points="8085.6,7984.5 7891.2,8135.6 7929,8178.8 7941.6,8168 7941.6,8342.6 8085.6,8342.6 8085.6,8285 7999.2,8285 7999.2,8168 8085.6,8168 8085.6,8123 7999.2,8123 8085.6,8056.4 "
     transform="matrix(0.07973251,0,0,0.07973251,-628.64489,-635.01723)" /><polygon
     style="fill:#6f6f6e;fill-rule:evenodd"
     id="polygon914"
     points="8085.6,7984.5 8085.6,8056.4 8171.9,8123 8085.6,8123 8085.6,8168 8171.9,8168 8171.9,8285 8085.6,8285 8085.6,8342.6 8229.6,8342.6 8229.6,8168 8244,8178.8 8280,8135.6 "
     transform="matrix(0.07973251,0,0,0.07973251,-628.64489,-635.01723)" /><path
     style="fill:#6f6f6e"
     inkscape:connector-curvature="0"
     id="path916"
     d="m 16.040309,30.159174 -11.4814991,0 0,-13.9213 -1.0046005,0.8611 -3.01390002,-3.4444 15.49999962,-12.0555998 15.5,12.0555998 -2.8704,3.4444 -1.1481,-0.8611 0,13.9213 -11.4815,0 z m 0,-13.9213 -6.8888991,0 0,9.3287 6.8888991,0 6.8889,0 0,-9.3287 -6.8889,0 z m 0,-8.8980998 -6.8888991,5.3100998 6.8888991,0 6.8889,0 -6.8889,-5.3100998 z" /></svg>