<?xml version="1.0" encoding="UTF-8" standalone="no"?>
<!-- Generator: Adobe Illustrator 19.2.0, SVG Export Plug-In . SVG Version: 6.00 Build 0)  -->

<svg
   xmlns:dc="http://purl.org/dc/elements/1.1/"
   xmlns:cc="http://creativecommons.org/ns#"
   xmlns:rdf="http://www.w3.org/1999/02/22-rdf-syntax-ns#"
   xmlns:svg="http://www.w3.org/2000/svg"
   xmlns="http://www.w3.org/2000/svg"
   xmlns:sodipodi="http://sodipodi.sourceforge.net/DTD/sodipodi-0.dtd"
   xmlns:inkscape="http://www.inkscape.org/namespaces/inkscape"
   version="1.1"
   id="Layer_1"
   x="0px"
   y="0px"
   viewBox="0 0 32 32"
   enable-background="new 0 0 32 32"
   xml:space="preserve"
   inkscape:version="0.91 r13725"
   sodipodi:docname="icon - Copy (2).svg"><metadata
     id="metadata8"><rdf:RDF><cc:Work
         rdf:about=""><dc:format>image/svg+xml</dc:format><dc:type
           rdf:resource="http://purl.org/dc/dcmitype/StillImage" /><dc:title /></cc:Work></rdf:RDF></metadata><defs
     id="defs6" /><sodipodi:namedview
     pagecolor="#ffffff"
     bordercolor="#666666"
     borderopacity="1"
     objecttolerance="10"
     gridtolerance="10"
     guidetolerance="10"
     inkscape:pageopacity="0"
     inkscape:pageshadow="2"
     inkscape:window-width="1280"
     inkscape:window-height="962"
     id="namedview4"
     showgrid="false"
     inkscape:zoom="24.8125"
     inkscape:cx="16"
     inkscape:cy="16"
     inkscape:window-x="1272"
     inkscape:window-y="-8"
     inkscape:window-maximized="1"
     inkscape:current-layer="Layer_1" /><polygon
     style="fill:#0080c6;fill-rule:evenodd"
     id="polygon804"
     points="6538.1,7414.5 6538.1,7432.5 6624.5,7432.5 6593.9,7374.9 6556.1,7414.5 "
     transform="matrix(0.08047767,0,0,0.08047767,-522.44383,-577.39386)" /><polygon
     style="fill:#0080c6;fill-rule:evenodd"
     id="polygon806"
     points="6527.3,7454.1 6527.3,7486.4 6649.7,7486.4 6631.7,7454.1 "
     transform="matrix(0.08047767,0,0,0.08047767,-522.44383,-577.39386)" /><polygon
     style="fill:#0080c6;fill-rule:evenodd"
     id="polygon808"
     points="6707.3,7486.4 6854.9,7486.4 6854.9,7454.1 6689.3,7454.1 "
     transform="matrix(0.08047767,0,0,0.08047767,-522.44383,-577.39386)" /><polygon
     style="fill:#0080c6;fill-rule:evenodd"
     id="polygon810"
     points="6554.3,7268.7 6548.9,7274.1 6545.3,7281.3 6545.3,7288.4 6548.9,7295.7 6554.3,7299.3 6563.3,7304.7 6673.1,7304.7 6680.3,7306.4 6687.5,7310.1 6689.3,7315.5 6721.7,7376.7 6707.3,7382.1 6680.3,7328.1 6673.1,7324.5 6664.1,7322.7 6658.7,7322.7 6651.5,7324.5 6646.1,7329.9 6638.9,7337.1 6622.7,7356.9 6644.3,7398.3 6656.9,7389.3 6671.3,7414.5 6653.3,7414.5 6662.3,7436.1 6849.5,7436.1 6849.5,7414.5 6817.1,7414.5 6820.7,7407.3 6822.5,7394.7 6822.5,7380.3 6818.9,7364.1 6779.3,7286.7 6770.3,7275.9 6754.1,7268.7 6745.1,7265.1 6561.5,7265.1 "
     transform="matrix(0.08047767,0,0,0.08047767,-522.44383,-577.39386)" /><polygon
     style="fill:#0080c6;fill-rule:evenodd"
     id="polygon812"
     points="6577.7,7313.7 6667.7,7490.1 6655.1,7497.3 6689.3,7560.3 6694.7,7563.8 6703.7,7567.5 6712.7,7565.7 6721.7,7560.3 6725.3,7554.9 6730.7,7545.9 6691.1,7479.3 6680.3,7486.4 6592.1,7313.7 "
     transform="matrix(0.08047767,0,0,0.08047767,-522.44383,-577.39386)" /><polygon
     style="fill:#0080c6;fill-rule:evenodd"
     id="polygon814"
     points="6678.5,7252.5 6687.5,7256.1 6696.5,7256.1 6705.5,7254.3 6714.5,7250.7 6721.7,7243.4 6727.1,7236.3 6730.7,7227.3 6732.5,7218.3 6730.7,7207.5 6725.3,7200.3 6719.9,7191.3 6712.7,7187.7 6701.9,7184.1 6692.9,7182.3 6683.9,7184.1 6674.9,7189.5 6667.7,7194.9 6662.3,7202.1 6658.7,7212.8 6658.7,7221.9 6660.5,7230.9 6664.1,7238.1 6669.5,7247.1 "
     transform="matrix(0.08047767,0,0,0.08047767,-522.44383,-577.39386)" /></svg>