<?xml version="1.0" encoding="UTF-8" standalone="no"?>
<!-- Generator: Adobe Illustrator 19.2.0, SVG Export Plug-In . SVG Version: 6.00 Build 0)  -->

<svg
   xmlns:dc="http://purl.org/dc/elements/1.1/"
   xmlns:cc="http://creativecommons.org/ns#"
   xmlns:rdf="http://www.w3.org/1999/02/22-rdf-syntax-ns#"
   xmlns:svg="http://www.w3.org/2000/svg"
   xmlns="http://www.w3.org/2000/svg"
   xmlns:sodipodi="http://sodipodi.sourceforge.net/DTD/sodipodi-0.dtd"
   xmlns:inkscape="http://www.inkscape.org/namespaces/inkscape"
   version="1.1"
   id="Layer_1"
   x="0px"
   y="0px"
   viewBox="0 0 32 32"
   enable-background="new 0 0 32 32"
   xml:space="preserve"
   inkscape:version="0.91 r13725"
   sodipodi:docname="icon - Copy (32).svg"><metadata
     id="metadata8"><rdf:RDF><cc:Work
         rdf:about=""><dc:format>image/svg+xml</dc:format><dc:type
           rdf:resource="http://purl.org/dc/dcmitype/StillImage" /><dc:title /></cc:Work></rdf:RDF></metadata><defs
     id="defs6" /><sodipodi:namedview
     pagecolor="#ffffff"
     bordercolor="#666666"
     borderopacity="1"
     objecttolerance="10"
     gridtolerance="10"
     guidetolerance="10"
     inkscape:pageopacity="0"
     inkscape:pageshadow="2"
     inkscape:window-width="1280"
     inkscape:window-height="962"
     id="namedview4"
     showgrid="false"
     inkscape:zoom="24.8125"
     inkscape:cx="16"
     inkscape:cy="16"
     inkscape:window-x="1272"
     inkscape:window-y="-8"
     inkscape:window-maximized="1"
     inkscape:current-layer="Layer_1" /><polygon
     style="fill:#6f6f6e;fill-rule:evenodd"
     id="polygon44"
     points="354.6,1211.4 349.2,1227.6 347.4,1243.8 351,1260 358.2,1274.4 369,1288.8 383.4,1297.8 397.8,1303.2 415.8,1305 432,1301.4 446.4,1294.2 459,1283.4 469.8,1269 475.2,1254.6 477,1236.6 473.4,1220.4 466.2,1206 455.4,1193.4 441,1182.6 424.8,1179 408.6,1177.1 392.4,1179 378,1186.2 365.4,1197 "
     transform="matrix(0.10631001,0,0,0.10631001,-27.6057,-123.46288)" /><polygon
     style="fill:#6f6f6e;fill-rule:evenodd"
     id="polygon46"
     points="435.6,1353.6 428.4,1368 428.4,1386 430.2,1402.1 437.4,1416.6 448.2,1429.2 462.6,1438.2 478.8,1445.4 495,1445.4 511.2,1443.6 527.4,1436.4 540,1425.6 549,1411.2 554.4,1395 556.2,1378.8 552.6,1362.6 545.4,1348.2 534.6,1335.6 522,1324.8 505.8,1319.4 489.6,1317.6 473.4,1321.2 457.2,1328.4 444.6,1339.2 "
     transform="matrix(0.10631001,0,0,0.10631001,-27.6057,-123.46288)" /><polygon
     style="fill:#6f6f6e;fill-rule:evenodd"
     id="polygon48"
     points="271.8,1353.6 266.4,1368 264.6,1386 268.2,1402.1 275.4,1416.6 286.2,1429.2 298.8,1438.2 315,1445.4 331.2,1445.4 347.4,1443.6 363.6,1436.4 376.2,1425.6 385.2,1411.2 390.6,1395 392.4,1378.8 388.8,1362.6 381.6,1348.2 372.6,1335.6 358.2,1324.8 342,1319.4 325.8,1317.6 309.6,1321.2 293.4,1328.4 280.8,1339.2 "
     transform="matrix(0.10631001,0,0,0.10631001,-27.6057,-123.46288)" /></svg>