<?xml version="1.0" encoding="UTF-8" standalone="no"?>
<!-- Generator: Adobe Illustrator 19.2.0, SVG Export Plug-In . SVG Version: 6.00 Build 0)  -->

<svg
   xmlns:dc="http://purl.org/dc/elements/1.1/"
   xmlns:cc="http://creativecommons.org/ns#"
   xmlns:rdf="http://www.w3.org/1999/02/22-rdf-syntax-ns#"
   xmlns:svg="http://www.w3.org/2000/svg"
   xmlns="http://www.w3.org/2000/svg"
   xmlns:sodipodi="http://sodipodi.sourceforge.net/DTD/sodipodi-0.dtd"
   xmlns:inkscape="http://www.inkscape.org/namespaces/inkscape"
   version="1.1"
   id="Layer_1"
   x="0px"
   y="0px"
   viewBox="0 0 32 32"
   enable-background="new 0 0 32 32"
   xml:space="preserve"
   inkscape:version="0.91 r13725"
   sodipodi:docname="icon - Copy (51) - Copy - Copy.svg"><metadata
     id="metadata8"><rdf:RDF><cc:Work
         rdf:about=""><dc:format>image/svg+xml</dc:format><dc:type
           rdf:resource="http://purl.org/dc/dcmitype/StillImage" /><dc:title /></cc:Work></rdf:RDF></metadata><defs
     id="defs6" /><sodipodi:namedview
     pagecolor="#ffffff"
     bordercolor="#666666"
     borderopacity="1"
     objecttolerance="10"
     gridtolerance="10"
     guidetolerance="10"
     inkscape:pageopacity="0"
     inkscape:pageshadow="2"
     inkscape:window-width="1280"
     inkscape:window-height="962"
     id="namedview4"
     showgrid="false"
     inkscape:zoom="24.8125"
     inkscape:cx="16"
     inkscape:cy="16"
     inkscape:window-x="1272"
     inkscape:window-y="-8"
     inkscape:window-maximized="1"
     inkscape:current-layer="Layer_1" /><polygon
     style="fill:#0080c6;fill-rule:evenodd"
     id="polygon1046"
     points="9863.8,6873.1 9865.3,6872.4 9852.7,6849 9851.2,6849.8 "
     transform="matrix(0.0654699,0,0,0.0654699,-617.36771,-434.07892)" /><polygon
     style="fill:#0080c6"
     id="polygon1048"
     points="9662.1,6827.8 9662.1,6827.8 9663.8,6827.8 9663.8,6869.2 9662.1,6869.2 "
     transform="matrix(0.0654699,0,0,0.0654699,-617.36771,-434.07892)" /><path
     style="fill:#0080c6"
     inkscape:connector-curvature="0"
     id="path1050"
     d="M 15.267996,14.291679" /><polygon
     style="fill:#0080c6;fill-rule:evenodd"
     id="polygon1052"
     points="9722.4,6871 9722.4,6835 9662.9,6827.8 9662.9,6869.2 "
     transform="matrix(0.0654699,0,0,0.0654699,-617.36771,-434.07892)" /><polygon
     style="fill:#0080c6;fill-rule:evenodd"
     id="polygon1054"
     points="9778.2,6871 9778.2,6840.4 9729.6,6835 9729.6,6871 "
     transform="matrix(0.0654699,0,0,0.0654699,-617.36771,-434.07892)" /><polygon
     style="fill:#0080c6;fill-rule:evenodd"
     id="polygon1056"
     points="9821.3,6846.7 9821.3,6844.9 9783.6,6841.3 9783.6,6843.1 "
     transform="matrix(0.0654699,0,0,0.0654699,-617.36771,-434.07892)" /><polygon
     style="fill:#0080c6;fill-rule:evenodd"
     id="polygon1058"
     points="9864.6,6872.8 9852,6849.4 9828.6,6845.8 9828.6,6872.8 "
     transform="matrix(0.0654699,0,0,0.0654699,-617.36771,-434.07892)" /><rect
     style="fill:#0080c6;fill-rule:evenodd"
     id="rect1060"
     height="0.83145976"
     width="0.83145976"
     transform="matrix(0.70710678,-0.70710678,0.70710678,0.70710678,0,0)"
     y="30.101244"
     x="2.3083601" /><polygon
     style="fill:#0080c6;fill-rule:evenodd"
     id="polygon1062"
     points="9832.2,6930.4 9841.2,6939.4 9850.2,6930.4 9841.2,6921.4 "
     transform="matrix(0.0654699,0,0,0.0654699,-617.36771,-434.07892)" /><polygon
     style="fill:#0080c6;fill-rule:evenodd"
     id="polygon1064"
     points="9715.2,6930.4 9724.2,6939.4 9733.2,6930.4 9724.2,6921.4 "
     transform="matrix(0.0654699,0,0,0.0654699,-617.36771,-434.07892)" /><polygon
     style="fill:#0080c6;fill-rule:evenodd"
     id="polygon1066"
     points="9574.8,6908.8 9583.7,6917.8 9592.8,6908.8 9583.7,6899.8 "
     transform="matrix(0.0654699,0,0,0.0654699,-617.36771,-434.07892)" /><polygon
     style="fill:#0080c6;fill-rule:evenodd"
     id="polygon1068"
     points="9562.2,6772 9537,6786.4 9517.2,6795.4 9607.2,6795.4 9600,6781 9600,6764.8 9605.4,6748.6 9617.9,6736 9637.8,6719.8 9661.2,6700 9662.9,6698.2 9662.9,6696.4 9659.4,6694.5 9657.5,6694.5 9645,6705.4 9616.2,6727 "
     transform="matrix(0.0654699,0,0,0.0654699,-617.36771,-434.07892)" /><polygon
     style="fill:#0080c6;fill-rule:evenodd"
     id="polygon1070"
     points="9821.3,6872.8 9821.3,6845.8 9783.6,6842.2 9783.6,6871 "
     transform="matrix(0.0654699,0,0,0.0654699,-617.36771,-434.07892)" /><path
     style="fill:#0080c6;fill-rule:evenodd"
     inkscape:connector-curvature="0"
     id="path1072"
     d="m 29.291596,22.835579 0.3536,-0.7071 1.4207,-3.1818 0.2357,-0.5827 0.1178,-1.0606 0,-0.5893 -0.8315,0 -2.1212,-4.0067 -14.3772,-1.656399 -10.9596006,0 0,5.538699 -1.1785,0.3536 -1.53199997,0 5.18519997,9.0741 23.6870006,-3.1818 z m -20.6230006,-7.7779 0,9.8991 19.2089006,-2.5926 0.3535,-0.8249 1.4142,-3.1819 0,-0.1178 -12.6095,0.1178 -1.7677,-0.1178 -2.3569,-0.3536 -1.2963,-0.4713 -0.7071,-0.4714 -1.1785006,-0.8249 -1.0606,-1.0607 z m 5.4209006,1.532 1.2963,0.1179 1.6499,0.1178 12.7273,-0.1178 -1.6498,-3.4175 -14.0237,-1.532 0,4.8316 z m -8.7271006,-3.8889 1.8855,0 0,1.7677 -1.8855,0 0,-1.7677 z m 2.2456,0 2.1212,0 0,1.7677 -2.1212,0 0,-1.7677 z m 2.4681996,0 2.003401,0 0,1.7677 -2.003401,0 0,-1.7677 z m -2.2324996,5.4209 -0.5892,-0.5892 -0.5893,0.5892 0.5893,0.5893 0.5892,-0.5893 z" /></svg>