<?xml version="1.0" encoding="UTF-8" standalone="no"?>
<!-- Generator: Adobe Illustrator 19.2.0, SVG Export Plug-In . SVG Version: 6.00 Build 0)  -->

<svg
   xmlns:dc="http://purl.org/dc/elements/1.1/"
   xmlns:cc="http://creativecommons.org/ns#"
   xmlns:rdf="http://www.w3.org/1999/02/22-rdf-syntax-ns#"
   xmlns:svg="http://www.w3.org/2000/svg"
   xmlns="http://www.w3.org/2000/svg"
   xmlns:sodipodi="http://sodipodi.sourceforge.net/DTD/sodipodi-0.dtd"
   xmlns:inkscape="http://www.inkscape.org/namespaces/inkscape"
   version="1.1"
   id="Layer_1"
   x="0px"
   y="0px"
   viewBox="0 0 32 32"
   enable-background="new 0 0 32 32"
   xml:space="preserve"
   inkscape:version="0.91 r13725"
   sodipodi:docname="icon - Copy (57) - Copy - Copy.svg"><metadata
     id="metadata8"><rdf:RDF><cc:Work
         rdf:about=""><dc:format>image/svg+xml</dc:format><dc:type
           rdf:resource="http://purl.org/dc/dcmitype/StillImage" /><dc:title /></cc:Work></rdf:RDF></metadata><defs
     id="defs6" /><sodipodi:namedview
     pagecolor="#ffffff"
     bordercolor="#666666"
     borderopacity="1"
     objecttolerance="10"
     gridtolerance="10"
     guidetolerance="10"
     inkscape:pageopacity="0"
     inkscape:pageshadow="2"
     inkscape:window-width="1280"
     inkscape:window-height="962"
     id="namedview4"
     showgrid="false"
     inkscape:zoom="24.8125"
     inkscape:cx="16"
     inkscape:cy="16"
     inkscape:window-x="1272"
     inkscape:window-y="-8"
     inkscape:window-maximized="1"
     inkscape:current-layer="Layer_1" /><path
     style="fill:#335c3d;fill-rule:evenodd"
     inkscape:connector-curvature="0"
     id="path922"
     d="m 2.3011471,20.9774 c -0.092,0.1134 -0.1914,0.2056 -0.3189,0.2835 -0.1135,0.064 -0.241,0.1134 -0.3828,0.1276 -0.1418,0.028 -0.2693,0.014 -0.4111,-0.014 -0.1418,-0.035 -0.2694,-0.099 -0.3828,-0.1913 -0.1134,-0.092 -0.2197,-0.1914 -0.2835,-0.3048 -0.078,-0.1276 -0.1134,-0.2552 -0.1276,-0.397 -0.028,-0.1275 -0.014,-0.2693 0.014,-0.3969 0.035,-0.1418 0.099,-0.2693 0.1914,-0.3828 0.078,-0.1275 0.1914,-0.2126 0.3048,-0.2835 0.1276,-0.078 0.2551,-0.1134 0.3827,-0.1347 0.1418,-0.028 0.2835,-0.014 0.404,0.014 0.1418,0.035 0.2694,0.099 0.3828,0.1914 0.1134,0.085 0.2126,0.1914 0.2835,0.3048 0.078,0.1276 0.1134,0.2552 0.1418,0.3969 0.014,0.1276 0.014,0.2694 -0.028,0.4111 -0.014,0.1347 -0.078,0.2623 -0.1701,0.3757 z" /><path
     style="fill:#335c3d;fill-rule:evenodd"
     inkscape:connector-curvature="0"
     id="path924"
     d="m 5.9869471,20.8427 c -0.078,0.1276 -0.163,0.241 -0.2693,0.3332 -0.1134,0.092 -0.2339,0.1417 -0.3686,0.1914 -0.1276,0.043 -0.2693,0.057 -0.4111,0.043 -0.1418,-0.014 -0.2693,-0.064 -0.3969,-0.1276 -0.1276,-0.078 -0.241,-0.163 -0.3332,-0.2694 -0.092,-0.1134 -0.1417,-0.2339 -0.1772,-0.3685 -0.035,-0.1276 -0.05,-0.2694 -0.035,-0.4041 0.01,-0.1275 0.05,-0.2693 0.1134,-0.3969 0.078,-0.1276 0.163,-0.241 0.2835,-0.3331 0.099,-0.092 0.2268,-0.156 0.3544,-0.1914 0.1276,-0.035 0.2694,-0.05 0.404,-0.035 0.1418,0.014 0.2694,0.05 0.397,0.1276 0.1417,0.078 0.241,0.1631 0.3331,0.2694 0.092,0.1134 0.156,0.2339 0.1914,0.3686 0.042,0.1276 0.05,0.2693 0.042,0.404 -0.01,0.1276 -0.05,0.2622 -0.1276,0.3898 z" /><path
     style="fill:#335c3d;fill-rule:evenodd"
     inkscape:connector-curvature="0"
     id="path926"
     d="m 20.460947,20.8427 c -0.078,0.1276 -0.1631,0.241 -0.2694,0.3332 -0.1134,0.092 -0.2268,0.1417 -0.3686,0.1914 -0.1275,0.043 -0.2693,0.057 -0.4111,0.043 -0.1417,-0.014 -0.2693,-0.064 -0.3969,-0.1276 -0.1276,-0.078 -0.241,-0.163 -0.3331,-0.2694 -0.092,-0.1134 -0.1418,-0.2339 -0.1772,-0.3685 -0.043,-0.1276 -0.057,-0.2694 -0.043,-0.4041 0.014,-0.1275 0.05,-0.2693 0.1134,-0.3969 0.078,-0.1276 0.1631,-0.241 0.2836,-0.3331 0.099,-0.092 0.2339,-0.156 0.3544,-0.1914 0.1276,-0.035 0.2693,-0.05 0.4111,-0.035 0.1417,0.014 0.2693,0.05 0.3969,0.1276 0.1418,0.078 0.241,0.1631 0.3332,0.2694 0.092,0.1134 0.1559,0.2339 0.1913,0.3686 0.043,0.1276 0.05,0.2693 0.043,0.404 -0.014,0.1276 -0.057,0.2622 -0.1276,0.3898 z" /><path
     style="fill:#335c3d;fill-rule:evenodd"
     inkscape:connector-curvature="0"
     id="path928"
     d="m 13.223947,20.8427 c -0.078,0.1276 -0.163,0.241 -0.2693,0.3332 -0.1134,0.092 -0.2269,0.1417 -0.3686,0.1914 -0.1276,0.043 -0.2694,0.057 -0.404,0.043 -0.1418,-0.014 -0.2694,-0.064 -0.397,-0.1276 -0.1276,-0.078 -0.241,-0.163 -0.3331,-0.2694 -0.092,-0.1134 -0.1418,-0.2339 -0.1843,-0.3685 -0.035,-0.1276 -0.05,-0.2694 -0.035,-0.4041 0.014,-0.1275 0.05,-0.2693 0.1135,-0.3969 0.078,-0.1276 0.163,-0.241 0.2835,-0.3331 0.099,-0.092 0.2268,-0.156 0.3544,-0.1914 0.1276,-0.035 0.2693,-0.05 0.4111,-0.035 0.1418,0.014 0.2693,0.05 0.3969,0.1276 0.1418,0.078 0.241,0.1631 0.3332,0.2694 0.092,0.1134 0.1559,0.2339 0.1914,0.3686 0.035,0.1276 0.05,0.2693 0.035,0.404 -0.014,0.1276 -0.05,0.2622 -0.1276,0.3898 z" /><path
     style="fill:#335c3d;fill-rule:evenodd"
     inkscape:connector-curvature="0"
     id="path930"
     d="m 27.690847,20.8427 c -0.078,0.1276 -0.1631,0.241 -0.2694,0.3332 -0.1134,0.092 -0.2339,0.1417 -0.3686,0.1914 -0.1276,0.043 -0.2693,0.057 -0.4111,0.043 -0.1418,-0.014 -0.2693,-0.064 -0.3969,-0.1276 -0.1276,-0.078 -0.241,-0.163 -0.3332,-0.2694 -0.092,-0.1134 -0.1417,-0.2339 -0.1772,-0.3685 -0.035,-0.1276 -0.05,-0.2694 -0.035,-0.4041 0.01,-0.1275 0.05,-0.2693 0.1134,-0.3969 0.078,-0.1276 0.163,-0.241 0.2835,-0.3331 0.099,-0.092 0.2339,-0.156 0.3544,-0.1914 0.1276,-0.035 0.2694,-0.05 0.4111,-0.035 0.1418,0.014 0.2694,0.05 0.397,0.1276 0.1417,0.078 0.241,0.1631 0.3331,0.2694 0.092,0.1134 0.1489,0.2339 0.1914,0.3686 0.042,0.1276 0.05,0.2693 0.042,0.404 -0.021,0.1276 -0.057,0.2622 -0.1346,0.3898 z" /><path
     style="fill:#335c3d;fill-rule:evenodd"
     inkscape:connector-curvature="0"
     id="path932"
     d="m 9.6161471,20.8427 c -0.078,0.1276 -0.1631,0.241 -0.2694,0.3332 -0.1134,0.092 -0.2339,0.1417 -0.3686,0.1914 -0.1276,0.043 -0.2693,0.057 -0.404,0.043 -0.1418,-0.014 -0.2693,-0.064 -0.3969,-0.1276 -0.1276,-0.078 -0.241,-0.163 -0.3332,-0.2694 -0.092,-0.1134 -0.1417,-0.2339 -0.1772,-0.3685 -0.043,-0.1276 -0.05,-0.2694 -0.043,-0.4041 0.014,-0.1275 0.05,-0.2693 0.1134,-0.3969 0.078,-0.1276 0.163,-0.241 0.2835,-0.3331 0.099,-0.092 0.2269,-0.156 0.3544,-0.1914 0.1276,-0.035 0.2694,-0.05 0.4111,-0.035 0.1418,0.014 0.2694,0.05 0.397,0.1276 0.1417,0.078 0.241,0.1631 0.3331,0.2694 0.092,0.1134 0.156,0.2339 0.1914,0.3686 0.035,0.1276 0.05,0.2693 0.035,0.404 -0.014,0.1276 -0.05,0.2622 -0.1275,0.3898 z" /><path
     style="fill:#335c3d;fill-rule:evenodd"
     inkscape:connector-curvature="0"
     id="path934"
     d="m 24.082947,20.8427 c -0.078,0.1276 -0.163,0.241 -0.2693,0.3332 -0.1135,0.092 -0.2269,0.1417 -0.3686,0.1914 -0.1276,0.043 -0.2694,0.057 -0.4041,0.043 -0.1417,-0.014 -0.2693,-0.064 -0.3969,-0.1276 -0.1276,-0.078 -0.241,-0.163 -0.3331,-0.2694 -0.092,-0.1134 -0.1418,-0.2339 -0.1772,-0.3685 -0.035,-0.1276 -0.05,-0.2694 -0.035,-0.4041 0.014,-0.1275 0.05,-0.2693 0.1134,-0.3969 0.078,-0.1276 0.1631,-0.241 0.2836,-0.3331 0.1063,-0.092 0.2339,-0.156 0.3544,-0.1914 0.1276,-0.035 0.2693,-0.05 0.4111,-0.035 0.1417,0.014 0.2693,0.05 0.3969,0.1276 0.1418,0.078 0.241,0.1631 0.3332,0.2694 0.092,0.1134 0.1559,0.2339 0.1913,0.3686 0.043,0.1276 0.05,0.2693 0.043,0.404 -0.028,0.1276 -0.064,0.2622 -0.1418,0.3898 z" /><path
     style="fill:#335c3d;fill-rule:evenodd"
     inkscape:connector-curvature="0"
     id="path936"
     d="m 16.845947,20.8427 c -0.078,0.1276 -0.163,0.241 -0.2693,0.3332 -0.1134,0.092 -0.2268,0.1417 -0.3686,0.1914 -0.1276,0.043 -0.2693,0.057 -0.4111,0.043 -0.1418,-0.014 -0.2694,-0.064 -0.3969,-0.1276 -0.1276,-0.078 -0.241,-0.163 -0.3332,-0.2694 -0.092,-0.1134 -0.1417,-0.2339 -0.1772,-0.3685 -0.035,-0.1276 -0.05,-0.2694 -0.035,-0.4041 0.014,-0.1275 0.05,-0.2693 0.1134,-0.3969 0.078,-0.1276 0.1701,-0.241 0.2835,-0.3331 0.099,-0.092 0.2339,-0.156 0.3615,-0.1914 0.1276,-0.035 0.2694,-0.05 0.404,-0.035 0.1418,0.014 0.2694,0.05 0.397,0.1276 0.1417,0.078 0.241,0.1631 0.3331,0.2694 0.092,0.1134 0.1559,0.2339 0.1914,0.3686 0.035,0.1276 0.05,0.2693 0.035,0.404 -0.014,0.1276 -0.05,0.2622 -0.1276,0.3898 z" /><path
     style="fill:#335c3d;fill-rule:evenodd"
     inkscape:connector-curvature="0"
     id="path938"
     d="m 31.241947,20.8427 c -0.078,0.1276 -0.1701,0.241 -0.2694,0.3332 -0.1134,0.092 -0.2339,0.1417 -0.3685,0.1914 -0.1276,0.043 -0.2694,0.057 -0.4041,0.043 -0.1417,-0.014 -0.2693,-0.064 -0.3969,-0.1276 -0.1276,-0.078 -0.241,-0.163 -0.3331,-0.2694 -0.092,-0.1134 -0.1418,-0.2339 -0.1772,-0.3685 -0.043,-0.1276 -0.05,-0.2694 -0.043,-0.4041 0.014,-0.1275 0.05,-0.2693 0.1134,-0.3969 0.078,-0.1276 0.1631,-0.241 0.2836,-0.3331 0.099,-0.092 0.2268,-0.156 0.3544,-0.1914 0.1276,-0.035 0.2693,-0.05 0.4111,-0.035 0.1418,0.014 0.2693,0.05 0.3969,0.1276 0.1418,0.078 0.241,0.1631 0.3332,0.2694 0.092,0.1134 0.1559,0.2339 0.1913,0.3686 0.043,0.1276 0.05,0.2693 0.043,0.404 -0.021,0.1276 -0.064,0.2622 -0.1347,0.3898 z" /><polygon
     style="fill:#252524;fill-rule:evenodd"
     id="polygon940"
     points="8227.4,5131.1 8129.5,5130.6 8124.3,5145.9 8166.2,5145.3 8133.6,5259.3 8133.6,5259.3 8151.4,5259.6 8185.3,5144.4 8223.5,5144.9 "
     transform="matrix(0.07088115,0,0,0.07088115,-558.02145,-355.7205)" /><polygon
     style="fill:#252524;fill-rule:evenodd"
     id="polygon942"
     points="8021.4,5224.8 8020.1,5219.2 8021,5210.2 8020.8,5199.8 8022.4,5192.2 8024.3,5184.8 8026,5177.4 8030.2,5170.6 8033.4,5162.1 8037.2,5157.8 8039.9,5151.9 8046,5148.1 8049.6,5143.8 8063.7,5139.3 8070.1,5139.4 8077.7,5141.1 8081.1,5143.2 8085.8,5151 8087,5156.4 8089.4,5163.6 8106.3,5163.6 8105.6,5155.5 8104.3,5150.1 8104,5145.9 8099.3,5138.4 8093.9,5133.2 8088.9,5132.1 8084.5,5128.5 8078.1,5128.1 8068.1,5125.8 8062.6,5127.2 8058.6,5127.6 8053,5128.8 8047.5,5130.1 8040.5,5132.4 8032.9,5137.1 8027.7,5142.5 8023.4,5149.3 8015.6,5160.5 8010.2,5172.4 8006.2,5183.2 8003.4,5195.6 8001.4,5209.5 8002.6,5221.5 8003,5225.7 8004.3,5231.1 8005.5,5236.7 8012.2,5247.5 8016.5,5251.1 8023.4,5255.2 8026.8,5257.4 8031.8,5258.4 8034.3,5259.2 8040.8,5259.3 8045.6,5260.4 8052.2,5260.8 8057.7,5259.3 8061.7,5259 8066.4,5256.1 8070.3,5255.7 8073.4,5253.9 8078.6,5248.5 8083.1,5245.7 8086.9,5241.3 8089.6,5235.4 8094.3,5226 8094.3,5226 8074.8,5225.5 8072.1,5231.4 8070,5234.9 8066.4,5239.2 8057.2,5244.9 8049.3,5245.7 8042.8,5245.5 8038.6,5245.8 8035.2,5243.7 8032.9,5243.2 8029.4,5241 8021.7,5228.7 "
     transform="matrix(0.07088115,0,0,0.07088115,-558.02145,-355.7205)" /></svg>