<?xml version="1.0" encoding="UTF-8" standalone="no"?>
<!-- Generator: Adobe Illustrator 19.2.0, SVG Export Plug-In . SVG Version: 6.00 Build 0)  -->

<svg
   xmlns:dc="http://purl.org/dc/elements/1.1/"
   xmlns:cc="http://creativecommons.org/ns#"
   xmlns:rdf="http://www.w3.org/1999/02/22-rdf-syntax-ns#"
   xmlns:svg="http://www.w3.org/2000/svg"
   xmlns="http://www.w3.org/2000/svg"
   xmlns:sodipodi="http://sodipodi.sourceforge.net/DTD/sodipodi-0.dtd"
   xmlns:inkscape="http://www.inkscape.org/namespaces/inkscape"
   version="1.1"
   id="Layer_1"
   x="0px"
   y="0px"
   viewBox="0 0 32 32"
   enable-background="new 0 0 32 32"
   xml:space="preserve"
   inkscape:version="0.91 r13725"
   sodipodi:docname="icon - Copy (58) - Copy - Copy.svg"><metadata
     id="metadata8"><rdf:RDF><cc:Work
         rdf:about=""><dc:format>image/svg+xml</dc:format><dc:type
           rdf:resource="http://purl.org/dc/dcmitype/StillImage" /><dc:title /></cc:Work></rdf:RDF></metadata><defs
     id="defs6" /><sodipodi:namedview
     pagecolor="#ffffff"
     bordercolor="#666666"
     borderopacity="1"
     objecttolerance="10"
     gridtolerance="10"
     guidetolerance="10"
     inkscape:pageopacity="0"
     inkscape:pageshadow="2"
     inkscape:window-width="1280"
     inkscape:window-height="962"
     id="namedview4"
     showgrid="false"
     inkscape:zoom="24.8125"
     inkscape:cx="16"
     inkscape:cy="16"
     inkscape:window-x="1272"
     inkscape:window-y="-8"
     inkscape:window-maximized="1"
     inkscape:current-layer="Layer_1" /><path
     style="fill:#335c3d;fill-rule:evenodd"
     inkscape:connector-curvature="0"
     id="path950"
     d="m 1.76344,18.993573 c -0.057,0.07 -0.1178,0.1265 -0.1963,0.1744 -0.07,0.039 -0.1482,0.07 -0.2354,0.079 -0.087,0.017 -0.1657,0.01 -0.2529,-0.01 -0.087,-0.022 -0.16570001,-0.061 -0.23550001,-0.1177 -0.07,-0.057 -0.1352,-0.1178 -0.1744,-0.1875 -0.048,-0.078 -0.07,-0.157 -0.079,-0.2442 -0.017,-0.078 -0.01,-0.1657 0.01,-0.2442 0.022,-0.087 0.065,-0.1657 0.1177,-0.2355 0.048,-0.078 0.1178,-0.1352 0.1875,-0.1744 0.078,-0.048 0.15700001,-0.07 0.23550001,-0.087 0.087,-0.017 0.1744,-0.01 0.2529,0.01 0.087,0.022 0.1657,0.061 0.2355,0.1177 0.07,0.057 0.1352,0.1178 0.1744,0.1875 0.048,0.078 0.07,0.157 0.087,0.2442 0.01,0.078 0.01,0.1657 -0.017,0.2529 -0.013,0.087 -0.052,0.1657 -0.109,0.2355" /><path
     style="fill:#335c3d;fill-rule:evenodd"
     inkscape:connector-curvature="0"
     id="path952"
     d="m 4.03094,18.906373 c -0.048,0.079 -0.1003,0.1483 -0.1657,0.2049 -0.07,0.057 -0.1396,0.087 -0.2268,0.1178 -0.078,0.022 -0.1657,0.03 -0.2485,0.022 -0.087,-0.01 -0.1657,-0.039 -0.2442,-0.078 -0.078,-0.048 -0.1483,-0.1003 -0.205,-0.1657 -0.057,-0.07 -0.087,-0.1395 -0.109,-0.2268 -0.022,-0.078 -0.03,-0.1657 -0.022,-0.2529 0.01,-0.078 0.03,-0.1657 0.07,-0.2442 0.048,-0.078 0.1003,-0.1482 0.1744,-0.2049 0.061,-0.057 0.1439,-0.092 0.218,-0.1177 0.078,-0.026 0.1657,-0.031 0.2529,-0.026 0.087,0.01 0.1657,0.03 0.2442,0.078 0.087,0.048 0.1483,0.1003 0.205,0.1657 0.057,0.07 0.096,0.1439 0.1177,0.2267 0.022,0.078 0.03,0.1657 0.022,0.253 -0.01,0.091 -0.035,0.17 -0.083,0.2485" /><path
     style="fill:#335c3d;fill-rule:evenodd"
     inkscape:connector-curvature="0"
     id="path954"
     d="m 12.93514,18.906373 c -0.048,0.079 -0.1003,0.1483 -0.1657,0.2049 -0.07,0.057 -0.1439,0.087 -0.2267,0.1178 -0.078,0.022 -0.1657,0.03 -0.2529,0.022 -0.087,-0.01 -0.1657,-0.039 -0.2442,-0.078 -0.079,-0.048 -0.1483,-0.1003 -0.205,-0.1657 -0.052,-0.07 -0.087,-0.1395 -0.109,-0.2268 -0.022,-0.078 -0.03,-0.1657 -0.022,-0.2529 0.01,-0.078 0.03,-0.1657 0.07,-0.2442 0.048,-0.078 0.1003,-0.1482 0.17,-0.2049 0.065,-0.057 0.1439,-0.092 0.2181,-0.1177 0.078,-0.026 0.1657,-0.031 0.2529,-0.026 0.087,0.01 0.1657,0.03 0.2442,0.078 0.087,0.048 0.1482,0.1003 0.2049,0.1657 0.052,0.07 0.092,0.1439 0.1177,0.2267 0.022,0.078 0.031,0.1657 0.022,0.253 0,0.091 -0.026,0.17 -0.074,0.2485" /><path
     style="fill:#335c3d;fill-rule:evenodd"
     inkscape:connector-curvature="0"
     id="path956"
     d="m 8.48304,18.906373 c -0.048,0.079 -0.1003,0.1483 -0.1657,0.2049 -0.07,0.057 -0.1439,0.087 -0.2268,0.1178 -0.079,0.022 -0.1657,0.03 -0.2529,0.022 -0.087,-0.01 -0.1657,-0.039 -0.2442,-0.078 -0.078,-0.048 -0.1482,-0.1003 -0.2049,-0.1657 -0.057,-0.07 -0.087,-0.1395 -0.109,-0.2268 -0.026,-0.078 -0.031,-0.1657 -0.026,-0.2529 0.01,-0.078 0.03,-0.1657 0.07,-0.2442 0.048,-0.078 0.1003,-0.1482 0.1744,-0.2049 0.061,-0.057 0.1439,-0.092 0.218,-0.1177 0.078,-0.026 0.1657,-0.031 0.2529,-0.026 0.087,0.01 0.1657,0.03 0.2442,0.078 0.087,0.048 0.1483,0.1003 0.205,0.1657 0.052,0.07 0.096,0.1439 0.1177,0.2267 0.022,0.078 0.03,0.1657 0.022,0.253 0,0.091 -0.026,0.17 -0.074,0.2485" /><path
     style="fill:#335c3d;fill-rule:evenodd"
     inkscape:connector-curvature="0"
     id="path958"
     d="m 17.38294,18.906373 c -0.048,0.079 -0.1003,0.1483 -0.1657,0.2049 -0.07,0.057 -0.1439,0.087 -0.2268,0.1178 -0.079,0.022 -0.1657,0.03 -0.2529,0.022 -0.087,-0.01 -0.1657,-0.039 -0.2442,-0.078 -0.078,-0.048 -0.1482,-0.1003 -0.2049,-0.1657 -0.057,-0.07 -0.087,-0.1395 -0.109,-0.2268 -0.022,-0.078 -0.031,-0.1657 -0.022,-0.2529 0.01,-0.078 0.03,-0.1657 0.07,-0.2442 0.048,-0.078 0.1003,-0.1482 0.1745,-0.2049 0.065,-0.057 0.1439,-0.092 0.218,-0.1177 0.078,-0.026 0.1657,-0.031 0.2529,-0.026 0.087,0.01 0.1657,0.03 0.2442,0.078 0.087,0.048 0.1483,0.1003 0.2049,0.1657 0.057,0.07 0.092,0.1439 0.1178,0.2267 0.026,0.078 0.031,0.1657 0.026,0.253 -0.01,0.091 -0.035,0.17 -0.083,0.2485" /><path
     style="fill:#335c3d;fill-rule:evenodd"
     inkscape:connector-curvature="0"
     id="path960"
     d="m 6.26354,18.906373 c -0.048,0.079 -0.1003,0.1483 -0.1657,0.2049 -0.07,0.057 -0.1439,0.087 -0.2268,0.1178 -0.078,0.022 -0.1657,0.03 -0.2529,0.022 -0.087,-0.01 -0.1657,-0.039 -0.2442,-0.078 -0.079,-0.048 -0.1483,-0.1003 -0.2049,-0.1657 -0.057,-0.07 -0.087,-0.1395 -0.1091,-0.2268 -0.022,-0.078 -0.03,-0.1657 -0.022,-0.2529 0.01,-0.078 0.031,-0.1657 0.07,-0.2442 0.048,-0.078 0.1003,-0.1482 0.1744,-0.2049 0.065,-0.057 0.1396,-0.092 0.2181,-0.1177 0.079,-0.026 0.1657,-0.031 0.2529,-0.026 0.087,0.01 0.1657,0.03 0.2442,0.078 0.087,0.048 0.1482,0.1003 0.2049,0.1657 0.057,0.07 0.092,0.1439 0.1177,0.2267 0.026,0.078 0.031,0.1657 0.026,0.253 -0.013,0.091 -0.039,0.17 -0.083,0.2485" /><path
     style="fill:#335c3d;fill-rule:evenodd"
     inkscape:connector-curvature="0"
     id="path962"
     d="m 15.16344,18.906373 c -0.048,0.079 -0.1003,0.1483 -0.1657,0.2049 -0.07,0.057 -0.1396,0.087 -0.2268,0.1178 -0.079,0.022 -0.1657,0.03 -0.2485,0.022 -0.087,-0.01 -0.1657,-0.039 -0.2442,-0.078 -0.078,-0.048 -0.1483,-0.1003 -0.205,-0.1657 -0.057,-0.07 -0.087,-0.1395 -0.109,-0.2268 -0.026,-0.078 -0.03,-0.1657 -0.026,-0.2529 0.01,-0.078 0.031,-0.1657 0.07,-0.2442 0.048,-0.078 0.1003,-0.1482 0.1744,-0.2049 0.061,-0.057 0.1396,-0.092 0.2181,-0.1177 0.078,-0.026 0.1657,-0.031 0.2485,-0.026 0.087,0.01 0.1657,0.03 0.2442,0.078 0.087,0.048 0.1483,0.1003 0.205,0.1657 0.057,0.07 0.096,0.1439 0.1177,0.2267 0.026,0.078 0.031,0.1657 0.026,0.253 -0.01,0.091 -0.031,0.17 -0.078,0.2485" /><path
     style="fill:#335c3d;fill-rule:evenodd"
     inkscape:connector-curvature="0"
     id="path964"
     d="m 10.71124,18.906373 c -0.048,0.079 -0.1003,0.1483 -0.1657,0.2049 -0.07,0.057 -0.1395,0.087 -0.2267,0.1178 -0.078,0.022 -0.1657,0.03 -0.2486,0.022 -0.087,-0.01 -0.1657,-0.039 -0.2442,-0.078 -0.078,-0.048 -0.1482,-0.1003 -0.2049,-0.1657 -0.057,-0.07 -0.087,-0.1395 -0.109,-0.2268 -0.022,-0.078 -0.03,-0.1657 -0.022,-0.2529 0.01,-0.078 0.03,-0.1657 0.07,-0.2442 0.048,-0.078 0.1003,-0.1482 0.1745,-0.2049 0.061,-0.057 0.1395,-0.092 0.218,-0.1177 0.078,-0.026 0.1657,-0.031 0.2485,-0.026 0.087,0.01 0.1657,0.03 0.2442,0.078 0.087,0.048 0.1483,0.1003 0.205,0.1657 0.057,0.07 0.096,0.1439 0.1177,0.2267 0.022,0.078 0.031,0.1657 0.022,0.253 -0.01,0.091 -0.03,0.17 -0.079,0.2485" /><path
     style="fill:#335c3d;fill-rule:evenodd"
     inkscape:connector-curvature="0"
     id="path966"
     d="m 19.56754,18.906373 c -0.048,0.079 -0.1003,0.1483 -0.1657,0.2049 -0.07,0.057 -0.1439,0.087 -0.2267,0.1178 -0.079,0.022 -0.1657,0.03 -0.2529,0.022 -0.087,-0.01 -0.1657,-0.039 -0.2442,-0.078 -0.078,-0.048 -0.1483,-0.1003 -0.205,-0.1657 -0.057,-0.07 -0.087,-0.1395 -0.109,-0.2268 -0.022,-0.078 -0.031,-0.1657 -0.022,-0.2529 0.01,-0.078 0.03,-0.1657 0.07,-0.2442 0.048,-0.078 0.1003,-0.1482 0.1744,-0.2049 0.065,-0.057 0.1439,-0.092 0.218,-0.1177 0.079,-0.026 0.1657,-0.031 0.2529,-0.026 0.087,0.01 0.1657,0.03 0.2442,0.078 0.087,0.048 0.1483,0.1003 0.205,0.1657 0.057,0.07 0.096,0.1439 0.1177,0.2267 0.026,0.078 0.03,0.1657 0.026,0.253 -0.013,0.091 -0.039,0.17 -0.083,0.2485" /><path
     style="fill:#252524;fill-rule:evenodd"
     inkscape:connector-curvature="0"
     id="path968"
     d="m 5.85364,15.993473 0.2747,-0.039 0.2267,-0.1003 0.1745,-0.1657 0.061,-0.1657 0.1177,-0.1003 0.1178,-0.218 -0.048,-0.1744 0.061,-0.157 0.01,-0.2268 -0.048,-0.1657 -0.109,-0.1177 -0.218,-0.1177 -0.1657,-0.061 -0.1657,-0.065 -0.3314,-0.01 -0.8852,-0.039 -0.5756,1.923 0.8895,0.031 0.3925,-0.039 0.2224,0.01 m 0.5189,-4.8663 0.5014,-0.031 0.3314,0.01 0.3314,0.1264 0.2181,0.1178 0.4229,0.4622 0.048,0.2747 0.048,0.2834 -0.07,0.3838 -0.065,0.1657 -0.1177,0.218 -0.1265,0.218 -0.3445,0.314 -0.1657,0.057 -0.1657,0.048 -0.1744,0.048 -0.3924,0.039 0.3924,0.07 0.1003,0.1177 0.1657,0.061 0.2137,0.2267 0.048,0.2835 0.048,0.2747 -0.017,0.3401 -0.07,0.3837 -0.065,0.1657 -0.1744,0.157 -0.061,0.1657 -0.1744,0.1657 -0.2268,0.1003 -0.109,0.1003 -0.2267,0.1003 -0.2181,-0.01 -0.2834,0.048 -0.2747,0.048 -0.4491,-0.026 -1.9449,-0.017 1.7181,-5.5423 1.33,0.052 m 0.03,0.6104 0.5015,0.078 0.218,0.01 0.3227,0.3444 0.048,0.1657 -0.061,0.1657 -0.01,0.1091 -0.057,0.1657 -0.061,0.1657 -0.065,0.1657 -0.1744,0.1569 -0.1744,0.057 -0.2268,0.1003 -0.2747,0.039 -0.3924,0.048 -0.8896,-0.039 0.5102,-1.7573 0.7849,0.026" /><polyline
     style="fill:#252524;fill-rule:evenodd"
     id="polyline970"
     points="7803.7,4295.4 7822.8,4294.4 7855.4,4180.4 7893.5,4180.9 7897.7,4167.1      7799.5,4166.7 7795.6,4180.7 7836.3,4181.3 7803.7,4295.4    "
     transform="matrix(0.04360559,0,0,0.04360559,-330.85136,-170.68203)" /><polyline
     style="fill:#252524;fill-rule:evenodd"
     id="polyline972"
     points="7913.1,4294.5 7930.9,4294.9 7964.8,4179.7 8003,4180.2 8006.9,4166.4      7909,4165.8 7903.8,4181.1 7945.7,4180.6 7913.1,4294.5    "
     transform="matrix(0.04360559,0,0,0.04360559,-330.85136,-170.68203)" /><polyline
     style="fill:#222221;fill-rule:evenodd"
     id="polyline974"
     points="8014.8,4246.3 8274.4,4246.3 8274.4,4263.6 8014.8,4263.6 8014.8,4246.3         "
     transform="matrix(0.04360559,0,0,0.04360559,-330.85136,-170.68203)" /><polyline
     style="fill:#222221;fill-rule:evenodd"
     id="polyline976"
     points="8130.6,4194.8 8311.6,4254 8130.4,4314.3 8130.6,4194.8    "
     transform="matrix(0.04360559,0,0,0.04360559,-330.85136,-170.68203)" /></svg>