<?xml version="1.0" encoding="UTF-8" standalone="no"?>
<!-- Generator: Adobe Illustrator 19.2.0, SVG Export Plug-In . SVG Version: 6.00 Build 0)  -->

<svg
   xmlns:dc="http://purl.org/dc/elements/1.1/"
   xmlns:cc="http://creativecommons.org/ns#"
   xmlns:rdf="http://www.w3.org/1999/02/22-rdf-syntax-ns#"
   xmlns:svg="http://www.w3.org/2000/svg"
   xmlns="http://www.w3.org/2000/svg"
   xmlns:sodipodi="http://sodipodi.sourceforge.net/DTD/sodipodi-0.dtd"
   xmlns:inkscape="http://www.inkscape.org/namespaces/inkscape"
   version="1.1"
   id="Layer_1"
   x="0px"
   y="0px"
   viewBox="0 0 32 32"
   enable-background="new 0 0 32 32"
   xml:space="preserve"
   inkscape:version="0.91 r13725"
   sodipodi:docname="icon - Copy (59) - Copy - Copy.svg"><metadata
     id="metadata8"><rdf:RDF><cc:Work
         rdf:about=""><dc:format>image/svg+xml</dc:format><dc:type
           rdf:resource="http://purl.org/dc/dcmitype/StillImage" /><dc:title /></cc:Work></rdf:RDF></metadata><defs
     id="defs6" /><sodipodi:namedview
     pagecolor="#ffffff"
     bordercolor="#666666"
     borderopacity="1"
     objecttolerance="10"
     gridtolerance="10"
     guidetolerance="10"
     inkscape:pageopacity="0"
     inkscape:pageshadow="2"
     inkscape:window-width="1280"
     inkscape:window-height="962"
     id="namedview4"
     showgrid="false"
     inkscape:zoom="24.8125"
     inkscape:cx="16"
     inkscape:cy="16"
     inkscape:window-x="1272"
     inkscape:window-y="-8"
     inkscape:window-maximized="1"
     inkscape:current-layer="Layer_1" /><path
     style="fill:#335c3d;fill-rule:evenodd"
     inkscape:connector-curvature="0"
     id="path888"
     d="m 2.3019441,21.499661 c -0.092,0.1134 -0.1914,0.2056 -0.319,0.2836 -0.1135,0.064 -0.2482,0.1134 -0.3829,0.1276 -0.1418,0.028 -0.2695,0.014 -0.4113,-0.014 -0.1418,-0.035 -0.26939996,-0.099 -0.38289995,-0.1914 -0.1134,-0.092 -0.2127,-0.1915 -0.2836,-0.3049 -0.078,-0.1276 -0.1134,-0.2553 -0.1276,-0.3971 -0.028,-0.1276 -0.014,-0.2694 0.01,-0.3971 0.042,-0.1418 0.1063,-0.2694 0.1914,-0.3828 0.078,-0.1277 0.1915,-0.2128 0.30489999,-0.2837 0.12759996,-0.078 0.25529996,-0.1134 0.38289996,-0.1347 0.1418,-0.028 0.2765,-0.014 0.4042,0.01 0.1418,0.043 0.2694,0.1064 0.3829,0.1914 0.1134,0.092 0.2127,0.1915 0.2836,0.3049 0.078,0.1277 0.1134,0.2553 0.1418,0.3971 0.014,0.1276 0.014,0.2695 -0.028,0.4042 -0.014,0.1489 -0.071,0.2765 -0.1631,0.39 z" /><path
     style="fill:#335c3d;fill-rule:evenodd"
     inkscape:connector-curvature="0"
     id="path890"
     d="m 5.9890441,21.357761 c -0.078,0.1277 -0.163,0.2482 -0.2694,0.3333 -0.1135,0.092 -0.234,0.1418 -0.3687,0.1914 -0.1276,0.043 -0.2695,0.05 -0.4113,0.043 -0.1418,-0.014 -0.2694,-0.064 -0.3899,-0.1276 -0.1277,-0.078 -0.2411,-0.1631 -0.3333,-0.2695 -0.085,-0.1134 -0.1418,-0.2269 -0.1773,-0.3687 -0.035,-0.1276 -0.05,-0.2694 -0.035,-0.4112 0.014,-0.1277 0.05,-0.2695 0.1134,-0.39 0.078,-0.1277 0.1631,-0.2482 0.2837,-0.3333 0.099,-0.092 0.2269,-0.1489 0.3545,-0.1914 0.1276,-0.043 0.2694,-0.05 0.4041,-0.043 0.1419,0.014 0.2695,0.05 0.3971,0.1277 0.1418,0.078 0.2411,0.163 0.3333,0.2694 0.085,0.1134 0.1489,0.234 0.1914,0.3687 0.035,0.1276 0.05,0.2695 0.035,0.4113 -0.014,0.1418 -0.05,0.2694 -0.1277,0.3899 z" /><path
     style="fill:#335c3d;fill-rule:evenodd"
     inkscape:connector-curvature="0"
     id="path892"
     d="m 20.460945,21.357761 c -0.078,0.1277 -0.1631,0.2482 -0.2695,0.3333 -0.1134,0.092 -0.2339,0.1418 -0.3687,0.1914 -0.1276,0.043 -0.2694,0.05 -0.4041,0.043 -0.1418,-0.014 -0.2695,-0.064 -0.3971,-0.1276 -0.1276,-0.078 -0.2411,-0.1631 -0.3333,-0.2695 -0.092,-0.1134 -0.1418,-0.2269 -0.1772,-0.3687 -0.035,-0.1276 -0.05,-0.2694 -0.035,-0.4112 0.014,-0.1277 0.05,-0.2695 0.1135,-0.39 0.078,-0.1277 0.1631,-0.2482 0.2836,-0.3333 0.099,-0.092 0.2269,-0.1489 0.3545,-0.1914 0.1277,-0.043 0.2695,-0.05 0.4113,-0.043 0.1418,0.014 0.2694,0.05 0.3971,0.1277 0.1418,0.078 0.241,0.163 0.3332,0.2694 0.092,0.1134 0.1489,0.234 0.1915,0.3687 0.043,0.1276 0.05,0.2695 0.043,0.4113 -0.028,0.1418 -0.064,0.2694 -0.1418,0.3899 z" /><path
     style="fill:#335c3d;fill-rule:evenodd"
     inkscape:connector-curvature="0"
     id="path894"
     d="m 13.228545,21.357761 c -0.078,0.1277 -0.1631,0.2482 -0.2694,0.3333 -0.1135,0.092 -0.2269,0.1418 -0.3687,0.1914 -0.1277,0.043 -0.2695,0.05 -0.4042,0.043 -0.1418,-0.014 -0.2694,-0.064 -0.397101,-0.1276 -0.1276,-0.078 -0.2411,-0.1631 -0.3332,-0.2695 -0.092,-0.1134 -0.1418,-0.2269 -0.1773,-0.3687 -0.043,-0.1276 -0.05,-0.2694 -0.043,-0.4112 0.014,-0.1277 0.05,-0.2695 0.1134,-0.39 0.078,-0.1277 0.1631,-0.2482 0.2836,-0.3333 0.1064,-0.092 0.234,-0.1489 0.354601,-0.1914 0.1276,-0.043 0.2694,-0.05 0.4112,-0.043 0.1418,0.014 0.2695,0.05 0.3971,0.1277 0.1418,0.078 0.2411,0.163 0.3332,0.2694 0.092,0.1134 0.156,0.234 0.1915,0.3687 0.042,0.1276 0.05,0.2695 0.042,0.4113 -0.021,0.1418 -0.064,0.2694 -0.1347,0.3899 z" /><path
     style="fill:#335c3d;fill-rule:evenodd"
     inkscape:connector-curvature="0"
     id="path896"
     d="m 27.700445,21.357761 c -0.078,0.1277 -0.1702,0.2482 -0.2695,0.3333 -0.1134,0.092 -0.234,0.1418 -0.3687,0.1914 -0.1276,0.043 -0.2694,0.05 -0.4113,0.043 -0.1418,-0.014 -0.2694,-0.064 -0.397,-0.1276 -0.1277,-0.078 -0.2411,-0.1631 -0.3333,-0.2695 -0.092,-0.1134 -0.1418,-0.2269 -0.1772,-0.3687 -0.035,-0.1276 -0.05,-0.2694 -0.035,-0.4112 0.01,-0.1277 0.05,-0.2695 0.1135,-0.39 0.078,-0.1277 0.163,-0.2482 0.2836,-0.3333 0.099,-0.092 0.2269,-0.1489 0.3545,-0.1914 0.1276,-0.043 0.2694,-0.05 0.4042,-0.043 0.1418,0.014 0.2694,0.05 0.397,0.1277 0.1418,0.078 0.2411,0.163 0.3333,0.2694 0.092,0.1134 0.1489,0.234 0.1914,0.3687 0.043,0.1276 0.05,0.2695 0.043,0.4113 -0.014,0.1418 -0.05,0.2694 -0.1276,0.3899 z" /><path
     style="fill:#335c3d;fill-rule:evenodd"
     inkscape:connector-curvature="0"
     id="path898"
     d="m 9.6123441,21.357761 c -0.078,0.1277 -0.1631,0.2482 -0.2694,0.3333 -0.1135,0.092 -0.2269,0.1418 -0.3687,0.1914 -0.1277,0.043 -0.2695,0.05 -0.4042,0.043 -0.1418,-0.014 -0.2694,-0.064 -0.3971,-0.1276 -0.1276,-0.078 -0.241,-0.1631 -0.3332,-0.2695 -0.092,-0.1134 -0.1418,-0.2269 -0.1773,-0.3687 -0.035,-0.1276 -0.05,-0.2694 -0.035,-0.4112 0.014,-0.1277 0.05,-0.2695 0.1134,-0.39 0.078,-0.1277 0.1631,-0.2482 0.2836,-0.3333 0.099,-0.092 0.2269,-0.1489 0.3546,-0.1914 0.1276,-0.043 0.2694,-0.05 0.4041,-0.043 0.1418,0.014 0.2695,0.05 0.3971,0.1277 0.1418,0.078 0.2411,0.163 0.3333,0.2694 0.085,0.1134 0.1489,0.234 0.1914,0.3687 0.043,0.1276 0.05,0.2695 0.043,0.4113 -0.021,0.1418 -0.057,0.2694 -0.1347,0.3899 z" /><path
     style="fill:#335c3d;fill-rule:evenodd"
     inkscape:connector-curvature="0"
     id="path900"
     d="m 24.091345,21.357761 c -0.078,0.1277 -0.1631,0.2482 -0.2695,0.3333 -0.1134,0.092 -0.2269,0.1418 -0.3687,0.1914 -0.1276,0.043 -0.2694,0.05 -0.4112,0.043 -0.1419,-0.014 -0.2695,-0.064 -0.3971,-0.1276 -0.1277,-0.078 -0.2411,-0.1631 -0.3333,-0.2695 -0.085,-0.1134 -0.1347,-0.2269 -0.1772,-0.3687 -0.036,-0.1276 -0.05,-0.2694 -0.036,-0.4112 0.014,-0.1277 0.05,-0.2695 0.1135,-0.39 0.078,-0.1277 0.163,-0.2482 0.2836,-0.3333 0.099,-0.092 0.234,-0.1489 0.3545,-0.1914 0.1276,-0.043 0.2694,-0.05 0.4113,-0.043 0.1418,0.014 0.2694,0.05 0.397,0.1277 0.1418,0.078 0.2411,0.163 0.3333,0.2694 0.092,0.1134 0.156,0.234 0.1914,0.3687 0.035,0.1276 0.05,0.2695 0.035,0.4113 -0.014,0.1418 -0.057,0.2694 -0.1276,0.3899 z" /><path
     style="fill:#335c3d;fill-rule:evenodd"
     inkscape:connector-curvature="0"
     id="path902"
     d="m 16.851845,21.357761 c -0.078,0.1277 -0.1631,0.2482 -0.2695,0.3333 -0.1134,0.092 -0.2269,0.1418 -0.3687,0.1914 -0.1276,0.043 -0.2694,0.05 -0.4041,0.043 -0.1418,-0.014 -0.2695,-0.064 -0.3971,-0.1276 -0.1276,-0.078 -0.2411,-0.1631 -0.3333,-0.2695 -0.092,-0.1134 -0.1418,-0.2269 -0.1772,-0.3687 -0.043,-0.1276 -0.05,-0.2694 -0.043,-0.4112 0.014,-0.1277 0.05,-0.2695 0.1135,-0.39 0.078,-0.1277 0.1631,-0.2482 0.2836,-0.3333 0.099,-0.092 0.234,-0.1489 0.3545,-0.1914 0.1277,-0.043 0.2695,-0.05 0.4042,-0.043 0.1418,0.014 0.2694,0.05 0.3971,0.1277 0.1418,0.078 0.2411,0.163 0.3332,0.2694 0.092,0.1134 0.156,0.234 0.1915,0.3687 0.035,0.1276 0.05,0.2695 0.035,0.4113 -0.01,0.1418 -0.043,0.2694 -0.1205,0.3899 z" /><path
     style="fill:#335c3d;fill-rule:evenodd"
     inkscape:connector-curvature="0"
     id="path904"
     d="m 31.252745,21.357761 c -0.078,0.1277 -0.1701,0.2482 -0.2694,0.3333 -0.1135,0.092 -0.234,0.1418 -0.3687,0.1914 -0.1277,0.043 -0.2695,0.05 -0.4113,0.043 -0.1418,-0.014 -0.2694,-0.064 -0.397,-0.1276 -0.1277,-0.078 -0.2411,-0.1631 -0.3333,-0.2695 -0.085,-0.1134 -0.1418,-0.2269 -0.1773,-0.3687 -0.035,-0.1276 -0.05,-0.2694 -0.035,-0.4112 0.014,-0.1277 0.05,-0.2695 0.1134,-0.39 0.078,-0.1277 0.1631,-0.2482 0.2836,-0.3333 0.099,-0.092 0.2269,-0.1489 0.3546,-0.1914 0.1276,-0.043 0.2694,-0.05 0.4041,-0.043 0.1419,0.014 0.2695,0.05 0.3971,0.1277 0.1418,0.078 0.2411,0.163 0.3333,0.2694 0.092,0.1134 0.156,0.234 0.1914,0.3687 0.035,0.1276 0.05,0.2695 0.035,0.4113 -0.01,0.1418 -0.05,0.2694 -0.1206,0.3899 z" /><path
     style="fill:#252524;fill-rule:evenodd"
     inkscape:connector-curvature="0"
     id="path906"
     d="m 8.9529441,16.628361 0.4467,-0.064 0.3687,-0.1702 0.2764999,-0.2694 0.1064,-0.2694 0.1914,-0.1631 0.1915,-0.3545 -0.078,-0.2837 0.099,-0.2552 0.014,-0.3687 -0.078,-0.2695 -0.1772,-0.1914 -0.3544999,-0.1915 -0.2695,-0.099 -0.2694,-0.099 -0.5318,-0.014 -1.4465,-0.064 -0.9359,3.1269 1.4464,0.05 0.6382,-0.064 0.3616,0.014 0,0 z m 0.8438,-7.9129996 0.8153999,-0.05 0.5389,0.01 0.5389,0.2056 0.354501,0.1915 0.6878,0.7516 0.078,0.4466996 0.078,0.4609 -0.1135,0.624 -0.099,0.2694 -0.1914,0.3545 -0.2056,0.3546 -0.560201,0.5105 -0.2694,0.092 -0.2695,0.078 -0.2836,0.078 -0.6381,0.064 0.6381,0.1134 0.1631,0.1915 0.2694,0.099 0.3475,0.3687 0.078,0.4609 0.078,0.4467 -0.028,0.546 -0.1134,0.624 -0.099,0.2694 -0.2836,0.2553 -0.099,0.2694 -0.2836,0.2695 -0.3687,0.163 -0.1773,0.1631 -0.3687,0.1631 -0.3544999,-0.014 -0.4609,0.078 -0.4467,0.078 -0.7304,-0.043 -3.1624,-0.028 2.7937,-9.0120996 2.1485,0.099 0,0 z m 0.05,0.9926 0.8153999,0.1277 0.3546,0.014 0.5247,0.5600996 0.078,0.2695 -0.1063,0.2694 -0.014,0.1773 -0.092,0.2694 -0.099,0.2694 -0.099,0.2695 -0.2836,0.2552 -0.2836,0.092 -0.3688,0.1631 -0.4466999,0.064 -0.6381,0.078 -1.4465,-0.064 0.8296,-2.8574996 1.2763,0.043 0,0 z" /><polygon
     style="fill:#252524;fill-rule:evenodd"
     id="polygon908"
     points="8177,3232.8 8078.9,3232.5 8075,3246.5 8115.6,3247 8083.1,3361.2 8083.1,3361.2 8102.1,3360.1 8134.7,3246.1 8172.9,3246.7 "
     transform="matrix(0.07090566,0,0,0.07090566,-558.36326,-220.67863)" /><polygon
     style="fill:#252524;fill-rule:evenodd"
     id="polygon910"
     points="8286.2,3232.1 8188.3,3231.6 8183.1,3246.9 8225,3246.3 8192.5,3360.3 8192.5,3360.3 8210.3,3360.6 8244.1,3245.4 8282.3,3246 "
     transform="matrix(0.07090566,0,0,0.07090566,-558.36326,-220.67863)" /></svg>