<?xml version="1.0" encoding="UTF-8" standalone="no"?>
<!-- Generator: Adobe Illustrator 19.2.0, SVG Export Plug-In . SVG Version: 6.00 Build 0)  -->

<svg
   xmlns:dc="http://purl.org/dc/elements/1.1/"
   xmlns:cc="http://creativecommons.org/ns#"
   xmlns:rdf="http://www.w3.org/1999/02/22-rdf-syntax-ns#"
   xmlns:svg="http://www.w3.org/2000/svg"
   xmlns="http://www.w3.org/2000/svg"
   xmlns:sodipodi="http://sodipodi.sourceforge.net/DTD/sodipodi-0.dtd"
   xmlns:inkscape="http://www.inkscape.org/namespaces/inkscape"
   version="1.1"
   id="Layer_1"
   x="0px"
   y="0px"
   viewBox="0 0 32 32"
   enable-background="new 0 0 32 32"
   xml:space="preserve"
   inkscape:version="0.91 r13725"
   sodipodi:docname="icon - Copy (14).svg"><metadata
     id="metadata8"><rdf:RDF><cc:Work
         rdf:about=""><dc:format>image/svg+xml</dc:format><dc:type
           rdf:resource="http://purl.org/dc/dcmitype/StillImage" /><dc:title /></cc:Work></rdf:RDF></metadata><defs
     id="defs6" /><sodipodi:namedview
     pagecolor="#ffffff"
     bordercolor="#666666"
     borderopacity="1"
     objecttolerance="10"
     gridtolerance="10"
     guidetolerance="10"
     inkscape:pageopacity="0"
     inkscape:pageshadow="2"
     inkscape:window-width="1280"
     inkscape:window-height="962"
     id="namedview4"
     showgrid="false"
     inkscape:zoom="24.8125"
     inkscape:cx="16"
     inkscape:cy="16"
     inkscape:window-x="1272"
     inkscape:window-y="-8"
     inkscape:window-maximized="1"
     inkscape:current-layer="Layer_1" /><polygon
     style="fill:#0080c6;fill-rule:evenodd"
     id="polygon686"
     points="5416.6,6304 5411.2,6276.9 5409.4,6259 5404,6248.1 5396.8,6228.3 5380.6,6204.9 5362.6,6188.8 5348.2,6179.8 5341,6172.5 5333.8,6163.6 5321.2,6156.4 5321.2,6527.1 5454.4,6527.1 5452.6,6500.1 5452.6,6485.7 5454.4,6469.5 5452.6,6448 5449,6424.5 5445.4,6410.1 5443.6,6370.6 5438.2,6349 5429.2,6334.5 5422,6321.9 "
     transform="matrix(0.08362557,0,0,0.08362557,-441.68889,-514.33246)" /><polygon
     style="fill:#0080c6;fill-rule:evenodd"
     id="polygon688"
     points="5535.4,6287.8 5546.2,6298.6 5566,6321.9 5576.8,6343.6 5589.4,6361.6 5596.6,6381.4 5600.2,6397.5 5607.4,6426.4 5611,6453.3 5618.2,6453.3 5618.2,6276.9 5611,6262.5 5598.4,6253.6 5567.8,6235.6 5560.6,6228.3 5544.4,6214 5528.2,6208.6 5519.2,6206.8 5515.6,6215.7 5519.2,6228.3 5517.4,6241 5522.8,6260.7 5530,6273.3 "
     transform="matrix(0.08362557,0,0,0.08362557,-441.68889,-514.33246)" /><polygon
     style="fill:#0080c6;fill-rule:evenodd"
     id="polygon690"
     points="5447.2,6334.5 5459.8,6347.1 5463.4,6358 5467,6377.8 5472.4,6458.8 5477.8,6527.1 5490.4,6525.4 5486.8,6500.1 5485,6453.3 5481.4,6411.9 5479.6,6376 5477.8,6366.9 5476,6354.4 5468.8,6339.9 5454.4,6325.6 5447.2,6314.8 5445.4,6304 5438.2,6296.8 5436.4,6268 5434.6,6237.4 5432.8,6217.5 5422,6196 5398.6,6179.8 5378.8,6170.7 5362.6,6158.1 5353.6,6169 5373.4,6181.6 5380.6,6185.1 5395,6190.6 5413,6203.1 5420.2,6219.4 5423.8,6237.4 5423.8,6269.8 5425.6,6289.5 5427.4,6300.4 5431,6305.7 5432.8,6313 5436.4,6320.1 "
     transform="matrix(0.08362557,0,0,0.08362557,-441.68889,-514.33246)" /><polygon
     style="fill:#0080c6;fill-rule:evenodd"
     id="polygon692"
     points="5456.2,6196 5445.4,6183.3 5440,6179.8 5422,6167.1 5413,6179.8 5432.8,6190.6 5445.4,6203.1 5456.2,6223 5459.8,6242.8 5461.6,6264.4 5468.8,6289.5 5479.6,6313 5492.2,6320.1 5499.4,6327.4 5510.2,6352.5 5517.4,6374.2 5530,6424.5 5537.2,6527.1 5553.4,6527.1 5548,6442.5 5544.4,6422.8 5535.4,6377.8 5524.6,6345.4 5512,6320.1 5501.2,6309.4 5490.4,6304 5481.4,6286 5476,6264.4 5474.2,6242.8 5468.8,6219.4 "
     transform="matrix(0.08362557,0,0,0.08362557,-441.68889,-514.33246)" /><polygon
     style="fill:#0080c6;fill-rule:evenodd"
     id="polygon694"
     points="5553.4,6347.1 5564.2,6370.6 5575,6397.5 5589.4,6478.6 5594.8,6514.5 5600.2,6527.1 5611,6523.6 5607.4,6514.5 5605.6,6501.9 5596.6,6455.1 5585.8,6395.7 5576.8,6366.9 5566,6343.6 5558.8,6334.5 5548,6320.1 5530,6300.4 5517.4,6282.4 5513.8,6266.2 5512,6244.5 5508.4,6231.9 5504.8,6217.5 5497.6,6206.8 5490.4,6197.8 5481.4,6186.9 5472.4,6181.6 5461.6,6176.2 5456.2,6186.9 5467,6192.4 5474.2,6199.5 5483.2,6208.6 5490.4,6217.5 5495.8,6228.3 5499.4,6237.4 5501.2,6249.9 5501.2,6259 5503,6269.8 5508.4,6287.8 5515.6,6300.4 5528.2,6314.8 "
     transform="matrix(0.08362557,0,0,0.08362557,-441.68889,-514.33246)" /></svg>