<?xml version="1.0" encoding="UTF-8" standalone="no"?>
<!-- Generator: Adobe Illustrator 19.2.0, SVG Export Plug-In . SVG Version: 6.00 Build 0)  -->

<svg
   xmlns:dc="http://purl.org/dc/elements/1.1/"
   xmlns:cc="http://creativecommons.org/ns#"
   xmlns:rdf="http://www.w3.org/1999/02/22-rdf-syntax-ns#"
   xmlns:svg="http://www.w3.org/2000/svg"
   xmlns="http://www.w3.org/2000/svg"
   xmlns:sodipodi="http://sodipodi.sourceforge.net/DTD/sodipodi-0.dtd"
   xmlns:inkscape="http://www.inkscape.org/namespaces/inkscape"
   version="1.1"
   id="Layer_1"
   x="0px"
   y="0px"
   viewBox="0 0 32 32"
   enable-background="new 0 0 32 32"
   xml:space="preserve"
   inkscape:version="0.91 r13725"
   sodipodi:docname="icon - Copy (60) - Copy - Copy.svg"><metadata
     id="metadata8"><rdf:RDF><cc:Work
         rdf:about=""><dc:format>image/svg+xml</dc:format><dc:type
           rdf:resource="http://purl.org/dc/dcmitype/StillImage" /><dc:title /></cc:Work></rdf:RDF></metadata><defs
     id="defs6" /><sodipodi:namedview
     pagecolor="#ffffff"
     bordercolor="#666666"
     borderopacity="1"
     objecttolerance="10"
     gridtolerance="10"
     guidetolerance="10"
     inkscape:pageopacity="0"
     inkscape:pageshadow="2"
     inkscape:window-width="1280"
     inkscape:window-height="962"
     id="namedview4"
     showgrid="false"
     inkscape:zoom="24.8125"
     inkscape:cx="16"
     inkscape:cy="16"
     inkscape:window-x="1272"
     inkscape:window-y="-8"
     inkscape:window-maximized="1"
     inkscape:current-layer="Layer_1" /><path
     style="fill:#335c3d;fill-rule:evenodd"
     inkscape:connector-curvature="0"
     id="path866"
     d="m 2.4168354,15.922424 c -0.092,0.1135 -0.1915,0.2057 -0.3192,0.2838 -0.1135,0.064 -0.2412,0.1135 -0.3831,0.1277 -0.1419,0.028 -0.2696,0.014 -0.4043,-0.014 -0.1419,-0.035 -0.2696,-0.099 -0.38309998,-0.1916 -0.1135,-0.092 -0.2199,-0.1915 -0.2838,-0.305 -0.078,-0.1277 -0.1135,-0.2554 -0.1277,-0.3973 -0.028,-0.1276 -0.014,-0.2695 0.014,-0.3972 0.035,-0.1419 0.099,-0.2696 0.1916,-0.3831 0.078,-0.1277 0.1915,-0.2199 0.30499998,-0.2837 0.1277,-0.078 0.2554,-0.1135 0.3831,-0.1419 0.1418,-0.028 0.2837,-0.014 0.4114,0.014 0.1419,0.035 0.2696,0.099 0.3831,0.1915 0.1135,0.092 0.2128,0.1915 0.2766,0.305 0.078,0.1277 0.1135,0.2554 0.1419,0.3973 0.014,0.1277 0.014,0.2696 -0.028,0.4114 -0.028,0.1419 -0.092,0.2696 -0.1773,0.3831 z" /><path
     style="fill:#335c3d;fill-rule:evenodd"
     inkscape:connector-curvature="0"
     id="path868"
     d="m 6.1056354,15.780524 c -0.078,0.1277 -0.1631,0.2412 -0.2695,0.3335 -0.1135,0.092 -0.227,0.1418 -0.3689,0.1915 -0.1277,0.035 -0.2696,0.05 -0.4115,0.035 -0.1418,-0.014 -0.2695,-0.064 -0.3901,-0.1277 -0.1277,-0.078 -0.2483,-0.1632 -0.3334,-0.2696 -0.092,-0.1135 -0.1419,-0.227 -0.1774,-0.3689 -0.043,-0.1277 -0.05,-0.2695 -0.043,-0.4114 0.014,-0.1277 0.05,-0.2696 0.1135,-0.3973 0.078,-0.1277 0.1632,-0.2412 0.2838,-0.3334 0.1064,-0.092 0.2341,-0.1561 0.3618,-0.1915 0.1277,-0.035 0.2696,-0.05 0.4043,-0.035 0.1419,0.014 0.2696,0.05 0.3973,0.1277 0.1419,0.078 0.2483,0.1631 0.3334,0.2696 0.092,0.1135 0.149,0.2341 0.1916,0.3688 0.043,0.1277 0.05,0.2696 0.043,0.4115 -0.021,0.1419 -0.057,0.2766 -0.1348,0.3972 z" /><path
     style="fill:#335c3d;fill-rule:evenodd"
     inkscape:connector-curvature="0"
     id="path870"
     d="m 20.584335,15.780524 c -0.078,0.1277 -0.1632,0.2412 -0.2696,0.3335 -0.1135,0.092 -0.2341,0.1418 -0.3689,0.1915 -0.1276,0.035 -0.2695,0.05 -0.4043,0.035 -0.1419,-0.014 -0.2696,-0.064 -0.3973,-0.1277 -0.1277,-0.078 -0.2412,-0.1632 -0.3334,-0.2696 -0.092,-0.1135 -0.1419,-0.227 -0.1773,-0.3689 -0.043,-0.1277 -0.05,-0.2695 -0.043,-0.4114 0.014,-0.1277 0.05,-0.2696 0.1135,-0.3973 0.078,-0.1277 0.1632,-0.2412 0.2838,-0.3334 0.099,-0.092 0.227,-0.1561 0.3547,-0.1915 0.1277,-0.035 0.2695,-0.05 0.4114,-0.035 0.1419,0.014 0.2696,0.05 0.3973,0.1277 0.1418,0.078 0.2412,0.1631 0.3334,0.2696 0.092,0.1135 0.149,0.2341 0.1915,0.3688 0.035,0.1277 0.05,0.2696 0.035,0.4115 -0.014,0.1419 -0.05,0.2766 -0.1277,0.3972 z" /><path
     style="fill:#335c3d;fill-rule:evenodd"
     inkscape:connector-curvature="0"
     id="path872"
     d="m 13.341435,15.780524 c -0.078,0.1277 -0.1631,0.2412 -0.2695,0.3335 -0.1136,0.092 -0.2271,0.1418 -0.3689,0.1915 -0.1277,0.035 -0.2696,0.05 -0.4044,0.035 -0.1419,-0.014 -0.2696,-0.064 -0.3972,-0.1277 -0.1277,-0.078 -0.2412,-0.1632 -0.3335,-0.2696 -0.092,-0.1135 -0.1418,-0.227 -0.1773,-0.3689 -0.043,-0.1277 -0.05,-0.2695 -0.043,-0.4114 0.014,-0.1277 0.057,-0.2696 0.1135,-0.3973 0.078,-0.1277 0.1632,-0.2412 0.2838,-0.3334 0.099,-0.092 0.2341,-0.1561 0.3547,-0.1915 0.1277,-0.035 0.2696,-0.05 0.4114,-0.035 0.1419,0.014 0.2696,0.05 0.3973,0.1277 0.1419,0.078 0.2412,0.1631 0.3334,0.2696 0.092,0.1135 0.1561,0.2341 0.1915,0.3688 0.035,0.1277 0.05,0.2696 0.035,0.4115 -0.01,0.1419 -0.05,0.2766 -0.1277,0.3972 z" /><path
     style="fill:#335c3d;fill-rule:evenodd"
     inkscape:connector-curvature="0"
     id="path874"
     d="m 27.827235,15.780524 c -0.078,0.1277 -0.1632,0.2412 -0.2696,0.3335 -0.1135,0.092 -0.2341,0.1418 -0.3689,0.1915 -0.1277,0.035 -0.2695,0.05 -0.4114,0.035 -0.1419,-0.014 -0.2696,-0.064 -0.3973,-0.1277 -0.1277,-0.078 -0.2412,-0.1632 -0.3334,-0.2696 -0.085,-0.1135 -0.1419,-0.227 -0.1773,-0.3689 -0.035,-0.1277 -0.05,-0.2695 -0.035,-0.4114 0.014,-0.1277 0.05,-0.2696 0.1135,-0.3973 0.078,-0.1277 0.1632,-0.2412 0.2837,-0.3334 0.099,-0.092 0.2341,-0.1561 0.3547,-0.1915 0.1277,-0.035 0.2696,-0.05 0.4115,-0.035 0.1419,0.014 0.2696,0.05 0.3973,0.1277 0.1418,0.078 0.2411,0.1631 0.3334,0.2696 0.092,0.1135 0.156,0.2341 0.1915,0.3688 0.035,0.1277 0.05,0.2696 0.035,0.4115 -0.014,0.1419 -0.057,0.2766 -0.1277,0.3972 z" /><path
     style="fill:#335c3d;fill-rule:evenodd"
     inkscape:connector-curvature="0"
     id="path876"
     d="m 9.7306351,15.780524 c -0.078,0.1277 -0.1631,0.2412 -0.2695,0.3335 -0.1136,0.092 -0.2271,0.1418 -0.3689,0.1915 -0.1277,0.035 -0.2696,0.05 -0.4115,0.035 -0.1419,-0.014 -0.2695,-0.064 -0.3972,-0.1277 -0.1277,-0.078 -0.2412,-0.1632 -0.3335,-0.2696 -0.092,-0.1135 -0.1417997,-0.227 -0.1772997,-0.3689 -0.043,-0.1277 -0.05,-0.2695 -0.043,-0.4114 0.014,-0.1277 0.05,-0.2696 0.1135,-0.3973 0.078,-0.1277 0.1631997,-0.2412 0.2766997,-0.3334 0.1064,-0.092 0.2341,-0.1561 0.3547,-0.1915 0.1277,-0.035 0.2696,-0.05 0.4114,-0.035 0.1419,0.014 0.2696,0.05 0.3973,0.1277 0.1419,0.078 0.2412,0.1631 0.3334,0.2696 0.092,0.1135 0.149,0.2341 0.1916,0.3688 0.042,0.1277 0.05,0.2696 0.042,0.4115 -0.01,0.1419 -0.042,0.2766 -0.1206,0.3972 z" /><path
     style="fill:#335c3d;fill-rule:evenodd"
     inkscape:connector-curvature="0"
     id="path878"
     d="m 24.209335,15.780524 c -0.078,0.1277 -0.1632,0.2412 -0.2696,0.3335 -0.1135,0.092 -0.227,0.1418 -0.3689,0.1915 -0.1277,0.035 -0.2695,0.05 -0.4043,0.035 -0.1419,-0.014 -0.2696,-0.064 -0.3973,-0.1277 -0.1277,-0.078 -0.2483,-0.1632 -0.3334,-0.2696 -0.092,-0.1135 -0.1419,-0.227 -0.1773,-0.3689 -0.035,-0.1277 -0.05,-0.2695 -0.035,-0.4114 0.01,-0.1277 0.05,-0.2696 0.1135,-0.3973 0.078,-0.1277 0.1632,-0.2412 0.2838,-0.3334 0.1064,-0.092 0.234,-0.1561 0.3617,-0.1915 0.1277,-0.035 0.2696,-0.05 0.4044,-0.035 0.1419,0.014 0.2696,0.05 0.3973,0.1277 0.1418,0.078 0.2411,0.1631 0.3334,0.2696 0.092,0.1135 0.156,0.2341 0.1915,0.3688 0.035,0.1277 0.05,0.2696 0.035,0.4115 -0.021,0.1419 -0.057,0.2766 -0.1348,0.3972 z" /><path
     style="fill:#335c3d;fill-rule:evenodd"
     inkscape:connector-curvature="0"
     id="path880"
     d="m 16.973535,15.780524 c -0.078,0.1277 -0.1632,0.2412 -0.2696,0.3335 -0.1135,0.092 -0.2341,0.1418 -0.3689,0.1915 -0.1276,0.035 -0.2695,0.05 -0.4114,0.035 -0.1419,-0.014 -0.2696,-0.064 -0.3973,-0.1277 -0.1276,-0.078 -0.2412,-0.1632 -0.3334,-0.2696 -0.092,-0.1135 -0.1418,-0.227 -0.1773,-0.3689 -0.043,-0.1277 -0.05,-0.2695 -0.043,-0.4114 0.014,-0.1277 0.05,-0.2696 0.1135,-0.3973 0.078,-0.1277 0.1632,-0.2412 0.2838,-0.3334 0.099,-0.092 0.227,-0.1561 0.3547,-0.1915 0.1277,-0.035 0.2695,-0.05 0.4043,-0.035 0.1419,0.014 0.2696,0.05 0.3973,0.1277 0.1419,0.078 0.2412,0.1631 0.3334,0.2696 0.092,0.1135 0.149,0.2341 0.1915,0.3688 0.035,0.1277 0.05,0.2696 0.035,0.4115 0,0.1419 -0.035,0.2766 -0.1135,0.3972 z" /><path
     style="fill:#335c3d;fill-rule:evenodd"
     inkscape:connector-curvature="0"
     id="path882"
     d="m 31.374135,15.780524 c -0.078,0.1277 -0.1631,0.2412 -0.2695,0.3335 -0.1135,0.092 -0.2341,0.1418 -0.3689,0.1915 -0.1277,0.035 -0.2696,0.05 -0.4115,0.035 -0.1418,-0.014 -0.2695,-0.064 -0.3972,-0.1277 -0.1277,-0.078 -0.2412,-0.1632 -0.3334,-0.2696 -0.092,-0.1135 -0.1419,-0.227 -0.1774,-0.3689 -0.043,-0.1277 -0.05,-0.2695 -0.043,-0.4114 0.014,-0.1277 0.05,-0.2696 0.1135,-0.3973 0.078,-0.1277 0.1631,-0.2412 0.2837,-0.3334 0.099,-0.092 0.227,-0.1561 0.3547,-0.1915 0.1277,-0.035 0.2696,-0.05 0.4115,-0.035 0.1418,0.014 0.2695,0.05 0.3972,0.1277 0.1419,0.078 0.2412,0.1631 0.3334,0.2696 0.092,0.1135 0.1561,0.2341 0.1916,0.3688 0.035,0.1277 0.05,0.2696 0.035,0.4115 -0.01,0.1419 -0.042,0.2766 -0.1206,0.3972 z" /></svg>