<?xml version="1.0" encoding="UTF-8" standalone="no"?>
<!-- Generator: Adobe Illustrator 19.2.0, SVG Export Plug-In . SVG Version: 6.00 Build 0)  -->

<svg
   xmlns:dc="http://purl.org/dc/elements/1.1/"
   xmlns:cc="http://creativecommons.org/ns#"
   xmlns:rdf="http://www.w3.org/1999/02/22-rdf-syntax-ns#"
   xmlns:svg="http://www.w3.org/2000/svg"
   xmlns="http://www.w3.org/2000/svg"
   xmlns:sodipodi="http://sodipodi.sourceforge.net/DTD/sodipodi-0.dtd"
   xmlns:inkscape="http://www.inkscape.org/namespaces/inkscape"
   version="1.1"
   id="Layer_1"
   x="0px"
   y="0px"
   viewBox="0 0 32 32"
   enable-background="new 0 0 32 32"
   xml:space="preserve"
   inkscape:version="0.91 r13725"
   sodipodi:docname="icon - Copy (14).svg"><metadata
     id="metadata8"><rdf:RDF><cc:Work
         rdf:about=""><dc:format>image/svg+xml</dc:format><dc:type
           rdf:resource="http://purl.org/dc/dcmitype/StillImage" /><dc:title /></cc:Work></rdf:RDF></metadata><defs
     id="defs6" /><sodipodi:namedview
     pagecolor="#ffffff"
     bordercolor="#666666"
     borderopacity="1"
     objecttolerance="10"
     gridtolerance="10"
     guidetolerance="10"
     inkscape:pageopacity="0"
     inkscape:pageshadow="2"
     inkscape:window-width="1280"
     inkscape:window-height="962"
     id="namedview4"
     showgrid="false"
     inkscape:zoom="24.8125"
     inkscape:cx="16"
     inkscape:cy="16"
     inkscape:window-x="1272"
     inkscape:window-y="-8"
     inkscape:window-maximized="1"
     inkscape:current-layer="Layer_1" /><polygon
     transform="matrix(0.07292402,0,0,0.07292402,-90.182745,-931.20222)"
     style="fill:#3f3e3e;fill-rule:evenodd"
     id="polygon112"
     points="1358.4,12826.5 1358.4,12819.4 1356.7,12812.4 1354.9,12807.1 1349.6,12801.8 1344.3,12798.3 1339,12796.5 1332,12796.5 1324.9,12798.3 1314.3,12805.3 1310.8,12810.6 1310.8,12817.6 1309,12824.7 1310.8,12830 1314.3,12835.3 1317.9,12840.6 1323.1,12844.1 1330.2,12845.9 1337.3,12845.9 1342.6,12844.1 1347.8,12842.4 1353.1,12837 1356.7,12831.8 " /><polygon
     transform="matrix(0.07292402,0,0,0.07292402,-90.182745,-931.20222)"
     style="fill:#3f3e3e;fill-rule:evenodd"
     id="polygon114"
     points="1441.4,12942.9 1443.1,12941.2 1443.1,12927 1444.9,12925.3 1448.4,12923.5 1450.2,12921.7 1436.1,12868.8 1430.8,12868.8 1427.2,12865.3 1425.5,12861.8 1423.7,12858.3 1420.2,12856.5 1418.4,12854.7 1414.9,12854.7 1399,12858.3 1395.5,12858.3 1393.7,12860 1393.7,12865.3 1413.1,12942.9 1413.1,12946.4 1414.9,12948.2 1418.4,12950 1420.2,12950 1439.6,12946.4 " /><polygon
     transform="matrix(0.07292402,0,0,0.07292402,-90.182745,-931.20222)"
     style="fill:#3f3e3e;fill-rule:evenodd"
     id="polygon116"
     points="1367.3,12884.7 1365.5,12881.2 1362,12877.6 1358.4,12874.1 1356.7,12872.3 1342.6,12872.3 1339,12874.1 1333.7,12879.4 1323.1,12918.2 1307.3,12891.7 1302,12888.2 1298.5,12886.5 1293.2,12886.5 1287.9,12890 1284.3,12893.5 1282.6,12898.8 1284.3,12904.1 1286.1,12909.4 1316.1,12962.3 1317.9,12965.9 1323.1,12969.4 1332,12971.1 1337.3,12969.4 1340.8,12967.6 1344.3,12962.3 " /><polygon
     transform="matrix(0.07292402,0,0,0.07292402,-90.182745,-931.20222)"
     style="fill:#3f3e3e;fill-rule:evenodd"
     id="polygon118"
     points="1369,12967.6 1376.1,12964.1 1381.4,12962.3 1390.2,12964.1 1395.5,12965.9 1400.8,12967.6 1404.3,12971.1 1406.1,12971.1 1383.1,12879.4 1379.6,12874.1 1376.1,12865.3 1369,12858.3 1363.7,12854.7 1356.7,12852.9 1340.8,12852.9 1333.7,12854.7 1326.7,12860 1323.1,12865.3 1321.4,12868.8 1319.6,12875.9 1319.6,12882.9 1321.4,12893.5 1323.1,12895.3 1324.9,12893.5 1324.9,12891.7 1326.7,12888.2 1326.7,12882.9 1330.2,12877.6 1333.7,12872.3 1337.3,12868.8 1342.6,12867 1347.8,12865.3 1353.1,12865.3 1358.4,12867 1363.7,12870.6 1367.3,12875.9 1370.8,12879.4 1370.8,12890 1349.6,12971.1 1356.7,12985.3 1360.2,12976.4 1365.5,12971.1 " /><polygon
     transform="matrix(0.07292402,0,0,0.07292402,-90.182745,-931.20222)"
     style="fill:#3f3e3e;fill-rule:evenodd"
     id="polygon120"
     points="1254.4,12990.5 1259.6,12992.3 1263.2,12990.5 1309,12967.6 1296.7,12942.9 1249.1,12969.4 1245.5,12972.9 1243.8,12976.4 1243.8,12981.7 1245.5,12985.3 1250.8,12988.8 " /><polygon
     transform="matrix(0.07292402,0,0,0.07292402,-90.182745,-931.20222)"
     style="fill:#3f3e3e;fill-rule:evenodd"
     id="polygon122"
     points="1284.3,12990.5 1264.9,13001.1 1310.8,13066.4 1310.8,13050.5 1312.6,13043.5 1314.3,13038.2 " /><polygon
     transform="matrix(0.07292402,0,0,0.07292402,-90.182745,-931.20222)"
     style="fill:#3f3e3e;fill-rule:evenodd"
     id="polygon124"
     points="1404.3,13170.5 1404.3,13163.4 1402.5,13159.9 1400.8,13158.1 1374.3,13117.6 1374.3,13119.3 1377.8,13159.9 1388.4,13174 1391.9,13175.8 1400.8,13175.8 1402.5,13174 " /><polygon
     transform="matrix(0.07292402,0,0,0.07292402,-90.182745,-931.20222)"
     style="fill:#3f3e3e;fill-rule:evenodd"
     id="polygon126"
     points="1317.9,13052.3 1316.1,13057.6 1317.9,13066.4 1326.7,13108.7 1337.3,13107 1354.9,13107 1363.7,13105.2 1356.7,13061.1 1406.1,13002.9 1407.8,12997.6 1409.6,12990.5 1407.8,12983.5 1404.3,12980 1400.8,12974.7 1397.3,12971.1 1383.1,12967.6 1372.6,12971.1 1367.3,12974.7 1365.5,12978.2 1360.2,12985.3 1319.6,13047 " /><polygon
     transform="matrix(0.07292402,0,0,0.07292402,-90.182745,-931.20222)"
     style="fill:#3f3e3e;fill-rule:evenodd"
     id="polygon128"
     points="1340.8,13172.3 1346.1,13177.5 1349.6,13181.1 1354.9,13181.1 1360.2,13179.3 1365.5,13177.5 1369,13175.8 1372.6,13168.7 1372.6,13163.4 1363.7,13105.2 1354.9,13107 1358.4,13135.2 1342.6,13135.2 1337.3,13107 1326.7,13108.7 1339,13168.7 " /><polygon
     transform="matrix(0.07292402,0,0,0.07292402,-90.182745,-931.20222)"
     style="fill:#3f3e3e;fill-rule:evenodd"
     id="polygon130"
     points="1429,13128.2 1436.1,13122.9 1450.2,13114 1457.2,13108.7 1430.8,13071.7 1409.6,13008.2 1379.6,13043.5 1406.1,13099.9 " /><polygon
     transform="matrix(0.07292402,0,0,0.07292402,-90.182745,-931.20222)"
     style="fill:#3f3e3e;fill-rule:evenodd"
     id="polygon132"
     points="1485.5,13182.8 1489,13179.3 1494.3,13174 1494.3,13165.2 1492.5,13159.9 1457.2,13108.7 1450.2,13114 1467.8,13138.7 1453.7,13147.6 1436.1,13122.9 1429,13128.2 1464.3,13175.8 1467.8,13179.3 1473.1,13182.8 " /><polygon
     transform="matrix(0.07292402,0,0,0.07292402,-90.182745,-931.20222)"
     style="fill:#3f3e3e;fill-rule:evenodd"
     id="polygon134"
     points="1533.1,12826.5 1533.1,12821.2 1531.3,12814.1 1529.6,12808.8 1524.3,12803.5 1519,12800 1513.7,12798.3 1499.6,12798.3 1494.3,12801.8 1490.8,12807.1 1485.5,12812.4 1485.5,12819.4 1483.7,12824.7 1485.5,12831.8 1489,12837 1492.5,12842.4 1497.8,12844.1 1504.9,12847.6 1510.1,12847.6 1517.2,12845.9 1522.5,12844.1 1527.8,12838.8 1531.3,12833.5 " /><polygon
     transform="matrix(0.07292402,0,0,0.07292402,-90.182745,-931.20222)"
     style="fill:#3f3e3e;fill-rule:evenodd"
     id="polygon136"
     points="1616,12944.7 1617.8,12941.2 1617.8,12928.8 1623.1,12923.5 1624.8,12923.5 1610.7,12870.6 1605.4,12868.8 1601.9,12867 1600.1,12863.5 1596.6,12860 1594.8,12856.5 1593.1,12856.5 1589.5,12854.7 1573.7,12858.3 1570.1,12860 1568.4,12861.8 1568.4,12867 1586,12944.7 1589.5,12948.2 1589.5,12950 1593.1,12950 1594.8,12951.7 1614.2,12948.2 " /><polygon
     transform="matrix(0.07292402,0,0,0.07292402,-90.182745,-931.20222)"
     style="fill:#3f3e3e;fill-rule:evenodd"
     id="polygon138"
     points="1540.1,12882.9 1536.6,12877.6 1533.1,12875.9 1531.3,12874.1 1526,12872.3 1520.7,12872.3 1517.2,12874.1 1513.7,12875.9 1508.4,12879.4 1497.8,12918.2 1481.9,12891.7 1476.6,12888.2 1467.8,12888.2 1462.5,12891.7 1459,12895.3 1457.2,12900.6 1459,12905.9 1460.8,12911.2 1490.8,12964.1 1492.5,12967.6 1497.8,12969.4 1504.9,12971.1 1510.1,12971.1 1515.4,12969.4 1519,12964.1 1541.9,12886.5 " /><polygon
     transform="matrix(0.07292402,0,0,0.07292402,-90.182745,-931.20222)"
     style="fill:#3f3e3e;fill-rule:evenodd"
     id="polygon140"
     points="1550.7,12965.9 1556,12964.1 1564.8,12965.9 1570.1,12965.9 1575.4,12969.4 1579,12971.1 1580.7,12972.9 1580.7,12971.1 1557.8,12879.4 1556,12874.1 1550.7,12865.3 1543.7,12860 1538.4,12854.7 1531.3,12852.9 1522.5,12852.9 1508.4,12856.5 1501.3,12861.8 1497.8,12867 1492.5,12877.6 1492.5,12882.9 1496,12895.3 1499.6,12895.3 1499.6,12893.5 1501.3,12890 1501.3,12884.7 1503.1,12879.4 1508.4,12874.1 1510.1,12870.6 1517.2,12867 1527.8,12867 1533.1,12868.8 1538.4,12872.3 1543.7,12875.9 1545.4,12879.4 1545.4,12890 1522.5,12972.9 1531.3,12985.3 1534.9,12976.4 1538.4,12972.9 1543.7,12967.6 " /><polygon
     transform="matrix(0.07292402,0,0,0.07292402,-90.182745,-931.20222)"
     style="fill:#3f3e3e;fill-rule:evenodd"
     id="polygon142"
     points="1437.8,12992.3 1483.7,12969.4 1471.3,12944.7 1423.7,12971.1 1420.2,12974.7 1418.4,12978.2 1418.4,12983.5 1421.9,12987 1425.5,12990.5 1429,12992.3 " /><polygon
     transform="matrix(0.07292402,0,0,0.07292402,-90.182745,-931.20222)"
     style="fill:#3f3e3e;fill-rule:evenodd"
     id="polygon144"
     points="1459,12992.3 1439.6,13002.9 1485.5,13068.2 1485.5,13050.5 1487.2,13045.3 1490.8,13038.2 " /><polygon
     transform="matrix(0.07292402,0,0,0.07292402,-90.182745,-931.20222)"
     style="fill:#3f3e3e;fill-rule:evenodd"
     id="polygon146"
     points="1577.2,13161.7 1577.2,13158.1 1549,13119.3 1552.5,13159.9 1561.3,13175.8 1566.6,13177.5 1575.4,13177.5 1577.2,13175.8 1579,13172.3 1579,13165.2 " /><polygon
     transform="matrix(0.07292402,0,0,0.07292402,-90.182745,-931.20222)"
     style="fill:#3f3e3e;fill-rule:evenodd"
     id="polygon148"
     points="1494.3,13048.8 1492.5,13054 1492.5,13066.4 1501.3,13110.5 1510.1,13108.7 1529.6,13107 1538.4,13107 1531.3,13062.9 1579,13002.9 1582.5,12999.4 1584.3,12992.3 1582.5,12985.3 1579,12980 1575.4,12976.4 1571.9,12972.9 1564.8,12971.1 1557.8,12969.4 1547.2,12972.9 1543.7,12976.4 1540.1,12980 1534.9,12985.3 " /><polygon
     transform="matrix(0.07292402,0,0,0.07292402,-90.182745,-931.20222)"
     style="fill:#3f3e3e;fill-rule:evenodd"
     id="polygon150"
     points="1513.7,13170.5 1515.4,13174 1520.7,13179.3 1524.3,13181.1 1529.6,13182.8 1534.9,13181.1 1540.1,13179.3 1543.7,13175.8 1545.4,13172.3 1547.2,13170.5 1547.2,13165.2 1538.4,13107 1529.6,13107 1533.1,13135.2 1517.2,13137 1510.1,13108.7 1501.3,13110.5 " /><polygon
     transform="matrix(0.07292402,0,0,0.07292402,-90.182745,-931.20222)"
     style="fill:#3f3e3e;fill-rule:evenodd"
     id="polygon152"
     points="1601.9,13129.9 1610.7,13124.7 1624.8,13115.8 1631.9,13110.5 1605.4,13071.7 1584.3,13010 1554.3,13045.3 1580.7,13101.7 " /><polygon
     transform="matrix(0.07292402,0,0,0.07292402,-90.182745,-931.20222)"
     style="fill:#3f3e3e;fill-rule:evenodd"
     id="polygon154"
     points="1653.1,13184.6 1658.3,13182.8 1663.6,13181.1 1668.9,13175.8 1668.9,13161.7 1631.9,13110.5 1624.8,13115.8 1642.5,13140.5 1628.4,13147.6 1610.7,13124.7 1601.9,13129.9 1638.9,13177.5 1642.5,13181.1 1647.8,13182.8 " /></svg>