<?xml version="1.0" encoding="UTF-8" standalone="no"?>
<!-- Generator: Adobe Illustrator 19.2.0, SVG Export Plug-In . SVG Version: 6.00 Build 0)  -->

<svg
   xmlns:dc="http://purl.org/dc/elements/1.1/"
   xmlns:cc="http://creativecommons.org/ns#"
   xmlns:rdf="http://www.w3.org/1999/02/22-rdf-syntax-ns#"
   xmlns:svg="http://www.w3.org/2000/svg"
   xmlns="http://www.w3.org/2000/svg"
   xmlns:sodipodi="http://sodipodi.sourceforge.net/DTD/sodipodi-0.dtd"
   xmlns:inkscape="http://www.inkscape.org/namespaces/inkscape"
   version="1.1"
   id="Layer_1"
   x="0px"
   y="0px"
   viewBox="0 0 32 32"
   enable-background="new 0 0 32 32"
   xml:space="preserve"
   inkscape:version="0.91 r13725"
   sodipodi:docname="icon.svg"><metadata
     id="metadata8"><rdf:RDF><cc:Work
         rdf:about=""><dc:format>image/svg+xml</dc:format><dc:type
           rdf:resource="http://purl.org/dc/dcmitype/StillImage" /><dc:title /></cc:Work></rdf:RDF></metadata><defs
     id="defs6" /><sodipodi:namedview
     pagecolor="#ffffff"
     bordercolor="#666666"
     borderopacity="1"
     objecttolerance="10"
     gridtolerance="10"
     guidetolerance="10"
     inkscape:pageopacity="0"
     inkscape:pageshadow="2"
     inkscape:window-width="1280"
     inkscape:window-height="962"
     id="namedview4"
     showgrid="false"
     inkscape:zoom="24.8125"
     inkscape:cx="16"
     inkscape:cy="16"
     inkscape:window-x="1272"
     inkscape:window-y="-8"
     inkscape:window-maximized="1"
     inkscape:current-layer="Layer_1" /><polygon
     style="fill:#0080c6;fill-rule:evenodd"
     id="polygon850"
     points="6656.6,8443.9 6656.6,8240.5 6494.6,8240.5 "
     transform="matrix(0.0808555,0,0,0.0808555,-524.25244,-657.09766)" /><polygon
     style="fill:#0080c6;fill-rule:evenodd"
     id="polygon852"
     points="6656.6,8211.7 6656.6,8132.5 6554,8132.5 6494.6,8211.7 "
     transform="matrix(0.0808555,0,0,0.0808555,-524.25244,-657.09766)" /><polygon
     style="fill:#0080c6;fill-rule:evenodd"
     id="polygon854"
     points="6676.4,8238.7 6680.1,8240.5 6784.4,8240.5 6784.4,8325.1 6744.8,8325.1 6741.3,8326.9 6739.4,8326.9 6735.8,8328.7 6734,8330.5 6730.4,8334.1 6728.7,8335.9 6726.9,8337.7 6672.8,8415.1 6671,8418.7 6669.3,8422.3 6669.3,8424.1 6671,8427.7 6671,8429.5 6672.8,8433.1 6672.8,8434.9 6674.6,8436.7 6678.2,8438.5 6681.9,8440.3 6683.7,8442.1 6694.4,8442.1 6694.4,8440.3 6698.1,8438.5 6699.8,8438.5 6701.6,8434.9 6753.8,8362.9 6822.2,8362.9 6831.3,8361.1 6836.6,8359.3 6842,8355.7 6845.7,8352.1 6851,8346.7 6854.6,8343.1 6856.4,8335.9 6858.2,8332.3 6860.1,8325.1 6860.1,8236.9 6858.2,8231.5 6854.6,8226.1 6851,8222.5 6847.5,8218.9 6842,8215.3 6836.6,8213.5 6831.3,8213.5 6683.7,8211.7 6681.9,8213.5 6680.1,8213.5 6678.2,8215.3 6676.4,8215.3 6674.6,8217.1 6672.8,8218.9 6672.8,8220.7 6671,8224.3 6671,8227.9 6672.8,8229.7 6672.8,8235.1 "
     transform="matrix(0.0808555,0,0,0.0808555,-524.25244,-657.09766)" /><polygon
     style="fill:#0080c6;fill-rule:evenodd"
     id="polygon856"
     points="6710.7,8465.5 6716,8463.7 6719.6,8461.9 6721.4,8460.1 6721.4,8452.9 6719.6,8451.1 6716,8447.5 6712.5,8449.3 6597.2,8449.3 6595.4,8451.1 6593.7,8451.1 6591.9,8452.9 6591.9,8460.1 6593.7,8460.1 6593.7,8461.9 6600.8,8465.5 6608.1,8467.3 6615.2,8470.9 6620.7,8472.7 6627.8,8472.7 6638.7,8474.5 6642.2,8476.3 6674.6,8476.3 6683.7,8474.5 6692.6,8472.7 6696.3,8470.9 6703.4,8469.1 "
     transform="matrix(0.0808555,0,0,0.0808555,-524.25244,-657.09766)" /><polygon
     style="fill:#0080c6;fill-rule:evenodd"
     id="polygon858"
     points="6672.8,8515.9 6683.7,8514.1 6696.3,8510.5 6707,8508.7 6717.8,8506.9 6726.9,8503.3 6735.8,8499.7 6744.8,8496.1 6752,8494.3 6759.3,8490.7 6766.4,8488.9 6773.7,8487.1 6779,8485.3 6809.6,8485.3 6816.9,8487.1 6824,8487.1 6829.4,8488.9 6834.8,8490.7 6840.2,8492.5 6847.5,8496.1 6852.8,8497.9 6861.9,8497.9 6865.4,8494.3 6870.8,8488.9 6870.8,8483.5 6867.2,8476.3 6865.4,8474.5 6847.5,8467.3 6831.3,8461.9 6818.7,8458.3 6806,8456.5 6793.4,8456.5 6777.2,8460.1 6766.4,8461.9 6752,8465.5 6734,8470.9 6721.4,8476.3 6714.3,8478.1 6698.1,8483.5 6683.7,8487.1 6671,8488.9 6640.4,8488.9 6631.4,8487.1 6617,8483.5 6606.3,8479.9 6593.7,8476.3 6584.6,8470.9 6570.2,8463.7 6564.8,8460.1 6557.6,8454.7 6554,8452.9 6548.7,8447.5 6545.1,8443.9 6541.4,8442.1 6537.8,8438.5 6534.3,8434.9 6530.7,8433.1 6528.8,8431.3 6525.2,8429.5 6519.8,8429.5 6516.3,8431.3 6514.4,8433.1 6512.6,8436.7 6510.8,8438.5 6510.8,8442.1 6509,8443.9 6510.8,8447.5 6510.8,8449.3 6527,8465.5 6537.8,8472.7 6545.1,8479.9 6555.8,8487.1 6568.4,8494.3 6573.8,8496.1 6588.2,8501.5 6600.8,8506.9 6611.6,8510.5 6624.3,8512.3 6633.2,8514.1 6647.6,8515.9 "
     transform="matrix(0.0808555,0,0,0.0808555,-524.25244,-657.09766)" /><polygon
     style="fill:#0080c6;fill-rule:evenodd"
     id="polygon860"
     points="6798.8,8191.9 6802.5,8199.1 6816.9,8206.3 6831.3,8206.3 6838.4,8202.7 6843.8,8199.1 6849.3,8191.9 6851,8184.7 6852.8,8177.5 6851,8170.3 6847.5,8163.1 6843.8,8157.7 6838.4,8152.3 6831.3,8150.5 6822.2,8148.7 6815.1,8150.5 6809.6,8152.3 6802.5,8157.7 6798.8,8163.1 6795.2,8170.3 6793.4,8179.3 6795.2,8186.5 "
     transform="matrix(0.0808555,0,0,0.0808555,-524.25244,-657.09766)" /></svg>