<?xml version="1.0" encoding="UTF-8" standalone="no"?>
<!-- Generator: Adobe Illustrator 19.2.0, SVG Export Plug-In . SVG Version: 6.00 Build 0)  -->

<svg
   xmlns:dc="http://purl.org/dc/elements/1.1/"
   xmlns:cc="http://creativecommons.org/ns#"
   xmlns:rdf="http://www.w3.org/1999/02/22-rdf-syntax-ns#"
   xmlns:svg="http://www.w3.org/2000/svg"
   xmlns="http://www.w3.org/2000/svg"
   xmlns:sodipodi="http://sodipodi.sourceforge.net/DTD/sodipodi-0.dtd"
   xmlns:inkscape="http://www.inkscape.org/namespaces/inkscape"
   version="1.1"
   id="Layer_1"
   x="0px"
   y="0px"
   viewBox="0 0 32 32"
   enable-background="new 0 0 32 32"
   xml:space="preserve"
   inkscape:version="0.91 r13725"
   sodipodi:docname="icon - Copy (63) - Copy - Copy.svg"><metadata
     id="metadata8"><rdf:RDF><cc:Work
         rdf:about=""><dc:format>image/svg+xml</dc:format><dc:type
           rdf:resource="http://purl.org/dc/dcmitype/StillImage" /><dc:title /></cc:Work></rdf:RDF></metadata><defs
     id="defs6" /><sodipodi:namedview
     pagecolor="#ffffff"
     bordercolor="#666666"
     borderopacity="1"
     objecttolerance="10"
     gridtolerance="10"
     guidetolerance="10"
     inkscape:pageopacity="0"
     inkscape:pageshadow="2"
     inkscape:window-width="1280"
     inkscape:window-height="962"
     id="namedview4"
     showgrid="false"
     inkscape:zoom="24.8125"
     inkscape:cx="16"
     inkscape:cy="16"
     inkscape:window-x="1272"
     inkscape:window-y="-8"
     inkscape:window-maximized="1"
     inkscape:current-layer="Layer_1" /><polygon
     style="fill:#0080c6;fill-rule:evenodd"
     id="polygon816"
     points="6690.4,9290.4 6690.4,9083.5 6542.9,9290.4 "
     transform="matrix(0.07900102,0,0,0.07900102,-512.14083,-717.18637)" /><polygon
     style="fill:#0080c6;fill-rule:evenodd"
     id="polygon818"
     points="6710.2,9290.4 6818.2,9290.4 6710.2,9108.7 "
     transform="matrix(0.07900102,0,0,0.07900102,-512.14083,-717.18637)" /><polygon
     style="fill:#0080c6;fill-rule:evenodd"
     id="polygon820"
     points="6559.1,9362.5 6807.4,9362.5 6841.7,9312.1 6533.8,9312.1 "
     transform="matrix(0.07900102,0,0,0.07900102,-512.14083,-717.18637)" /><polygon
     style="fill:#0080c6;fill-rule:evenodd"
     id="polygon822"
     points="6681.4,9427.3 6699.4,9418.3 6726.4,9405.7 6751.7,9398.5 6764.2,9396.7 6789.4,9396.7 6811,9402.1 6827.3,9407.5 6836.2,9412.8 6843.5,9412.8 6850.6,9409.3 6850.6,9402.1 6848.8,9396.7 6841.7,9393.1 6823.6,9384 6796.7,9378.7 6773.2,9376.9 6749.8,9378.7 6726.4,9385.9 6703,9394.9 6677.9,9407.5 6656.2,9412.8 6634.6,9414.7 6605.8,9412.8 6586,9407.5 6568,9400.3 6548.2,9385.9 6532,9373.3 6526.7,9371.5 6521.2,9373.3 6519.4,9375.1 6515.8,9380.4 6517.6,9387.7 6539.2,9403.9 6551.8,9414.7 6575.2,9425.4 6598.6,9430.9 6623.8,9432.7 6641.8,9434.5 6661.7,9432.7 "
     transform="matrix(0.07900102,0,0,0.07900102,-512.14083,-717.18637)" /><polygon
     style="fill:#0080c6;fill-rule:evenodd"
     id="polygon824"
     points="6681.4,9468.7 6699.4,9461.5 6726.4,9447.1 6749.8,9441.7 6764.2,9438.1 6789.4,9439.9 6811,9443.5 6825.4,9448.9 6836.2,9454.3 6843.5,9456.1 6850.6,9452.5 6850.6,9443.5 6848.8,9439.9 6841.7,9434.5 6823.6,9425.4 6796.7,9420.1 6773.2,9418.3 6749.8,9421.9 6726.4,9427.3 6703,9438.1 6677.9,9448.9 6656.2,9456.1 6634.6,9456.1 6605.8,9454.3 6586,9448.9 6568,9443.5 6548.2,9429 6532,9414.7 6526.7,9412.8 6521.2,9414.7 6519.4,9416.5 6515.8,9421.9 6517.6,9429 6539.2,9445.3 6551.8,9456.1 6575.2,9466.9 6598.6,9472.3 6623.8,9475.9 6641.8,9475.9 6661.7,9474 "
     transform="matrix(0.07900102,0,0,0.07900102,-512.14083,-717.18637)" /></svg>