<?xml version="1.0" encoding="UTF-8" standalone="no"?>
<!-- Generator: Adobe Illustrator 19.2.0, SVG Export Plug-In . SVG Version: 6.00 Build 0)  -->

<svg
   xmlns:dc="http://purl.org/dc/elements/1.1/"
   xmlns:cc="http://creativecommons.org/ns#"
   xmlns:rdf="http://www.w3.org/1999/02/22-rdf-syntax-ns#"
   xmlns:svg="http://www.w3.org/2000/svg"
   xmlns="http://www.w3.org/2000/svg"
   xmlns:sodipodi="http://sodipodi.sourceforge.net/DTD/sodipodi-0.dtd"
   xmlns:inkscape="http://www.inkscape.org/namespaces/inkscape"
   version="1.1"
   id="Layer_1"
   x="0px"
   y="0px"
   viewBox="0 0 32 32"
   enable-background="new 0 0 32 32"
   xml:space="preserve"
   inkscape:version="0.91 r13725"
   sodipodi:docname="icon - Copy (9).svg"><metadata
     id="metadata8"><rdf:RDF><cc:Work
         rdf:about=""><dc:format>image/svg+xml</dc:format><dc:type
           rdf:resource="http://purl.org/dc/dcmitype/StillImage" /><dc:title /></cc:Work></rdf:RDF></metadata><defs
     id="defs6" /><sodipodi:namedview
     pagecolor="#ffffff"
     bordercolor="#666666"
     borderopacity="1"
     objecttolerance="10"
     gridtolerance="10"
     guidetolerance="10"
     inkscape:pageopacity="0"
     inkscape:pageshadow="2"
     inkscape:window-width="1280"
     inkscape:window-height="962"
     id="namedview4"
     showgrid="false"
     inkscape:zoom="24.8125"
     inkscape:cx="16"
     inkscape:cy="16"
     inkscape:window-x="1272"
     inkscape:window-y="-8"
     inkscape:window-maximized="1"
     inkscape:current-layer="Layer_1" /><polygon
     style="fill:#6f6f6e;fill-rule:evenodd"
     id="polygon676"
     points="5338.5,11122.2 5329.5,11111.4 5316.9,11109.6 5304.3,11111.4 5295.3,11122.2 5291.7,11134.8 5295.3,11145.6 5304.3,11156.4 5316.9,11159.9 5329.5,11156.4 5338.5,11145.6 5342.1,11134.8 "
     transform="matrix(0.06942889,0,0,0.06942889,-363.44446,-757.07333)" /><polygon
     style="fill:#6f6f6e;fill-rule:evenodd"
     id="polygon678"
     points="5558.1,10936.8 5536.5,10911.5 5334.9,11091.5 5340.3,11097 5576.1,10963.8 "
     transform="matrix(0.06942889,0,0,0.06942889,-363.44446,-757.07333)" /><polygon
     style="fill:#6f6f6e;fill-rule:evenodd"
     id="polygon680"
     points="5622.9,11061 5613.9,11028.5 5351.1,11111.4 5352.9,11120.4 5628.3,11095.2 "
     transform="matrix(0.06942889,0,0,0.06942889,-363.44446,-757.07333)" /><polygon
     style="fill:#6f6f6e;fill-rule:evenodd"
     id="polygon682"
     points="5579.7,11302.2 5338.5,11168.9 5333.1,11176.2 5541.9,11358 5563.5,11331 "
     transform="matrix(0.06942889,0,0,0.06942889,-363.44446,-757.07333)" /><polygon
     style="fill:#6f6f6e;fill-rule:evenodd"
     id="polygon684"
     points="5628.3,11172.5 5352.9,11149.2 5351.1,11156.4 5613.9,11239.2 5622.9,11206.8 "
     transform="matrix(0.06942889,0,0,0.06942889,-363.44446,-757.07333)" /></svg>