<?xml version="1.0" encoding="UTF-8" standalone="no"?>
<!-- Generator: Adobe Illustrator 19.2.0, SVG Export Plug-In . SVG Version: 6.00 Build 0)  -->

<svg
   xmlns:dc="http://purl.org/dc/elements/1.1/"
   xmlns:cc="http://creativecommons.org/ns#"
   xmlns:rdf="http://www.w3.org/1999/02/22-rdf-syntax-ns#"
   xmlns:svg="http://www.w3.org/2000/svg"
   xmlns="http://www.w3.org/2000/svg"
   xmlns:sodipodi="http://sodipodi.sourceforge.net/DTD/sodipodi-0.dtd"
   xmlns:inkscape="http://www.inkscape.org/namespaces/inkscape"
   version="1.1"
   id="Layer_1"
   x="0px"
   y="0px"
   viewBox="0 0 32 32"
   enable-background="new 0 0 32 32"
   xml:space="preserve"
   inkscape:version="0.91 r13725"
   sodipodi:docname="icon - Copy (16).svg"><metadata
     id="metadata8"><rdf:RDF><cc:Work
         rdf:about=""><dc:format>image/svg+xml</dc:format><dc:type
           rdf:resource="http://purl.org/dc/dcmitype/StillImage" /><dc:title /></cc:Work></rdf:RDF></metadata><defs
     id="defs6" /><sodipodi:namedview
     pagecolor="#ffffff"
     bordercolor="#666666"
     borderopacity="1"
     objecttolerance="10"
     gridtolerance="10"
     guidetolerance="10"
     inkscape:pageopacity="0"
     inkscape:pageshadow="2"
     inkscape:window-width="1280"
     inkscape:window-height="962"
     id="namedview4"
     showgrid="false"
     inkscape:zoom="24.8125"
     inkscape:cx="16"
     inkscape:cy="16"
     inkscape:window-x="1272"
     inkscape:window-y="-8"
     inkscape:window-maximized="1"
     inkscape:current-layer="Layer_1" /><polygon
     transform="matrix(0.07973251,0,0,0.07973251,-173.98662,-97.213063)"
     style="fill:#6f6f6e"
     id="polygon476"
     points="2411.6,1613.3 2372,1613.3 2372,1577.3 2372,1577.3 2411.6,1577.3 " /><path
     style="fill:#6f6f6e"
     inkscape:connector-curvature="0"
     id="path478"
     d="M 16.717598,29.984206" /><polygon
     transform="matrix(0.07973251,0,0,0.07973251,-173.98662,-97.213063)"
     style="fill:#6f6f6e;fill-rule:evenodd"
     id="polygon480"
     points="2370.2,1516.1 2373.8,1514.3 2377.4,1514.3 2368.4,1489.1 2350.4,1442.3 2339.6,1413.5 2334.2,1397.3 2328.8,1373.9 2325.2,1363.1 2323.4,1339.7 2323.4,1319.9 2327,1301.9 2328.8,1291.1 2330.6,1280.3 2337.8,1265.9 2346.8,1244.3 2357.6,1224.5 2357.6,1224.5 2348.6,1226.3 2341.4,1228.1 2319.8,1233.5 2300,1240.7 2283.8,1251.5 2278.4,1265.9 2274.8,1282.1 2274.8,1316.3 2276.6,1337.9 2280.2,1357.7 2285.6,1379.3 2294.6,1400.9 2307.2,1424.3 2319.8,1445.9 2328.8,1458.5 2352.2,1490.9 " /><polygon
     transform="matrix(0.07973251,0,0,0.07973251,-173.98662,-97.213063)"
     style="fill:#6f6f6e;fill-rule:evenodd"
     id="polygon482"
     points="2363,1539.5 2359.4,1543.1 2370.2,1566.5 2370.2,1566.5 2377.4,1562.9 2381,1559.3 2386.4,1557.5 2397.2,1557.5 2400.8,1559.3 2404.4,1561.1 2411.6,1566.5 2420.6,1553.9 2426,1543.1 2420.6,1537.7 2415.2,1534.1 2400.8,1530.5 2391.8,1528.7 2390,1528.7 2375.6,1532.3 2370.2,1534.1 " /><polygon
     transform="matrix(0.07973251,0,0,0.07973251,-173.98662,-97.213063)"
     style="fill:#6f6f6e;fill-rule:evenodd"
     id="polygon484"
     points="2334.2,1490.9 2312.6,1462.1 2282,1420.7 2273,1404.5 2264,1386.5 2256.8,1359.5 2253.2,1332.5 2253.2,1318.1 2255,1309.1 2258.6,1294.7 2262.2,1282.1 2271.2,1258.7 2271.2,1258.7 2267.6,1262.3 2255,1274.9 2244.2,1287.5 2229.8,1309.1 2224.4,1336.1 2222.6,1359.5 2226.2,1379.3 2231.6,1397.3 2247.8,1431.5 2269.4,1460.3 2282,1474.7 2314.4,1499.9 2352.2,1528.7 2354,1525.1 2357.6,1521.5 2359.4,1521.5 " /><polygon
     transform="matrix(0.07973251,0,0,0.07973251,-173.98662,-97.213063)"
     style="fill:#6f6f6e;fill-rule:evenodd"
     id="polygon486"
     points="2465.6,1345.1 2465.6,1314.5 2462,1283.9 2453,1260.5 2442.2,1240.7 2429.6,1229.9 2415.2,1226.3 2395.4,1224.5 2373.8,1224.5 2372,1224.5 2372,1224.5 2364.8,1237.1 2359.4,1255.1 2355.8,1273.1 2350.4,1314.5 2350.4,1345.1 2355.8,1386.5 2370.2,1440.5 2381,1481.9 2390,1512.5 2402.6,1512.5 2409.8,1514.3 2411.6,1514.3 2415.2,1507.1 2433.2,1463.9 2449.4,1415.3 2458.4,1382.9 " /><polygon
     transform="matrix(0.07973251,0,0,0.07973251,-173.98662,-97.213063)"
     style="fill:#6f6f6e;fill-rule:evenodd"
     id="polygon488"
     points="2435,1530.5 2469.2,1498.1 2498,1465.7 2512.4,1447.7 2525,1424.3 2535.8,1395.5 2541.2,1364.9 2543,1341.5 2535.8,1316.3 2525,1292.9 2508.8,1273.1 2485.4,1255.1 2463.8,1240.7 2442.2,1233.5 2442.2,1233.5 2456.6,1246.1 2469.2,1260.5 2478.2,1274.9 2485.4,1285.7 2490.8,1300.1 2494.4,1316.3 2496.2,1336.1 2496.2,1350.5 2490.8,1370.3 2480,1402.7 2465.6,1435.1 2451.2,1463.9 2433.2,1503.5 2424.2,1519.7 2427.8,1523.3 2433.2,1528.7 " /></svg>