<?xml version="1.0" encoding="UTF-8" standalone="no"?>
<!-- Generator: Adobe Illustrator 19.2.0, SVG Export Plug-In . SVG Version: 6.00 Build 0)  -->

<svg
   xmlns:dc="http://purl.org/dc/elements/1.1/"
   xmlns:cc="http://creativecommons.org/ns#"
   xmlns:rdf="http://www.w3.org/1999/02/22-rdf-syntax-ns#"
   xmlns:svg="http://www.w3.org/2000/svg"
   xmlns="http://www.w3.org/2000/svg"
   xmlns:sodipodi="http://sodipodi.sourceforge.net/DTD/sodipodi-0.dtd"
   xmlns:inkscape="http://www.inkscape.org/namespaces/inkscape"
   version="1.1"
   id="Layer_1"
   x="0px"
   y="0px"
   viewBox="0 0 32 32"
   enable-background="new 0 0 32 32"
   xml:space="preserve"
   inkscape:version="0.91 r13725"
   sodipodi:docname="icon - Copy (10).svg"><metadata
     id="metadata8"><rdf:RDF><cc:Work
         rdf:about=""><dc:format>image/svg+xml</dc:format><dc:type
           rdf:resource="http://purl.org/dc/dcmitype/StillImage" /><dc:title /></cc:Work></rdf:RDF></metadata><defs
     id="defs6" /><sodipodi:namedview
     pagecolor="#ffffff"
     bordercolor="#666666"
     borderopacity="1"
     objecttolerance="10"
     gridtolerance="10"
     guidetolerance="10"
     inkscape:pageopacity="0"
     inkscape:pageshadow="2"
     inkscape:window-width="1280"
     inkscape:window-height="962"
     id="namedview4"
     showgrid="false"
     inkscape:zoom="24.8125"
     inkscape:cx="16"
     inkscape:cy="16"
     inkscape:window-x="1272"
     inkscape:window-y="-8"
     inkscape:window-maximized="1"
     inkscape:current-layer="Layer_1" /><polygon
     transform="matrix(0.08162191,0,0,0.08162191,-103.21851,-733.20803)"
     style="fill:#6f6f6e"
     id="polygon156"
     points="1399.2,9362.2 1415.4,9367.6 1435.2,9369.4 1449.7,9369.4 1455.1,9367.6 1460.4,9365.8 1471.2,9367.6 1482,9369.4 1489.2,9369.4 1496.4,9367.6 1507.2,9362.2 1519.8,9351.4 1530.6,9338.7 1546.8,9319 1555.8,9308.2 1568.4,9283 1573.9,9268.6 1577.4,9252.4 1579.2,9236.2 1577.4,9221.8 1573.9,9203.7 1566.6,9189.4 1559.5,9173.2 1550.4,9162.4 1539.7,9148 1525.2,9135.4 1512.7,9130 1496.4,9126.4 1482,9128.2 1471.2,9130 1462.2,9133.6 1451.4,9135.4 1444.2,9137.2 1442.4,9135.4 1435.2,9135.4 1422.7,9131.8 1415.4,9130 1404.7,9130 1390.2,9131.8 1375.8,9139 1356,9157 1339.8,9176.8 1332.7,9187.6 1323.6,9214.6 1320.1,9243.4 1323.6,9265 1329,9281.2 1338,9301 1354.2,9320.8 1365.1,9331.6 1379.5,9349.6 " /><polygon
     transform="matrix(0.08162191,0,0,0.08162191,-103.21851,-733.20803)"
     style="fill:#6f6f6e"
     id="polygon158"
     points="1451.4,9135.4 1455.1,9112 1453.3,9097.6 1442.4,9038.2 1426.2,8989.6 1404.7,8996.8 1411.8,9018.4 1429.8,9088.6 1435.2,9113.7 1435.2,9135.4 1444.2,9137.2 " /><polygon
     transform="matrix(0.08162191,0,0,0.08162191,-103.21851,-733.20803)"
     style="fill:#6f6f6e"
     id="polygon160"
     points="1456.8,9110.1 1451.4,9135.4 1467.7,9130 1485.6,9122.8 1501.8,9115.6 1521.6,9101.2 1537.8,9086.8 1552.2,9074.2 1557.7,9067 1572,9047.2 1588.3,9018.4 1541.4,9031 1532.4,9034.6 1516.2,9043.6 1501.8,9052.6 1489.2,9063.4 1478.4,9076 1469.5,9086.8 1462.2,9097.6 " /></svg>