<?xml version="1.0" encoding="UTF-8" standalone="no"?>
<!-- Generator: Adobe Illustrator 19.2.0, SVG Export Plug-In . SVG Version: 6.00 Build 0)  -->

<svg
   xmlns:dc="http://purl.org/dc/elements/1.1/"
   xmlns:cc="http://creativecommons.org/ns#"
   xmlns:rdf="http://www.w3.org/1999/02/22-rdf-syntax-ns#"
   xmlns:svg="http://www.w3.org/2000/svg"
   xmlns="http://www.w3.org/2000/svg"
   xmlns:sodipodi="http://sodipodi.sourceforge.net/DTD/sodipodi-0.dtd"
   xmlns:inkscape="http://www.inkscape.org/namespaces/inkscape"
   version="1.1"
   id="Layer_1"
   x="0px"
   y="0px"
   viewBox="0 0 32 32"
   enable-background="new 0 0 32 32"
   xml:space="preserve"
   inkscape:version="0.91 r13725"
   sodipodi:docname="icon - Copy (6).svg"><metadata
     id="metadata8"><rdf:RDF><cc:Work
         rdf:about=""><dc:format>image/svg+xml</dc:format><dc:type
           rdf:resource="http://purl.org/dc/dcmitype/StillImage" /><dc:title /></cc:Work></rdf:RDF></metadata><defs
     id="defs6" /><sodipodi:namedview
     pagecolor="#ffffff"
     bordercolor="#666666"
     borderopacity="1"
     objecttolerance="10"
     gridtolerance="10"
     guidetolerance="10"
     inkscape:pageopacity="0"
     inkscape:pageshadow="2"
     inkscape:window-width="1280"
     inkscape:window-height="962"
     id="namedview4"
     showgrid="false"
     inkscape:zoom="24.8125"
     inkscape:cx="16"
     inkscape:cy="16"
     inkscape:window-x="1272"
     inkscape:window-y="-8"
     inkscape:window-maximized="1"
     inkscape:current-layer="Layer_1" /><polygon
     transform="matrix(0.08654383,0,0,0.08654383,-108.77742,-448.51286)"
     style="fill:#6f6f6e;fill-rule:evenodd"
     id="polygon170"
     points="1573,5337.7 1587.4,5337.7 1589.2,5335.9 1589.2,5332.3 1510,5190.1 1506.4,5190.1 1429,5332.3 1429,5335.9 1430.8,5337.7 1443.4,5337.7 1443.4,5339.5 1441.6,5341.3 1423.6,5368.3 1421.8,5373.8 1421.8,5379.1 1423.6,5380.9 1436.2,5380.9 1434.4,5382.7 1418.2,5407.9 1416.4,5413.3 1420,5416.9 1425.4,5418.8 1484.8,5407.9 1484.8,5514.1 1434.4,5514.1 1434.4,5476.3 1463.2,5476.3 1468.6,5472.7 1470.4,5467.3 1470.4,5463.8 1468.6,5458.3 1463.2,5456.5 1375,5456.5 1369.6,5458.3 1366,5460.1 1364.2,5465.6 1364.2,5470.9 1367.8,5474.5 1375,5476.3 1403.8,5476.3 1403.8,5514.1 1333.6,5514.1 1333.6,5499.7 1355.2,5499.7 1358.8,5496.2 1360.6,5494.4 1360.6,5490.7 1358.8,5487.1 1355.2,5485.3 1288.6,5485.3 1285,5487.1 1285,5492.6 1286.8,5496.2 1292.2,5499.7 1313.8,5499.7 1313.8,5514.1 1261.6,5514.1 1261.6,5542.9 1619.8,5542.9 1619.8,5514.1 1535.2,5514.1 1535.2,5407.9 1589.2,5416.9 1596.4,5418.8 1600,5415.1 1600,5411.5 1580.2,5380.9 1592.8,5380.9 1594.6,5375.6 1592.8,5370.1 1573,5341.3 " /></svg>