<?xml version="1.0" encoding="UTF-8" standalone="no"?>
<!-- Generator: Adobe Illustrator 19.2.0, SVG Export Plug-In . SVG Version: 6.00 Build 0)  -->

<svg
   xmlns:dc="http://purl.org/dc/elements/1.1/"
   xmlns:cc="http://creativecommons.org/ns#"
   xmlns:rdf="http://www.w3.org/1999/02/22-rdf-syntax-ns#"
   xmlns:svg="http://www.w3.org/2000/svg"
   xmlns="http://www.w3.org/2000/svg"
   xmlns:sodipodi="http://sodipodi.sourceforge.net/DTD/sodipodi-0.dtd"
   xmlns:inkscape="http://www.inkscape.org/namespaces/inkscape"
   version="1.1"
   id="Layer_1"
   x="0px"
   y="0px"
   viewBox="0 0 32 32"
   enable-background="new 0 0 32 32"
   xml:space="preserve"
   inkscape:version="0.91 r13725"
   sodipodi:docname="bauma4.svg"><metadata
     id="metadata8"><rdf:RDF><cc:Work
         rdf:about=""><dc:format>image/svg+xml</dc:format><dc:type
           rdf:resource="http://purl.org/dc/dcmitype/StillImage" /><dc:title /></cc:Work></rdf:RDF></metadata><defs
     id="defs6" /><sodipodi:namedview
     pagecolor="#ffffff"
     bordercolor="#666666"
     borderopacity="1"
     objecttolerance="10"
     gridtolerance="10"
     guidetolerance="10"
     inkscape:pageopacity="0"
     inkscape:pageshadow="2"
     inkscape:window-width="1210"
     inkscape:window-height="962"
     id="namedview4"
     showgrid="false"
     inkscape:zoom="15.224893"
     inkscape:cx="16"
     inkscape:cy="16"
     inkscape:window-x="1315"
     inkscape:window-y="20"
     inkscape:window-maximized="0"
     inkscape:current-layer="Layer_1" /><path
     style="fill:#040404"
     d="m 17.378906,3.3828125 c -1.217591,-0.019277 -2.94578,0.035731 -3.568359,0.1347656 -0.839252,0.1335013 -2.176308,0.4598454 -2.837891,0.6914063 -0.792829,0.277499 -1.8328508,0.78893 -2.4960935,1.2304687 C 7.8142034,5.8804033 6.9514432,6.6734766 6.5429688,7.2167969 6.2784651,7.5686178 5.8572639,8.343095 5.7246094,8.71875 5.6852844,8.830113 5.6474151,9.99652 5.6269531,11.796875 l -0.033203,2.896484 -2.7324219,0.01563 -2.73437498,0.01563 0,1.373047 0,1.373047 7.57421878,0.01563 c 0.094623,0 0.3385683,0.0014 0.6582031,0.002 l 0,-4.902343 c 0,-0.02205 0.012981,-0.04267 0.015625,-0.06445 -1.734e-4,-0.08635 -0.00195,-0.07533 -0.00195,-0.164062 0,-2.24835 0.00136,-2.295548 0.1386719,-2.6738282 0.3136837,-0.8641881 1.0264121,-1.5596303 2.2246092,-2.171875 3.024895,-1.5456361 6.9549,-1.7801896 9.890625,-0.5917969 1.426848,0.5775935 2.335382,1.367103 2.892578,2.515625 0.467248,0.9631061 0.479588,1.0494441 0.460938,3.2500001 -0.009,1.064208 -0.03126,1.957898 -0.04883,1.986328 -3.3e-5,5.3e-5 -0.01362,-5.3e-5 -0.01367,0 l 0,2.816406 0.111328,0 0.96875,-0.002 6.916015,-0.01563 0,-1.373047 0,-1.373047 -2.572265,-0.01563 -2.572266,-0.01563 -0.01367,-2.478515 -0.01367,-2.480469 -0.166016,-0.5371094 c -0.214697,-0.695137 -0.67654,-1.6292454 -1.050781,-2.125 C 25.12327,6.5395787 24.027003,5.4963161 23.507812,5.1503906 22.162995,4.2543661 20.303968,3.630527 18.367188,3.4277344 18.134975,3.4034205 17.78477,3.3892383 17.378906,3.3828125 Z"
     id="path4144"
     inkscape:connector-curvature="0"
     sodipodi:nodetypes="ssssssccccccccscsssssscccccccccccccssss" /></svg>