<?xml version="1.0" encoding="UTF-8" standalone="no"?>
<!-- Generator: Adobe Illustrator 19.2.0, SVG Export Plug-In . SVG Version: 6.00 Build 0)  -->

<svg
   xmlns:dc="http://purl.org/dc/elements/1.1/"
   xmlns:cc="http://creativecommons.org/ns#"
   xmlns:rdf="http://www.w3.org/1999/02/22-rdf-syntax-ns#"
   xmlns:svg="http://www.w3.org/2000/svg"
   xmlns="http://www.w3.org/2000/svg"
   xmlns:sodipodi="http://sodipodi.sourceforge.net/DTD/sodipodi-0.dtd"
   xmlns:inkscape="http://www.inkscape.org/namespaces/inkscape"
   version="1.1"
   id="Layer_1"
   x="0px"
   y="0px"
   viewBox="0 0 32 32"
   enable-background="new 0 0 32 32"
   xml:space="preserve"
   inkscape:version="0.91 r13725"
   sodipodi:docname="cova4.svg"><metadata
     id="metadata8"><rdf:RDF><cc:Work
         rdf:about=""><dc:format>image/svg+xml</dc:format><dc:type
           rdf:resource="http://purl.org/dc/dcmitype/StillImage" /><dc:title /></cc:Work></rdf:RDF></metadata><defs
     id="defs6" /><sodipodi:namedview
     pagecolor="#ffffff"
     bordercolor="#666666"
     borderopacity="1"
     objecttolerance="10"
     gridtolerance="10"
     guidetolerance="10"
     inkscape:pageopacity="0"
     inkscape:pageshadow="2"
     inkscape:window-width="1280"
     inkscape:window-height="962"
     id="namedview4"
     showgrid="false"
     inkscape:zoom="15.506913"
     inkscape:cx="15.926189"
     inkscape:cy="11.613158"
     inkscape:window-x="1292"
     inkscape:window-y="42"
     inkscape:window-maximized="0"
     inkscape:current-layer="Layer_1" /><path
     style="fill:#040404"
     d="m 15.273772,17.501984 -7.5730034,-0.01516 -7.57300329,-0.01517 0,-1.373363 0,-1.373362 2.73345089,-0.01554 2.7334509,-0.01554 0.032937,-2.897757 c 0.020462,-1.800355 0.056906,-2.965637 0.096231,-3.077 C 5.8564896,8.343437 6.2791688,7.5692113 6.5436724,7.2173904 6.9521468,6.6740701 7.8147635,5.881185 8.4771226,5.4402348 9.1403653,4.9986961 10.179117,4.4857398 10.971946,4.2082408 c 0.661583,-0.2315609 1.998758,-0.5568151 2.83801,-0.6903164 0.830106,-0.1320466 3.627698,-0.1873806 4.556546,-0.090125 1.936781,0.2027926 3.797455,0.8258245 5.142273,1.721849 0.51919,0.3459255 1.614404,1.3903815 2.016525,1.9230684 0.374241,0.4957546 0.835871,1.4292182 1.050568,2.1243552 l 0.16608,0.537729 0.01358,2.479524 0.01358,2.479524 2.572182,0.01557 2.572181,0.01557 0,1.373309 0,1.373309 -6.91578,0.01519 -6.91578,0.01519 -1.152817,0.0091 c -7.5503001,0.0596 -1.26407,-0.398283 -1.655322,-0.0092 -2.3e-5,2.3e-5 0,9.7e-5 0,9.7e-5 z m 8.658411,-2.829944 c 0.01757,-0.02843 0.03932,-0.922399 0.04834,-1.986607 0.01865,-2.200556 0.0065,-2.286264 -0.460748,-3.24937 C 22.962579,8.287541 22.054119,7.497181 20.627271,6.9195875 17.691546,5.7311948 13.76124,5.9667533 10.736345,7.5123893 9.5381478,8.124634 8.8263166,8.819776 8.5126329,9.683964 c -0.1373082,0.37828 -0.1397053,0.424139 -0.1397053,2.672489 0,1.258184 0.017924,2.305531 0.039832,2.327438 0.059867,0.05987 15.4823774,0.04809 15.5194234,-0.01185 z"
     id="path4144"
     inkscape:connector-curvature="0"
     sodipodi:nodetypes="cccccccsssssssssscccccccccssccsssssccc" /></svg>