<?xml version="1.0" encoding="UTF-8" standalone="no"?>
<!-- Generator: Adobe Illustrator 19.2.0, SVG Export Plug-In . SVG Version: 6.00 Build 0)  -->

<svg
   xmlns:dc="http://purl.org/dc/elements/1.1/"
   xmlns:cc="http://creativecommons.org/ns#"
   xmlns:rdf="http://www.w3.org/1999/02/22-rdf-syntax-ns#"
   xmlns:svg="http://www.w3.org/2000/svg"
   xmlns="http://www.w3.org/2000/svg"
   xmlns:sodipodi="http://sodipodi.sourceforge.net/DTD/sodipodi-0.dtd"
   xmlns:inkscape="http://www.inkscape.org/namespaces/inkscape"
   version="1.1"
   id="Layer_1"
   x="0px"
   y="0px"
   viewBox="0 0 32 32"
   enable-background="new 0 0 32 32"
   xml:space="preserve"
   inkscape:version="0.91 r13725"
   sodipodi:docname="palette (2).svg"><metadata
     id="metadata8"><rdf:RDF><cc:Work
         rdf:about=""><dc:format>image/svg+xml</dc:format><dc:type
           rdf:resource="http://purl.org/dc/dcmitype/StillImage" /><dc:title /></cc:Work></rdf:RDF></metadata><defs
     id="defs6" /><sodipodi:namedview
     pagecolor="#ffffff"
     bordercolor="#666666"
     borderopacity="1"
     objecttolerance="10"
     gridtolerance="10"
     guidetolerance="10"
     inkscape:pageopacity="0"
     inkscape:pageshadow="2"
     inkscape:window-width="1280"
     inkscape:window-height="962"
     id="namedview4"
     showgrid="false"
     inkscape:zoom="15.506913"
     inkscape:cx="10.263527"
     inkscape:cy="11.613158"
     inkscape:window-x="1272"
     inkscape:window-y="-8"
     inkscape:window-maximized="1"
     inkscape:current-layer="Layer_1" /><path
     style="fill:#000000"
     d="m 12.948794,30.650413 c -1.111758,-0.1144 -2.138256,-0.28484 -2.686936,-0.44594 -0.6259184,-0.0934 -1.2734974,-0.351099 -1.7973767,-0.511379 -0.30938,0 -2.257516,-0.973158 -3.250155,-1.623557 -2.356756,-1.691017 -3.7835531,-3.810773 -4.59599165,-6.385609 -0.579639,-1.641019 -0.7402387,-5.173253 -0.3245994,-7.13951 0.3847793,-1.820297 0.4448792,-2.048656 0.80475855,-3.057734 0.1293997,-0.36258 0.2009796,-0.527079 0.6059389,-1.390458 0.7985986,-1.7026974 1.8162566,-3.1328349 3.2352346,-4.5465524 0.548719,-0.546699 1.314057,-1.2225379 1.700757,-1.5018774 0.386679,-0.2793395 0.742159,-0.539659 0.789958,-0.578479 0.115,-0.0934 1.3952783,-0.8086385 1.7815373,-0.9952385 1.4080984,-0.680259 3.5128744,-1.202038 4.8385124,-1.199478 0.564899,9.6e-4 2.123316,0.304 2.460156,0.47818 0.139399,0.072 0.301299,0.130999 0.359919,0.130999 0.1854,0 1.241998,0.762739 1.777117,1.282758 0.761539,0.7400588 1.122018,1.2176579 1.374797,1.8214569 0.30618,0.7313187 0.32554,2.0978763 0.0428,3.0225347 -0.285237,0.9328584 -0.575417,1.6240172 -1.368235,3.2588947 -0.601639,1.240678 -0.742779,1.574257 -0.974359,2.302956 -0.316079,0.994658 -0.174999,2.642856 0.30666,3.581594 0.2222,0.433079 0.0768,0.625059 -0.430399,0.567899 -0.906399,-0.1022 -2.116917,0.35692 -2.950875,1.119098 -0.640259,0.585179 -0.931659,1.023858 -1.176098,1.770637 -0.694499,2.121758 -1.274658,2.549438 -3.6299544,2.675957 -0.515519,0.0278 -0.622019,-0.004 -0.481219,-0.145199 0.1784,-0.1784 0.372459,-0.936859 0.372519,-1.455538 1.6e-4,-1.539199 -1.1567183,-2.682897 -2.7138753,-2.682897 -1.988756,0 -3.276454,2.058836 -2.415736,3.862355 0.32506,0.681099 0.586219,0.942258 1.267318,1.267318 0.908579,0.433619 2.046597,0.326279 2.796775,-0.26382 0.3161003,-0.248639 0.4414993,-0.215079 0.5073193,0.1358 0.0692,0.369159 0.39954,0.657299 1.0796784,0.941958 1.071279,0.44832 1.792457,0.611099 4.322833,0.975679 0.2271,0.0326 0.348679,0.139 0.626339,0.547959 0.649219,0.956038 1.470417,1.396777 2.602555,1.396857 0.904079,6e-5 1.553618,-0.251199 2.146977,-0.830498 0.812136,-0.792899 1.104836,-1.889117 0.804696,-3.013715 -0.0928,-0.348119 -0.083,-0.394279 0.1642,-0.761659 0.393779,-0.585419 0.645719,-1.173177 0.660379,-1.540577 0.012,-0.304819 0.0474,-0.346199 0.500099,-0.588581 0.267859,-0.1434 0.630419,-0.370879 0.805718,-0.505539 l 0.3187,-0.24482 0.324039,0.25734 c 0.46142,0.366439 0.739559,0.699301 0.996599,1.1927 0.548859,1.546517 0.970998,3.187334 0.328879,4.597092 -0.323659,0.692259 -1.147018,1.575277 -1.969057,2.111736 -0.589019,0.3844 -2.139096,1.151558 -2.326755,1.151558 -0.539478,0.20984 -1.139236,0.33826 -1.671296,0.486559 -0.402299,0.1366 -1.484397,0.3137 -2.855695,0.46742 -0.787758,0.0884 -2.244776,0.0898 -3.085094,0.002 z M 8.3580813,15.374317 c 0.4675593,-0.20812 0.8926183,-0.634339 1.1658183,-1.168998 0.427839,-0.837299 0.218639,-2.068377 -0.455959,-2.683075 -0.5727993,-0.52196 -0.8911393,-0.643879 -1.6809983,-0.643879 -0.789878,0 -1.108218,0.121999 -1.681017,0.643879 -0.862298,0.785738 -0.899678,2.359495 -0.0776,3.266794 0.712498,0.786358 1.769096,1.012898 2.729775,0.585279 z m 5.7693107,-5.053731 c 1.573097,-0.7662994 1.594857,-2.8588957 0.038,-3.6604543 -1.276718,-0.6573589 -2.882915,0.3712993 -2.895975,1.8546967 -0.006,0.7288588 0.426939,1.4219976 1.114458,1.7824976 0.461919,0.242219 1.271798,0.253019 1.743477,0.0232 z m 0.385679,14.983756 c -0.358479,-0.062 -0.905978,-0.1546 -1.216658,-0.2057 -0.525459,-0.0864 -0.793598,-0.145 -1.694637,-0.370939 -0.873098,-0.21896 -1.217878,-0.34742 -1.405517,-0.523699 -0.1112,-0.1044 -0.2022004,-0.21648 -0.2022004,-0.24886 0,-0.0324 0.3421794,-0.0812 0.7603994,-0.1086 1.485957,-0.097 2.444475,-0.802398 3.038314,-2.235536 0.109,-0.262879 0.1982,-0.532841 0.1984,-0.599921 9.8e-4,-0.247479 0.513299,-1.193438 0.851998,-1.572677 0.36066,-0.403839 0.948399,-0.740579 1.723737,-0.987598 0.55978,-0.1784 0.683439,-0.1778 0.992679,0.004 0.192599,0.1138 0.289639,0.280839 0.428339,0.737499 0.1844,0.606879 0.525879,1.192017 0.884118,1.514677 0.29876,0.269099 1.026379,0.628461 1.384458,0.683761 0.1716,0.0266 0.402999,0.144999 0.514239,0.263439 l 0.20224,0.21528 -0.25016,0.494459 c -0.817178,1.615117 -2.069296,2.561056 -3.846393,2.905855 -0.961878,0.1866 -1.440998,0.1934 -2.363416,0.0336 z m 5.58545,-4.597214 c -0.469659,-0.1266 -1.101138,-0.653619 -1.343857,-1.121618 -0.1414,-0.27262 -0.189,-0.517539 -0.1888,-0.972698 1.8e-4,-1.021219 0.425419,-1.695497 1.819717,-2.885596 0.433599,-0.370119 0.559359,-0.483959 2.035816,-1.843297 0.454059,-0.418039 1.138438,-1.028558 1.520818,-1.356697 0.382379,-0.32814 0.776778,-0.676959 0.876438,-0.775119 0.28378,-0.279519 1.848897,-1.708677 2.425916,-2.2151363 0.286779,-0.2517196 0.658299,-0.580859 0.825578,-0.7314188 1.000919,-0.9008584 1.664378,-1.3019577 2.407516,-1.4554574 0.771639,-0.1593998 1.151038,-0.0312 1.422498,0.4804591 0.184599,0.3478394 0.194999,0.4258593 0.1078,0.8040186 -0.20988,0.9109584 -0.589939,1.5848378 -1.360758,2.4127558 -0.136,0.146 -0.519299,0.585599 -0.851839,0.976779 -0.332539,0.391179 -0.631898,0.723578 -0.665238,0.738678 -0.0334,0.016 -0.27574,0.2803 -0.538619,0.589299 -0.2629,0.30902 -0.53664,0.623799 -0.608339,0.699499 -0.22678,0.2395 -1.343658,1.485738 -2.179637,2.432096 -0.741378,0.839259 -0.928578,1.048198 -1.557237,1.738077 -0.471279,0.517159 -0.760559,0.846519 -1.168798,1.330738 -0.583819,0.692459 -1.168198,1.059118 -1.879957,1.179578 -0.642538,0.1088 -0.599419,0.1098 -1.099038,-0.025 z"
     id="path4158"
     inkscape:connector-curvature="0"
     sodipodi:nodetypes="cccccsssssssccssssssssssccssssssssssscscsscsccsccsccssssssscssscccsssssscssccscccsscccscssssssssssscsssssscc" /></svg>