<?xml version="1.0" encoding="UTF-8" standalone="no"?>
<!-- Generator: Adobe Illustrator 19.2.0, SVG Export Plug-In . SVG Version: 6.00 Build 0)  -->

<svg
   xmlns:dc="http://purl.org/dc/elements/1.1/"
   xmlns:cc="http://creativecommons.org/ns#"
   xmlns:rdf="http://www.w3.org/1999/02/22-rdf-syntax-ns#"
   xmlns:svg="http://www.w3.org/2000/svg"
   xmlns="http://www.w3.org/2000/svg"
   xmlns:sodipodi="http://sodipodi.sourceforge.net/DTD/sodipodi-0.dtd"
   xmlns:inkscape="http://www.inkscape.org/namespaces/inkscape"
   version="1.1"
   id="Layer_1"
   x="0px"
   y="0px"
   viewBox="0 0 32 32"
   enable-background="new 0 0 32 32"
   xml:space="preserve"
   inkscape:version="0.91 r13725"
   sodipodi:docname="avenc6.svg"><metadata
     id="metadata8"><rdf:RDF><cc:Work
         rdf:about=""><dc:format>image/svg+xml</dc:format><dc:type
           rdf:resource="http://purl.org/dc/dcmitype/StillImage" /><dc:title></dc:title></cc:Work></rdf:RDF></metadata><defs
     id="defs6" /><sodipodi:namedview
     pagecolor="#ffffff"
     bordercolor="#666666"
     borderopacity="1"
     objecttolerance="10"
     gridtolerance="10"
     guidetolerance="10"
     inkscape:pageopacity="0"
     inkscape:pageshadow="2"
     inkscape:window-width="1280"
     inkscape:window-height="962"
     id="namedview4"
     showgrid="false"
     inkscape:zoom="23.71875"
     inkscape:cx="16"
     inkscape:cy="16"
     inkscape:window-x="1272"
     inkscape:window-y="-8"
     inkscape:window-maximized="1"
     inkscape:current-layer="Layer_1" /><path
     style="fill:#040404"
     d="M 17.378906 3.3828125 C 16.161315 3.3635355 14.433126 3.4185435 13.810547 3.5175781 C 12.971295 3.6510794 11.634239 3.9774235 10.972656 4.2089844 C 10.179827 4.4864834 9.1398052 4.9979144 8.4765625 5.4394531 C 7.8142034 5.8804033 6.9514431 6.6734766 6.5429688 7.2167969 C 6.2784651 7.5686178 5.8572639 8.343095 5.7246094 8.71875 C 5.6852844 8.830113 5.6474151 9.99652 5.6269531 11.796875 L 5.59375 14.693359 L 2.8613281 14.708984 L 0.12695312 14.724609 L 0.12695312 16.097656 L 0.12695312 17.470703 L 7.7011719 17.486328 L 15.273438 17.501953 L 15.28125 18.117188 C 15.273193 18.176064 15.261719 18.233846 15.261719 18.294922 L 15.261719 20.578125 C 15.250349 20.595411 15.2372 20.61096 15.224609 20.625 L 15.261719 20.666016 L 15.261719 21.439453 L 11.662109 21.439453 L 14.136719 26.699219 L 16.611328 31.957031 L 19.085938 26.699219 L 21.560547 21.439453 L 18.087891 21.439453 L 18.087891 18.294922 C 18.087891 18.255358 18.079591 18.218366 18.076172 18.179688 L 18.082031 17.501953 L 24.998047 17.486328 L 31.914062 17.470703 L 31.914062 16.097656 L 31.914062 14.724609 L 29.341797 14.708984 L 26.769531 14.693359 L 26.755859 12.214844 L 26.742188 9.734375 L 26.576172 9.1972656 C 26.361475 8.5021286 25.899632 7.5680202 25.525391 7.0722656 C 25.123258 6.5395817 24.027004 5.4963161 23.507812 5.1503906 C 22.162995 4.2543661 20.303967 3.630527 18.367188 3.4277344 C 18.134975 3.4034205 17.78477 3.3892383 17.378906 3.3828125 z M 16.201172 6.171875 C 16.470484 6.1657563 16.739104 6.1670748 17.005859 6.1777344 C 18.286287 6.2289004 19.526056 6.4742746 20.626953 6.9199219 C 22.053801 7.4975154 22.962335 8.2870249 23.519531 9.4355469 C 23.986779 10.398653 23.999119 10.484991 23.980469 12.685547 C 23.971469 13.749755 23.949211 14.643445 23.931641 14.671875 C 23.894591 14.731815 8.4719764 14.743464 8.4121094 14.683594 C 8.3902014 14.661684 8.3730469 13.615606 8.3730469 12.357422 C 8.3730469 10.109072 8.3744069 10.061874 8.5117188 9.6835938 C 8.8254025 8.8194057 9.538131 8.1239634 10.736328 7.5117188 C 12.390568 6.666449 14.315988 6.2147062 16.201172 6.171875 z "
     id="path4144" /></svg>